<svg xmlns="http://www.w3.org/2000/svg" width="980" height="620" viewBox="0 0 980 620">
<style>text{font-family:Arial,sans-serif;fill:#1f2933}.axis{stroke:#9aa5b1;stroke-width:1}.grid{stroke:#e4e7eb;stroke-width:1}.label{font-size:12px}.title{font-size:22px;font-weight:700}.legend{font-size:13px}</style>
<rect width="980" height="620" fill="#ffffff"/>
<text x="76" y="34" class="title">acc by task</text>
<line x1="76" y1="450.0" x2="952" y2="450.0" class="grid"/>
<text x="66" y="454.0" text-anchor="end" class="label">0.0</text>
<line x1="76" y1="374.4" x2="952" y2="374.4" class="grid"/>
<text x="66" y="378.4" text-anchor="end" class="label">0.2</text>
<line x1="76" y1="298.8" x2="952" y2="298.8" class="grid"/>
<text x="66" y="302.8" text-anchor="end" class="label">0.4</text>
<line x1="76" y1="223.2" x2="952" y2="223.2" class="grid"/>
<text x="66" y="227.2" text-anchor="end" class="label">0.6</text>
<line x1="76" y1="147.6" x2="952" y2="147.6" class="grid"/>
<text x="66" y="151.6" text-anchor="end" class="label">0.8</text>
<line x1="76" y1="72.0" x2="952" y2="72.0" class="grid"/>
<text x="66" y="76.0" text-anchor="end" class="label">1.0</text>
<line x1="76" y1="72" x2="76" y2="450" class="axis"/>
<line x1="76" y1="450" x2="952" y2="450" class="axis"/>
<rect x="141.6" y="231.0" width="20.0" height="219.0" fill="#2f6f9f"><title>10k_gpu1 | zhoblimp: 0.579</title></rect>
<rect x="163.6" y="255.9" width="20.0" height="194.1" fill="#c44e52"><title>10k_initials_gpu1 | zhoblimp: 0.514</title></rect>
<text x="163.6" y="466" transform="rotate(62 163.6 466)" class="label">zhoblimp</text>
<rect x="316.8" y="257.4" width="20.0" height="192.6" fill="#2f6f9f"><title>10k_gpu1 | xcomps_zh: 0.510</title></rect>
<rect x="338.8" y="243.3" width="20.0" height="206.7" fill="#c44e52"><title>10k_initials_gpu1 | xcomps_zh: 0.547</title></rect>
<text x="338.8" y="466" transform="rotate(62 338.8 466)" class="label">xcomps_zh</text>
<rect x="492.0" y="264.9" width="20.0" height="185.1" fill="#2f6f9f"><title>10k_gpu1 | winogrande_zh_mubench: 0.490</title></rect>
<rect x="514.0" y="254.9" width="20.0" height="195.1" fill="#c44e52"><title>10k_initials_gpu1 | winogrande_zh_mubench: 0.516</title></rect>
<text x="514.0" y="466" transform="rotate(62 514.0 466)" class="label">winogrande_zh_mubench</text>
<rect x="667.2" y="269.2" width="20.0" height="180.8" fill="#2f6f9f"><title>10k_gpu1 | xstorycloze_zh_mubench: 0.478</title></rect>
<rect x="689.2" y="277.7" width="20.0" height="172.3" fill="#c44e52"><title>10k_initials_gpu1 | xstorycloze_zh_mubench: 0.456</title></rect>
<text x="689.2" y="466" transform="rotate(62 689.2 466)" class="label">xstorycloze_zh_mubench</text>
<rect x="842.4" y="351.1" width="20.0" height="98.9" fill="#2f6f9f"><title>10k_gpu1 | hellaswag_zh_mubench: 0.262</title></rect>
<rect x="864.4" y="352.8" width="20.0" height="97.2" fill="#c44e52"><title>10k_initials_gpu1 | hellaswag_zh_mubench: 0.257</title></rect>
<text x="864.4" y="466" transform="rotate(62 864.4 466)" class="label">hellaswag_zh_mubench</text>
<rect x="76" y="580" width="14" height="14" fill="#2f6f9f"/>
<text x="96" y="592" class="legend">10k_gpu1</text>
<rect x="286" y="580" width="14" height="14" fill="#c44e52"/>
<text x="306" y="592" class="legend">10k_initials_gpu1</text>
</svg>
