<svg xmlns="http://www.w3.org/2000/svg" width="980" height="620" viewBox="0 0 980 620">
<style>text{font-family:Arial,sans-serif;fill:#1f2933}.axis{stroke:#9aa5b1;stroke-width:1}.grid{stroke:#e4e7eb;stroke-width:1}.label{font-size:12px}.title{font-size:22px;font-weight:700}.legend{font-size:13px}</style>
<rect width="980" height="620" fill="#ffffff"/>
<text x="76" y="34" class="title">acc by task</text>
<line x1="76" y1="450.0" x2="952" y2="450.0" class="grid"/>
<text x="66" y="454.0" text-anchor="end" class="label">0.0</text>
<line x1="76" y1="374.4" x2="952" y2="374.4" class="grid"/>
<text x="66" y="378.4" text-anchor="end" class="label">0.2</text>
<line x1="76" y1="298.8" x2="952" y2="298.8" class="grid"/>
<text x="66" y="302.8" text-anchor="end" class="label">0.4</text>
<line x1="76" y1="223.2" x2="952" y2="223.2" class="grid"/>
<text x="66" y="227.2" text-anchor="end" class="label">0.6</text>
<line x1="76" y1="147.6" x2="952" y2="147.6" class="grid"/>
<text x="66" y="151.6" text-anchor="end" class="label">0.8</text>
<line x1="76" y1="72.0" x2="952" y2="72.0" class="grid"/>
<text x="66" y="76.0" text-anchor="end" class="label">1.0</text>
<line x1="76" y1="72" x2="76" y2="450" class="axis"/>
<line x1="76" y1="450" x2="952" y2="450" class="axis"/>
<rect x="97.9" y="220.0" width="19.9" height="230.0" fill="#2f6f9f"><title>10k_chinese_gpu1 | zhoblimp: 0.608</title></rect>
<rect x="119.8" y="213.9" width="19.9" height="236.1" fill="#c44e52"><title>10k_chinese_whitespace_false_gpu1 | zhoblimp: 0.625</title></rect>
<rect x="141.7" y="231.0" width="19.9" height="219.0" fill="#55a868"><title>10k_gpu1 | zhoblimp: 0.579</title></rect>
<rect x="163.6" y="250.8" width="19.9" height="199.2" fill="#8172b3"><title>10k_hanzi_gpu1 | zhoblimp: 0.527</title></rect>
<rect x="185.5" y="255.9" width="19.9" height="194.1" fill="#ccb974"><title>10k_initials_gpu1 | zhoblimp: 0.514</title></rect>
<rect x="207.4" y="236.9" width="19.9" height="213.1" fill="#64b5cd"><title>10k_whitespace_false_gpu1 | zhoblimp: 0.564</title></rect>
<text x="163.6" y="466" transform="rotate(62 163.6 466)" class="label">zhoblimp</text>
<rect x="273.1" y="254.6" width="19.9" height="195.4" fill="#2f6f9f"><title>10k_chinese_gpu1 | xcomps_zh: 0.517</title></rect>
<rect x="295.0" y="255.5" width="19.9" height="194.5" fill="#c44e52"><title>10k_chinese_whitespace_false_gpu1 | xcomps_zh: 0.514</title></rect>
<rect x="316.9" y="257.4" width="19.9" height="192.6" fill="#55a868"><title>10k_gpu1 | xcomps_zh: 0.510</title></rect>
<rect x="338.8" y="245.4" width="19.9" height="204.6" fill="#8172b3"><title>10k_hanzi_gpu1 | xcomps_zh: 0.541</title></rect>
<rect x="360.7" y="243.3" width="19.9" height="206.7" fill="#ccb974"><title>10k_initials_gpu1 | xcomps_zh: 0.547</title></rect>
<rect x="382.6" y="258.7" width="19.9" height="191.3" fill="#64b5cd"><title>10k_whitespace_false_gpu1 | xcomps_zh: 0.506</title></rect>
<text x="338.8" y="466" transform="rotate(62 338.8 466)" class="label">xcomps_zh</text>
<rect x="448.3" y="264.9" width="19.9" height="185.1" fill="#2f6f9f"><title>10k_chinese_gpu1 | winogrande_zh_mubench: 0.490</title></rect>
<rect x="470.2" y="263.0" width="19.9" height="187.0" fill="#c44e52"><title>10k_chinese_whitespace_false_gpu1 | winogrande_zh_mubench: 0.495</title></rect>
<rect x="492.1" y="264.9" width="19.9" height="185.1" fill="#55a868"><title>10k_gpu1 | winogrande_zh_mubench: 0.490</title></rect>
<rect x="514.0" y="254.6" width="19.9" height="195.4" fill="#8172b3"><title>10k_hanzi_gpu1 | winogrande_zh_mubench: 0.517</title></rect>
<rect x="535.9" y="254.9" width="19.9" height="195.1" fill="#ccb974"><title>10k_initials_gpu1 | winogrande_zh_mubench: 0.516</title></rect>
<rect x="557.8" y="256.2" width="19.9" height="193.8" fill="#64b5cd"><title>10k_whitespace_false_gpu1 | winogrande_zh_mubench: 0.513</title></rect>
<text x="514.0" y="466" transform="rotate(62 514.0 466)" class="label">winogrande_zh_mubench</text>
<rect x="623.5" y="266.9" width="19.9" height="183.1" fill="#2f6f9f"><title>10k_chinese_gpu1 | xstorycloze_zh_mubench: 0.485</title></rect>
<rect x="645.4" y="272.4" width="19.9" height="177.6" fill="#c44e52"><title>10k_chinese_whitespace_false_gpu1 | xstorycloze_zh_mubench: 0.470</title></rect>
<rect x="667.3" y="269.2" width="19.9" height="180.8" fill="#55a868"><title>10k_gpu1 | xstorycloze_zh_mubench: 0.478</title></rect>
<rect x="689.2" y="275.3" width="19.9" height="174.7" fill="#8172b3"><title>10k_hanzi_gpu1 | xstorycloze_zh_mubench: 0.462</title></rect>
<rect x="711.1" y="277.7" width="19.9" height="172.3" fill="#ccb974"><title>10k_initials_gpu1 | xstorycloze_zh_mubench: 0.456</title></rect>
<rect x="733.0" y="274.2" width="19.9" height="175.8" fill="#64b5cd"><title>10k_whitespace_false_gpu1 | xstorycloze_zh_mubench: 0.465</title></rect>
<text x="689.2" y="466" transform="rotate(62 689.2 466)" class="label">xstorycloze_zh_mubench</text>
<rect x="798.7" y="350.1" width="19.9" height="99.9" fill="#2f6f9f"><title>10k_chinese_gpu1 | hellaswag_zh_mubench: 0.264</title></rect>
<rect x="820.6" y="350.0" width="19.9" height="100.0" fill="#c44e52"><title>10k_chinese_whitespace_false_gpu1 | hellaswag_zh_mubench: 0.264</title></rect>
<rect x="842.5" y="351.1" width="19.9" height="98.9" fill="#55a868"><title>10k_gpu1 | hellaswag_zh_mubench: 0.262</title></rect>
<rect x="864.4" y="350.1" width="19.9" height="99.9" fill="#8172b3"><title>10k_hanzi_gpu1 | hellaswag_zh_mubench: 0.264</title></rect>
<rect x="886.3" y="352.8" width="19.9" height="97.2" fill="#ccb974"><title>10k_initials_gpu1 | hellaswag_zh_mubench: 0.257</title></rect>
<rect x="908.2" y="350.9" width="19.9" height="99.1" fill="#64b5cd"><title>10k_whitespace_false_gpu1 | hellaswag_zh_mubench: 0.262</title></rect>
<text x="864.4" y="466" transform="rotate(62 864.4 466)" class="label">hellaswag_zh_mubench</text>
<rect x="76" y="580" width="14" height="14" fill="#2f6f9f"/>
<text x="96" y="592" class="legend">10k_chinese_gpu1</text>
<rect x="286" y="580" width="14" height="14" fill="#c44e52"/>
<text x="306" y="592" class="legend">10k_chinese_whitespace_false_gpu1</text>
<rect x="496" y="580" width="14" height="14" fill="#55a868"/>
<text x="516" y="592" class="legend">10k_gpu1</text>
<rect x="706" y="580" width="14" height="14" fill="#8172b3"/>
<text x="726" y="592" class="legend">10k_hanzi_gpu1</text>
<rect x="916" y="580" width="14" height="14" fill="#ccb974"/>
<text x="936" y="592" class="legend">10k_initials_gpu1</text>
<rect x="1126" y="580" width="14" height="14" fill="#64b5cd"/>
<text x="1146" y="592" class="legend">10k_whitespace_false_gpu1</text>
</svg>
