<svg xmlns="http://www.w3.org/2000/svg" width="4740" height="620" viewBox="0 0 4740 620">
<style>text{font-family:Arial,sans-serif;fill:#1f2933}.axis{stroke:#9aa5b1;stroke-width:1}.grid{stroke:#e4e7eb;stroke-width:1}.label{font-size:12px}.title{font-size:22px;font-weight:700}.legend{font-size:13px}</style>
<rect width="4740" height="620" fill="#ffffff"/>
<text x="76" y="34" class="title">acc by zhoblimp subtask (2/4)</text>
<line x1="76" y1="450.0" x2="4712" y2="450.0" class="grid"/>
<text x="66" y="454.0" text-anchor="end" class="label">0.0</text>
<line x1="76" y1="374.4" x2="4712" y2="374.4" class="grid"/>
<text x="66" y="378.4" text-anchor="end" class="label">0.2</text>
<line x1="76" y1="298.8" x2="4712" y2="298.8" class="grid"/>
<text x="66" y="302.8" text-anchor="end" class="label">0.4</text>
<line x1="76" y1="223.2" x2="4712" y2="223.2" class="grid"/>
<text x="66" y="227.2" text-anchor="end" class="label">0.6</text>
<line x1="76" y1="147.6" x2="4712" y2="147.6" class="grid"/>
<text x="66" y="151.6" text-anchor="end" class="label">0.8</text>
<line x1="76" y1="72.0" x2="4712" y2="72.0" class="grid"/>
<text x="66" y="76.0" text-anchor="end" class="label">1.0</text>
<line x1="76" y1="72" x2="76" y2="450" class="axis"/>
<line x1="76" y1="450" x2="4712" y2="450" class="axis"/>
<rect x="92.6" y="89.6" width="14.6" height="360.4" fill="#2f6f9f"><title>10k_chinese_gpu1 | zhoblimp_topicalization_SOV: 0.953</title></rect>
<rect x="109.1" y="172.8" width="14.6" height="277.2" fill="#c44e52"><title>10k_chinese_whitespace_false_gpu1 | zhoblimp_topicalization_SOV: 0.733</title></rect>
<rect x="125.7" y="141.3" width="14.6" height="308.7" fill="#55a868"><title>10k_gpu1 | zhoblimp_topicalization_SOV: 0.817</title></rect>
<rect x="142.2" y="378.2" width="14.6" height="71.8" fill="#8172b3"><title>10k_hanzi_gpu1 | zhoblimp_topicalization_SOV: 0.190</title></rect>
<rect x="158.8" y="209.3" width="14.6" height="240.7" fill="#ccb974"><title>10k_initials_gpu1 | zhoblimp_topicalization_SOV: 0.637</title></rect>
<rect x="175.3" y="142.6" width="14.6" height="307.4" fill="#64b5cd"><title>10k_whitespace_false_gpu1 | zhoblimp_topicalization_SOV: 0.813</title></rect>
<text x="142.2" y="466" transform="rotate(62 142.2 466)" class="label">zhoblimp_topicalization_SOV</text>
<rect x="225.0" y="130.0" width="14.6" height="320.0" fill="#2f6f9f"><title>10k_chinese_gpu1 | zhoblimp_you_quantifier_adj: 0.847</title></rect>
<rect x="241.6" y="138.8" width="14.6" height="311.2" fill="#c44e52"><title>10k_chinese_whitespace_false_gpu1 | zhoblimp_you_quantifier_adj: 0.823</title></rect>
<rect x="258.1" y="124.9" width="14.6" height="325.1" fill="#55a868"><title>10k_gpu1 | zhoblimp_you_quantifier_adj: 0.860</title></rect>
<rect x="274.7" y="254.7" width="14.6" height="195.3" fill="#8172b3"><title>10k_hanzi_gpu1 | zhoblimp_you_quantifier_adj: 0.517</title></rect>
<rect x="291.2" y="279.9" width="14.6" height="170.1" fill="#ccb974"><title>10k_initials_gpu1 | zhoblimp_you_quantifier_adj: 0.450</title></rect>
<rect x="307.8" y="223.2" width="14.6" height="226.8" fill="#64b5cd"><title>10k_whitespace_false_gpu1 | zhoblimp_you_quantifier_adj: 0.600</title></rect>
<text x="274.7" y="466" transform="rotate(62 274.7 466)" class="label">zhoblimp_you_quantifier_adj</text>
<rect x="357.5" y="109.8" width="14.6" height="340.2" fill="#2f6f9f"><title>10k_chinese_gpu1 | zhoblimp_existential_there_subject_raising: 0.900</title></rect>
<rect x="374.0" y="166.5" width="14.6" height="283.5" fill="#c44e52"><title>10k_chinese_whitespace_false_gpu1 | zhoblimp_existential_there_subject_raising: 0.750</title></rect>
<rect x="390.6" y="186.7" width="14.6" height="263.3" fill="#55a868"><title>10k_gpu1 | zhoblimp_existential_there_subject_raising: 0.697</title></rect>
<rect x="407.1" y="145.1" width="14.6" height="304.9" fill="#8172b3"><title>10k_hanzi_gpu1 | zhoblimp_existential_there_subject_raising: 0.807</title></rect>
<rect x="423.7" y="398.3" width="14.6" height="51.7" fill="#ccb974"><title>10k_initials_gpu1 | zhoblimp_existential_there_subject_raising: 0.137</title></rect>
<rect x="440.3" y="185.4" width="14.6" height="264.6" fill="#64b5cd"><title>10k_whitespace_false_gpu1 | zhoblimp_existential_there_subject_raising: 0.700</title></rect>
<text x="407.1" y="466" transform="rotate(62 407.1 466)" class="label">zhoblimp_existential_there_subjec...</text>
<rect x="489.9" y="171.5" width="14.6" height="278.5" fill="#2f6f9f"><title>10k_chinese_gpu1 | zhoblimp_passive_body_part: 0.737</title></rect>
<rect x="506.5" y="147.6" width="14.6" height="302.4" fill="#c44e52"><title>10k_chinese_whitespace_false_gpu1 | zhoblimp_passive_body_part: 0.800</title></rect>
<rect x="523.0" y="182.9" width="14.6" height="267.1" fill="#55a868"><title>10k_gpu1 | zhoblimp_passive_body_part: 0.707</title></rect>
<rect x="539.6" y="199.3" width="14.6" height="250.7" fill="#8172b3"><title>10k_hanzi_gpu1 | zhoblimp_passive_body_part: 0.663</title></rect>
<rect x="556.2" y="223.2" width="14.6" height="226.8" fill="#ccb974"><title>10k_initials_gpu1 | zhoblimp_passive_body_part: 0.600</title></rect>
<rect x="572.7" y="272.3" width="14.6" height="177.7" fill="#64b5cd"><title>10k_whitespace_false_gpu1 | zhoblimp_passive_body_part: 0.470</title></rect>
<text x="539.6" y="466" transform="rotate(62 539.6 466)" class="label">zhoblimp_passive_body_part</text>
<rect x="622.4" y="88.4" width="14.6" height="361.6" fill="#2f6f9f"><title>10k_chinese_gpu1 | zhoblimp_npi_renhe_wh_question_subj: 0.957</title></rect>
<rect x="638.9" y="254.7" width="14.6" height="195.3" fill="#c44e52"><title>10k_chinese_whitespace_false_gpu1 | zhoblimp_npi_renhe_wh_question_subj: 0.517</title></rect>
<rect x="655.5" y="256.0" width="14.6" height="194.0" fill="#55a868"><title>10k_gpu1 | zhoblimp_npi_renhe_wh_question_subj: 0.513</title></rect>
<rect x="672.1" y="140.0" width="14.6" height="310.0" fill="#8172b3"><title>10k_hanzi_gpu1 | zhoblimp_npi_renhe_wh_question_subj: 0.820</title></rect>
<rect x="688.6" y="256.0" width="14.6" height="194.0" fill="#ccb974"><title>10k_initials_gpu1 | zhoblimp_npi_renhe_wh_question_subj: 0.513</title></rect>
<rect x="705.2" y="218.2" width="14.6" height="231.8" fill="#64b5cd"><title>10k_whitespace_false_gpu1 | zhoblimp_npi_renhe_wh_question_subj: 0.613</title></rect>
<text x="672.1" y="466" transform="rotate(62 672.1 466)" class="label">zhoblimp_npi_renhe_wh_question_su...</text>
<rect x="754.8" y="147.6" width="14.6" height="302.4" fill="#2f6f9f"><title>10k_chinese_gpu1 | zhoblimp_topicalization_SOV_mei: 0.800</title></rect>
<rect x="771.4" y="176.6" width="14.6" height="273.4" fill="#c44e52"><title>10k_chinese_whitespace_false_gpu1 | zhoblimp_topicalization_SOV_mei: 0.723</title></rect>
<rect x="788.0" y="153.9" width="14.6" height="296.1" fill="#55a868"><title>10k_gpu1 | zhoblimp_topicalization_SOV_mei: 0.783</title></rect>
<rect x="804.5" y="288.7" width="14.6" height="161.3" fill="#8172b3"><title>10k_hanzi_gpu1 | zhoblimp_topicalization_SOV_mei: 0.427</title></rect>
<rect x="821.1" y="313.9" width="14.6" height="136.1" fill="#ccb974"><title>10k_initials_gpu1 | zhoblimp_topicalization_SOV_mei: 0.360</title></rect>
<rect x="837.6" y="145.1" width="14.6" height="304.9" fill="#64b5cd"><title>10k_whitespace_false_gpu1 | zhoblimp_topicalization_SOV_mei: 0.807</title></rect>
<text x="804.5" y="466" transform="rotate(62 804.5 466)" class="label">zhoblimp_topicalization_SOV_mei</text>
<rect x="887.3" y="89.6" width="14.6" height="360.4" fill="#2f6f9f"><title>10k_chinese_gpu1 | zhoblimp_ya_insertion: 0.953</title></rect>
<rect x="903.9" y="104.8" width="14.6" height="345.2" fill="#c44e52"><title>10k_chinese_whitespace_false_gpu1 | zhoblimp_ya_insertion: 0.913</title></rect>
<rect x="920.4" y="123.7" width="14.6" height="326.3" fill="#55a868"><title>10k_gpu1 | zhoblimp_ya_insertion: 0.863</title></rect>
<rect x="937.0" y="295.0" width="14.6" height="155.0" fill="#8172b3"><title>10k_hanzi_gpu1 | zhoblimp_ya_insertion: 0.410</title></rect>
<rect x="953.5" y="389.5" width="14.6" height="60.5" fill="#ccb974"><title>10k_initials_gpu1 | zhoblimp_ya_insertion: 0.160</title></rect>
<rect x="970.1" y="224.5" width="14.6" height="225.5" fill="#64b5cd"><title>10k_whitespace_false_gpu1 | zhoblimp_ya_insertion: 0.597</title></rect>
<text x="937.0" y="466" transform="rotate(62 937.0 466)" class="label">zhoblimp_ya_insertion</text>
<rect x="1019.8" y="72.0" width="14.6" height="378.0" fill="#2f6f9f"><title>10k_chinese_gpu1 | zhoblimp_question_nandao_raising_1_b: 1.000</title></rect>
<rect x="1036.3" y="264.8" width="14.6" height="185.2" fill="#c44e52"><title>10k_chinese_whitespace_false_gpu1 | zhoblimp_question_nandao_raising_1_b: 0.490</title></rect>
<rect x="1052.9" y="72.0" width="14.6" height="378.0" fill="#55a868"><title>10k_gpu1 | zhoblimp_question_nandao_raising_1_b: 1.000</title></rect>
<rect x="1069.4" y="450.0" width="14.6" height="0.0" fill="#8172b3"><title>10k_hanzi_gpu1 | zhoblimp_question_nandao_raising_1_b: 0.000</title></rect>
<rect x="1086.0" y="138.8" width="14.6" height="311.2" fill="#ccb974"><title>10k_initials_gpu1 | zhoblimp_question_nandao_raising_1_b: 0.823</title></rect>
<rect x="1102.5" y="245.9" width="14.6" height="204.1" fill="#64b5cd"><title>10k_whitespace_false_gpu1 | zhoblimp_question_nandao_raising_1_b: 0.540</title></rect>
<text x="1069.4" y="466" transform="rotate(62 1069.4 466)" class="label">zhoblimp_question_nandao_raising_...</text>
<rect x="1152.2" y="196.7" width="14.6" height="253.3" fill="#2f6f9f"><title>10k_chinese_gpu1 | zhoblimp_npi_renhe_neg_scope_subj: 0.670</title></rect>
<rect x="1168.8" y="79.6" width="14.6" height="370.4" fill="#c44e52"><title>10k_chinese_whitespace_false_gpu1 | zhoblimp_npi_renhe_neg_scope_subj: 0.980</title></rect>
<rect x="1185.3" y="303.8" width="14.6" height="146.2" fill="#55a868"><title>10k_gpu1 | zhoblimp_npi_renhe_neg_scope_subj: 0.387</title></rect>
<rect x="1201.9" y="73.3" width="14.6" height="376.7" fill="#8172b3"><title>10k_hanzi_gpu1 | zhoblimp_npi_renhe_neg_scope_subj: 0.997</title></rect>
<rect x="1218.4" y="450.0" width="14.6" height="0.0" fill="#ccb974"><title>10k_initials_gpu1 | zhoblimp_npi_renhe_neg_scope_subj: 0.000</title></rect>
<rect x="1235.0" y="158.9" width="14.6" height="291.1" fill="#64b5cd"><title>10k_whitespace_false_gpu1 | zhoblimp_npi_renhe_neg_scope_subj: 0.770</title></rect>
<text x="1201.9" y="466" transform="rotate(62 1201.9 466)" class="label">zhoblimp_npi_renhe_neg_scope_subj</text>
<rect x="1284.7" y="72.0" width="14.6" height="378.0" fill="#2f6f9f"><title>10k_chinese_gpu1 | zhoblimp_fci_renhe_prepP: 1.000</title></rect>
<rect x="1301.2" y="72.0" width="14.6" height="378.0" fill="#c44e52"><title>10k_chinese_whitespace_false_gpu1 | zhoblimp_fci_renhe_prepP: 1.000</title></rect>
<rect x="1317.8" y="72.0" width="14.6" height="378.0" fill="#55a868"><title>10k_gpu1 | zhoblimp_fci_renhe_prepP: 1.000</title></rect>
<rect x="1334.3" y="450.0" width="14.6" height="0.0" fill="#8172b3"><title>10k_hanzi_gpu1 | zhoblimp_fci_renhe_prepP: 0.000</title></rect>
<rect x="1350.9" y="450.0" width="14.6" height="0.0" fill="#ccb974"><title>10k_initials_gpu1 | zhoblimp_fci_renhe_prepP: 0.000</title></rect>
<rect x="1367.5" y="153.9" width="14.6" height="296.1" fill="#64b5cd"><title>10k_whitespace_false_gpu1 | zhoblimp_fci_renhe_prepP: 0.783</title></rect>
<text x="1334.3" y="466" transform="rotate(62 1334.3 466)" class="label">zhoblimp_fci_renhe_prepP</text>
<rect x="1417.1" y="79.6" width="14.6" height="370.4" fill="#2f6f9f"><title>10k_chinese_gpu1 | zhoblimp_question_nandao_raising_3: 0.980</title></rect>
<rect x="1433.7" y="177.8" width="14.6" height="272.2" fill="#c44e52"><title>10k_chinese_whitespace_false_gpu1 | zhoblimp_question_nandao_raising_3: 0.720</title></rect>
<rect x="1450.2" y="180.4" width="14.6" height="269.6" fill="#55a868"><title>10k_gpu1 | zhoblimp_question_nandao_raising_3: 0.713</title></rect>
<rect x="1466.8" y="258.5" width="14.6" height="191.5" fill="#8172b3"><title>10k_hanzi_gpu1 | zhoblimp_question_nandao_raising_3: 0.507</title></rect>
<rect x="1483.4" y="341.6" width="14.6" height="108.4" fill="#ccb974"><title>10k_initials_gpu1 | zhoblimp_question_nandao_raising_3: 0.287</title></rect>
<rect x="1499.9" y="233.3" width="14.6" height="216.7" fill="#64b5cd"><title>10k_whitespace_false_gpu1 | zhoblimp_question_nandao_raising_3: 0.573</title></rect>
<text x="1466.8" y="466" transform="rotate(62 1466.8 466)" class="label">zhoblimp_question_nandao_raising_3</text>
<rect x="1549.6" y="135.0" width="14.6" height="315.0" fill="#2f6f9f"><title>10k_chinese_gpu1 | zhoblimp_passive_no_adj: 0.833</title></rect>
<rect x="1566.1" y="150.1" width="14.6" height="299.9" fill="#c44e52"><title>10k_chinese_whitespace_false_gpu1 | zhoblimp_passive_no_adj: 0.793</title></rect>
<rect x="1582.7" y="140.0" width="14.6" height="310.0" fill="#55a868"><title>10k_gpu1 | zhoblimp_passive_no_adj: 0.820</title></rect>
<rect x="1599.3" y="315.2" width="14.6" height="134.8" fill="#8172b3"><title>10k_hanzi_gpu1 | zhoblimp_passive_no_adj: 0.357</title></rect>
<rect x="1615.8" y="331.6" width="14.6" height="118.4" fill="#ccb974"><title>10k_initials_gpu1 | zhoblimp_passive_no_adj: 0.313</title></rect>
<rect x="1632.4" y="200.5" width="14.6" height="249.5" fill="#64b5cd"><title>10k_whitespace_false_gpu1 | zhoblimp_passive_no_adj: 0.660</title></rect>
<text x="1599.3" y="466" transform="rotate(62 1599.3 466)" class="label">zhoblimp_passive_no_adj</text>
<rect x="1682.0" y="172.8" width="14.6" height="277.2" fill="#2f6f9f"><title>10k_chinese_gpu1 | zhoblimp_left_adverbial_d: 0.733</title></rect>
<rect x="1698.6" y="172.8" width="14.6" height="277.2" fill="#c44e52"><title>10k_chinese_whitespace_false_gpu1 | zhoblimp_left_adverbial_d: 0.733</title></rect>
<rect x="1715.2" y="184.1" width="14.6" height="265.9" fill="#55a868"><title>10k_gpu1 | zhoblimp_left_adverbial_d: 0.703</title></rect>
<rect x="1731.7" y="257.2" width="14.6" height="192.8" fill="#8172b3"><title>10k_hanzi_gpu1 | zhoblimp_left_adverbial_d: 0.510</title></rect>
<rect x="1748.3" y="274.9" width="14.6" height="175.1" fill="#ccb974"><title>10k_initials_gpu1 | zhoblimp_left_adverbial_d: 0.463</title></rect>
<rect x="1764.8" y="213.1" width="14.6" height="236.9" fill="#64b5cd"><title>10k_whitespace_false_gpu1 | zhoblimp_left_adverbial_d: 0.627</title></rect>
<text x="1731.7" y="466" transform="rotate(62 1731.7 466)" class="label">zhoblimp_left_adverbial_d</text>
<rect x="1814.5" y="220.7" width="14.6" height="229.3" fill="#2f6f9f"><title>10k_chinese_gpu1 | zhoblimp_question_particle_daodi_choice_intran: 0.607</title></rect>
<rect x="1831.1" y="410.9" width="14.6" height="39.1" fill="#c44e52"><title>10k_chinese_whitespace_false_gpu1 | zhoblimp_question_particle_daodi_choice_intran: 0.103</title></rect>
<rect x="1847.6" y="269.8" width="14.6" height="180.2" fill="#55a868"><title>10k_gpu1 | zhoblimp_question_particle_daodi_choice_intran: 0.477</title></rect>
<rect x="1864.2" y="72.0" width="14.6" height="378.0" fill="#8172b3"><title>10k_hanzi_gpu1 | zhoblimp_question_particle_daodi_choice_intran: 1.000</title></rect>
<rect x="1880.7" y="72.0" width="14.6" height="378.0" fill="#ccb974"><title>10k_initials_gpu1 | zhoblimp_question_particle_daodi_choice_intran: 1.000</title></rect>
<rect x="1897.3" y="245.9" width="14.6" height="204.1" fill="#64b5cd"><title>10k_whitespace_false_gpu1 | zhoblimp_question_particle_daodi_choice_intran: 0.540</title></rect>
<text x="1864.2" y="466" transform="rotate(62 1864.2 466)" class="label">zhoblimp_question_particle_daodi_...</text>
<rect x="1947.0" y="101.0" width="14.6" height="349.0" fill="#2f6f9f"><title>10k_chinese_gpu1 | zhoblimp_question_nandao_raising_2: 0.923</title></rect>
<rect x="1963.5" y="94.7" width="14.6" height="355.3" fill="#c44e52"><title>10k_chinese_whitespace_false_gpu1 | zhoblimp_question_nandao_raising_2: 0.940</title></rect>
<rect x="1980.1" y="72.0" width="14.6" height="378.0" fill="#55a868"><title>10k_gpu1 | zhoblimp_question_nandao_raising_2: 1.000</title></rect>
<rect x="1996.6" y="402.1" width="14.6" height="47.9" fill="#8172b3"><title>10k_hanzi_gpu1 | zhoblimp_question_nandao_raising_2: 0.127</title></rect>
<rect x="2013.2" y="450.0" width="14.6" height="0.0" fill="#ccb974"><title>10k_initials_gpu1 | zhoblimp_question_nandao_raising_2: 0.000</title></rect>
<rect x="2029.7" y="174.1" width="14.6" height="275.9" fill="#64b5cd"><title>10k_whitespace_false_gpu1 | zhoblimp_question_nandao_raising_2: 0.730</title></rect>
<text x="1996.6" y="466" transform="rotate(62 1996.6 466)" class="label">zhoblimp_question_nandao_raising_2</text>
<rect x="2079.4" y="201.8" width="14.6" height="248.2" fill="#2f6f9f"><title>10k_chinese_gpu1 | zhoblimp_ellipsis_adj: 0.657</title></rect>
<rect x="2096.0" y="184.1" width="14.6" height="265.9" fill="#c44e52"><title>10k_chinese_whitespace_false_gpu1 | zhoblimp_ellipsis_adj: 0.703</title></rect>
<rect x="2112.5" y="219.4" width="14.6" height="230.6" fill="#55a868"><title>10k_gpu1 | zhoblimp_ellipsis_adj: 0.610</title></rect>
<rect x="2129.1" y="227.0" width="14.6" height="223.0" fill="#8172b3"><title>10k_hanzi_gpu1 | zhoblimp_ellipsis_adj: 0.590</title></rect>
<rect x="2145.6" y="201.8" width="14.6" height="248.2" fill="#ccb974"><title>10k_initials_gpu1 | zhoblimp_ellipsis_adj: 0.657</title></rect>
<rect x="2162.2" y="261.0" width="14.6" height="189.0" fill="#64b5cd"><title>10k_whitespace_false_gpu1 | zhoblimp_ellipsis_adj: 0.500</title></rect>
<text x="2129.1" y="466" transform="rotate(62 2129.1 466)" class="label">zhoblimp_ellipsis_adj</text>
<rect x="2211.9" y="329.0" width="14.6" height="121.0" fill="#2f6f9f"><title>10k_chinese_gpu1 | zhoblimp_BEI_construction_b: 0.320</title></rect>
<rect x="2228.4" y="174.1" width="14.6" height="275.9" fill="#c44e52"><title>10k_chinese_whitespace_false_gpu1 | zhoblimp_BEI_construction_b: 0.730</title></rect>
<rect x="2245.0" y="191.7" width="14.6" height="258.3" fill="#55a868"><title>10k_gpu1 | zhoblimp_BEI_construction_b: 0.683</title></rect>
<rect x="2261.5" y="310.1" width="14.6" height="139.9" fill="#8172b3"><title>10k_hanzi_gpu1 | zhoblimp_BEI_construction_b: 0.370</title></rect>
<rect x="2278.1" y="102.2" width="14.6" height="347.8" fill="#ccb974"><title>10k_initials_gpu1 | zhoblimp_BEI_construction_b: 0.920</title></rect>
<rect x="2294.7" y="194.2" width="14.6" height="255.8" fill="#64b5cd"><title>10k_whitespace_false_gpu1 | zhoblimp_BEI_construction_b: 0.677</title></rect>
<text x="2261.5" y="466" transform="rotate(62 2261.5 466)" class="label">zhoblimp_BEI_construction_b</text>
<rect x="2344.3" y="262.3" width="14.6" height="187.7" fill="#2f6f9f"><title>10k_chinese_gpu1 | zhoblimp_question_particle_nandao: 0.497</title></rect>
<rect x="2360.9" y="410.9" width="14.6" height="39.1" fill="#c44e52"><title>10k_chinese_whitespace_false_gpu1 | zhoblimp_question_particle_nandao: 0.103</title></rect>
<rect x="2377.4" y="305.1" width="14.6" height="144.9" fill="#55a868"><title>10k_gpu1 | zhoblimp_question_particle_nandao: 0.383</title></rect>
<rect x="2394.0" y="113.6" width="14.6" height="336.4" fill="#8172b3"><title>10k_hanzi_gpu1 | zhoblimp_question_particle_nandao: 0.890</title></rect>
<rect x="2410.6" y="72.0" width="14.6" height="378.0" fill="#ccb974"><title>10k_initials_gpu1 | zhoblimp_question_particle_nandao: 1.000</title></rect>
<rect x="2427.1" y="141.3" width="14.6" height="308.7" fill="#64b5cd"><title>10k_whitespace_false_gpu1 | zhoblimp_question_particle_nandao: 0.817</title></rect>
<text x="2394.0" y="466" transform="rotate(62 2394.0 466)" class="label">zhoblimp_question_particle_nandao</text>
<rect x="2476.8" y="206.8" width="14.6" height="243.2" fill="#2f6f9f"><title>10k_chinese_gpu1 | zhoblimp_agent_animacy_passive: 0.643</title></rect>
<rect x="2493.3" y="215.6" width="14.6" height="234.4" fill="#c44e52"><title>10k_chinese_whitespace_false_gpu1 | zhoblimp_agent_animacy_passive: 0.620</title></rect>
<rect x="2509.9" y="257.2" width="14.6" height="192.8" fill="#55a868"><title>10k_gpu1 | zhoblimp_agent_animacy_passive: 0.510</title></rect>
<rect x="2526.5" y="179.1" width="14.6" height="270.9" fill="#8172b3"><title>10k_hanzi_gpu1 | zhoblimp_agent_animacy_passive: 0.717</title></rect>
<rect x="2543.0" y="225.7" width="14.6" height="224.3" fill="#ccb974"><title>10k_initials_gpu1 | zhoblimp_agent_animacy_passive: 0.593</title></rect>
<rect x="2559.6" y="224.5" width="14.6" height="225.5" fill="#64b5cd"><title>10k_whitespace_false_gpu1 | zhoblimp_agent_animacy_passive: 0.597</title></rect>
<text x="2526.5" y="466" transform="rotate(62 2526.5 466)" class="label">zhoblimp_agent_animacy_passive</text>
<rect x="2609.2" y="321.5" width="14.6" height="128.5" fill="#2f6f9f"><title>10k_chinese_gpu1 | zhoblimp_npi_renhe_wh_question_obj: 0.340</title></rect>
<rect x="2625.8" y="176.6" width="14.6" height="273.4" fill="#c44e52"><title>10k_chinese_whitespace_false_gpu1 | zhoblimp_npi_renhe_wh_question_obj: 0.723</title></rect>
<rect x="2642.4" y="229.5" width="14.6" height="220.5" fill="#55a868"><title>10k_gpu1 | zhoblimp_npi_renhe_wh_question_obj: 0.583</title></rect>
<rect x="2658.9" y="72.0" width="14.6" height="378.0" fill="#8172b3"><title>10k_hanzi_gpu1 | zhoblimp_npi_renhe_wh_question_obj: 1.000</title></rect>
<rect x="2675.5" y="450.0" width="14.6" height="0.0" fill="#ccb974"><title>10k_initials_gpu1 | zhoblimp_npi_renhe_wh_question_obj: 0.000</title></rect>
<rect x="2692.0" y="77.0" width="14.6" height="373.0" fill="#64b5cd"><title>10k_whitespace_false_gpu1 | zhoblimp_npi_renhe_wh_question_obj: 0.987</title></rect>
<text x="2658.9" y="466" transform="rotate(62 2658.9 466)" class="label">zhoblimp_npi_renhe_wh_question_obj</text>
<rect x="2741.7" y="208.1" width="14.6" height="241.9" fill="#2f6f9f"><title>10k_chinese_gpu1 | zhoblimp_nominal_modal_insertion: 0.640</title></rect>
<rect x="2758.3" y="211.9" width="14.6" height="238.1" fill="#c44e52"><title>10k_chinese_whitespace_false_gpu1 | zhoblimp_nominal_modal_insertion: 0.630</title></rect>
<rect x="2774.8" y="205.6" width="14.6" height="244.4" fill="#55a868"><title>10k_gpu1 | zhoblimp_nominal_modal_insertion: 0.647</title></rect>
<rect x="2791.4" y="190.4" width="14.6" height="259.6" fill="#8172b3"><title>10k_hanzi_gpu1 | zhoblimp_nominal_modal_insertion: 0.687</title></rect>
<rect x="2807.9" y="288.7" width="14.6" height="161.3" fill="#ccb974"><title>10k_initials_gpu1 | zhoblimp_nominal_modal_insertion: 0.427</title></rect>
<rect x="2824.5" y="224.5" width="14.6" height="225.5" fill="#64b5cd"><title>10k_whitespace_false_gpu1 | zhoblimp_nominal_modal_insertion: 0.597</title></rect>
<text x="2791.4" y="466" transform="rotate(62 2791.4 466)" class="label">zhoblimp_nominal_modal_insertion</text>
<rect x="2874.2" y="146.3" width="14.6" height="303.7" fill="#2f6f9f"><title>10k_chinese_gpu1 | zhoblimp_verb_phrase_left_adverbial: 0.803</title></rect>
<rect x="2890.7" y="157.7" width="14.6" height="292.3" fill="#c44e52"><title>10k_chinese_whitespace_false_gpu1 | zhoblimp_verb_phrase_left_adverbial: 0.773</title></rect>
<rect x="2907.3" y="146.3" width="14.6" height="303.7" fill="#55a868"><title>10k_gpu1 | zhoblimp_verb_phrase_left_adverbial: 0.803</title></rect>
<rect x="2923.8" y="306.4" width="14.6" height="143.6" fill="#8172b3"><title>10k_hanzi_gpu1 | zhoblimp_verb_phrase_left_adverbial: 0.380</title></rect>
<rect x="2940.4" y="315.2" width="14.6" height="134.8" fill="#ccb974"><title>10k_initials_gpu1 | zhoblimp_verb_phrase_left_adverbial: 0.357</title></rect>
<rect x="2956.9" y="264.8" width="14.6" height="185.2" fill="#64b5cd"><title>10k_whitespace_false_gpu1 | zhoblimp_verb_phrase_left_adverbial: 0.490</title></rect>
<text x="2923.8" y="466" transform="rotate(62 2923.8 466)" class="label">zhoblimp_verb_phrase_left_adverbi...</text>
<rect x="3006.6" y="157.7" width="14.6" height="292.3" fill="#2f6f9f"><title>10k_chinese_gpu1 | zhoblimp_modal_raising_hui: 0.773</title></rect>
<rect x="3023.2" y="230.8" width="14.6" height="219.2" fill="#c44e52"><title>10k_chinese_whitespace_false_gpu1 | zhoblimp_modal_raising_hui: 0.580</title></rect>
<rect x="3039.7" y="127.4" width="14.6" height="322.6" fill="#55a868"><title>10k_gpu1 | zhoblimp_modal_raising_hui: 0.853</title></rect>
<rect x="3056.3" y="346.7" width="14.6" height="103.3" fill="#8172b3"><title>10k_hanzi_gpu1 | zhoblimp_modal_raising_hui: 0.273</title></rect>
<rect x="3072.8" y="303.8" width="14.6" height="146.2" fill="#ccb974"><title>10k_initials_gpu1 | zhoblimp_modal_raising_hui: 0.387</title></rect>
<rect x="3089.4" y="174.1" width="14.6" height="275.9" fill="#64b5cd"><title>10k_whitespace_false_gpu1 | zhoblimp_modal_raising_hui: 0.730</title></rect>
<text x="3056.3" y="466" transform="rotate(62 3056.3 466)" class="label">zhoblimp_modal_raising_hui</text>
<rect x="3139.1" y="204.3" width="14.6" height="245.7" fill="#2f6f9f"><title>10k_chinese_gpu1 | zhoblimp_left_adverbial_b: 0.650</title></rect>
<rect x="3155.6" y="239.6" width="14.6" height="210.4" fill="#c44e52"><title>10k_chinese_whitespace_false_gpu1 | zhoblimp_left_adverbial_b: 0.557</title></rect>
<rect x="3172.2" y="196.7" width="14.6" height="253.3" fill="#55a868"><title>10k_gpu1 | zhoblimp_left_adverbial_b: 0.670</title></rect>
<rect x="3188.7" y="224.5" width="14.6" height="225.5" fill="#8172b3"><title>10k_hanzi_gpu1 | zhoblimp_left_adverbial_b: 0.597</title></rect>
<rect x="3205.3" y="238.3" width="14.6" height="211.7" fill="#ccb974"><title>10k_initials_gpu1 | zhoblimp_left_adverbial_b: 0.560</title></rect>
<rect x="3221.9" y="238.3" width="14.6" height="211.7" fill="#64b5cd"><title>10k_whitespace_false_gpu1 | zhoblimp_left_adverbial_b: 0.560</title></rect>
<text x="3188.7" y="466" transform="rotate(62 3188.7 466)" class="label">zhoblimp_left_adverbial_b</text>
<rect x="3271.5" y="195.5" width="14.6" height="254.5" fill="#2f6f9f"><title>10k_chinese_gpu1 | zhoblimp_agent_causative: 0.673</title></rect>
<rect x="3288.1" y="250.9" width="14.6" height="199.1" fill="#c44e52"><title>10k_chinese_whitespace_false_gpu1 | zhoblimp_agent_causative: 0.527</title></rect>
<rect x="3304.6" y="245.9" width="14.6" height="204.1" fill="#55a868"><title>10k_gpu1 | zhoblimp_agent_causative: 0.540</title></rect>
<rect x="3321.2" y="220.7" width="14.6" height="229.3" fill="#8172b3"><title>10k_hanzi_gpu1 | zhoblimp_agent_causative: 0.607</title></rect>
<rect x="3337.8" y="245.9" width="14.6" height="204.1" fill="#ccb974"><title>10k_initials_gpu1 | zhoblimp_agent_causative: 0.540</title></rect>
<rect x="3354.3" y="210.6" width="14.6" height="239.4" fill="#64b5cd"><title>10k_whitespace_false_gpu1 | zhoblimp_agent_causative: 0.633</title></rect>
<text x="3321.2" y="466" transform="rotate(62 3321.2 466)" class="label">zhoblimp_agent_causative</text>
<rect x="3404.0" y="272.3" width="14.6" height="177.7" fill="#2f6f9f"><title>10k_chinese_gpu1 | zhoblimp_left_adverbial_e: 0.470</title></rect>
<rect x="3420.5" y="191.7" width="14.6" height="258.3" fill="#c44e52"><title>10k_chinese_whitespace_false_gpu1 | zhoblimp_left_adverbial_e: 0.683</title></rect>
<rect x="3437.1" y="166.5" width="14.6" height="283.5" fill="#55a868"><title>10k_gpu1 | zhoblimp_left_adverbial_e: 0.750</title></rect>
<rect x="3453.7" y="235.8" width="14.6" height="214.2" fill="#8172b3"><title>10k_hanzi_gpu1 | zhoblimp_left_adverbial_e: 0.567</title></rect>
<rect x="3470.2" y="215.6" width="14.6" height="234.4" fill="#ccb974"><title>10k_initials_gpu1 | zhoblimp_left_adverbial_e: 0.620</title></rect>
<rect x="3486.8" y="303.8" width="14.6" height="146.2" fill="#64b5cd"><title>10k_whitespace_false_gpu1 | zhoblimp_left_adverbial_e: 0.387</title></rect>
<text x="3453.7" y="466" transform="rotate(62 3453.7 466)" class="label">zhoblimp_left_adverbial_e</text>
<rect x="3536.4" y="145.1" width="14.6" height="304.9" fill="#2f6f9f"><title>10k_chinese_gpu1 | zhoblimp_modal_raising_topicalization: 0.807</title></rect>
<rect x="3553.0" y="233.3" width="14.6" height="216.7" fill="#c44e52"><title>10k_chinese_whitespace_false_gpu1 | zhoblimp_modal_raising_topicalization: 0.573</title></rect>
<rect x="3569.6" y="182.9" width="14.6" height="267.1" fill="#55a868"><title>10k_gpu1 | zhoblimp_modal_raising_topicalization: 0.707</title></rect>
<rect x="3586.1" y="300.1" width="14.6" height="149.9" fill="#8172b3"><title>10k_hanzi_gpu1 | zhoblimp_modal_raising_topicalization: 0.397</title></rect>
<rect x="3602.7" y="398.3" width="14.6" height="51.7" fill="#ccb974"><title>10k_initials_gpu1 | zhoblimp_modal_raising_topicalization: 0.137</title></rect>
<rect x="3619.2" y="157.7" width="14.6" height="292.3" fill="#64b5cd"><title>10k_whitespace_false_gpu1 | zhoblimp_modal_raising_topicalization: 0.773</title></rect>
<text x="3586.1" y="466" transform="rotate(62 3586.1 466)" class="label">zhoblimp_modal_raising_topicaliza...</text>
<rect x="3668.9" y="194.2" width="14.6" height="255.8" fill="#2f6f9f"><title>10k_chinese_gpu1 | zhoblimp_BEI_construction_a: 0.677</title></rect>
<rect x="3685.5" y="276.1" width="14.6" height="173.9" fill="#c44e52"><title>10k_chinese_whitespace_false_gpu1 | zhoblimp_BEI_construction_a: 0.460</title></rect>
<rect x="3702.0" y="225.7" width="14.6" height="224.3" fill="#55a868"><title>10k_gpu1 | zhoblimp_BEI_construction_a: 0.593</title></rect>
<rect x="3718.6" y="300.1" width="14.6" height="149.9" fill="#8172b3"><title>10k_hanzi_gpu1 | zhoblimp_BEI_construction_a: 0.397</title></rect>
<rect x="3735.1" y="156.4" width="14.6" height="293.6" fill="#ccb974"><title>10k_initials_gpu1 | zhoblimp_BEI_construction_a: 0.777</title></rect>
<rect x="3751.7" y="267.3" width="14.6" height="182.7" fill="#64b5cd"><title>10k_whitespace_false_gpu1 | zhoblimp_BEI_construction_a: 0.483</title></rect>
<text x="3718.6" y="466" transform="rotate(62 3718.6 466)" class="label">zhoblimp_BEI_construction_a</text>
<rect x="3801.4" y="266.0" width="14.6" height="184.0" fill="#2f6f9f"><title>10k_chinese_gpu1 | zhoblimp_intransitive_no_obj: 0.487</title></rect>
<rect x="3817.9" y="272.3" width="14.6" height="177.7" fill="#c44e52"><title>10k_chinese_whitespace_false_gpu1 | zhoblimp_intransitive_no_obj: 0.470</title></rect>
<rect x="3834.5" y="247.1" width="14.6" height="202.9" fill="#55a868"><title>10k_gpu1 | zhoblimp_intransitive_no_obj: 0.537</title></rect>
<rect x="3851.0" y="230.8" width="14.6" height="219.2" fill="#8172b3"><title>10k_hanzi_gpu1 | zhoblimp_intransitive_no_obj: 0.580</title></rect>
<rect x="3867.6" y="201.8" width="14.6" height="248.2" fill="#ccb974"><title>10k_initials_gpu1 | zhoblimp_intransitive_no_obj: 0.657</title></rect>
<rect x="3884.1" y="205.6" width="14.6" height="244.4" fill="#64b5cd"><title>10k_whitespace_false_gpu1 | zhoblimp_intransitive_no_obj: 0.647</title></rect>
<text x="3851.0" y="466" transform="rotate(62 3851.0 466)" class="label">zhoblimp_intransitive_no_obj</text>
<rect x="3933.8" y="175.3" width="14.6" height="274.7" fill="#2f6f9f"><title>10k_chinese_gpu1 | zhoblimp_question_particle_daodi_choice_tran: 0.727</title></rect>
<rect x="3950.4" y="395.8" width="14.6" height="54.2" fill="#c44e52"><title>10k_chinese_whitespace_false_gpu1 | zhoblimp_question_particle_daodi_choice_tran: 0.143</title></rect>
<rect x="3966.9" y="358.0" width="14.6" height="92.0" fill="#55a868"><title>10k_gpu1 | zhoblimp_question_particle_daodi_choice_tran: 0.243</title></rect>
<rect x="3983.5" y="72.0" width="14.6" height="378.0" fill="#8172b3"><title>10k_hanzi_gpu1 | zhoblimp_question_particle_daodi_choice_tran: 1.000</title></rect>
<rect x="4000.0" y="72.0" width="14.6" height="378.0" fill="#ccb974"><title>10k_initials_gpu1 | zhoblimp_question_particle_daodi_choice_tran: 1.000</title></rect>
<rect x="4016.6" y="358.0" width="14.6" height="92.0" fill="#64b5cd"><title>10k_whitespace_false_gpu1 | zhoblimp_question_particle_daodi_choice_tran: 0.243</title></rect>
<text x="3983.5" y="466" transform="rotate(62 3983.5 466)" class="label">zhoblimp_question_particle_daodi_...</text>
<rect x="4066.3" y="235.8" width="14.6" height="214.2" fill="#2f6f9f"><title>10k_chinese_gpu1 | zhoblimp_ellipsis_n_bar_class: 0.567</title></rect>
<rect x="4082.8" y="205.6" width="14.6" height="244.4" fill="#c44e52"><title>10k_chinese_whitespace_false_gpu1 | zhoblimp_ellipsis_n_bar_class: 0.647</title></rect>
<rect x="4099.4" y="244.6" width="14.6" height="205.4" fill="#55a868"><title>10k_gpu1 | zhoblimp_ellipsis_n_bar_class: 0.543</title></rect>
<rect x="4115.9" y="254.7" width="14.6" height="195.3" fill="#8172b3"><title>10k_hanzi_gpu1 | zhoblimp_ellipsis_n_bar_class: 0.517</title></rect>
<rect x="4132.5" y="254.7" width="14.6" height="195.3" fill="#ccb974"><title>10k_initials_gpu1 | zhoblimp_ellipsis_n_bar_class: 0.517</title></rect>
<rect x="4149.1" y="247.1" width="14.6" height="202.9" fill="#64b5cd"><title>10k_whitespace_false_gpu1 | zhoblimp_ellipsis_n_bar_class: 0.537</title></rect>
<text x="4115.9" y="466" transform="rotate(62 4115.9 466)" class="label">zhoblimp_ellipsis_n_bar_class</text>
<rect x="4198.7" y="229.5" width="14.6" height="220.5" fill="#2f6f9f"><title>10k_chinese_gpu1 | zhoblimp_intransitive_double_obj: 0.583</title></rect>
<rect x="4215.3" y="235.8" width="14.6" height="214.2" fill="#c44e52"><title>10k_chinese_whitespace_false_gpu1 | zhoblimp_intransitive_double_obj: 0.567</title></rect>
<rect x="4231.8" y="301.3" width="14.6" height="148.7" fill="#55a868"><title>10k_gpu1 | zhoblimp_intransitive_double_obj: 0.393</title></rect>
<rect x="4248.4" y="167.8" width="14.6" height="282.2" fill="#8172b3"><title>10k_hanzi_gpu1 | zhoblimp_intransitive_double_obj: 0.747</title></rect>
<rect x="4265.0" y="320.2" width="14.6" height="129.8" fill="#ccb974"><title>10k_initials_gpu1 | zhoblimp_intransitive_double_obj: 0.343</title></rect>
<rect x="4281.5" y="227.0" width="14.6" height="223.0" fill="#64b5cd"><title>10k_whitespace_false_gpu1 | zhoblimp_intransitive_double_obj: 0.590</title></rect>
<text x="4248.4" y="466" transform="rotate(62 4248.4 466)" class="label">zhoblimp_intransitive_double_obj</text>
<rect x="4331.2" y="179.1" width="14.6" height="270.9" fill="#2f6f9f"><title>10k_chinese_gpu1 | zhoblimp_BA_inversion: 0.717</title></rect>
<rect x="4347.7" y="282.4" width="14.6" height="167.6" fill="#c44e52"><title>10k_chinese_whitespace_false_gpu1 | zhoblimp_BA_inversion: 0.443</title></rect>
<rect x="4364.3" y="247.1" width="14.6" height="202.9" fill="#55a868"><title>10k_gpu1 | zhoblimp_BA_inversion: 0.537</title></rect>
<rect x="4380.9" y="281.2" width="14.6" height="168.8" fill="#8172b3"><title>10k_hanzi_gpu1 | zhoblimp_BA_inversion: 0.447</title></rect>
<rect x="4397.4" y="282.4" width="14.6" height="167.6" fill="#ccb974"><title>10k_initials_gpu1 | zhoblimp_BA_inversion: 0.443</title></rect>
<rect x="4414.0" y="211.9" width="14.6" height="238.1" fill="#64b5cd"><title>10k_whitespace_false_gpu1 | zhoblimp_BA_inversion: 0.630</title></rect>
<text x="4380.9" y="466" transform="rotate(62 4380.9 466)" class="label">zhoblimp_BA_inversion</text>
<rect x="4463.6" y="206.8" width="14.6" height="243.2" fill="#2f6f9f"><title>10k_chinese_gpu1 | zhoblimp_agent_animacy_subj: 0.643</title></rect>
<rect x="4480.2" y="243.4" width="14.6" height="206.6" fill="#c44e52"><title>10k_chinese_whitespace_false_gpu1 | zhoblimp_agent_animacy_subj: 0.547</title></rect>
<rect x="4496.8" y="261.0" width="14.6" height="189.0" fill="#55a868"><title>10k_gpu1 | zhoblimp_agent_animacy_subj: 0.500</title></rect>
<rect x="4513.3" y="256.0" width="14.6" height="194.0" fill="#8172b3"><title>10k_hanzi_gpu1 | zhoblimp_agent_animacy_subj: 0.513</title></rect>
<rect x="4529.9" y="302.6" width="14.6" height="147.4" fill="#ccb974"><title>10k_initials_gpu1 | zhoblimp_agent_animacy_subj: 0.390</title></rect>
<rect x="4546.4" y="224.5" width="14.6" height="225.5" fill="#64b5cd"><title>10k_whitespace_false_gpu1 | zhoblimp_agent_animacy_subj: 0.597</title></rect>
<text x="4513.3" y="466" transform="rotate(62 4513.3 466)" class="label">zhoblimp_agent_animacy_subj</text>
<rect x="4596.1" y="182.9" width="14.6" height="267.1" fill="#2f6f9f"><title>10k_chinese_gpu1 | zhoblimp_agent_animacy_adv: 0.707</title></rect>
<rect x="4612.7" y="118.6" width="14.6" height="331.4" fill="#c44e52"><title>10k_chinese_whitespace_false_gpu1 | zhoblimp_agent_animacy_adv: 0.877</title></rect>
<rect x="4629.2" y="152.6" width="14.6" height="297.4" fill="#55a868"><title>10k_gpu1 | zhoblimp_agent_animacy_adv: 0.787</title></rect>
<rect x="4645.8" y="441.2" width="14.6" height="8.8" fill="#8172b3"><title>10k_hanzi_gpu1 | zhoblimp_agent_animacy_adv: 0.023</title></rect>
<rect x="4662.3" y="368.1" width="14.6" height="81.9" fill="#ccb974"><title>10k_initials_gpu1 | zhoblimp_agent_animacy_adv: 0.217</title></rect>
<rect x="4678.9" y="254.7" width="14.6" height="195.3" fill="#64b5cd"><title>10k_whitespace_false_gpu1 | zhoblimp_agent_animacy_adv: 0.517</title></rect>
<text x="4645.8" y="466" transform="rotate(62 4645.8 466)" class="label">zhoblimp_agent_animacy_adv</text>
<rect x="76" y="580" width="14" height="14" fill="#2f6f9f"/>
<text x="96" y="592" class="legend">10k_chinese_gpu1</text>
<rect x="286" y="580" width="14" height="14" fill="#c44e52"/>
<text x="306" y="592" class="legend">10k_chinese_whitespace_false_gpu1</text>
<rect x="496" y="580" width="14" height="14" fill="#55a868"/>
<text x="516" y="592" class="legend">10k_gpu1</text>
<rect x="706" y="580" width="14" height="14" fill="#8172b3"/>
<text x="726" y="592" class="legend">10k_hanzi_gpu1</text>
<rect x="916" y="580" width="14" height="14" fill="#ccb974"/>
<text x="936" y="592" class="legend">10k_initials_gpu1</text>
<rect x="1126" y="580" width="14" height="14" fill="#64b5cd"/>
<text x="1146" y="592" class="legend">10k_whitespace_false_gpu1</text>
</svg>
