<svg xmlns="http://www.w3.org/2000/svg" width="1836" height="620" viewBox="0 0 1836 620">
<style>text{font-family:Arial,sans-serif;fill:#1f2933}.axis{stroke:#9aa5b1;stroke-width:1}.grid{stroke:#e4e7eb;stroke-width:1}.label{font-size:12px}.title{font-size:22px;font-weight:700}.legend{font-size:13px}</style>
<rect width="1836" height="620" fill="#ffffff"/>
<text x="76" y="34" class="title">acc by zhoblimp subtask (4/4)</text>
<line x1="76" y1="450.0" x2="1808" y2="450.0" class="grid"/>
<text x="66" y="454.0" text-anchor="end" class="label">0.0</text>
<line x1="76" y1="374.4" x2="1808" y2="374.4" class="grid"/>
<text x="66" y="378.4" text-anchor="end" class="label">0.2</text>
<line x1="76" y1="298.8" x2="1808" y2="298.8" class="grid"/>
<text x="66" y="302.8" text-anchor="end" class="label">0.4</text>
<line x1="76" y1="223.2" x2="1808" y2="223.2" class="grid"/>
<text x="66" y="227.2" text-anchor="end" class="label">0.6</text>
<line x1="76" y1="147.6" x2="1808" y2="147.6" class="grid"/>
<text x="66" y="151.6" text-anchor="end" class="label">0.8</text>
<line x1="76" y1="72.0" x2="1808" y2="72.0" class="grid"/>
<text x="66" y="76.0" text-anchor="end" class="label">1.0</text>
<line x1="76" y1="72" x2="76" y2="450" class="axis"/>
<line x1="76" y1="450" x2="1808" y2="450" class="axis"/>
<rect x="92.7" y="445.0" width="14.7" height="5.0" fill="#2f6f9f"><title>10k_chinese_gpu1 | zhoblimp_adjective_transitive_dui: 0.013</title></rect>
<rect x="109.3" y="214.4" width="14.7" height="235.6" fill="#c44e52"><title>10k_chinese_whitespace_false_gpu1 | zhoblimp_adjective_transitive_dui: 0.623</title></rect>
<rect x="126.0" y="447.5" width="14.7" height="2.5" fill="#55a868"><title>10k_gpu1 | zhoblimp_adjective_transitive_dui: 0.007</title></rect>
<rect x="142.6" y="450.0" width="14.7" height="0.0" fill="#8172b3"><title>10k_hanzi_gpu1 | zhoblimp_adjective_transitive_dui: 0.000</title></rect>
<rect x="159.3" y="413.5" width="14.7" height="36.5" fill="#ccb974"><title>10k_initials_gpu1 | zhoblimp_adjective_transitive_dui: 0.097</title></rect>
<rect x="175.9" y="445.0" width="14.7" height="5.0" fill="#64b5cd"><title>10k_whitespace_false_gpu1 | zhoblimp_adjective_transitive_dui: 0.013</title></rect>
<text x="142.6" y="466" transform="rotate(62 142.6 466)" class="label">zhoblimp_adjective_transitive_dui</text>
<rect x="225.9" y="450.0" width="14.7" height="0.0" fill="#2f6f9f"><title>10k_chinese_gpu1 | zhoblimp_BEI_deletion: 0.000</title></rect>
<rect x="242.5" y="354.2" width="14.7" height="95.8" fill="#c44e52"><title>10k_chinese_whitespace_false_gpu1 | zhoblimp_BEI_deletion: 0.253</title></rect>
<rect x="259.2" y="414.7" width="14.7" height="35.3" fill="#55a868"><title>10k_gpu1 | zhoblimp_BEI_deletion: 0.093</title></rect>
<rect x="275.8" y="443.7" width="14.7" height="6.3" fill="#8172b3"><title>10k_hanzi_gpu1 | zhoblimp_BEI_deletion: 0.017</title></rect>
<rect x="292.5" y="447.5" width="14.7" height="2.5" fill="#ccb974"><title>10k_initials_gpu1 | zhoblimp_BEI_deletion: 0.007</title></rect>
<rect x="309.2" y="450.0" width="14.7" height="0.0" fill="#64b5cd"><title>10k_whitespace_false_gpu1 | zhoblimp_BEI_deletion: 0.000</title></rect>
<text x="275.8" y="466" transform="rotate(62 275.8 466)" class="label">zhoblimp_BEI_deletion</text>
<rect x="359.1" y="443.7" width="14.7" height="6.3" fill="#2f6f9f"><title>10k_chinese_gpu1 | zhoblimp_preposition_deletion: 0.017</title></rect>
<rect x="375.8" y="332.8" width="14.7" height="117.2" fill="#c44e52"><title>10k_chinese_whitespace_false_gpu1 | zhoblimp_preposition_deletion: 0.310</title></rect>
<rect x="392.4" y="443.7" width="14.7" height="6.3" fill="#55a868"><title>10k_gpu1 | zhoblimp_preposition_deletion: 0.017</title></rect>
<rect x="409.1" y="450.0" width="14.7" height="0.0" fill="#8172b3"><title>10k_hanzi_gpu1 | zhoblimp_preposition_deletion: 0.000</title></rect>
<rect x="425.7" y="450.0" width="14.7" height="0.0" fill="#ccb974"><title>10k_initials_gpu1 | zhoblimp_preposition_deletion: 0.000</title></rect>
<rect x="442.4" y="439.9" width="14.7" height="10.1" fill="#64b5cd"><title>10k_whitespace_false_gpu1 | zhoblimp_preposition_deletion: 0.027</title></rect>
<text x="409.1" y="466" transform="rotate(62 409.1 466)" class="label">zhoblimp_preposition_deletion</text>
<rect x="492.3" y="441.2" width="14.7" height="8.8" fill="#2f6f9f"><title>10k_chinese_gpu1 | zhoblimp_BA_deletion: 0.023</title></rect>
<rect x="509.0" y="353.0" width="14.7" height="97.0" fill="#c44e52"><title>10k_chinese_whitespace_false_gpu1 | zhoblimp_BA_deletion: 0.257</title></rect>
<rect x="525.7" y="445.0" width="14.7" height="5.0" fill="#55a868"><title>10k_gpu1 | zhoblimp_BA_deletion: 0.013</title></rect>
<rect x="542.3" y="450.0" width="14.7" height="0.0" fill="#8172b3"><title>10k_hanzi_gpu1 | zhoblimp_BA_deletion: 0.000</title></rect>
<rect x="559.0" y="448.7" width="14.7" height="1.3" fill="#ccb974"><title>10k_initials_gpu1 | zhoblimp_BA_deletion: 0.003</title></rect>
<rect x="575.6" y="446.2" width="14.7" height="3.8" fill="#64b5cd"><title>10k_whitespace_false_gpu1 | zhoblimp_BA_deletion: 0.010</title></rect>
<text x="542.3" y="466" transform="rotate(62 542.3 466)" class="label">zhoblimp_BA_deletion</text>
<rect x="625.6" y="450.0" width="14.7" height="0.0" fill="#2f6f9f"><title>10k_chinese_gpu1 | zhoblimp_relative_operator_intepretation: 0.000</title></rect>
<rect x="642.2" y="394.6" width="14.7" height="55.4" fill="#c44e52"><title>10k_chinese_whitespace_false_gpu1 | zhoblimp_relative_operator_intepretation: 0.147</title></rect>
<rect x="658.9" y="450.0" width="14.7" height="0.0" fill="#55a868"><title>10k_gpu1 | zhoblimp_relative_operator_intepretation: 0.000</title></rect>
<rect x="675.5" y="450.0" width="14.7" height="0.0" fill="#8172b3"><title>10k_hanzi_gpu1 | zhoblimp_relative_operator_intepretation: 0.000</title></rect>
<rect x="692.2" y="450.0" width="14.7" height="0.0" fill="#ccb974"><title>10k_initials_gpu1 | zhoblimp_relative_operator_intepretation: 0.000</title></rect>
<rect x="708.8" y="450.0" width="14.7" height="0.0" fill="#64b5cd"><title>10k_whitespace_false_gpu1 | zhoblimp_relative_operator_intepretation: 0.000</title></rect>
<text x="675.5" y="466" transform="rotate(62 675.5 466)" class="label">zhoblimp_relative_operator_intepr...</text>
<rect x="758.8" y="450.0" width="14.7" height="0.0" fill="#2f6f9f"><title>10k_chinese_gpu1 | zhoblimp_passive_suo: 0.000</title></rect>
<rect x="775.5" y="439.9" width="14.7" height="10.1" fill="#c44e52"><title>10k_chinese_whitespace_false_gpu1 | zhoblimp_passive_suo: 0.027</title></rect>
<rect x="792.1" y="450.0" width="14.7" height="0.0" fill="#55a868"><title>10k_gpu1 | zhoblimp_passive_suo: 0.000</title></rect>
<rect x="808.8" y="436.1" width="14.7" height="13.9" fill="#8172b3"><title>10k_hanzi_gpu1 | zhoblimp_passive_suo: 0.037</title></rect>
<rect x="825.4" y="436.1" width="14.7" height="13.9" fill="#ccb974"><title>10k_initials_gpu1 | zhoblimp_passive_suo: 0.037</title></rect>
<rect x="842.1" y="450.0" width="14.7" height="0.0" fill="#64b5cd"><title>10k_whitespace_false_gpu1 | zhoblimp_passive_suo: 0.000</title></rect>
<text x="808.8" y="466" transform="rotate(62 808.8 466)" class="label">zhoblimp_passive_suo</text>
<rect x="892.0" y="450.0" width="14.7" height="0.0" fill="#2f6f9f"><title>10k_chinese_gpu1 | zhoblimp_BA_verb_le_b: 0.000</title></rect>
<rect x="908.7" y="422.3" width="14.7" height="27.7" fill="#c44e52"><title>10k_chinese_whitespace_false_gpu1 | zhoblimp_BA_verb_le_b: 0.073</title></rect>
<rect x="925.3" y="450.0" width="14.7" height="0.0" fill="#55a868"><title>10k_gpu1 | zhoblimp_BA_verb_le_b: 0.000</title></rect>
<rect x="942.0" y="450.0" width="14.7" height="0.0" fill="#8172b3"><title>10k_hanzi_gpu1 | zhoblimp_BA_verb_le_b: 0.000</title></rect>
<rect x="958.7" y="450.0" width="14.7" height="0.0" fill="#ccb974"><title>10k_initials_gpu1 | zhoblimp_BA_verb_le_b: 0.000</title></rect>
<rect x="975.3" y="450.0" width="14.7" height="0.0" fill="#64b5cd"><title>10k_whitespace_false_gpu1 | zhoblimp_BA_verb_le_b: 0.000</title></rect>
<text x="942.0" y="466" transform="rotate(62 942.0 466)" class="label">zhoblimp_BA_verb_le_b</text>
<rect x="1025.3" y="448.7" width="14.7" height="1.3" fill="#2f6f9f"><title>10k_chinese_gpu1 | zhoblimp_npi_renhe_A_not_A_question: 0.003</title></rect>
<rect x="1041.9" y="433.6" width="14.7" height="16.4" fill="#c44e52"><title>10k_chinese_whitespace_false_gpu1 | zhoblimp_npi_renhe_A_not_A_question: 0.043</title></rect>
<rect x="1058.6" y="447.5" width="14.7" height="2.5" fill="#55a868"><title>10k_gpu1 | zhoblimp_npi_renhe_A_not_A_question: 0.007</title></rect>
<rect x="1075.2" y="450.0" width="14.7" height="0.0" fill="#8172b3"><title>10k_hanzi_gpu1 | zhoblimp_npi_renhe_A_not_A_question: 0.000</title></rect>
<rect x="1091.9" y="450.0" width="14.7" height="0.0" fill="#ccb974"><title>10k_initials_gpu1 | zhoblimp_npi_renhe_A_not_A_question: 0.000</title></rect>
<rect x="1108.5" y="443.7" width="14.7" height="6.3" fill="#64b5cd"><title>10k_whitespace_false_gpu1 | zhoblimp_npi_renhe_A_not_A_question: 0.017</title></rect>
<text x="1075.2" y="466" transform="rotate(62 1075.2 466)" class="label">zhoblimp_npi_renhe_A_not_A_questi...</text>
<rect x="1158.5" y="450.0" width="14.7" height="0.0" fill="#2f6f9f"><title>10k_chinese_gpu1 | zhoblimp_passive_agent_deletion_long_right_b: 0.000</title></rect>
<rect x="1175.2" y="450.0" width="14.7" height="0.0" fill="#c44e52"><title>10k_chinese_whitespace_false_gpu1 | zhoblimp_passive_agent_deletion_long_right_b: 0.000</title></rect>
<rect x="1191.8" y="450.0" width="14.7" height="0.0" fill="#55a868"><title>10k_gpu1 | zhoblimp_passive_agent_deletion_long_right_b: 0.000</title></rect>
<rect x="1208.5" y="442.4" width="14.7" height="7.6" fill="#8172b3"><title>10k_hanzi_gpu1 | zhoblimp_passive_agent_deletion_long_right_b: 0.020</title></rect>
<rect x="1225.1" y="442.4" width="14.7" height="7.6" fill="#ccb974"><title>10k_initials_gpu1 | zhoblimp_passive_agent_deletion_long_right_b: 0.020</title></rect>
<rect x="1241.8" y="450.0" width="14.7" height="0.0" fill="#64b5cd"><title>10k_whitespace_false_gpu1 | zhoblimp_passive_agent_deletion_long_right_b: 0.000</title></rect>
<text x="1208.5" y="466" transform="rotate(62 1208.5 466)" class="label">zhoblimp_passive_agent_deletion_l...</text>
<rect x="1291.7" y="450.0" width="14.7" height="0.0" fill="#2f6f9f"><title>10k_chinese_gpu1 | zhoblimp_fci_renhe_dou: 0.000</title></rect>
<rect x="1308.4" y="450.0" width="14.7" height="0.0" fill="#c44e52"><title>10k_chinese_whitespace_false_gpu1 | zhoblimp_fci_renhe_dou: 0.000</title></rect>
<rect x="1325.0" y="446.2" width="14.7" height="3.8" fill="#55a868"><title>10k_gpu1 | zhoblimp_fci_renhe_dou: 0.010</title></rect>
<rect x="1341.7" y="450.0" width="14.7" height="0.0" fill="#8172b3"><title>10k_hanzi_gpu1 | zhoblimp_fci_renhe_dou: 0.000</title></rect>
<rect x="1358.3" y="450.0" width="14.7" height="0.0" fill="#ccb974"><title>10k_initials_gpu1 | zhoblimp_fci_renhe_dou: 0.000</title></rect>
<rect x="1375.0" y="448.7" width="14.7" height="1.3" fill="#64b5cd"><title>10k_whitespace_false_gpu1 | zhoblimp_fci_renhe_dou: 0.003</title></rect>
<text x="1341.7" y="466" transform="rotate(62 1341.7 466)" class="label">zhoblimp_fci_renhe_dou</text>
<rect x="1425.0" y="450.0" width="14.7" height="0.0" fill="#2f6f9f"><title>10k_chinese_gpu1 | zhoblimp_passive_agent_deletion_long_right_a: 0.000</title></rect>
<rect x="1441.6" y="445.0" width="14.7" height="5.0" fill="#c44e52"><title>10k_chinese_whitespace_false_gpu1 | zhoblimp_passive_agent_deletion_long_right_a: 0.013</title></rect>
<rect x="1458.3" y="450.0" width="14.7" height="0.0" fill="#55a868"><title>10k_gpu1 | zhoblimp_passive_agent_deletion_long_right_a: 0.000</title></rect>
<rect x="1474.9" y="450.0" width="14.7" height="0.0" fill="#8172b3"><title>10k_hanzi_gpu1 | zhoblimp_passive_agent_deletion_long_right_a: 0.000</title></rect>
<rect x="1491.6" y="450.0" width="14.7" height="0.0" fill="#ccb974"><title>10k_initials_gpu1 | zhoblimp_passive_agent_deletion_long_right_a: 0.000</title></rect>
<rect x="1508.2" y="450.0" width="14.7" height="0.0" fill="#64b5cd"><title>10k_whitespace_false_gpu1 | zhoblimp_passive_agent_deletion_long_right_a: 0.000</title></rect>
<text x="1474.9" y="466" transform="rotate(62 1474.9 466)" class="label">zhoblimp_passive_agent_deletion_l...</text>
<rect x="1558.2" y="448.7" width="14.7" height="1.3" fill="#2f6f9f"><title>10k_chinese_gpu1 | zhoblimp_passive_agent_deletion_short: 0.003</title></rect>
<rect x="1574.8" y="448.7" width="14.7" height="1.3" fill="#c44e52"><title>10k_chinese_whitespace_false_gpu1 | zhoblimp_passive_agent_deletion_short: 0.003</title></rect>
<rect x="1591.5" y="450.0" width="14.7" height="0.0" fill="#55a868"><title>10k_gpu1 | zhoblimp_passive_agent_deletion_short: 0.000</title></rect>
<rect x="1608.2" y="450.0" width="14.7" height="0.0" fill="#8172b3"><title>10k_hanzi_gpu1 | zhoblimp_passive_agent_deletion_short: 0.000</title></rect>
<rect x="1624.8" y="450.0" width="14.7" height="0.0" fill="#ccb974"><title>10k_initials_gpu1 | zhoblimp_passive_agent_deletion_short: 0.000</title></rect>
<rect x="1641.5" y="450.0" width="14.7" height="0.0" fill="#64b5cd"><title>10k_whitespace_false_gpu1 | zhoblimp_passive_agent_deletion_short: 0.000</title></rect>
<text x="1608.2" y="466" transform="rotate(62 1608.2 466)" class="label">zhoblimp_passive_agent_deletion_s...</text>
<rect x="1691.4" y="450.0" width="14.7" height="0.0" fill="#2f6f9f"><title>10k_chinese_gpu1 | zhoblimp_passive_agent_deletion_long_left: 0.000</title></rect>
<rect x="1708.1" y="450.0" width="14.7" height="0.0" fill="#c44e52"><title>10k_chinese_whitespace_false_gpu1 | zhoblimp_passive_agent_deletion_long_left: 0.000</title></rect>
<rect x="1724.7" y="450.0" width="14.7" height="0.0" fill="#55a868"><title>10k_gpu1 | zhoblimp_passive_agent_deletion_long_left: 0.000</title></rect>
<rect x="1741.4" y="450.0" width="14.7" height="0.0" fill="#8172b3"><title>10k_hanzi_gpu1 | zhoblimp_passive_agent_deletion_long_left: 0.000</title></rect>
<rect x="1758.0" y="450.0" width="14.7" height="0.0" fill="#ccb974"><title>10k_initials_gpu1 | zhoblimp_passive_agent_deletion_long_left: 0.000</title></rect>
<rect x="1774.7" y="450.0" width="14.7" height="0.0" fill="#64b5cd"><title>10k_whitespace_false_gpu1 | zhoblimp_passive_agent_deletion_long_left: 0.000</title></rect>
<text x="1741.4" y="466" transform="rotate(62 1741.4 466)" class="label">zhoblimp_passive_agent_deletion_l...</text>
<rect x="76" y="580" width="14" height="14" fill="#2f6f9f"/>
<text x="96" y="592" class="legend">10k_chinese_gpu1</text>
<rect x="286" y="580" width="14" height="14" fill="#c44e52"/>
<text x="306" y="592" class="legend">10k_chinese_whitespace_false_gpu1</text>
<rect x="496" y="580" width="14" height="14" fill="#55a868"/>
<text x="516" y="592" class="legend">10k_gpu1</text>
<rect x="706" y="580" width="14" height="14" fill="#8172b3"/>
<text x="726" y="592" class="legend">10k_hanzi_gpu1</text>
<rect x="916" y="580" width="14" height="14" fill="#ccb974"/>
<text x="936" y="592" class="legend">10k_initials_gpu1</text>
<rect x="1126" y="580" width="14" height="14" fill="#64b5cd"/>
<text x="1146" y="592" class="legend">10k_whitespace_false_gpu1</text>
</svg>
