<svg xmlns="http://www.w3.org/2000/svg" width="4740" height="620" viewBox="0 0 4740 620">
<style>text{font-family:Arial,sans-serif;fill:#1f2933}.axis{stroke:#9aa5b1;stroke-width:1}.grid{stroke:#e4e7eb;stroke-width:1}.label{font-size:12px}.title{font-size:22px;font-weight:700}.legend{font-size:13px}</style>
<rect width="4740" height="620" fill="#ffffff"/>
<text x="76" y="34" class="title">acc by zhoblimp subtask (3/4)</text>
<line x1="76" y1="450.0" x2="4712" y2="450.0" class="grid"/>
<text x="66" y="454.0" text-anchor="end" class="label">0.0</text>
<line x1="76" y1="374.4" x2="4712" y2="374.4" class="grid"/>
<text x="66" y="378.4" text-anchor="end" class="label">0.2</text>
<line x1="76" y1="298.8" x2="4712" y2="298.8" class="grid"/>
<text x="66" y="302.8" text-anchor="end" class="label">0.4</text>
<line x1="76" y1="223.2" x2="4712" y2="223.2" class="grid"/>
<text x="66" y="227.2" text-anchor="end" class="label">0.6</text>
<line x1="76" y1="147.6" x2="4712" y2="147.6" class="grid"/>
<text x="66" y="151.6" text-anchor="end" class="label">0.8</text>
<line x1="76" y1="72.0" x2="4712" y2="72.0" class="grid"/>
<text x="66" y="76.0" text-anchor="end" class="label">1.0</text>
<line x1="76" y1="72" x2="76" y2="450" class="axis"/>
<line x1="76" y1="450" x2="4712" y2="450" class="axis"/>
<rect x="92.6" y="180.4" width="14.6" height="269.6" fill="#2f6f9f"><title>10k_chinese_gpu1 | zhoblimp_BA_negation: 0.713</title></rect>
<rect x="109.1" y="295.0" width="14.6" height="155.0" fill="#c44e52"><title>10k_chinese_whitespace_false_gpu1 | zhoblimp_BA_negation: 0.410</title></rect>
<rect x="125.7" y="186.7" width="14.6" height="263.3" fill="#55a868"><title>10k_gpu1 | zhoblimp_BA_negation: 0.697</title></rect>
<rect x="142.2" y="281.2" width="14.6" height="168.8" fill="#8172b3"><title>10k_hanzi_gpu1 | zhoblimp_BA_negation: 0.447</title></rect>
<rect x="158.8" y="300.1" width="14.6" height="149.9" fill="#ccb974"><title>10k_initials_gpu1 | zhoblimp_BA_negation: 0.397</title></rect>
<rect x="175.3" y="274.9" width="14.6" height="175.1" fill="#64b5cd"><title>10k_whitespace_false_gpu1 | zhoblimp_BA_negation: 0.463</title></rect>
<text x="142.2" y="466" transform="rotate(62 142.2 466)" class="label">zhoblimp_BA_negation</text>
<rect x="225.0" y="72.0" width="14.6" height="378.0" fill="#2f6f9f"><title>10k_chinese_gpu1 | zhoblimp_fci_renhe_subj: 1.000</title></rect>
<rect x="241.6" y="243.4" width="14.6" height="206.6" fill="#c44e52"><title>10k_chinese_whitespace_false_gpu1 | zhoblimp_fci_renhe_subj: 0.547</title></rect>
<rect x="258.1" y="94.7" width="14.6" height="355.3" fill="#55a868"><title>10k_gpu1 | zhoblimp_fci_renhe_subj: 0.940</title></rect>
<rect x="274.7" y="450.0" width="14.6" height="0.0" fill="#8172b3"><title>10k_hanzi_gpu1 | zhoblimp_fci_renhe_subj: 0.000</title></rect>
<rect x="291.2" y="450.0" width="14.6" height="0.0" fill="#ccb974"><title>10k_initials_gpu1 | zhoblimp_fci_renhe_subj: 0.000</title></rect>
<rect x="307.8" y="209.3" width="14.6" height="240.7" fill="#64b5cd"><title>10k_whitespace_false_gpu1 | zhoblimp_fci_renhe_subj: 0.637</title></rect>
<text x="274.7" y="466" transform="rotate(62 274.7 466)" class="label">zhoblimp_fci_renhe_subj</text>
<rect x="357.5" y="272.3" width="14.6" height="177.7" fill="#2f6f9f"><title>10k_chinese_gpu1 | zhoblimp_left_adverbial_negation: 0.470</title></rect>
<rect x="374.0" y="257.2" width="14.6" height="192.8" fill="#c44e52"><title>10k_chinese_whitespace_false_gpu1 | zhoblimp_left_adverbial_negation: 0.510</title></rect>
<rect x="390.6" y="213.1" width="14.6" height="236.9" fill="#55a868"><title>10k_gpu1 | zhoblimp_left_adverbial_negation: 0.627</title></rect>
<rect x="407.1" y="264.8" width="14.6" height="185.2" fill="#8172b3"><title>10k_hanzi_gpu1 | zhoblimp_left_adverbial_negation: 0.490</title></rect>
<rect x="423.7" y="271.1" width="14.6" height="178.9" fill="#ccb974"><title>10k_initials_gpu1 | zhoblimp_left_adverbial_negation: 0.473</title></rect>
<rect x="440.3" y="243.4" width="14.6" height="206.6" fill="#64b5cd"><title>10k_whitespace_false_gpu1 | zhoblimp_left_adverbial_negation: 0.547</title></rect>
<text x="407.1" y="466" transform="rotate(62 407.1 466)" class="label">zhoblimp_left_adverbial_negation</text>
<rect x="489.9" y="263.5" width="14.6" height="186.5" fill="#2f6f9f"><title>10k_chinese_gpu1 | zhoblimp_anaphor_gender_agreement: 0.493</title></rect>
<rect x="506.5" y="254.7" width="14.6" height="195.3" fill="#c44e52"><title>10k_chinese_whitespace_false_gpu1 | zhoblimp_anaphor_gender_agreement: 0.517</title></rect>
<rect x="523.0" y="263.5" width="14.6" height="186.5" fill="#55a868"><title>10k_gpu1 | zhoblimp_anaphor_gender_agreement: 0.493</title></rect>
<rect x="539.6" y="256.0" width="14.6" height="194.0" fill="#8172b3"><title>10k_hanzi_gpu1 | zhoblimp_anaphor_gender_agreement: 0.513</title></rect>
<rect x="556.2" y="254.7" width="14.6" height="195.3" fill="#ccb974"><title>10k_initials_gpu1 | zhoblimp_anaphor_gender_agreement: 0.517</title></rect>
<rect x="572.7" y="266.0" width="14.6" height="184.0" fill="#64b5cd"><title>10k_whitespace_false_gpu1 | zhoblimp_anaphor_gender_agreement: 0.487</title></rect>
<text x="539.6" y="466" transform="rotate(62 539.6 466)" class="label">zhoblimp_anaphor_gender_agreement</text>
<rect x="622.4" y="229.5" width="14.6" height="220.5" fill="#2f6f9f"><title>10k_chinese_gpu1 | zhoblimp_verb_phrase_left_negation: 0.583</title></rect>
<rect x="638.9" y="262.3" width="14.6" height="187.7" fill="#c44e52"><title>10k_chinese_whitespace_false_gpu1 | zhoblimp_verb_phrase_left_negation: 0.497</title></rect>
<rect x="655.5" y="239.6" width="14.6" height="210.4" fill="#55a868"><title>10k_gpu1 | zhoblimp_verb_phrase_left_negation: 0.557</title></rect>
<rect x="672.1" y="339.1" width="14.6" height="110.9" fill="#8172b3"><title>10k_hanzi_gpu1 | zhoblimp_verb_phrase_left_negation: 0.293</title></rect>
<rect x="688.6" y="208.1" width="14.6" height="241.9" fill="#ccb974"><title>10k_initials_gpu1 | zhoblimp_verb_phrase_left_negation: 0.640</title></rect>
<rect x="705.2" y="303.8" width="14.6" height="146.2" fill="#64b5cd"><title>10k_whitespace_false_gpu1 | zhoblimp_verb_phrase_left_negation: 0.387</title></rect>
<text x="672.1" y="466" transform="rotate(62 672.1 466)" class="label">zhoblimp_verb_phrase_left_negation</text>
<rect x="754.8" y="313.9" width="14.6" height="136.1" fill="#2f6f9f"><title>10k_chinese_gpu1 | zhoblimp_topicalization_OSV_mei: 0.360</title></rect>
<rect x="771.4" y="253.4" width="14.6" height="196.6" fill="#c44e52"><title>10k_chinese_whitespace_false_gpu1 | zhoblimp_topicalization_OSV_mei: 0.520</title></rect>
<rect x="788.0" y="356.8" width="14.6" height="93.2" fill="#55a868"><title>10k_gpu1 | zhoblimp_topicalization_OSV_mei: 0.247</title></rect>
<rect x="804.5" y="271.1" width="14.6" height="178.9" fill="#8172b3"><title>10k_hanzi_gpu1 | zhoblimp_topicalization_OSV_mei: 0.473</title></rect>
<rect x="821.1" y="72.0" width="14.6" height="378.0" fill="#ccb974"><title>10k_initials_gpu1 | zhoblimp_topicalization_OSV_mei: 1.000</title></rect>
<rect x="837.6" y="319.0" width="14.6" height="131.0" fill="#64b5cd"><title>10k_whitespace_false_gpu1 | zhoblimp_topicalization_OSV_mei: 0.347</title></rect>
<text x="804.5" y="466" transform="rotate(62 804.5 466)" class="label">zhoblimp_topicalization_OSV_mei</text>
<rect x="887.3" y="165.2" width="14.6" height="284.8" fill="#2f6f9f"><title>10k_chinese_gpu1 | zhoblimp_question_daodi_nandao_A_not_A_tran: 0.753</title></rect>
<rect x="903.9" y="223.2" width="14.6" height="226.8" fill="#c44e52"><title>10k_chinese_whitespace_false_gpu1 | zhoblimp_question_daodi_nandao_A_not_A_tran: 0.600</title></rect>
<rect x="920.4" y="219.4" width="14.6" height="230.6" fill="#55a868"><title>10k_gpu1 | zhoblimp_question_daodi_nandao_A_not_A_tran: 0.610</title></rect>
<rect x="937.0" y="345.4" width="14.6" height="104.6" fill="#8172b3"><title>10k_hanzi_gpu1 | zhoblimp_question_daodi_nandao_A_not_A_tran: 0.277</title></rect>
<rect x="953.5" y="450.0" width="14.6" height="0.0" fill="#ccb974"><title>10k_initials_gpu1 | zhoblimp_question_daodi_nandao_A_not_A_tran: 0.000</title></rect>
<rect x="970.1" y="182.9" width="14.6" height="267.1" fill="#64b5cd"><title>10k_whitespace_false_gpu1 | zhoblimp_question_daodi_nandao_A_not_A_tran: 0.707</title></rect>
<text x="937.0" y="466" transform="rotate(62 937.0 466)" class="label">zhoblimp_question_daodi_nandao_A_...</text>
<rect x="1019.8" y="126.2" width="14.6" height="323.8" fill="#2f6f9f"><title>10k_chinese_gpu1 | zhoblimp_question_daodi_nandao_2: 0.857</title></rect>
<rect x="1036.3" y="203.0" width="14.6" height="247.0" fill="#c44e52"><title>10k_chinese_whitespace_false_gpu1 | zhoblimp_question_daodi_nandao_2: 0.653</title></rect>
<rect x="1052.9" y="228.2" width="14.6" height="221.8" fill="#55a868"><title>10k_gpu1 | zhoblimp_question_daodi_nandao_2: 0.587</title></rect>
<rect x="1069.4" y="327.8" width="14.6" height="122.2" fill="#8172b3"><title>10k_hanzi_gpu1 | zhoblimp_question_daodi_nandao_2: 0.323</title></rect>
<rect x="1086.0" y="450.0" width="14.6" height="0.0" fill="#ccb974"><title>10k_initials_gpu1 | zhoblimp_question_daodi_nandao_2: 0.000</title></rect>
<rect x="1102.5" y="254.7" width="14.6" height="195.3" fill="#64b5cd"><title>10k_whitespace_false_gpu1 | zhoblimp_question_daodi_nandao_2: 0.517</title></rect>
<text x="1069.4" y="466" transform="rotate(62 1069.4 466)" class="label">zhoblimp_question_daodi_nandao_2</text>
<rect x="1152.2" y="171.5" width="14.6" height="278.5" fill="#2f6f9f"><title>10k_chinese_gpu1 | zhoblimp_question_daodi_nandao_A_not_A_intran: 0.737</title></rect>
<rect x="1168.8" y="237.1" width="14.6" height="212.9" fill="#c44e52"><title>10k_chinese_whitespace_false_gpu1 | zhoblimp_question_daodi_nandao_A_not_A_intran: 0.563</title></rect>
<rect x="1185.3" y="239.6" width="14.6" height="210.4" fill="#55a868"><title>10k_gpu1 | zhoblimp_question_daodi_nandao_A_not_A_intran: 0.557</title></rect>
<rect x="1201.9" y="291.2" width="14.6" height="158.8" fill="#8172b3"><title>10k_hanzi_gpu1 | zhoblimp_question_daodi_nandao_A_not_A_intran: 0.420</title></rect>
<rect x="1218.4" y="446.2" width="14.6" height="3.8" fill="#ccb974"><title>10k_initials_gpu1 | zhoblimp_question_daodi_nandao_A_not_A_intran: 0.010</title></rect>
<rect x="1235.0" y="223.2" width="14.6" height="226.8" fill="#64b5cd"><title>10k_whitespace_false_gpu1 | zhoblimp_question_daodi_nandao_A_not_A_intran: 0.600</title></rect>
<text x="1201.9" y="466" transform="rotate(62 1201.9 466)" class="label">zhoblimp_question_daodi_nandao_A_...</text>
<rect x="1284.7" y="311.4" width="14.6" height="138.6" fill="#2f6f9f"><title>10k_chinese_gpu1 | zhoblimp_question_V_not_VP_1: 0.367</title></rect>
<rect x="1301.2" y="378.2" width="14.6" height="71.8" fill="#c44e52"><title>10k_chinese_whitespace_false_gpu1 | zhoblimp_question_V_not_VP_1: 0.190</title></rect>
<rect x="1317.8" y="194.2" width="14.6" height="255.8" fill="#55a868"><title>10k_gpu1 | zhoblimp_question_V_not_VP_1: 0.677</title></rect>
<rect x="1334.3" y="240.8" width="14.6" height="209.2" fill="#8172b3"><title>10k_hanzi_gpu1 | zhoblimp_question_V_not_VP_1: 0.553</title></rect>
<rect x="1350.9" y="450.0" width="14.6" height="0.0" fill="#ccb974"><title>10k_initials_gpu1 | zhoblimp_question_V_not_VP_1: 0.000</title></rect>
<rect x="1367.5" y="72.0" width="14.6" height="378.0" fill="#64b5cd"><title>10k_whitespace_false_gpu1 | zhoblimp_question_V_not_VP_1: 1.000</title></rect>
<text x="1334.3" y="466" transform="rotate(62 1334.3 466)" class="label">zhoblimp_question_V_not_VP_1</text>
<rect x="1417.1" y="450.0" width="14.6" height="0.0" fill="#2f6f9f"><title>10k_chinese_gpu1 | zhoblimp_npi_renhe_conditional: 0.000</title></rect>
<rect x="1433.7" y="79.6" width="14.6" height="370.4" fill="#c44e52"><title>10k_chinese_whitespace_false_gpu1 | zhoblimp_npi_renhe_conditional: 0.980</title></rect>
<rect x="1450.2" y="450.0" width="14.6" height="0.0" fill="#55a868"><title>10k_gpu1 | zhoblimp_npi_renhe_conditional: 0.000</title></rect>
<rect x="1466.8" y="72.0" width="14.6" height="378.0" fill="#8172b3"><title>10k_hanzi_gpu1 | zhoblimp_npi_renhe_conditional: 1.000</title></rect>
<rect x="1483.4" y="278.6" width="14.6" height="171.4" fill="#ccb974"><title>10k_initials_gpu1 | zhoblimp_npi_renhe_conditional: 0.453</title></rect>
<rect x="1499.9" y="316.4" width="14.6" height="133.6" fill="#64b5cd"><title>10k_whitespace_false_gpu1 | zhoblimp_npi_renhe_conditional: 0.353</title></rect>
<text x="1466.8" y="466" transform="rotate(62 1466.8 466)" class="label">zhoblimp_npi_renhe_conditional</text>
<rect x="1549.6" y="262.3" width="14.6" height="187.7" fill="#2f6f9f"><title>10k_chinese_gpu1 | zhoblimp_right_yijing_b: 0.497</title></rect>
<rect x="1566.1" y="240.8" width="14.6" height="209.2" fill="#c44e52"><title>10k_chinese_whitespace_false_gpu1 | zhoblimp_right_yijing_b: 0.553</title></rect>
<rect x="1582.7" y="363.1" width="14.6" height="86.9" fill="#55a868"><title>10k_gpu1 | zhoblimp_right_yijing_b: 0.230</title></rect>
<rect x="1599.3" y="230.8" width="14.6" height="219.2" fill="#8172b3"><title>10k_hanzi_gpu1 | zhoblimp_right_yijing_b: 0.580</title></rect>
<rect x="1615.8" y="256.0" width="14.6" height="194.0" fill="#ccb974"><title>10k_initials_gpu1 | zhoblimp_right_yijing_b: 0.513</title></rect>
<rect x="1632.4" y="296.3" width="14.6" height="153.7" fill="#64b5cd"><title>10k_whitespace_false_gpu1 | zhoblimp_right_yijing_b: 0.407</title></rect>
<text x="1599.3" y="466" transform="rotate(62 1599.3 466)" class="label">zhoblimp_right_yijing_b</text>
<rect x="1682.0" y="242.1" width="14.6" height="207.9" fill="#2f6f9f"><title>10k_chinese_gpu1 | zhoblimp_passive_intransitive: 0.550</title></rect>
<rect x="1698.6" y="254.7" width="14.6" height="195.3" fill="#c44e52"><title>10k_chinese_whitespace_false_gpu1 | zhoblimp_passive_intransitive: 0.517</title></rect>
<rect x="1715.2" y="253.4" width="14.6" height="196.6" fill="#55a868"><title>10k_gpu1 | zhoblimp_passive_intransitive: 0.520</title></rect>
<rect x="1731.7" y="302.6" width="14.6" height="147.4" fill="#8172b3"><title>10k_hanzi_gpu1 | zhoblimp_passive_intransitive: 0.390</title></rect>
<rect x="1748.3" y="305.1" width="14.6" height="144.9" fill="#ccb974"><title>10k_initials_gpu1 | zhoblimp_passive_intransitive: 0.383</title></rect>
<rect x="1764.8" y="292.5" width="14.6" height="157.5" fill="#64b5cd"><title>10k_whitespace_false_gpu1 | zhoblimp_passive_intransitive: 0.417</title></rect>
<text x="1731.7" y="466" transform="rotate(62 1731.7 466)" class="label">zhoblimp_passive_intransitive</text>
<rect x="1814.5" y="421.0" width="14.6" height="29.0" fill="#2f6f9f"><title>10k_chinese_gpu1 | zhoblimp_BEI_preposition: 0.077</title></rect>
<rect x="1831.1" y="245.9" width="14.6" height="204.1" fill="#c44e52"><title>10k_chinese_whitespace_false_gpu1 | zhoblimp_BEI_preposition: 0.540</title></rect>
<rect x="1847.6" y="300.1" width="14.6" height="149.9" fill="#55a868"><title>10k_gpu1 | zhoblimp_BEI_preposition: 0.397</title></rect>
<rect x="1864.2" y="371.9" width="14.6" height="78.1" fill="#8172b3"><title>10k_hanzi_gpu1 | zhoblimp_BEI_preposition: 0.207</title></rect>
<rect x="1880.7" y="72.0" width="14.6" height="378.0" fill="#ccb974"><title>10k_initials_gpu1 | zhoblimp_BEI_preposition: 1.000</title></rect>
<rect x="1897.3" y="261.0" width="14.6" height="189.0" fill="#64b5cd"><title>10k_whitespace_false_gpu1 | zhoblimp_BEI_preposition: 0.500</title></rect>
<text x="1864.2" y="466" transform="rotate(62 1864.2 466)" class="label">zhoblimp_BEI_preposition</text>
<rect x="1947.0" y="247.1" width="14.6" height="202.9" fill="#2f6f9f"><title>10k_chinese_gpu1 | zhoblimp_causative_shi_ba: 0.537</title></rect>
<rect x="1963.5" y="305.1" width="14.6" height="144.9" fill="#c44e52"><title>10k_chinese_whitespace_false_gpu1 | zhoblimp_causative_shi_ba: 0.383</title></rect>
<rect x="1980.1" y="353.0" width="14.6" height="97.0" fill="#55a868"><title>10k_gpu1 | zhoblimp_causative_shi_ba: 0.257</title></rect>
<rect x="1996.6" y="262.3" width="14.6" height="187.7" fill="#8172b3"><title>10k_hanzi_gpu1 | zhoblimp_causative_shi_ba: 0.497</title></rect>
<rect x="2013.2" y="89.6" width="14.6" height="360.4" fill="#ccb974"><title>10k_initials_gpu1 | zhoblimp_causative_shi_ba: 0.953</title></rect>
<rect x="2029.7" y="417.2" width="14.6" height="32.8" fill="#64b5cd"><title>10k_whitespace_false_gpu1 | zhoblimp_causative_shi_ba: 0.087</title></rect>
<text x="1996.6" y="466" transform="rotate(62 1996.6 466)" class="label">zhoblimp_causative_shi_ba</text>
<rect x="2079.4" y="261.0" width="14.6" height="189.0" fill="#2f6f9f"><title>10k_chinese_gpu1 | zhoblimp_question_A_not_A_daodi_b: 0.500</title></rect>
<rect x="2096.0" y="287.5" width="14.6" height="162.5" fill="#c44e52"><title>10k_chinese_whitespace_false_gpu1 | zhoblimp_question_A_not_A_daodi_b: 0.430</title></rect>
<rect x="2112.5" y="347.9" width="14.6" height="102.1" fill="#55a868"><title>10k_gpu1 | zhoblimp_question_A_not_A_daodi_b: 0.270</title></rect>
<rect x="2129.1" y="232.0" width="14.6" height="218.0" fill="#8172b3"><title>10k_hanzi_gpu1 | zhoblimp_question_A_not_A_daodi_b: 0.577</title></rect>
<rect x="2145.6" y="284.9" width="14.6" height="165.1" fill="#ccb974"><title>10k_initials_gpu1 | zhoblimp_question_A_not_A_daodi_b: 0.437</title></rect>
<rect x="2162.2" y="326.5" width="14.6" height="123.5" fill="#64b5cd"><title>10k_whitespace_false_gpu1 | zhoblimp_question_A_not_A_daodi_b: 0.327</title></rect>
<text x="2129.1" y="466" transform="rotate(62 2129.1 466)" class="label">zhoblimp_question_A_not_A_daodi_b</text>
<rect x="2211.9" y="253.4" width="14.6" height="196.6" fill="#2f6f9f"><title>10k_chinese_gpu1 | zhoblimp_question_A_not_A_daodi_a: 0.520</title></rect>
<rect x="2228.4" y="302.6" width="14.6" height="147.4" fill="#c44e52"><title>10k_chinese_whitespace_false_gpu1 | zhoblimp_question_A_not_A_daodi_a: 0.390</title></rect>
<rect x="2245.0" y="375.7" width="14.6" height="74.3" fill="#55a868"><title>10k_gpu1 | zhoblimp_question_A_not_A_daodi_a: 0.197</title></rect>
<rect x="2261.5" y="245.9" width="14.6" height="204.1" fill="#8172b3"><title>10k_hanzi_gpu1 | zhoblimp_question_A_not_A_daodi_a: 0.540</title></rect>
<rect x="2278.1" y="288.7" width="14.6" height="161.3" fill="#ccb974"><title>10k_initials_gpu1 | zhoblimp_question_A_not_A_daodi_a: 0.427</title></rect>
<rect x="2294.7" y="342.9" width="14.6" height="107.1" fill="#64b5cd"><title>10k_whitespace_false_gpu1 | zhoblimp_question_A_not_A_daodi_a: 0.283</title></rect>
<text x="2261.5" y="466" transform="rotate(62 2261.5 466)" class="label">zhoblimp_question_A_not_A_daodi_a</text>
<rect x="2344.3" y="244.6" width="14.6" height="205.4" fill="#2f6f9f"><title>10k_chinese_gpu1 | zhoblimp_question_nandao_scope_2: 0.543</title></rect>
<rect x="2360.9" y="301.3" width="14.6" height="148.7" fill="#c44e52"><title>10k_chinese_whitespace_false_gpu1 | zhoblimp_question_nandao_scope_2: 0.393</title></rect>
<rect x="2377.4" y="393.3" width="14.6" height="56.7" fill="#55a868"><title>10k_gpu1 | zhoblimp_question_nandao_scope_2: 0.150</title></rect>
<rect x="2394.0" y="234.5" width="14.6" height="215.5" fill="#8172b3"><title>10k_hanzi_gpu1 | zhoblimp_question_nandao_scope_2: 0.570</title></rect>
<rect x="2410.6" y="378.2" width="14.6" height="71.8" fill="#ccb974"><title>10k_initials_gpu1 | zhoblimp_question_nandao_scope_2: 0.190</title></rect>
<rect x="2427.1" y="288.7" width="14.6" height="161.3" fill="#64b5cd"><title>10k_whitespace_false_gpu1 | zhoblimp_question_nandao_scope_2: 0.427</title></rect>
<text x="2394.0" y="466" transform="rotate(62 2394.0 466)" class="label">zhoblimp_question_nandao_scope_2</text>
<rect x="2476.8" y="345.4" width="14.6" height="104.6" fill="#2f6f9f"><title>10k_chinese_gpu1 | zhoblimp_npi_renhe_neg_scope_locP: 0.277</title></rect>
<rect x="2493.3" y="264.8" width="14.6" height="185.2" fill="#c44e52"><title>10k_chinese_whitespace_false_gpu1 | zhoblimp_npi_renhe_neg_scope_locP: 0.490</title></rect>
<rect x="2509.9" y="431.1" width="14.6" height="18.9" fill="#55a868"><title>10k_gpu1 | zhoblimp_npi_renhe_neg_scope_locP: 0.050</title></rect>
<rect x="2526.5" y="317.7" width="14.6" height="132.3" fill="#8172b3"><title>10k_hanzi_gpu1 | zhoblimp_npi_renhe_neg_scope_locP: 0.350</title></rect>
<rect x="2543.0" y="262.3" width="14.6" height="187.7" fill="#ccb974"><title>10k_initials_gpu1 | zhoblimp_npi_renhe_neg_scope_locP: 0.497</title></rect>
<rect x="2559.6" y="221.9" width="14.6" height="228.1" fill="#64b5cd"><title>10k_whitespace_false_gpu1 | zhoblimp_npi_renhe_neg_scope_locP: 0.603</title></rect>
<text x="2526.5" y="466" transform="rotate(62 2526.5 466)" class="label">zhoblimp_npi_renhe_neg_scope_locP</text>
<rect x="2609.2" y="298.8" width="14.6" height="151.2" fill="#2f6f9f"><title>10k_chinese_gpu1 | zhoblimp_verb_negation_particle: 0.400</title></rect>
<rect x="2625.8" y="290.0" width="14.6" height="160.0" fill="#c44e52"><title>10k_chinese_whitespace_false_gpu1 | zhoblimp_verb_negation_particle: 0.423</title></rect>
<rect x="2642.4" y="312.7" width="14.6" height="137.3" fill="#55a868"><title>10k_gpu1 | zhoblimp_verb_negation_particle: 0.363</title></rect>
<rect x="2658.9" y="450.0" width="14.6" height="0.0" fill="#8172b3"><title>10k_hanzi_gpu1 | zhoblimp_verb_negation_particle: 0.000</title></rect>
<rect x="2675.5" y="123.7" width="14.6" height="326.3" fill="#ccb974"><title>10k_initials_gpu1 | zhoblimp_verb_negation_particle: 0.863</title></rect>
<rect x="2692.0" y="373.1" width="14.6" height="76.9" fill="#64b5cd"><title>10k_whitespace_false_gpu1 | zhoblimp_verb_negation_particle: 0.203</title></rect>
<text x="2658.9" y="466" transform="rotate(62 2658.9 466)" class="label">zhoblimp_verb_negation_particle</text>
<rect x="2741.7" y="421.0" width="14.6" height="29.0" fill="#2f6f9f"><title>10k_chinese_gpu1 | zhoblimp_principle_A_c_command_number: 0.077</title></rect>
<rect x="2758.3" y="404.6" width="14.6" height="45.4" fill="#c44e52"><title>10k_chinese_whitespace_false_gpu1 | zhoblimp_principle_A_c_command_number: 0.120</title></rect>
<rect x="2774.8" y="450.0" width="14.6" height="0.0" fill="#55a868"><title>10k_gpu1 | zhoblimp_principle_A_c_command_number: 0.000</title></rect>
<rect x="2791.4" y="72.0" width="14.6" height="378.0" fill="#8172b3"><title>10k_hanzi_gpu1 | zhoblimp_principle_A_c_command_number: 1.000</title></rect>
<rect x="2807.9" y="72.0" width="14.6" height="378.0" fill="#ccb974"><title>10k_initials_gpu1 | zhoblimp_principle_A_c_command_number: 1.000</title></rect>
<rect x="2824.5" y="448.7" width="14.6" height="1.3" fill="#64b5cd"><title>10k_whitespace_false_gpu1 | zhoblimp_principle_A_c_command_number: 0.003</title></rect>
<text x="2791.4" y="466" transform="rotate(62 2791.4 466)" class="label">zhoblimp_principle_A_c_command_nu...</text>
<rect x="2874.2" y="414.7" width="14.6" height="35.3" fill="#2f6f9f"><title>10k_chinese_gpu1 | zhoblimp_anaphor_number_agreement: 0.093</title></rect>
<rect x="2890.7" y="424.8" width="14.6" height="25.2" fill="#c44e52"><title>10k_chinese_whitespace_false_gpu1 | zhoblimp_anaphor_number_agreement: 0.067</title></rect>
<rect x="2907.3" y="450.0" width="14.6" height="0.0" fill="#55a868"><title>10k_gpu1 | zhoblimp_anaphor_number_agreement: 0.000</title></rect>
<rect x="2923.8" y="72.0" width="14.6" height="378.0" fill="#8172b3"><title>10k_hanzi_gpu1 | zhoblimp_anaphor_number_agreement: 1.000</title></rect>
<rect x="2940.4" y="72.0" width="14.6" height="378.0" fill="#ccb974"><title>10k_initials_gpu1 | zhoblimp_anaphor_number_agreement: 1.000</title></rect>
<rect x="2956.9" y="442.4" width="14.6" height="7.6" fill="#64b5cd"><title>10k_whitespace_false_gpu1 | zhoblimp_anaphor_number_agreement: 0.020</title></rect>
<text x="2923.8" y="466" transform="rotate(62 2923.8 466)" class="label">zhoblimp_anaphor_number_agreement</text>
<rect x="3006.6" y="374.4" width="14.6" height="75.6" fill="#2f6f9f"><title>10k_chinese_gpu1 | zhoblimp_topicalization_OSV: 0.200</title></rect>
<rect x="3023.2" y="303.8" width="14.6" height="146.2" fill="#c44e52"><title>10k_chinese_whitespace_false_gpu1 | zhoblimp_topicalization_OSV: 0.387</title></rect>
<rect x="3039.7" y="413.5" width="14.6" height="36.5" fill="#55a868"><title>10k_gpu1 | zhoblimp_topicalization_OSV: 0.097</title></rect>
<rect x="3056.3" y="337.9" width="14.6" height="112.1" fill="#8172b3"><title>10k_hanzi_gpu1 | zhoblimp_topicalization_OSV: 0.297</title></rect>
<rect x="3072.8" y="155.2" width="14.6" height="294.8" fill="#ccb974"><title>10k_initials_gpu1 | zhoblimp_topicalization_OSV: 0.780</title></rect>
<rect x="3089.4" y="295.0" width="14.6" height="155.0" fill="#64b5cd"><title>10k_whitespace_false_gpu1 | zhoblimp_topicalization_OSV: 0.410</title></rect>
<text x="3056.3" y="466" transform="rotate(62 3056.3 466)" class="label">zhoblimp_topicalization_OSV</text>
<rect x="3139.1" y="293.8" width="14.6" height="156.2" fill="#2f6f9f"><title>10k_chinese_gpu1 | zhoblimp_renhe_no_episodic_sentences: 0.413</title></rect>
<rect x="3155.6" y="331.6" width="14.6" height="118.4" fill="#c44e52"><title>10k_chinese_whitespace_false_gpu1 | zhoblimp_renhe_no_episodic_sentences: 0.313</title></rect>
<rect x="3172.2" y="295.0" width="14.6" height="155.0" fill="#55a868"><title>10k_gpu1 | zhoblimp_renhe_no_episodic_sentences: 0.410</title></rect>
<rect x="3188.7" y="450.0" width="14.6" height="0.0" fill="#8172b3"><title>10k_hanzi_gpu1 | zhoblimp_renhe_no_episodic_sentences: 0.000</title></rect>
<rect x="3205.3" y="119.9" width="14.6" height="330.1" fill="#ccb974"><title>10k_initials_gpu1 | zhoblimp_renhe_no_episodic_sentences: 0.873</title></rect>
<rect x="3221.9" y="407.2" width="14.6" height="42.8" fill="#64b5cd"><title>10k_whitespace_false_gpu1 | zhoblimp_renhe_no_episodic_sentences: 0.113</title></rect>
<text x="3188.7" y="466" transform="rotate(62 3188.7 466)" class="label">zhoblimp_renhe_no_episodic_senten...</text>
<rect x="3271.5" y="353.0" width="14.6" height="97.0" fill="#2f6f9f"><title>10k_chinese_gpu1 | zhoblimp_superlative_quantifiers_1: 0.257</title></rect>
<rect x="3288.1" y="138.8" width="14.6" height="311.2" fill="#c44e52"><title>10k_chinese_whitespace_false_gpu1 | zhoblimp_superlative_quantifiers_1: 0.823</title></rect>
<rect x="3304.6" y="191.7" width="14.6" height="258.3" fill="#55a868"><title>10k_gpu1 | zhoblimp_superlative_quantifiers_1: 0.683</title></rect>
<rect x="3321.2" y="450.0" width="14.6" height="0.0" fill="#8172b3"><title>10k_hanzi_gpu1 | zhoblimp_superlative_quantifiers_1: 0.000</title></rect>
<rect x="3337.8" y="450.0" width="14.6" height="0.0" fill="#ccb974"><title>10k_initials_gpu1 | zhoblimp_superlative_quantifiers_1: 0.000</title></rect>
<rect x="3354.3" y="322.7" width="14.6" height="127.3" fill="#64b5cd"><title>10k_whitespace_false_gpu1 | zhoblimp_superlative_quantifiers_1: 0.337</title></rect>
<text x="3321.2" y="466" transform="rotate(62 3321.2 466)" class="label">zhoblimp_superlative_quantifiers_1</text>
<rect x="3404.0" y="259.7" width="14.6" height="190.3" fill="#2f6f9f"><title>10k_chinese_gpu1 | zhoblimp_renhe_non_factive_verb: 0.503</title></rect>
<rect x="3420.5" y="224.5" width="14.6" height="225.5" fill="#c44e52"><title>10k_chinese_whitespace_false_gpu1 | zhoblimp_renhe_non_factive_verb: 0.597</title></rect>
<rect x="3437.1" y="424.8" width="14.6" height="25.2" fill="#55a868"><title>10k_gpu1 | zhoblimp_renhe_non_factive_verb: 0.067</title></rect>
<rect x="3453.7" y="407.2" width="14.6" height="42.8" fill="#8172b3"><title>10k_hanzi_gpu1 | zhoblimp_renhe_non_factive_verb: 0.113</title></rect>
<rect x="3470.2" y="347.9" width="14.6" height="102.1" fill="#ccb974"><title>10k_initials_gpu1 | zhoblimp_renhe_non_factive_verb: 0.270</title></rect>
<rect x="3486.8" y="243.4" width="14.6" height="206.6" fill="#64b5cd"><title>10k_whitespace_false_gpu1 | zhoblimp_renhe_non_factive_verb: 0.547</title></rect>
<text x="3453.7" y="466" transform="rotate(62 3453.7 466)" class="label">zhoblimp_renhe_non_factive_verb</text>
<rect x="3536.4" y="297.5" width="14.6" height="152.5" fill="#2f6f9f"><title>10k_chinese_gpu1 | zhoblimp_question_nandao_scope_1: 0.403</title></rect>
<rect x="3553.0" y="264.8" width="14.6" height="185.2" fill="#c44e52"><title>10k_chinese_whitespace_false_gpu1 | zhoblimp_question_nandao_scope_1: 0.490</title></rect>
<rect x="3569.6" y="218.2" width="14.6" height="231.8" fill="#55a868"><title>10k_gpu1 | zhoblimp_question_nandao_scope_1: 0.613</title></rect>
<rect x="3586.1" y="379.4" width="14.6" height="70.6" fill="#8172b3"><title>10k_hanzi_gpu1 | zhoblimp_question_nandao_scope_1: 0.187</title></rect>
<rect x="3602.7" y="379.4" width="14.6" height="70.6" fill="#ccb974"><title>10k_initials_gpu1 | zhoblimp_question_nandao_scope_1: 0.187</title></rect>
<rect x="3619.2" y="378.2" width="14.6" height="71.8" fill="#64b5cd"><title>10k_whitespace_false_gpu1 | zhoblimp_question_nandao_scope_1: 0.190</title></rect>
<text x="3586.1" y="466" transform="rotate(62 3586.1 466)" class="label">zhoblimp_question_nandao_scope_1</text>
<rect x="3668.9" y="443.7" width="14.6" height="6.3" fill="#2f6f9f"><title>10k_chinese_gpu1 | zhoblimp_BA_BEI_subj_drop: 0.017</title></rect>
<rect x="3685.5" y="223.2" width="14.6" height="226.8" fill="#c44e52"><title>10k_chinese_whitespace_false_gpu1 | zhoblimp_BA_BEI_subj_drop: 0.600</title></rect>
<rect x="3702.0" y="431.1" width="14.6" height="18.9" fill="#55a868"><title>10k_gpu1 | zhoblimp_BA_BEI_subj_drop: 0.050</title></rect>
<rect x="3718.6" y="208.1" width="14.6" height="241.9" fill="#8172b3"><title>10k_hanzi_gpu1 | zhoblimp_BA_BEI_subj_drop: 0.640</title></rect>
<rect x="3735.1" y="414.7" width="14.6" height="35.3" fill="#ccb974"><title>10k_initials_gpu1 | zhoblimp_BA_BEI_subj_drop: 0.093</title></rect>
<rect x="3751.7" y="375.7" width="14.6" height="74.3" fill="#64b5cd"><title>10k_whitespace_false_gpu1 | zhoblimp_BA_BEI_subj_drop: 0.197</title></rect>
<text x="3718.6" y="466" transform="rotate(62 3718.6 466)" class="label">zhoblimp_BA_BEI_subj_drop</text>
<rect x="3801.4" y="388.3" width="14.6" height="61.7" fill="#2f6f9f"><title>10k_chinese_gpu1 | zhoblimp_right_yijing_a: 0.163</title></rect>
<rect x="3817.9" y="384.5" width="14.6" height="65.5" fill="#c44e52"><title>10k_chinese_whitespace_false_gpu1 | zhoblimp_right_yijing_a: 0.173</title></rect>
<rect x="3834.5" y="413.5" width="14.6" height="36.5" fill="#55a868"><title>10k_gpu1 | zhoblimp_right_yijing_a: 0.097</title></rect>
<rect x="3851.0" y="73.3" width="14.6" height="376.7" fill="#8172b3"><title>10k_hanzi_gpu1 | zhoblimp_right_yijing_a: 0.997</title></rect>
<rect x="3867.6" y="417.2" width="14.6" height="32.8" fill="#ccb974"><title>10k_initials_gpu1 | zhoblimp_right_yijing_a: 0.087</title></rect>
<rect x="3884.1" y="437.4" width="14.6" height="12.6" fill="#64b5cd"><title>10k_whitespace_false_gpu1 | zhoblimp_right_yijing_a: 0.033</title></rect>
<text x="3851.0" y="466" transform="rotate(62 3851.0 466)" class="label">zhoblimp_right_yijing_a</text>
<rect x="3933.8" y="424.8" width="14.6" height="25.2" fill="#2f6f9f"><title>10k_chinese_gpu1 | zhoblimp_classifier_noun_agreement_no_gap: 0.067</title></rect>
<rect x="3950.4" y="368.1" width="14.6" height="81.9" fill="#c44e52"><title>10k_chinese_whitespace_false_gpu1 | zhoblimp_classifier_noun_agreement_no_gap: 0.217</title></rect>
<rect x="3966.9" y="390.8" width="14.6" height="59.2" fill="#55a868"><title>10k_gpu1 | zhoblimp_classifier_noun_agreement_no_gap: 0.157</title></rect>
<rect x="3983.5" y="317.7" width="14.6" height="132.3" fill="#8172b3"><title>10k_hanzi_gpu1 | zhoblimp_classifier_noun_agreement_no_gap: 0.350</title></rect>
<rect x="4000.0" y="349.2" width="14.6" height="100.8" fill="#ccb974"><title>10k_initials_gpu1 | zhoblimp_classifier_noun_agreement_no_gap: 0.267</title></rect>
<rect x="4016.6" y="315.2" width="14.6" height="134.8" fill="#64b5cd"><title>10k_whitespace_false_gpu1 | zhoblimp_classifier_noun_agreement_no_gap: 0.357</title></rect>
<text x="3983.5" y="466" transform="rotate(62 3983.5 466)" class="label">zhoblimp_classifier_noun_agreemen...</text>
<rect x="4066.3" y="450.0" width="14.6" height="0.0" fill="#2f6f9f"><title>10k_chinese_gpu1 | zhoblimp_renhe_no_superordinate_negation: 0.000</title></rect>
<rect x="4082.8" y="450.0" width="14.6" height="0.0" fill="#c44e52"><title>10k_chinese_whitespace_false_gpu1 | zhoblimp_renhe_no_superordinate_negation: 0.000</title></rect>
<rect x="4099.4" y="408.4" width="14.6" height="41.6" fill="#55a868"><title>10k_gpu1 | zhoblimp_renhe_no_superordinate_negation: 0.110</title></rect>
<rect x="4115.9" y="450.0" width="14.6" height="0.0" fill="#8172b3"><title>10k_hanzi_gpu1 | zhoblimp_renhe_no_superordinate_negation: 0.000</title></rect>
<rect x="4132.5" y="450.0" width="14.6" height="0.0" fill="#ccb974"><title>10k_initials_gpu1 | zhoblimp_renhe_no_superordinate_negation: 0.000</title></rect>
<rect x="4149.1" y="72.0" width="14.6" height="378.0" fill="#64b5cd"><title>10k_whitespace_false_gpu1 | zhoblimp_renhe_no_superordinate_negation: 1.000</title></rect>
<text x="4115.9" y="466" transform="rotate(62 4115.9 466)" class="label">zhoblimp_renhe_no_superordinate_n...</text>
<rect x="4198.7" y="369.4" width="14.6" height="80.6" fill="#2f6f9f"><title>10k_chinese_gpu1 | zhoblimp_preposition_insertion: 0.213</title></rect>
<rect x="4215.3" y="327.8" width="14.6" height="122.2" fill="#c44e52"><title>10k_chinese_whitespace_false_gpu1 | zhoblimp_preposition_insertion: 0.323</title></rect>
<rect x="4231.8" y="306.4" width="14.6" height="143.6" fill="#55a868"><title>10k_gpu1 | zhoblimp_preposition_insertion: 0.380</title></rect>
<rect x="4248.4" y="446.2" width="14.6" height="3.8" fill="#8172b3"><title>10k_hanzi_gpu1 | zhoblimp_preposition_insertion: 0.010</title></rect>
<rect x="4265.0" y="442.4" width="14.6" height="7.6" fill="#ccb974"><title>10k_initials_gpu1 | zhoblimp_preposition_insertion: 0.020</title></rect>
<rect x="4281.5" y="400.9" width="14.6" height="49.1" fill="#64b5cd"><title>10k_whitespace_false_gpu1 | zhoblimp_preposition_insertion: 0.130</title></rect>
<text x="4248.4" y="466" transform="rotate(62 4248.4 466)" class="label">zhoblimp_preposition_insertion</text>
<rect x="4331.2" y="447.5" width="14.6" height="2.5" fill="#2f6f9f"><title>10k_chinese_gpu1 | zhoblimp_superlative_quantifiers_2: 0.007</title></rect>
<rect x="4347.7" y="124.9" width="14.6" height="325.1" fill="#c44e52"><title>10k_chinese_whitespace_false_gpu1 | zhoblimp_superlative_quantifiers_2: 0.860</title></rect>
<rect x="4364.3" y="450.0" width="14.6" height="0.0" fill="#55a868"><title>10k_gpu1 | zhoblimp_superlative_quantifiers_2: 0.000</title></rect>
<rect x="4380.9" y="450.0" width="14.6" height="0.0" fill="#8172b3"><title>10k_hanzi_gpu1 | zhoblimp_superlative_quantifiers_2: 0.000</title></rect>
<rect x="4397.4" y="450.0" width="14.6" height="0.0" fill="#ccb974"><title>10k_initials_gpu1 | zhoblimp_superlative_quantifiers_2: 0.000</title></rect>
<rect x="4414.0" y="408.4" width="14.6" height="41.6" fill="#64b5cd"><title>10k_whitespace_false_gpu1 | zhoblimp_superlative_quantifiers_2: 0.110</title></rect>
<text x="4380.9" y="466" transform="rotate(62 4380.9 466)" class="label">zhoblimp_superlative_quantifiers_2</text>
<rect x="4463.6" y="443.7" width="14.6" height="6.3" fill="#2f6f9f"><title>10k_chinese_gpu1 | zhoblimp_noun_adjective_shi: 0.017</title></rect>
<rect x="4480.2" y="140.0" width="14.6" height="310.0" fill="#c44e52"><title>10k_chinese_whitespace_false_gpu1 | zhoblimp_noun_adjective_shi: 0.820</title></rect>
<rect x="4496.8" y="450.0" width="14.6" height="0.0" fill="#55a868"><title>10k_gpu1 | zhoblimp_noun_adjective_shi: 0.000</title></rect>
<rect x="4513.3" y="450.0" width="14.6" height="0.0" fill="#8172b3"><title>10k_hanzi_gpu1 | zhoblimp_noun_adjective_shi: 0.000</title></rect>
<rect x="4529.9" y="450.0" width="14.6" height="0.0" fill="#ccb974"><title>10k_initials_gpu1 | zhoblimp_noun_adjective_shi: 0.000</title></rect>
<rect x="4546.4" y="445.0" width="14.6" height="5.0" fill="#64b5cd"><title>10k_whitespace_false_gpu1 | zhoblimp_noun_adjective_shi: 0.013</title></rect>
<text x="4513.3" y="466" transform="rotate(62 4513.3 466)" class="label">zhoblimp_noun_adjective_shi</text>
<rect x="4596.1" y="390.8" width="14.6" height="59.2" fill="#2f6f9f"><title>10k_chinese_gpu1 | zhoblimp_agent_deletion: 0.157</title></rect>
<rect x="4612.7" y="198.0" width="14.6" height="252.0" fill="#c44e52"><title>10k_chinese_whitespace_false_gpu1 | zhoblimp_agent_deletion: 0.667</title></rect>
<rect x="4629.2" y="450.0" width="14.6" height="0.0" fill="#55a868"><title>10k_gpu1 | zhoblimp_agent_deletion: 0.000</title></rect>
<rect x="4645.8" y="450.0" width="14.6" height="0.0" fill="#8172b3"><title>10k_hanzi_gpu1 | zhoblimp_agent_deletion: 0.000</title></rect>
<rect x="4662.3" y="450.0" width="14.6" height="0.0" fill="#ccb974"><title>10k_initials_gpu1 | zhoblimp_agent_deletion: 0.000</title></rect>
<rect x="4678.9" y="450.0" width="14.6" height="0.0" fill="#64b5cd"><title>10k_whitespace_false_gpu1 | zhoblimp_agent_deletion: 0.000</title></rect>
<text x="4645.8" y="466" transform="rotate(62 4645.8 466)" class="label">zhoblimp_agent_deletion</text>
<rect x="76" y="580" width="14" height="14" fill="#2f6f9f"/>
<text x="96" y="592" class="legend">10k_chinese_gpu1</text>
<rect x="286" y="580" width="14" height="14" fill="#c44e52"/>
<text x="306" y="592" class="legend">10k_chinese_whitespace_false_gpu1</text>
<rect x="496" y="580" width="14" height="14" fill="#55a868"/>
<text x="516" y="592" class="legend">10k_gpu1</text>
<rect x="706" y="580" width="14" height="14" fill="#8172b3"/>
<text x="726" y="592" class="legend">10k_hanzi_gpu1</text>
<rect x="916" y="580" width="14" height="14" fill="#ccb974"/>
<text x="936" y="592" class="legend">10k_initials_gpu1</text>
<rect x="1126" y="580" width="14" height="14" fill="#64b5cd"/>
<text x="1146" y="592" class="legend">10k_whitespace_false_gpu1</text>
</svg>
