<svg xmlns="http://www.w3.org/2000/svg" width="3200" height="620" viewBox="0 0 3200 620">
<style>text{font-family:Arial,sans-serif;fill:#1f2933}.axis{stroke:#9aa5b1;stroke-width:1}.grid{stroke:#e4e7eb;stroke-width:1}.label{font-size:12px}.title{font-size:22px;font-weight:700}.legend{font-size:13px}</style>
<rect width="3200" height="620" fill="#ffffff"/>
<text x="76" y="34" class="title">acc by zhoblimp subtask (2/4)</text>
<line x1="76" y1="450.0" x2="3172" y2="450.0" class="grid"/>
<text x="66" y="454.0" text-anchor="end" class="label">0.0</text>
<line x1="76" y1="374.4" x2="3172" y2="374.4" class="grid"/>
<text x="66" y="378.4" text-anchor="end" class="label">0.2</text>
<line x1="76" y1="298.8" x2="3172" y2="298.8" class="grid"/>
<text x="66" y="302.8" text-anchor="end" class="label">0.4</text>
<line x1="76" y1="223.2" x2="3172" y2="223.2" class="grid"/>
<text x="66" y="227.2" text-anchor="end" class="label">0.6</text>
<line x1="76" y1="147.6" x2="3172" y2="147.6" class="grid"/>
<text x="66" y="151.6" text-anchor="end" class="label">0.8</text>
<line x1="76" y1="72.0" x2="3172" y2="72.0" class="grid"/>
<text x="66" y="76.0" text-anchor="end" class="label">1.0</text>
<line x1="76" y1="72" x2="76" y2="450" class="axis"/>
<line x1="76" y1="450" x2="3172" y2="450" class="axis"/>
<rect x="87.1" y="123.7" width="14.6" height="326.3" fill="#2f6f9f"><title>10k_chinese_gpu1 | zhoblimp_relative_operator_who: 0.863</title></rect>
<rect x="103.6" y="93.4" width="14.6" height="356.6" fill="#c44e52"><title>10k_gpu1 | zhoblimp_relative_operator_who: 0.943</title></rect>
<rect x="120.2" y="72.0" width="14.6" height="378.0" fill="#55a868"><title>10k_hanzi_gpu1 | zhoblimp_relative_operator_who: 1.000</title></rect>
<rect x="136.8" y="450.0" width="14.6" height="0.0" fill="#8172b3"><title>10k_initials_gpu1 | zhoblimp_relative_operator_who: 0.000</title></rect>
<text x="120.2" y="466" transform="rotate(62 120.2 466)" class="label">zhoblimp_relative_operator_who</text>
<rect x="175.5" y="88.4" width="14.6" height="361.6" fill="#2f6f9f"><title>10k_chinese_gpu1 | zhoblimp_npi_renhe_wh_question_subj: 0.957</title></rect>
<rect x="192.1" y="256.0" width="14.6" height="194.0" fill="#c44e52"><title>10k_gpu1 | zhoblimp_npi_renhe_wh_question_subj: 0.513</title></rect>
<rect x="208.7" y="140.0" width="14.6" height="310.0" fill="#55a868"><title>10k_hanzi_gpu1 | zhoblimp_npi_renhe_wh_question_subj: 0.820</title></rect>
<rect x="225.3" y="256.0" width="14.6" height="194.0" fill="#8172b3"><title>10k_initials_gpu1 | zhoblimp_npi_renhe_wh_question_subj: 0.513</title></rect>
<text x="208.7" y="466" transform="rotate(62 208.7 466)" class="label">zhoblimp_npi_renhe_wh_question_su...</text>
<rect x="264.0" y="262.3" width="14.6" height="187.7" fill="#2f6f9f"><title>10k_chinese_gpu1 | zhoblimp_question_particle_nandao: 0.497</title></rect>
<rect x="280.6" y="305.1" width="14.6" height="144.9" fill="#c44e52"><title>10k_gpu1 | zhoblimp_question_particle_nandao: 0.383</title></rect>
<rect x="297.1" y="113.6" width="14.6" height="336.4" fill="#55a868"><title>10k_hanzi_gpu1 | zhoblimp_question_particle_nandao: 0.890</title></rect>
<rect x="313.7" y="72.0" width="14.6" height="378.0" fill="#8172b3"><title>10k_initials_gpu1 | zhoblimp_question_particle_nandao: 1.000</title></rect>
<text x="297.1" y="466" transform="rotate(62 297.1 466)" class="label">zhoblimp_question_particle_nandao</text>
<rect x="352.4" y="123.7" width="14.6" height="326.3" fill="#2f6f9f"><title>10k_chinese_gpu1 | zhoblimp_left_dou: 0.863</title></rect>
<rect x="369.0" y="88.4" width="14.6" height="361.6" fill="#c44e52"><title>10k_gpu1 | zhoblimp_left_dou: 0.957</title></rect>
<rect x="385.6" y="284.9" width="14.6" height="165.1" fill="#55a868"><title>10k_hanzi_gpu1 | zhoblimp_left_dou: 0.437</title></rect>
<rect x="402.2" y="257.2" width="14.6" height="192.8" fill="#8172b3"><title>10k_initials_gpu1 | zhoblimp_left_dou: 0.510</title></rect>
<text x="385.6" y="466" transform="rotate(62 385.6 466)" class="label">zhoblimp_left_dou</text>
<rect x="440.9" y="171.5" width="14.6" height="278.5" fill="#2f6f9f"><title>10k_chinese_gpu1 | zhoblimp_passive_body_part: 0.737</title></rect>
<rect x="457.5" y="182.9" width="14.6" height="267.1" fill="#c44e52"><title>10k_gpu1 | zhoblimp_passive_body_part: 0.707</title></rect>
<rect x="474.1" y="199.3" width="14.6" height="250.7" fill="#55a868"><title>10k_hanzi_gpu1 | zhoblimp_passive_body_part: 0.663</title></rect>
<rect x="490.6" y="223.2" width="14.6" height="226.8" fill="#8172b3"><title>10k_initials_gpu1 | zhoblimp_passive_body_part: 0.600</title></rect>
<text x="474.1" y="466" transform="rotate(62 474.1 466)" class="label">zhoblimp_passive_body_part</text>
<rect x="529.3" y="130.0" width="14.6" height="320.0" fill="#2f6f9f"><title>10k_chinese_gpu1 | zhoblimp_you_quantifier_adj: 0.847</title></rect>
<rect x="545.9" y="124.9" width="14.6" height="325.1" fill="#c44e52"><title>10k_gpu1 | zhoblimp_you_quantifier_adj: 0.860</title></rect>
<rect x="562.5" y="254.7" width="14.6" height="195.3" fill="#55a868"><title>10k_hanzi_gpu1 | zhoblimp_you_quantifier_adj: 0.517</title></rect>
<rect x="579.1" y="279.9" width="14.6" height="170.1" fill="#8172b3"><title>10k_initials_gpu1 | zhoblimp_you_quantifier_adj: 0.450</title></rect>
<text x="562.5" y="466" transform="rotate(62 562.5 466)" class="label">zhoblimp_you_quantifier_adj</text>
<rect x="617.8" y="89.6" width="14.6" height="360.4" fill="#2f6f9f"><title>10k_chinese_gpu1 | zhoblimp_topicalization_SOV: 0.953</title></rect>
<rect x="634.4" y="141.3" width="14.6" height="308.7" fill="#c44e52"><title>10k_gpu1 | zhoblimp_topicalization_SOV: 0.817</title></rect>
<rect x="651.0" y="378.2" width="14.6" height="71.8" fill="#55a868"><title>10k_hanzi_gpu1 | zhoblimp_topicalization_SOV: 0.190</title></rect>
<rect x="667.6" y="209.3" width="14.6" height="240.7" fill="#8172b3"><title>10k_initials_gpu1 | zhoblimp_topicalization_SOV: 0.637</title></rect>
<text x="651.0" y="466" transform="rotate(62 651.0 466)" class="label">zhoblimp_topicalization_SOV</text>
<rect x="706.3" y="109.8" width="14.6" height="340.2" fill="#2f6f9f"><title>10k_chinese_gpu1 | zhoblimp_existential_there_subject_raising: 0.900</title></rect>
<rect x="722.8" y="186.7" width="14.6" height="263.3" fill="#c44e52"><title>10k_gpu1 | zhoblimp_existential_there_subject_raising: 0.697</title></rect>
<rect x="739.4" y="145.1" width="14.6" height="304.9" fill="#55a868"><title>10k_hanzi_gpu1 | zhoblimp_existential_there_subject_raising: 0.807</title></rect>
<rect x="756.0" y="398.3" width="14.6" height="51.7" fill="#8172b3"><title>10k_initials_gpu1 | zhoblimp_existential_there_subject_raising: 0.137</title></rect>
<text x="739.4" y="466" transform="rotate(62 739.4 466)" class="label">zhoblimp_existential_there_subjec...</text>
<rect x="794.7" y="201.8" width="14.6" height="248.2" fill="#2f6f9f"><title>10k_chinese_gpu1 | zhoblimp_ellipsis_adj: 0.657</title></rect>
<rect x="811.3" y="219.4" width="14.6" height="230.6" fill="#c44e52"><title>10k_gpu1 | zhoblimp_ellipsis_adj: 0.610</title></rect>
<rect x="827.9" y="227.0" width="14.6" height="223.0" fill="#55a868"><title>10k_hanzi_gpu1 | zhoblimp_ellipsis_adj: 0.590</title></rect>
<rect x="844.5" y="201.8" width="14.6" height="248.2" fill="#8172b3"><title>10k_initials_gpu1 | zhoblimp_ellipsis_adj: 0.657</title></rect>
<text x="827.9" y="466" transform="rotate(62 827.9 466)" class="label">zhoblimp_ellipsis_adj</text>
<rect x="883.2" y="79.6" width="14.6" height="370.4" fill="#2f6f9f"><title>10k_chinese_gpu1 | zhoblimp_question_nandao_raising_3: 0.980</title></rect>
<rect x="899.8" y="180.4" width="14.6" height="269.6" fill="#c44e52"><title>10k_gpu1 | zhoblimp_question_nandao_raising_3: 0.713</title></rect>
<rect x="916.3" y="258.5" width="14.6" height="191.5" fill="#55a868"><title>10k_hanzi_gpu1 | zhoblimp_question_nandao_raising_3: 0.507</title></rect>
<rect x="932.9" y="341.6" width="14.6" height="108.4" fill="#8172b3"><title>10k_initials_gpu1 | zhoblimp_question_nandao_raising_3: 0.287</title></rect>
<text x="916.3" y="466" transform="rotate(62 916.3 466)" class="label">zhoblimp_question_nandao_raising_3</text>
<rect x="971.6" y="204.3" width="14.6" height="245.7" fill="#2f6f9f"><title>10k_chinese_gpu1 | zhoblimp_left_adverbial_b: 0.650</title></rect>
<rect x="988.2" y="196.7" width="14.6" height="253.3" fill="#c44e52"><title>10k_gpu1 | zhoblimp_left_adverbial_b: 0.670</title></rect>
<rect x="1004.8" y="224.5" width="14.6" height="225.5" fill="#55a868"><title>10k_hanzi_gpu1 | zhoblimp_left_adverbial_b: 0.597</title></rect>
<rect x="1021.4" y="238.3" width="14.6" height="211.7" fill="#8172b3"><title>10k_initials_gpu1 | zhoblimp_left_adverbial_b: 0.560</title></rect>
<text x="1004.8" y="466" transform="rotate(62 1004.8 466)" class="label">zhoblimp_left_adverbial_b</text>
<rect x="1060.1" y="206.8" width="14.6" height="243.2" fill="#2f6f9f"><title>10k_chinese_gpu1 | zhoblimp_agent_animacy_passive: 0.643</title></rect>
<rect x="1076.7" y="257.2" width="14.6" height="192.8" fill="#c44e52"><title>10k_gpu1 | zhoblimp_agent_animacy_passive: 0.510</title></rect>
<rect x="1093.3" y="179.1" width="14.6" height="270.9" fill="#55a868"><title>10k_hanzi_gpu1 | zhoblimp_agent_animacy_passive: 0.717</title></rect>
<rect x="1109.8" y="225.7" width="14.6" height="224.3" fill="#8172b3"><title>10k_initials_gpu1 | zhoblimp_agent_animacy_passive: 0.593</title></rect>
<text x="1093.3" y="466" transform="rotate(62 1093.3 466)" class="label">zhoblimp_agent_animacy_passive</text>
<rect x="1148.5" y="194.2" width="14.6" height="255.8" fill="#2f6f9f"><title>10k_chinese_gpu1 | zhoblimp_BEI_construction_a: 0.677</title></rect>
<rect x="1165.1" y="225.7" width="14.6" height="224.3" fill="#c44e52"><title>10k_gpu1 | zhoblimp_BEI_construction_a: 0.593</title></rect>
<rect x="1181.7" y="300.1" width="14.6" height="149.9" fill="#55a868"><title>10k_hanzi_gpu1 | zhoblimp_BEI_construction_a: 0.397</title></rect>
<rect x="1198.3" y="156.4" width="14.6" height="293.6" fill="#8172b3"><title>10k_initials_gpu1 | zhoblimp_BEI_construction_a: 0.777</title></rect>
<text x="1181.7" y="466" transform="rotate(62 1181.7 466)" class="label">zhoblimp_BEI_construction_a</text>
<rect x="1237.0" y="172.8" width="14.6" height="277.2" fill="#2f6f9f"><title>10k_chinese_gpu1 | zhoblimp_left_adverbial_d: 0.733</title></rect>
<rect x="1253.6" y="184.1" width="14.6" height="265.9" fill="#c44e52"><title>10k_gpu1 | zhoblimp_left_adverbial_d: 0.703</title></rect>
<rect x="1270.2" y="257.2" width="14.6" height="192.8" fill="#55a868"><title>10k_hanzi_gpu1 | zhoblimp_left_adverbial_d: 0.510</title></rect>
<rect x="1286.8" y="274.9" width="14.6" height="175.1" fill="#8172b3"><title>10k_initials_gpu1 | zhoblimp_left_adverbial_d: 0.463</title></rect>
<text x="1270.2" y="466" transform="rotate(62 1270.2 466)" class="label">zhoblimp_left_adverbial_d</text>
<rect x="1325.5" y="272.3" width="14.6" height="177.7" fill="#2f6f9f"><title>10k_chinese_gpu1 | zhoblimp_left_adverbial_e: 0.470</title></rect>
<rect x="1342.0" y="166.5" width="14.6" height="283.5" fill="#c44e52"><title>10k_gpu1 | zhoblimp_left_adverbial_e: 0.750</title></rect>
<rect x="1358.6" y="235.8" width="14.6" height="214.2" fill="#55a868"><title>10k_hanzi_gpu1 | zhoblimp_left_adverbial_e: 0.567</title></rect>
<rect x="1375.2" y="215.6" width="14.6" height="234.4" fill="#8172b3"><title>10k_initials_gpu1 | zhoblimp_left_adverbial_e: 0.620</title></rect>
<text x="1358.6" y="466" transform="rotate(62 1358.6 466)" class="label">zhoblimp_left_adverbial_e</text>
<rect x="1413.9" y="208.1" width="14.6" height="241.9" fill="#2f6f9f"><title>10k_chinese_gpu1 | zhoblimp_nominal_modal_insertion: 0.640</title></rect>
<rect x="1430.5" y="205.6" width="14.6" height="244.4" fill="#c44e52"><title>10k_gpu1 | zhoblimp_nominal_modal_insertion: 0.647</title></rect>
<rect x="1447.1" y="190.4" width="14.6" height="259.6" fill="#55a868"><title>10k_hanzi_gpu1 | zhoblimp_nominal_modal_insertion: 0.687</title></rect>
<rect x="1463.7" y="288.7" width="14.6" height="161.3" fill="#8172b3"><title>10k_initials_gpu1 | zhoblimp_nominal_modal_insertion: 0.427</title></rect>
<text x="1447.1" y="466" transform="rotate(62 1447.1 466)" class="label">zhoblimp_nominal_modal_insertion</text>
<rect x="1502.4" y="89.6" width="14.6" height="360.4" fill="#2f6f9f"><title>10k_chinese_gpu1 | zhoblimp_ya_insertion: 0.953</title></rect>
<rect x="1519.0" y="123.7" width="14.6" height="326.3" fill="#c44e52"><title>10k_gpu1 | zhoblimp_ya_insertion: 0.863</title></rect>
<rect x="1535.5" y="295.0" width="14.6" height="155.0" fill="#55a868"><title>10k_hanzi_gpu1 | zhoblimp_ya_insertion: 0.410</title></rect>
<rect x="1552.1" y="389.5" width="14.6" height="60.5" fill="#8172b3"><title>10k_initials_gpu1 | zhoblimp_ya_insertion: 0.160</title></rect>
<text x="1535.5" y="466" transform="rotate(62 1535.5 466)" class="label">zhoblimp_ya_insertion</text>
<rect x="1590.8" y="213.1" width="14.6" height="236.9" fill="#2f6f9f"><title>10k_chinese_gpu1 | zhoblimp_question_V_not_VP_2: 0.627</title></rect>
<rect x="1607.4" y="189.2" width="14.6" height="260.8" fill="#c44e52"><title>10k_gpu1 | zhoblimp_question_V_not_VP_2: 0.690</title></rect>
<rect x="1624.0" y="218.2" width="14.6" height="231.8" fill="#55a868"><title>10k_hanzi_gpu1 | zhoblimp_question_V_not_VP_2: 0.613</title></rect>
<rect x="1640.6" y="283.7" width="14.6" height="166.3" fill="#8172b3"><title>10k_initials_gpu1 | zhoblimp_question_V_not_VP_2: 0.440</title></rect>
<text x="1624.0" y="466" transform="rotate(62 1624.0 466)" class="label">zhoblimp_question_V_not_VP_2</text>
<rect x="1679.3" y="147.6" width="14.6" height="302.4" fill="#2f6f9f"><title>10k_chinese_gpu1 | zhoblimp_topicalization_SOV_mei: 0.800</title></rect>
<rect x="1695.9" y="153.9" width="14.6" height="296.1" fill="#c44e52"><title>10k_gpu1 | zhoblimp_topicalization_SOV_mei: 0.783</title></rect>
<rect x="1712.5" y="288.7" width="14.6" height="161.3" fill="#55a868"><title>10k_hanzi_gpu1 | zhoblimp_topicalization_SOV_mei: 0.427</title></rect>
<rect x="1729.0" y="313.9" width="14.6" height="136.1" fill="#8172b3"><title>10k_initials_gpu1 | zhoblimp_topicalization_SOV_mei: 0.360</title></rect>
<text x="1712.5" y="466" transform="rotate(62 1712.5 466)" class="label">zhoblimp_topicalization_SOV_mei</text>
<rect x="1767.7" y="195.5" width="14.6" height="254.5" fill="#2f6f9f"><title>10k_chinese_gpu1 | zhoblimp_agent_causative: 0.673</title></rect>
<rect x="1784.3" y="245.9" width="14.6" height="204.1" fill="#c44e52"><title>10k_gpu1 | zhoblimp_agent_causative: 0.540</title></rect>
<rect x="1800.9" y="220.7" width="14.6" height="229.3" fill="#55a868"><title>10k_hanzi_gpu1 | zhoblimp_agent_causative: 0.607</title></rect>
<rect x="1817.5" y="245.9" width="14.6" height="204.1" fill="#8172b3"><title>10k_initials_gpu1 | zhoblimp_agent_causative: 0.540</title></rect>
<text x="1800.9" y="466" transform="rotate(62 1800.9 466)" class="label">zhoblimp_agent_causative</text>
<rect x="1856.2" y="146.3" width="14.6" height="303.7" fill="#2f6f9f"><title>10k_chinese_gpu1 | zhoblimp_verb_phrase_left_adverbial: 0.803</title></rect>
<rect x="1872.8" y="146.3" width="14.6" height="303.7" fill="#c44e52"><title>10k_gpu1 | zhoblimp_verb_phrase_left_adverbial: 0.803</title></rect>
<rect x="1889.4" y="306.4" width="14.6" height="143.6" fill="#55a868"><title>10k_hanzi_gpu1 | zhoblimp_verb_phrase_left_adverbial: 0.380</title></rect>
<rect x="1906.0" y="315.2" width="14.6" height="134.8" fill="#8172b3"><title>10k_initials_gpu1 | zhoblimp_verb_phrase_left_adverbial: 0.357</title></rect>
<text x="1889.4" y="466" transform="rotate(62 1889.4 466)" class="label">zhoblimp_verb_phrase_left_adverbi...</text>
<rect x="1944.7" y="135.0" width="14.6" height="315.0" fill="#2f6f9f"><title>10k_chinese_gpu1 | zhoblimp_passive_no_adj: 0.833</title></rect>
<rect x="1961.2" y="140.0" width="14.6" height="310.0" fill="#c44e52"><title>10k_gpu1 | zhoblimp_passive_no_adj: 0.820</title></rect>
<rect x="1977.8" y="315.2" width="14.6" height="134.8" fill="#55a868"><title>10k_hanzi_gpu1 | zhoblimp_passive_no_adj: 0.357</title></rect>
<rect x="1994.4" y="331.6" width="14.6" height="118.4" fill="#8172b3"><title>10k_initials_gpu1 | zhoblimp_passive_no_adj: 0.313</title></rect>
<text x="1977.8" y="466" transform="rotate(62 1977.8 466)" class="label">zhoblimp_passive_no_adj</text>
<rect x="2033.1" y="329.0" width="14.6" height="121.0" fill="#2f6f9f"><title>10k_chinese_gpu1 | zhoblimp_BEI_construction_b: 0.320</title></rect>
<rect x="2049.7" y="191.7" width="14.6" height="258.3" fill="#c44e52"><title>10k_gpu1 | zhoblimp_BEI_construction_b: 0.683</title></rect>
<rect x="2066.3" y="310.1" width="14.6" height="139.9" fill="#55a868"><title>10k_hanzi_gpu1 | zhoblimp_BEI_construction_b: 0.370</title></rect>
<rect x="2082.9" y="102.2" width="14.6" height="347.8" fill="#8172b3"><title>10k_initials_gpu1 | zhoblimp_BEI_construction_b: 0.920</title></rect>
<text x="2066.3" y="466" transform="rotate(62 2066.3 466)" class="label">zhoblimp_BEI_construction_b</text>
<rect x="2121.6" y="157.7" width="14.6" height="292.3" fill="#2f6f9f"><title>10k_chinese_gpu1 | zhoblimp_modal_raising_hui: 0.773</title></rect>
<rect x="2138.2" y="127.4" width="14.6" height="322.6" fill="#c44e52"><title>10k_gpu1 | zhoblimp_modal_raising_hui: 0.853</title></rect>
<rect x="2154.7" y="346.7" width="14.6" height="103.3" fill="#55a868"><title>10k_hanzi_gpu1 | zhoblimp_modal_raising_hui: 0.273</title></rect>
<rect x="2171.3" y="303.8" width="14.6" height="146.2" fill="#8172b3"><title>10k_initials_gpu1 | zhoblimp_modal_raising_hui: 0.387</title></rect>
<text x="2154.7" y="466" transform="rotate(62 2154.7 466)" class="label">zhoblimp_modal_raising_hui</text>
<rect x="2210.0" y="266.0" width="14.6" height="184.0" fill="#2f6f9f"><title>10k_chinese_gpu1 | zhoblimp_intransitive_no_obj: 0.487</title></rect>
<rect x="2226.6" y="247.1" width="14.6" height="202.9" fill="#c44e52"><title>10k_gpu1 | zhoblimp_intransitive_no_obj: 0.537</title></rect>
<rect x="2243.2" y="230.8" width="14.6" height="219.2" fill="#55a868"><title>10k_hanzi_gpu1 | zhoblimp_intransitive_no_obj: 0.580</title></rect>
<rect x="2259.8" y="201.8" width="14.6" height="248.2" fill="#8172b3"><title>10k_initials_gpu1 | zhoblimp_intransitive_no_obj: 0.657</title></rect>
<text x="2243.2" y="466" transform="rotate(62 2243.2 466)" class="label">zhoblimp_intransitive_no_obj</text>
<rect x="2298.5" y="180.4" width="14.6" height="269.6" fill="#2f6f9f"><title>10k_chinese_gpu1 | zhoblimp_BA_negation: 0.713</title></rect>
<rect x="2315.1" y="186.7" width="14.6" height="263.3" fill="#c44e52"><title>10k_gpu1 | zhoblimp_BA_negation: 0.697</title></rect>
<rect x="2331.7" y="281.2" width="14.6" height="168.8" fill="#55a868"><title>10k_hanzi_gpu1 | zhoblimp_BA_negation: 0.447</title></rect>
<rect x="2348.2" y="300.1" width="14.6" height="149.9" fill="#8172b3"><title>10k_initials_gpu1 | zhoblimp_BA_negation: 0.397</title></rect>
<text x="2331.7" y="466" transform="rotate(62 2331.7 466)" class="label">zhoblimp_BA_negation</text>
<rect x="2386.9" y="247.1" width="14.6" height="202.9" fill="#2f6f9f"><title>10k_chinese_gpu1 | zhoblimp_causative_shi_ba: 0.537</title></rect>
<rect x="2403.5" y="353.0" width="14.6" height="97.0" fill="#c44e52"><title>10k_gpu1 | zhoblimp_causative_shi_ba: 0.257</title></rect>
<rect x="2420.1" y="262.3" width="14.6" height="187.7" fill="#55a868"><title>10k_hanzi_gpu1 | zhoblimp_causative_shi_ba: 0.497</title></rect>
<rect x="2436.7" y="89.6" width="14.6" height="360.4" fill="#8172b3"><title>10k_initials_gpu1 | zhoblimp_causative_shi_ba: 0.953</title></rect>
<text x="2420.1" y="466" transform="rotate(62 2420.1 466)" class="label">zhoblimp_causative_shi_ba</text>
<rect x="2475.4" y="235.8" width="14.6" height="214.2" fill="#2f6f9f"><title>10k_chinese_gpu1 | zhoblimp_ellipsis_n_bar_class: 0.567</title></rect>
<rect x="2492.0" y="244.6" width="14.6" height="205.4" fill="#c44e52"><title>10k_gpu1 | zhoblimp_ellipsis_n_bar_class: 0.543</title></rect>
<rect x="2508.6" y="254.7" width="14.6" height="195.3" fill="#55a868"><title>10k_hanzi_gpu1 | zhoblimp_ellipsis_n_bar_class: 0.517</title></rect>
<rect x="2525.2" y="254.7" width="14.6" height="195.3" fill="#8172b3"><title>10k_initials_gpu1 | zhoblimp_ellipsis_n_bar_class: 0.517</title></rect>
<text x="2508.6" y="466" transform="rotate(62 2508.6 466)" class="label">zhoblimp_ellipsis_n_bar_class</text>
<rect x="2563.9" y="179.1" width="14.6" height="270.9" fill="#2f6f9f"><title>10k_chinese_gpu1 | zhoblimp_BA_inversion: 0.717</title></rect>
<rect x="2580.4" y="247.1" width="14.6" height="202.9" fill="#c44e52"><title>10k_gpu1 | zhoblimp_BA_inversion: 0.537</title></rect>
<rect x="2597.0" y="281.2" width="14.6" height="168.8" fill="#55a868"><title>10k_hanzi_gpu1 | zhoblimp_BA_inversion: 0.447</title></rect>
<rect x="2613.6" y="282.4" width="14.6" height="167.6" fill="#8172b3"><title>10k_initials_gpu1 | zhoblimp_BA_inversion: 0.443</title></rect>
<text x="2597.0" y="466" transform="rotate(62 2597.0 466)" class="label">zhoblimp_BA_inversion</text>
<rect x="2652.3" y="414.7" width="14.6" height="35.3" fill="#2f6f9f"><title>10k_chinese_gpu1 | zhoblimp_anaphor_number_agreement: 0.093</title></rect>
<rect x="2668.9" y="450.0" width="14.6" height="0.0" fill="#c44e52"><title>10k_gpu1 | zhoblimp_anaphor_number_agreement: 0.000</title></rect>
<rect x="2685.5" y="72.0" width="14.6" height="378.0" fill="#55a868"><title>10k_hanzi_gpu1 | zhoblimp_anaphor_number_agreement: 1.000</title></rect>
<rect x="2702.1" y="72.0" width="14.6" height="378.0" fill="#8172b3"><title>10k_initials_gpu1 | zhoblimp_anaphor_number_agreement: 1.000</title></rect>
<text x="2685.5" y="466" transform="rotate(62 2685.5 466)" class="label">zhoblimp_anaphor_number_agreement</text>
<rect x="2740.8" y="313.9" width="14.6" height="136.1" fill="#2f6f9f"><title>10k_chinese_gpu1 | zhoblimp_topicalization_OSV_mei: 0.360</title></rect>
<rect x="2757.4" y="356.8" width="14.6" height="93.2" fill="#c44e52"><title>10k_gpu1 | zhoblimp_topicalization_OSV_mei: 0.247</title></rect>
<rect x="2773.9" y="271.1" width="14.6" height="178.9" fill="#55a868"><title>10k_hanzi_gpu1 | zhoblimp_topicalization_OSV_mei: 0.473</title></rect>
<rect x="2790.5" y="72.0" width="14.6" height="378.0" fill="#8172b3"><title>10k_initials_gpu1 | zhoblimp_topicalization_OSV_mei: 1.000</title></rect>
<text x="2773.9" y="466" transform="rotate(62 2773.9 466)" class="label">zhoblimp_topicalization_OSV_mei</text>
<rect x="2829.2" y="421.0" width="14.6" height="29.0" fill="#2f6f9f"><title>10k_chinese_gpu1 | zhoblimp_principle_A_c_command_number: 0.077</title></rect>
<rect x="2845.8" y="450.0" width="14.6" height="0.0" fill="#c44e52"><title>10k_gpu1 | zhoblimp_principle_A_c_command_number: 0.000</title></rect>
<rect x="2862.4" y="72.0" width="14.6" height="378.0" fill="#55a868"><title>10k_hanzi_gpu1 | zhoblimp_principle_A_c_command_number: 1.000</title></rect>
<rect x="2879.0" y="72.0" width="14.6" height="378.0" fill="#8172b3"><title>10k_initials_gpu1 | zhoblimp_principle_A_c_command_number: 1.000</title></rect>
<text x="2862.4" y="466" transform="rotate(62 2862.4 466)" class="label">zhoblimp_principle_A_c_command_nu...</text>
<rect x="2917.7" y="229.5" width="14.6" height="220.5" fill="#2f6f9f"><title>10k_chinese_gpu1 | zhoblimp_verb_phrase_left_negation: 0.583</title></rect>
<rect x="2934.3" y="239.6" width="14.6" height="210.4" fill="#c44e52"><title>10k_gpu1 | zhoblimp_verb_phrase_left_negation: 0.557</title></rect>
<rect x="2950.9" y="339.1" width="14.6" height="110.9" fill="#55a868"><title>10k_hanzi_gpu1 | zhoblimp_verb_phrase_left_negation: 0.293</title></rect>
<rect x="2967.4" y="208.1" width="14.6" height="241.9" fill="#8172b3"><title>10k_initials_gpu1 | zhoblimp_verb_phrase_left_negation: 0.640</title></rect>
<text x="2950.9" y="466" transform="rotate(62 2950.9 466)" class="label">zhoblimp_verb_phrase_left_negation</text>
<rect x="3006.1" y="229.5" width="14.6" height="220.5" fill="#2f6f9f"><title>10k_chinese_gpu1 | zhoblimp_intransitive_double_obj: 0.583</title></rect>
<rect x="3022.7" y="301.3" width="14.6" height="148.7" fill="#c44e52"><title>10k_gpu1 | zhoblimp_intransitive_double_obj: 0.393</title></rect>
<rect x="3039.3" y="167.8" width="14.6" height="282.2" fill="#55a868"><title>10k_hanzi_gpu1 | zhoblimp_intransitive_double_obj: 0.747</title></rect>
<rect x="3055.9" y="320.2" width="14.6" height="129.8" fill="#8172b3"><title>10k_initials_gpu1 | zhoblimp_intransitive_double_obj: 0.343</title></rect>
<text x="3039.3" y="466" transform="rotate(62 3039.3 466)" class="label">zhoblimp_intransitive_double_obj</text>
<rect x="3094.6" y="272.3" width="14.6" height="177.7" fill="#2f6f9f"><title>10k_chinese_gpu1 | zhoblimp_left_adverbial_negation: 0.470</title></rect>
<rect x="3111.2" y="213.1" width="14.6" height="236.9" fill="#c44e52"><title>10k_gpu1 | zhoblimp_left_adverbial_negation: 0.627</title></rect>
<rect x="3127.8" y="264.8" width="14.6" height="185.2" fill="#55a868"><title>10k_hanzi_gpu1 | zhoblimp_left_adverbial_negation: 0.490</title></rect>
<rect x="3144.4" y="271.1" width="14.6" height="178.9" fill="#8172b3"><title>10k_initials_gpu1 | zhoblimp_left_adverbial_negation: 0.473</title></rect>
<text x="3127.8" y="466" transform="rotate(62 3127.8 466)" class="label">zhoblimp_left_adverbial_negation</text>
<rect x="76" y="580" width="14" height="14" fill="#2f6f9f"/>
<text x="96" y="592" class="legend">10k_chinese_gpu1</text>
<rect x="286" y="580" width="14" height="14" fill="#c44e52"/>
<text x="306" y="592" class="legend">10k_gpu1</text>
<rect x="496" y="580" width="14" height="14" fill="#55a868"/>
<text x="516" y="592" class="legend">10k_hanzi_gpu1</text>
<rect x="706" y="580" width="14" height="14" fill="#8172b3"/>
<text x="726" y="592" class="legend">10k_initials_gpu1</text>
</svg>
