<?xml version="1.0" encoding="utf-8" standalone="no"?>
<!DOCTYPE svg PUBLIC "-//W3C//DTD SVG 1.1//EN"
  "http://www.w3.org/Graphics/SVG/1.1/DTD/svg11.dtd">
<svg xmlns:xlink="http://www.w3.org/1999/xlink" width="836.39952pt" height="455.287935pt" viewBox="0 0 836.39952 455.287935" xmlns="http://www.w3.org/2000/svg" version="1.1">
 <title>Smoothed Distribution of ZhoBLiMP Subtask Accuracy</title>
 <metadata>
  <rdf:RDF xmlns:dc="http://purl.org/dc/elements/1.1/" xmlns:cc="http://creativecommons.org/ns#" xmlns:rdf="http://www.w3.org/1999/02/22-rdf-syntax-ns#">
   <cc:Work>
    <dc:type rdf:resource="http://purl.org/dc/dcmitype/StillImage"/>
    <dc:title>Smoothed Distribution of ZhoBLiMP Subtask Accuracy</dc:title>
    <dc:format>image/svg+xml</dc:format>
    <dc:creator>
     <cc:Agent>
      <dc:title>Matplotlib</dc:title>
     </cc:Agent>
    </dc:creator>
   </cc:Work>
  </rdf:RDF>
 </metadata>
 <defs>
  <style type="text/css">*{stroke-linejoin: round; stroke-linecap: butt}</style>
 </defs>
 <g id="figure_1">
  <g id="patch_1">
   <path d="M 0 455.287935 
L 836.39952 455.287935 
L 836.39952 -0 
L 0 -0 
z
" style="fill: #ffffff"/>
  </g>
  <g id="axes_1">
   <g id="patch_2">
    <path d="M 57.474063 356.135343 
L 814.904989 356.135343 
L 814.904989 33.837812 
L 57.474063 33.837812 
z
" style="fill: #ffffff"/>
   </g>
   <g id="matplotlib.axis_1">
    <g id="xtick_1">
     <g id="line2d_1">
      <defs>
       <path id="m92c810620b" d="M 0 0 
L 0 3.5 
" style="stroke: #374151; stroke-width: 0.8"/>
      </defs>
      <g>
       <use xlink:href="#m92c810620b" x="57.474063" y="356.135343" style="fill: #374151; stroke: #374151; stroke-width: 0.8"/>
      </g>
     </g>
     <g id="text_1">
      <text style="font-size: 10px; font-family: 'DejaVu Serif'; text-anchor: middle; fill: #374151" x="57.474063" y="370.733781" transform="rotate(-0 57.474063 370.733781)">0%</text>
     </g>
    </g>
    <g id="xtick_2">
     <g id="line2d_2">
      <g>
       <use xlink:href="#m92c810620b" x="208.960248" y="356.135343" style="fill: #374151; stroke: #374151; stroke-width: 0.8"/>
      </g>
     </g>
     <g id="text_2">
      <text style="font-size: 10px; font-family: 'DejaVu Serif'; text-anchor: middle; fill: #374151" x="208.960248" y="370.733781" transform="rotate(-0 208.960248 370.733781)">20%</text>
     </g>
    </g>
    <g id="xtick_3">
     <g id="line2d_3">
      <g>
       <use xlink:href="#m92c810620b" x="360.446433" y="356.135343" style="fill: #374151; stroke: #374151; stroke-width: 0.8"/>
      </g>
     </g>
     <g id="text_3">
      <text style="font-size: 10px; font-family: 'DejaVu Serif'; text-anchor: middle; fill: #374151" x="360.446433" y="370.733781" transform="rotate(-0 360.446433 370.733781)">40%</text>
     </g>
    </g>
    <g id="xtick_4">
     <g id="line2d_4">
      <g>
       <use xlink:href="#m92c810620b" x="511.932618" y="356.135343" style="fill: #374151; stroke: #374151; stroke-width: 0.8"/>
      </g>
     </g>
     <g id="text_4">
      <text style="font-size: 10px; font-family: 'DejaVu Serif'; text-anchor: middle; fill: #374151" x="511.932618" y="370.733781" transform="rotate(-0 511.932618 370.733781)">60%</text>
     </g>
    </g>
    <g id="xtick_5">
     <g id="line2d_5">
      <g>
       <use xlink:href="#m92c810620b" x="663.418803" y="356.135343" style="fill: #374151; stroke: #374151; stroke-width: 0.8"/>
      </g>
     </g>
     <g id="text_5">
      <text style="font-size: 10px; font-family: 'DejaVu Serif'; text-anchor: middle; fill: #374151" x="663.418803" y="370.733781" transform="rotate(-0 663.418803 370.733781)">80%</text>
     </g>
    </g>
    <g id="xtick_6">
     <g id="line2d_6">
      <g>
       <use xlink:href="#m92c810620b" x="814.904989" y="356.135343" style="fill: #374151; stroke: #374151; stroke-width: 0.8"/>
      </g>
     </g>
     <g id="text_6">
      <text style="font-size: 10px; font-family: 'DejaVu Serif'; text-anchor: middle; fill: #374151" x="814.904989" y="370.733781" transform="rotate(-0 814.904989 370.733781)">100%</text>
     </g>
    </g>
    <g id="text_7">
     <text style="font-size: 11px; font-family: 'DejaVu Serif'; text-anchor: middle" x="436.189526" y="385.17175" transform="rotate(-0 436.189526 385.17175)">Accuracy (%)</text>
    </g>
   </g>
   <g id="matplotlib.axis_2">
    <g id="ytick_1">
     <g id="line2d_7">
      <path d="M 57.474063 317.6528 
L 814.904989 317.6528 
" clip-path="url(#p277aa243fe)" style="fill: none; stroke: #d1d5db; stroke-width: 0.7; stroke-linecap: square"/>
     </g>
     <g id="line2d_8">
      <defs>
       <path id="m29bde6aa96" d="M 0 0 
L -3.5 0 
" style="stroke: #374151; stroke-width: 0.8"/>
      </defs>
      <g>
       <use xlink:href="#m29bde6aa96" x="57.474063" y="317.6528" style="fill: #374151; stroke: #374151; stroke-width: 0.8"/>
      </g>
     </g>
     <g id="text_8">
      <text style="font-size: 10px; font-family: 'DejaVu Serif'; text-anchor: end; fill: #374151" x="50.474063" y="321.452019" transform="rotate(-0 50.474063 321.452019)">0.004</text>
     </g>
    </g>
    <g id="ytick_2">
     <g id="line2d_9">
      <path d="M 57.474063 256.488476 
L 814.904989 256.488476 
" clip-path="url(#p277aa243fe)" style="fill: none; stroke: #d1d5db; stroke-width: 0.7; stroke-linecap: square"/>
     </g>
     <g id="line2d_10">
      <g>
       <use xlink:href="#m29bde6aa96" x="57.474063" y="256.488476" style="fill: #374151; stroke: #374151; stroke-width: 0.8"/>
      </g>
     </g>
     <g id="text_9">
      <text style="font-size: 10px; font-family: 'DejaVu Serif'; text-anchor: end; fill: #374151" x="50.474063" y="260.287694" transform="rotate(-0 50.474063 260.287694)">0.006</text>
     </g>
    </g>
    <g id="ytick_3">
     <g id="line2d_11">
      <path d="M 57.474063 195.324151 
L 814.904989 195.324151 
" clip-path="url(#p277aa243fe)" style="fill: none; stroke: #d1d5db; stroke-width: 0.7; stroke-linecap: square"/>
     </g>
     <g id="line2d_12">
      <g>
       <use xlink:href="#m29bde6aa96" x="57.474063" y="195.324151" style="fill: #374151; stroke: #374151; stroke-width: 0.8"/>
      </g>
     </g>
     <g id="text_10">
      <text style="font-size: 10px; font-family: 'DejaVu Serif'; text-anchor: end; fill: #374151" x="50.474063" y="199.12337" transform="rotate(-0 50.474063 199.12337)">0.008</text>
     </g>
    </g>
    <g id="ytick_4">
     <g id="line2d_13">
      <path d="M 57.474063 134.159827 
L 814.904989 134.159827 
" clip-path="url(#p277aa243fe)" style="fill: none; stroke: #d1d5db; stroke-width: 0.7; stroke-linecap: square"/>
     </g>
     <g id="line2d_14">
      <g>
       <use xlink:href="#m29bde6aa96" x="57.474063" y="134.159827" style="fill: #374151; stroke: #374151; stroke-width: 0.8"/>
      </g>
     </g>
     <g id="text_11">
      <text style="font-size: 10px; font-family: 'DejaVu Serif'; text-anchor: end; fill: #374151" x="50.474063" y="137.959046" transform="rotate(-0 50.474063 137.959046)">0.010</text>
     </g>
    </g>
    <g id="ytick_5">
     <g id="line2d_15">
      <path d="M 57.474063 72.995503 
L 814.904989 72.995503 
" clip-path="url(#p277aa243fe)" style="fill: none; stroke: #d1d5db; stroke-width: 0.7; stroke-linecap: square"/>
     </g>
     <g id="line2d_16">
      <g>
       <use xlink:href="#m29bde6aa96" x="57.474063" y="72.995503" style="fill: #374151; stroke: #374151; stroke-width: 0.8"/>
      </g>
     </g>
     <g id="text_12">
      <text style="font-size: 10px; font-family: 'DejaVu Serif'; text-anchor: end; fill: #374151" x="50.474063" y="76.794722" transform="rotate(-0 50.474063 76.794722)">0.012</text>
     </g>
    </g>
    <g id="text_13">
     <text style="font-size: 11px; font-family: 'DejaVu Serif'; text-anchor: middle" x="15.401875" y="194.986578" transform="rotate(-90 15.401875 194.986578)">Density</text>
    </g>
   </g>
   <g id="line2d_17">
    <path d="M 57.474063 245.578079 
L 63.154794 242.75978 
L 66.941949 241.088024 
L 70.729104 239.584222 
L 74.516258 238.24961 
L 78.303413 237.084788 
L 82.090568 236.089724 
L 85.877722 235.263751 
L 89.664877 234.605577 
L 93.452031 234.113297 
L 97.239186 233.784402 
L 101.026341 233.615799 
L 104.813495 233.603827 
L 108.60065 233.744286 
L 114.281382 234.230325 
L 119.962114 235.030645 
L 125.642846 236.125049 
L 131.323578 237.491355 
L 137.00431 239.105666 
L 142.685042 240.942656 
L 148.365774 242.975856 
L 155.940083 245.944709 
L 163.514392 249.147597 
L 174.875856 254.24489 
L 203.279516 267.207024 
L 212.747402 271.197593 
L 220.321712 274.155362 
L 227.896021 276.85797 
L 235.47033 279.268106 
L 241.151062 280.864404 
L 246.831794 282.266735 
L 252.512526 283.465395 
L 258.193258 284.452365 
L 263.87399 285.221277 
L 269.554722 285.767359 
L 275.235454 286.087385 
L 280.916186 286.179611 
L 286.596918 286.043709 
L 292.27765 285.680701 
L 297.958382 285.092894 
L 303.639114 284.283804 
L 309.319845 283.258093 
L 315.000577 282.0215 
L 320.681309 280.580777 
L 326.362041 278.943621 
L 332.042773 277.118616 
L 339.617083 274.409429 
L 347.191392 271.407464 
L 354.765701 268.139241 
L 362.34001 264.633174 
L 371.807897 259.962018 
L 381.275783 255.027831 
L 392.637247 248.849775 
L 409.679443 239.29279 
L 430.508794 227.634401 
L 441.870258 221.502578 
L 451.338144 216.603945 
L 460.806031 211.947236 
L 470.273917 207.57113 
L 477.848227 204.292569 
L 485.422536 201.223416 
L 492.996845 198.36988 
L 500.571154 195.733522 
L 508.145464 193.311098 
L 515.719773 191.094487 
L 523.294082 189.07071 
L 532.761969 186.784744 
L 542.229855 184.727693 
L 553.591319 182.484464 
L 595.25002 174.542874 
L 604.717907 172.376967 
L 612.292216 170.450244 
L 619.866525 168.323016 
L 627.440835 165.975506 
L 635.015144 163.394836 
L 642.589453 160.576001 
L 650.163762 157.52271 
L 657.738072 154.248054 
L 667.205958 149.87935 
L 678.567422 144.324645 
L 710.758236 128.298261 
L 718.332546 124.887141 
L 724.013278 122.527821 
L 729.69401 120.380927 
L 735.374741 118.484399 
L 741.055473 116.875911 
L 746.736205 115.592365 
L 750.52336 114.934853 
L 754.310515 114.447764 
L 758.097669 114.140814 
L 761.884824 114.023237 
L 765.671979 114.103721 
L 769.459133 114.390352 
L 773.246288 114.890557 
L 777.033442 115.611051 
L 780.820597 116.557787 
L 784.607752 117.735916 
L 788.394906 119.149745 
L 792.182061 120.802704 
L 795.969216 122.697316 
L 799.75637 124.835176 
L 803.543525 127.216932 
L 807.330679 129.842274 
L 811.117834 132.70993 
L 814.904989 135.817666 
L 814.904989 135.817666 
" clip-path="url(#p277aa243fe)" style="fill: none; stroke: #1b4965; stroke-width: 2; stroke-linecap: square"/>
   </g>
   <g id="line2d_18">
    <path d="M 57.474063 259.55041 
L 61.261217 257.688348 
L 65.048372 256.002037 
L 68.835526 254.493301 
L 72.622681 253.163139 
L 76.409836 252.011719 
L 80.19699 251.038376 
L 83.984145 250.241615 
L 87.7713 249.61912 
L 91.558454 249.167768 
L 95.345609 248.883649 
L 99.132763 248.762091 
L 102.919918 248.797686 
L 108.60065 249.132206 
L 114.281382 249.783072 
L 119.962114 250.723903 
L 125.642846 251.925647 
L 131.323578 253.356975 
L 137.00431 254.984683 
L 144.578619 257.400398 
L 154.046506 260.694932 
L 182.450165 270.810126 
L 190.024475 273.179672 
L 197.598784 275.270451 
L 203.279516 276.617585 
L 208.960248 277.7488 
L 214.64098 278.64296 
L 220.321712 279.281558 
L 226.002444 279.648777 
L 231.683176 279.731507 
L 237.363907 279.519342 
L 243.044639 279.004547 
L 248.725371 278.182003 
L 254.406103 277.049125 
L 260.086835 275.605772 
L 265.767567 273.85414 
L 271.448299 271.798641 
L 277.129031 269.445778 
L 282.809763 266.804021 
L 288.490495 263.883663 
L 294.171227 260.696699 
L 299.851959 257.256688 
L 305.532691 253.578624 
L 311.213423 249.678817 
L 318.787732 244.164543 
L 326.362041 238.331699 
L 333.936351 232.227631 
L 343.404237 224.292262 
L 354.765701 214.456953 
L 388.850093 184.690185 
L 398.317979 176.834088 
L 405.892289 170.815608 
L 413.466598 165.089258 
L 421.040907 159.70324 
L 426.721639 155.914172 
L 432.402371 152.359267 
L 438.083103 149.054519 
L 443.763835 146.014324 
L 449.444567 143.251325 
L 455.125299 140.776277 
L 460.806031 138.597905 
L 466.486763 136.72279 
L 472.167495 135.155265 
L 477.848227 133.897322 
L 483.528959 132.948552 
L 489.20969 132.306095 
L 494.890422 131.964621 
L 500.571154 131.916335 
L 506.251886 132.151005 
L 511.932618 132.656016 
L 517.61335 133.416459 
L 523.294082 134.415235 
L 528.974814 135.633192 
L 534.655546 137.049289 
L 542.229855 139.206097 
L 549.804165 141.616572 
L 559.272051 144.892087 
L 574.42067 150.440311 
L 587.675711 155.244772 
L 597.143597 158.447616 
L 604.717907 160.783418 
L 612.292216 162.860238 
L 617.972948 164.219729 
L 623.65368 165.390562 
L 629.334412 166.358715 
L 635.015144 167.113141 
L 640.695876 167.645999 
L 646.376608 167.952854 
L 652.05734 168.032846 
L 657.738072 167.888827 
L 663.418803 167.527457 
L 669.099535 166.959258 
L 674.780267 166.19862 
L 682.354577 164.91711 
L 689.928886 163.379729 
L 699.396772 161.197455 
L 725.906855 154.834552 
L 733.481164 153.346395 
L 739.161896 152.439749 
L 744.842628 151.759311 
L 750.52336 151.346151 
L 756.204092 151.239843 
L 759.991247 151.35806 
L 763.778401 151.639842 
L 767.565556 152.095061 
L 771.35271 152.732918 
L 775.139865 153.561875 
L 778.92702 154.589597 
L 782.714174 155.82289 
L 786.501329 157.267655 
L 790.288484 158.928834 
L 794.075638 160.810379 
L 797.862793 162.915211 
L 801.649948 165.245202 
L 805.437102 167.80115 
L 809.224257 170.582773 
L 813.011411 173.588703 
L 814.904989 175.17506 
L 814.904989 175.17506 
" clip-path="url(#p277aa243fe)" style="fill: none; stroke: #2a9d8f; stroke-width: 2; stroke-linecap: square"/>
   </g>
   <g id="line2d_19">
    <path d="M 57.474063 264.412321 
L 61.261217 262.874448 
L 65.048372 261.498697 
L 68.835526 260.286426 
L 72.622681 259.238324 
L 76.409836 258.354412 
L 80.19699 257.634045 
L 83.984145 257.075909 
L 87.7713 256.678038 
L 91.558454 256.437825 
L 95.345609 256.352035 
L 101.026341 256.504335 
L 106.707073 256.979929 
L 112.387805 257.760704 
L 118.068537 258.826059 
L 123.749269 260.153179 
L 129.43 261.717324 
L 135.110732 263.492144 
L 142.685042 266.138375 
L 150.259351 269.04189 
L 159.727238 272.926942 
L 195.705207 288.0148 
L 203.279516 290.837012 
L 210.853825 293.415176 
L 218.428134 295.706412 
L 224.108866 297.214275 
L 229.789598 298.52693 
L 235.47033 299.633325 
L 241.151062 300.524427 
L 246.831794 301.193185 
L 252.512526 301.634472 
L 258.193258 301.84502 
L 263.87399 301.823342 
L 269.554722 301.569633 
L 275.235454 301.085678 
L 280.916186 300.374745 
L 286.596918 299.441479 
L 292.27765 298.291785 
L 297.958382 296.932724 
L 303.639114 295.372393 
L 309.319845 293.619824 
L 315.000577 291.684865 
L 322.574887 288.839556 
L 330.149196 285.715544 
L 337.723505 282.341036 
L 345.297814 278.745352 
L 354.765701 273.98554 
L 364.233588 268.986521 
L 377.488629 261.698608 
L 398.317979 249.910182 
L 419.14733 238.19721 
L 432.402371 230.99827 
L 443.763835 225.071817 
L 455.125299 219.415936 
L 464.593185 214.929536 
L 474.061072 210.657588 
L 483.528959 206.599446 
L 494.890422 201.998969 
L 506.251886 197.662661 
L 519.506928 192.873766 
L 536.549123 186.983759 
L 561.165628 178.470342 
L 572.527092 174.303254 
L 581.994979 170.615419 
L 591.462866 166.674681 
L 599.037175 163.307967 
L 606.611484 159.728888 
L 614.185793 155.922129 
L 621.760103 151.878166 
L 629.334412 147.594249 
L 636.908721 143.075306 
L 644.48303 138.334752 
L 653.950917 132.132707 
L 665.312381 124.374312 
L 697.503195 102.066441 
L 705.077504 97.174688 
L 710.758236 93.708547 
L 716.438968 90.460801 
L 722.1197 87.472578 
L 727.800432 84.78533 
L 733.481164 82.440326 
L 737.268319 81.087196 
L 741.055473 79.915945 
L 744.842628 78.937972 
L 748.629783 78.164284 
L 752.416937 77.605417 
L 756.204092 77.271374 
L 759.991247 77.171549 
L 763.778401 77.31467 
L 767.565556 77.70873 
L 771.35271 78.360933 
L 775.139865 79.277637 
L 778.92702 80.464307 
L 782.714174 81.925466 
L 786.501329 83.66466 
L 790.288484 85.684424 
L 794.075638 87.986255 
L 797.862793 90.57059 
L 801.649948 93.436794 
L 805.437102 96.583153 
L 809.224257 100.00687 
L 813.011411 103.70408 
L 814.904989 105.653745 
L 814.904989 105.653745 
" clip-path="url(#p277aa243fe)" style="fill: none; stroke: #e76f51; stroke-width: 2; stroke-linecap: square"/>
   </g>
   <g id="line2d_20">
    <path d="M 57.474063 321.810374 
L 63.154794 318.274486 
L 68.835526 314.952421 
L 74.516258 311.858281 
L 80.19699 309.003607 
L 85.877722 306.397214 
L 91.558454 304.045075 
L 97.239186 301.950245 
L 102.919918 300.112822 
L 108.60065 298.529957 
L 114.281382 297.195904 
L 119.962114 296.102103 
L 125.642846 295.237307 
L 131.323578 294.587732 
L 137.00431 294.137238 
L 142.685042 293.867541 
L 150.259351 293.754005 
L 157.83366 293.873313 
L 167.301547 294.263178 
L 184.343743 295.280173 
L 197.598784 295.967564 
L 205.173093 296.177029 
L 212.747402 296.178498 
L 220.321712 295.915685 
L 226.002444 295.51341 
L 231.683176 294.912372 
L 237.363907 294.09367 
L 243.044639 293.040142 
L 248.725371 291.736502 
L 254.406103 290.169466 
L 260.086835 288.327869 
L 265.767567 286.202768 
L 271.448299 283.787538 
L 277.129031 281.077955 
L 282.809763 278.072271 
L 288.490495 274.77127 
L 294.171227 271.178312 
L 299.851959 267.299368 
L 305.532691 263.143023 
L 311.213423 258.720479 
L 316.894155 254.045518 
L 322.574887 249.134454 
L 330.149196 242.251883 
L 337.723505 235.034156 
L 347.191392 225.629328 
L 358.552856 213.950488 
L 388.850093 182.524211 
L 396.424402 175.020569 
L 403.998711 167.809862 
L 411.573021 160.962278 
L 417.253752 156.103908 
L 422.934484 151.510768 
L 428.615216 147.204829 
L 434.295948 143.205164 
L 439.97668 139.52769 
L 445.657412 136.184957 
L 451.338144 133.185978 
L 457.018876 130.536109 
L 462.699608 128.236986 
L 468.38034 126.286504 
L 474.061072 124.678857 
L 479.741804 123.404626 
L 485.422536 122.450917 
L 491.103268 121.801545 
L 496.784 121.437253 
L 502.464732 121.335981 
L 508.145464 121.47315 
L 513.826196 121.82198 
L 521.400505 122.566604 
L 528.974814 123.564478 
L 538.442701 125.053126 
L 564.952783 129.421288 
L 572.527092 130.400453 
L 580.101402 131.132925 
L 585.782134 131.483453 
L 591.462866 131.637535 
L 597.143597 131.574366 
L 602.824329 131.275832 
L 608.505061 130.726755 
L 614.185793 129.915138 
L 619.866525 128.832408 
L 625.547257 127.47365 
L 631.227989 125.83783 
L 636.908721 123.928008 
L 642.589453 121.751531 
L 648.270185 119.320205 
L 653.950917 116.650423 
L 659.631649 113.763271 
L 667.205958 109.620909 
L 674.780267 105.212795 
L 686.141731 98.300343 
L 701.29035 89.094007 
L 708.864659 84.774639 
L 714.545391 81.770372 
L 720.226123 79.034057 
L 725.906855 76.626056 
L 729.69401 75.232836 
L 733.481164 74.02983 
L 737.268319 73.034254 
L 741.055473 72.262854 
L 744.842628 71.731784 
L 748.629783 71.456482 
L 752.416937 71.451552 
L 756.204092 71.730643 
L 759.991247 72.306339 
L 763.778401 73.190048 
L 767.565556 74.391903 
L 771.35271 75.920666 
L 775.139865 77.783645 
L 778.92702 79.986618 
L 782.714174 82.533769 
L 786.501329 85.427637 
L 790.288484 88.669075 
L 794.075638 92.25722 
L 797.862793 96.189484 
L 801.649948 100.461552 
L 805.437102 105.067394 
L 809.224257 109.999295 
L 813.011411 115.247894 
L 814.904989 117.987594 
L 814.904989 117.987594 
" clip-path="url(#p277aa243fe)" style="fill: none; stroke: #6d597a; stroke-width: 2; stroke-linecap: square"/>
   </g>
   <g id="line2d_21">
    <path d="M 57.474063 337.398859 
L 63.154794 335.284506 
L 68.835526 333.484853 
L 74.516258 332.004964 
L 80.19699 330.845023 
L 85.877722 330.000327 
L 91.558454 329.461366 
L 97.239186 329.214005 
L 102.919918 329.23975 
L 108.60065 329.516093 
L 114.281382 330.016915 
L 119.962114 330.712941 
L 127.536423 331.889096 
L 137.00431 333.642526 
L 163.514392 338.8299 
L 171.088701 340.004939 
L 176.769433 340.698079 
L 182.450165 341.19212 
L 188.130897 341.454545 
L 193.811629 341.454377 
L 199.492361 341.162272 
L 205.173093 340.550572 
L 208.960248 339.952345 
L 212.747402 339.193278 
L 216.534557 338.266488 
L 220.321712 337.165457 
L 224.108866 335.884047 
L 227.896021 334.416501 
L 231.683176 332.757468 
L 235.47033 330.902008 
L 239.257485 328.84562 
L 243.044639 326.584259 
L 246.831794 324.11436 
L 250.618949 321.432869 
L 254.406103 318.53727 
L 258.193258 315.425619 
L 261.980413 312.096579 
L 265.767567 308.549454 
L 269.554722 304.784227 
L 273.341876 300.8016 
L 279.022608 294.423432 
L 284.70334 287.567857 
L 290.384072 280.247423 
L 296.064804 272.479164 
L 301.745536 264.284787 
L 307.426268 255.690794 
L 313.107 246.728536 
L 320.681309 234.269209 
L 328.255619 221.318713 
L 337.723505 204.612569 
L 352.872124 177.27845 
L 366.127165 153.524875 
L 373.701474 140.342435 
L 381.275783 127.628924 
L 386.956515 118.486976 
L 392.637247 109.745046 
L 398.317979 101.455841 
L 403.998711 93.667574 
L 407.785866 88.775178 
L 411.573021 84.136013 
L 415.360175 79.760212 
L 419.14733 75.656637 
L 422.934484 71.832831 
L 426.721639 68.294973 
L 430.508794 65.047852 
L 434.295948 62.094847 
L 438.083103 59.437919 
L 441.870258 57.077607 
L 445.657412 55.013046 
L 449.444567 53.241984 
L 453.231721 51.760812 
L 457.018876 50.564606 
L 460.806031 49.64717 
L 464.593185 49.001096 
L 468.38034 48.617821 
L 472.167495 48.4877 
L 475.954649 48.600079 
L 479.741804 48.943371 
L 483.528959 49.505144 
L 487.316113 50.272206 
L 491.103268 51.230691 
L 494.890422 52.366156 
L 500.571154 54.368421 
L 506.251886 56.683254 
L 511.932618 59.257422 
L 519.506928 63.000032 
L 528.974814 67.998848 
L 549.804165 79.143925 
L 557.378474 82.904709 
L 563.059206 85.529584 
L 568.739938 87.949692 
L 574.42067 90.136424 
L 580.101402 92.065741 
L 585.782134 93.718318 
L 591.462866 95.07965 
L 597.143597 96.140093 
L 602.824329 96.894862 
L 608.505061 97.343988 
L 614.185793 97.492228 
L 619.866525 97.348946 
L 625.547257 96.927959 
L 631.227989 96.247364 
L 636.908721 95.329332 
L 642.589453 94.199898 
L 650.163762 92.416909 
L 657.738072 90.3908 
L 669.099535 87.093249 
L 682.354577 83.260359 
L 689.928886 81.289788 
L 695.609618 80.004784 
L 701.29035 78.940459 
L 706.971082 78.146907 
L 710.758236 77.792949 
L 714.545391 77.596111 
L 718.332546 77.570768 
L 722.1197 77.730986 
L 725.906855 78.090442 
L 729.69401 78.662337 
L 733.481164 79.459308 
L 737.268319 80.493345 
L 741.055473 81.775693 
L 744.842628 83.316767 
L 748.629783 85.126061 
L 752.416937 87.212061 
L 756.204092 89.582162 
L 759.991247 92.242582 
L 763.778401 95.198294 
L 767.565556 98.452949 
L 771.35271 102.008818 
L 775.139865 105.866737 
L 778.92702 110.026062 
L 782.714174 114.484637 
L 786.501329 119.238768 
L 790.288484 124.283214 
L 794.075638 129.611191 
L 797.862793 135.214382 
L 803.543525 144.113319 
L 809.224257 153.569818 
L 814.904989 163.537705 
L 814.904989 163.537705 
" clip-path="url(#p277aa243fe)" style="fill: none; stroke: #d4a373; stroke-width: 2; stroke-linecap: square"/>
   </g>
   <g id="line2d_22">
    <path d="M 57.474063 200.538248 
L 61.261217 198.767354 
L 65.048372 197.182758 
L 68.835526 195.784938 
L 72.622681 194.573688 
L 76.409836 193.548119 
L 80.19699 192.70666 
L 83.984145 192.047076 
L 87.7713 191.566469 
L 91.558454 191.261303 
L 95.345609 191.127417 
L 99.132763 191.160051 
L 102.919918 191.353871 
L 106.707073 191.702997 
L 112.387805 192.503766 
L 118.068537 193.615907 
L 123.749269 195.013701 
L 129.43 196.669581 
L 135.110732 198.554447 
L 140.791464 200.637999 
L 148.365774 203.671191 
L 157.83366 207.766882 
L 171.088701 213.806169 
L 186.23732 220.694584 
L 195.705207 224.768933 
L 203.279516 227.808052 
L 210.853825 230.59774 
L 218.428134 233.096372 
L 224.108866 234.7587 
L 229.789598 236.226839 
L 235.47033 237.492099 
L 241.151062 238.548378 
L 246.831794 239.392146 
L 252.512526 240.022386 
L 258.193258 240.440525 
L 263.87399 240.65033 
L 269.554722 240.657796 
L 275.235454 240.471009 
L 280.916186 240.099993 
L 288.490495 239.339356 
L 296.064804 238.30467 
L 303.639114 237.032508 
L 313.107 235.169584 
L 324.468464 232.64517 
L 347.191392 227.233204 
L 360.446433 224.238702 
L 369.91432 222.329492 
L 377.488629 220.995529 
L 385.062938 219.868772 
L 392.637247 218.977397 
L 400.211557 218.345026 
L 407.785866 217.990419 
L 415.360175 217.927233 
L 421.040907 218.076334 
L 426.721639 218.39574 
L 432.402371 218.885298 
L 439.97668 219.799257 
L 447.55099 221.003106 
L 455.125299 222.482513 
L 462.699608 224.21807 
L 470.273917 226.185522 
L 477.848227 228.356043 
L 487.316113 231.304006 
L 498.677577 235.08848 
L 530.868391 246.027598 
L 540.336278 248.922804 
L 547.910587 251.013056 
L 555.484897 252.849743 
L 561.165628 254.03253 
L 566.84636 255.027297 
L 572.527092 255.816082 
L 578.207824 256.382087 
L 583.888556 256.709872 
L 589.569288 256.785542 
L 595.25002 256.596945 
L 600.930752 256.133846 
L 606.611484 255.388113 
L 612.292216 254.353881 
L 617.972948 253.027708 
L 623.65368 251.408717 
L 629.334412 249.498719 
L 635.015144 247.302319 
L 640.695876 244.826993 
L 646.376608 242.08315 
L 652.05734 239.084155 
L 657.738072 235.846332 
L 663.418803 232.388928 
L 670.993113 227.476097 
L 678.567422 222.272487 
L 688.035309 215.463488 
L 705.077504 202.816156 
L 716.438968 194.509663 
L 724.013278 189.20902 
L 731.587587 184.207451 
L 737.268319 180.708581 
L 742.949051 177.468687 
L 748.629783 174.524914 
L 754.310515 171.912778 
L 758.097669 170.372235 
L 761.884824 169.003375 
L 765.671979 167.815027 
L 769.459133 166.815456 
L 773.246288 166.012322 
L 777.033442 165.412635 
L 780.820597 165.022728 
L 784.607752 164.848214 
L 788.394906 164.893967 
L 792.182061 165.164088 
L 795.969216 165.661891 
L 799.75637 166.389882 
L 803.543525 167.349746 
L 807.330679 168.542343 
L 811.117834 169.9677 
L 814.904989 171.625013 
L 814.904989 171.625013 
" clip-path="url(#p277aa243fe)" style="fill: none; stroke: #457b9d; stroke-width: 2; stroke-linecap: square"/>
   </g>
   <g id="line2d_23">
    <path d="M 57.474063 226.874341 
L 61.261217 225.494857 
L 65.048372 224.297257 
L 68.835526 223.280507 
L 72.622681 222.442788 
L 76.409836 221.781504 
L 80.19699 221.293291 
L 83.984145 220.974039 
L 87.7713 220.818913 
L 91.558454 220.822377 
L 97.239186 221.111185 
L 102.919918 221.719148 
L 108.60065 222.619792 
L 114.281382 223.784071 
L 119.962114 225.180734 
L 125.642846 226.776708 
L 133.217155 229.154968 
L 142.685042 232.411162 
L 171.088701 242.479596 
L 178.663011 244.858307 
L 186.23732 246.970172 
L 191.918052 248.342321 
L 197.598784 249.507806 
L 203.279516 250.447003 
L 208.960248 251.143213 
L 214.64098 251.582742 
L 220.321712 251.754944 
L 226.002444 251.652229 
L 231.683176 251.270039 
L 237.363907 250.606785 
L 243.044639 249.663768 
L 248.725371 248.445058 
L 254.406103 246.957371 
L 260.086835 245.209906 
L 265.767567 243.214182 
L 271.448299 240.983855 
L 277.129031 238.534528 
L 282.809763 235.883552 
L 290.384072 232.068105 
L 297.958382 227.976348 
L 307.426268 222.552309 
L 318.787732 215.731195 
L 350.978546 196.177134 
L 360.446433 190.813735 
L 368.020742 186.780201 
L 375.595052 183.028197 
L 381.275783 180.426368 
L 386.956515 178.026249 
L 392.637247 175.844314 
L 398.317979 173.895649 
L 403.998711 172.193868 
L 409.679443 170.751024 
L 415.360175 169.57753 
L 421.040907 168.682083 
L 426.721639 168.071598 
L 432.402371 167.75114 
L 438.083103 167.723866 
L 443.763835 167.990981 
L 449.444567 168.55169 
L 455.125299 169.403165 
L 460.806031 170.540525 
L 466.486763 171.95682 
L 472.167495 173.643028 
L 477.848227 175.58807 
L 483.528959 177.77883 
L 489.20969 180.200195 
L 494.890422 182.835106 
L 502.464732 186.647522 
L 510.039041 190.755927 
L 517.61335 195.10532 
L 527.081237 200.789641 
L 561.165628 221.592717 
L 568.739938 225.852413 
L 576.314247 229.826596 
L 581.994979 232.579041 
L 587.675711 235.105518 
L 593.356443 237.380252 
L 599.037175 239.379218 
L 604.717907 241.080431 
L 610.398639 242.46423 
L 614.185793 243.201882 
L 617.972948 243.786458 
L 621.760103 244.2142 
L 625.547257 244.481975 
L 629.334412 244.58731 
L 633.121566 244.528418 
L 636.908721 244.304222 
L 640.695876 243.914379 
L 644.48303 243.359297 
L 648.270185 242.640151 
L 652.05734 241.7589 
L 655.844494 240.718292 
L 661.525226 238.866557 
L 667.205958 236.679763 
L 672.88669 234.177255 
L 678.567422 231.382325 
L 684.248154 228.322087 
L 689.928886 225.027309 
L 697.503195 220.329005 
L 705.077504 215.364569 
L 718.332546 206.335916 
L 731.587587 197.369427 
L 739.161896 192.506394 
L 744.842628 189.070789 
L 750.52336 185.869094 
L 756.204092 182.947103 
L 761.884824 180.348696 
L 765.671979 178.816774 
L 769.459133 177.458721 
L 773.246288 176.285464 
L 777.033442 175.30723 
L 780.820597 174.533483 
L 784.607752 173.972879 
L 788.394906 173.633214 
L 792.182061 173.521386 
L 795.969216 173.643353 
L 799.75637 174.004109 
L 803.543525 174.607651 
L 807.330679 175.456965 
L 811.117834 176.55401 
L 814.904989 177.899712 
L 814.904989 177.899712 
" clip-path="url(#p277aa243fe)" style="fill: none; stroke: #8ab17d; stroke-width: 2; stroke-linecap: square"/>
   </g>
   <g id="patch_3">
    <path d="M 57.474063 356.135343 
L 57.474063 33.837812 
" style="fill: none; stroke: #4b5563; stroke-width: 0.8; stroke-linejoin: miter; stroke-linecap: square"/>
   </g>
   <g id="patch_4">
    <path d="M 57.474063 356.135343 
L 814.904989 356.135343 
" style="fill: none; stroke: #4b5563; stroke-width: 0.8; stroke-linejoin: miter; stroke-linecap: square"/>
   </g>
   <g id="text_14">
    <text style="font-weight: 600; font-size: 14px; font-family: 'DejaVu Serif'; text-anchor: middle" x="436.189526" y="17.837812" transform="rotate(-0 436.189526 17.837812)">Smoothed Distribution of ZhoBLiMP Subtask Accuracy</text>
   </g>
   <g id="legend_1">
    <g id="line2d_24">
     <path d="M 281.013354 413.045592 
L 290.013354 413.045592 
L 299.013354 413.045592 
" style="fill: none; stroke: #1b4965; stroke-width: 2; stroke-linecap: square"/>
    </g>
    <g id="text_15">
     <text style="font-size: 9px; font-family: 'DejaVu Serif'; text-anchor: start" x="306.213354" y="416.195592" transform="rotate(-0 306.213354 416.195592)">BABYLM</text>
    </g>
    <g id="line2d_25">
     <path d="M 281.013354 426.255904 
L 290.013354 426.255904 
L 299.013354 426.255904 
" style="fill: none; stroke: #2a9d8f; stroke-width: 2; stroke-linecap: square"/>
    </g>
    <g id="text_16">
     <text style="font-size: 9px; font-family: 'DejaVu Serif'; text-anchor: start" x="306.213354" y="429.405904" transform="rotate(-0 306.213354 429.405904)">BABYLM-NoWS</text>
    </g>
    <g id="line2d_26">
     <path d="M 281.013354 439.466217 
L 290.013354 439.466217 
L 299.013354 439.466217 
" style="fill: none; stroke: #e76f51; stroke-width: 2; stroke-linecap: square"/>
    </g>
    <g id="text_17">
     <text style="font-size: 9px; font-family: 'DejaVu Serif'; text-anchor: start" x="306.213354" y="442.616217" transform="rotate(-0 306.213354 442.616217)">CHINESE</text>
    </g>
    <g id="line2d_27">
     <path d="M 396.666166 413.045592 
L 405.666166 413.045592 
L 414.666166 413.045592 
" style="fill: none; stroke: #6d597a; stroke-width: 2; stroke-linecap: square"/>
    </g>
    <g id="text_18">
     <text style="font-size: 9px; font-family: 'DejaVu Serif'; text-anchor: start" x="421.866166" y="416.195592" transform="rotate(-0 421.866166 416.195592)">CHINESE-NoWS</text>
    </g>
    <g id="line2d_28">
     <path d="M 396.666166 426.255904 
L 405.666166 426.255904 
L 414.666166 426.255904 
" style="fill: none; stroke: #d4a373; stroke-width: 2; stroke-linecap: square"/>
    </g>
    <g id="text_19">
     <text style="font-size: 9px; font-family: 'DejaVu Serif'; text-anchor: start" x="421.866166" y="429.405904" transform="rotate(-0 421.866166 429.405904)">2CHINESE-NoWS</text>
    </g>
    <g id="line2d_29">
     <path d="M 522.981166 413.045592 
L 531.981166 413.045592 
L 540.981166 413.045592 
" style="fill: none; stroke: #457b9d; stroke-width: 2; stroke-linecap: square"/>
    </g>
    <g id="text_20">
     <text style="font-size: 9px; font-family: 'DejaVu Serif'; text-anchor: start" x="548.181166" y="416.195592" transform="rotate(-0 548.181166 416.195592)">INITIALS</text>
    </g>
    <g id="line2d_30">
     <path d="M 522.981166 426.255904 
L 531.981166 426.255904 
L 540.981166 426.255904 
" style="fill: none; stroke: #8ab17d; stroke-width: 2; stroke-linecap: square"/>
    </g>
    <g id="text_21">
     <text style="font-size: 9px; font-family: 'DejaVu Serif'; text-anchor: start" x="548.181166" y="429.405904" transform="rotate(-0 548.181166 429.405904)">HANZI</text>
    </g>
   </g>
  </g>
 </g>
 <defs>
  <clipPath id="p277aa243fe">
   <rect x="57.474063" y="33.837812" width="757.430926" height="322.297531"/>
  </clipPath>
 </defs>
</svg>
