<svg xmlns="http://www.w3.org/2000/svg" width="2430" height="620" viewBox="0 0 2430 620">
<style>text{font-family:Arial,sans-serif;fill:#1f2933}.axis{stroke:#9aa5b1;stroke-width:1}.grid{stroke:#e4e7eb;stroke-width:1}.label{font-size:12px}.title{font-size:22px;font-weight:700}.legend{font-size:13px}</style>
<rect width="2430" height="620" fill="#ffffff"/>
<text x="76" y="34" class="title">acc by zhoblimp subtask (1/4)</text>
<line x1="76" y1="450.0" x2="2402" y2="450.0" class="grid"/>
<text x="66" y="454.0" text-anchor="end" class="label">0.0</text>
<line x1="76" y1="374.4" x2="2402" y2="374.4" class="grid"/>
<text x="66" y="378.4" text-anchor="end" class="label">0.2</text>
<line x1="76" y1="298.8" x2="2402" y2="298.8" class="grid"/>
<text x="66" y="302.8" text-anchor="end" class="label">0.4</text>
<line x1="76" y1="223.2" x2="2402" y2="223.2" class="grid"/>
<text x="66" y="227.2" text-anchor="end" class="label">0.6</text>
<line x1="76" y1="147.6" x2="2402" y2="147.6" class="grid"/>
<text x="66" y="151.6" text-anchor="end" class="label">0.8</text>
<line x1="76" y1="72.0" x2="2402" y2="72.0" class="grid"/>
<text x="66" y="76.0" text-anchor="end" class="label">1.0</text>
<line x1="76" y1="72" x2="76" y2="450" class="axis"/>
<line x1="76" y1="450" x2="2402" y2="450" class="axis"/>
<rect x="84.3" y="72.0" width="14.6" height="378.0" fill="#2f6f9f"><title>10k_gpu1 | zhoblimp_ellipsis_double_object: 1.000</title></rect>
<rect x="100.9" y="72.0" width="14.6" height="378.0" fill="#c44e52"><title>10k_hanzi_gpu1 | zhoblimp_ellipsis_double_object: 1.000</title></rect>
<rect x="117.5" y="72.0" width="14.6" height="378.0" fill="#55a868"><title>10k_initials_gpu1 | zhoblimp_ellipsis_double_object: 1.000</title></rect>
<text x="109.2" y="466" transform="rotate(62 109.2 466)" class="label">zhoblimp_ellipsis_double_object</text>
<rect x="150.8" y="72.0" width="14.6" height="378.0" fill="#2f6f9f"><title>10k_gpu1 | zhoblimp_relativization_movement_when_where: 1.000</title></rect>
<rect x="167.4" y="72.0" width="14.6" height="378.0" fill="#c44e52"><title>10k_hanzi_gpu1 | zhoblimp_relativization_movement_when_where: 1.000</title></rect>
<rect x="184.0" y="72.0" width="14.6" height="378.0" fill="#55a868"><title>10k_initials_gpu1 | zhoblimp_relativization_movement_when_where: 1.000</title></rect>
<text x="175.7" y="466" transform="rotate(62 175.7 466)" class="label">zhoblimp_relativization_movement_...</text>
<rect x="217.2" y="72.0" width="14.6" height="378.0" fill="#2f6f9f"><title>10k_gpu1 | zhoblimp_principle_A_domain: 1.000</title></rect>
<rect x="233.8" y="72.0" width="14.6" height="378.0" fill="#c44e52"><title>10k_hanzi_gpu1 | zhoblimp_principle_A_domain: 1.000</title></rect>
<rect x="250.4" y="72.0" width="14.6" height="378.0" fill="#55a868"><title>10k_initials_gpu1 | zhoblimp_principle_A_domain: 1.000</title></rect>
<text x="242.1" y="466" transform="rotate(62 242.1 466)" class="label">zhoblimp_principle_A_domain</text>
<rect x="283.7" y="72.0" width="14.6" height="378.0" fill="#2f6f9f"><title>10k_gpu1 | zhoblimp_question_A_not_A_indirect: 1.000</title></rect>
<rect x="300.3" y="72.0" width="14.6" height="378.0" fill="#c44e52"><title>10k_hanzi_gpu1 | zhoblimp_question_A_not_A_indirect: 1.000</title></rect>
<rect x="316.9" y="72.0" width="14.6" height="378.0" fill="#55a868"><title>10k_initials_gpu1 | zhoblimp_question_A_not_A_indirect: 1.000</title></rect>
<text x="308.6" y="466" transform="rotate(62 308.6 466)" class="label">zhoblimp_question_A_not_A_indirect</text>
<rect x="350.1" y="72.0" width="14.6" height="378.0" fill="#2f6f9f"><title>10k_gpu1 | zhoblimp_fci_renhe_suoyou: 1.000</title></rect>
<rect x="366.7" y="72.0" width="14.6" height="378.0" fill="#c44e52"><title>10k_hanzi_gpu1 | zhoblimp_fci_renhe_suoyou: 1.000</title></rect>
<rect x="383.4" y="72.0" width="14.6" height="378.0" fill="#55a868"><title>10k_initials_gpu1 | zhoblimp_fci_renhe_suoyou: 1.000</title></rect>
<text x="375.1" y="466" transform="rotate(62 375.1 466)" class="label">zhoblimp_fci_renhe_suoyou</text>
<rect x="416.6" y="72.0" width="14.6" height="378.0" fill="#2f6f9f"><title>10k_gpu1 | zhoblimp_BA_meiba: 1.000</title></rect>
<rect x="433.2" y="72.0" width="14.6" height="378.0" fill="#c44e52"><title>10k_hanzi_gpu1 | zhoblimp_BA_meiba: 1.000</title></rect>
<rect x="449.8" y="72.0" width="14.6" height="378.0" fill="#55a868"><title>10k_initials_gpu1 | zhoblimp_BA_meiba: 1.000</title></rect>
<text x="441.5" y="466" transform="rotate(62 441.5 466)" class="label">zhoblimp_BA_meiba</text>
<rect x="483.0" y="72.0" width="14.6" height="378.0" fill="#2f6f9f"><title>10k_gpu1 | zhoblimp_you_yige: 1.000</title></rect>
<rect x="499.7" y="72.0" width="14.6" height="378.0" fill="#c44e52"><title>10k_hanzi_gpu1 | zhoblimp_you_yige: 1.000</title></rect>
<rect x="516.3" y="72.0" width="14.6" height="378.0" fill="#55a868"><title>10k_initials_gpu1 | zhoblimp_you_yige: 1.000</title></rect>
<text x="508.0" y="466" transform="rotate(62 508.0 466)" class="label">zhoblimp_you_yige</text>
<rect x="549.5" y="72.0" width="14.6" height="378.0" fill="#2f6f9f"><title>10k_gpu1 | zhoblimp_BA_suo_adverbial_b: 1.000</title></rect>
<rect x="566.1" y="72.0" width="14.6" height="378.0" fill="#c44e52"><title>10k_hanzi_gpu1 | zhoblimp_BA_suo_adverbial_b: 1.000</title></rect>
<rect x="582.7" y="72.0" width="14.6" height="378.0" fill="#55a868"><title>10k_initials_gpu1 | zhoblimp_BA_suo_adverbial_b: 1.000</title></rect>
<text x="574.4" y="466" transform="rotate(62 574.4 466)" class="label">zhoblimp_BA_suo_adverbial_b</text>
<rect x="616.0" y="72.0" width="14.6" height="378.0" fill="#2f6f9f"><title>10k_gpu1 | zhoblimp_BA_duplicate_argument: 1.000</title></rect>
<rect x="632.6" y="72.0" width="14.6" height="378.0" fill="#c44e52"><title>10k_hanzi_gpu1 | zhoblimp_BA_duplicate_argument: 1.000</title></rect>
<rect x="649.2" y="72.0" width="14.6" height="378.0" fill="#55a868"><title>10k_initials_gpu1 | zhoblimp_BA_duplicate_argument: 1.000</title></rect>
<text x="640.9" y="466" transform="rotate(62 640.9 466)" class="label">zhoblimp_BA_duplicate_argument</text>
<rect x="682.4" y="72.0" width="14.6" height="378.0" fill="#2f6f9f"><title>10k_gpu1 | zhoblimp_principle_A_c_command: 1.000</title></rect>
<rect x="699.0" y="72.0" width="14.6" height="378.0" fill="#c44e52"><title>10k_hanzi_gpu1 | zhoblimp_principle_A_c_command: 1.000</title></rect>
<rect x="715.6" y="72.0" width="14.6" height="378.0" fill="#55a868"><title>10k_initials_gpu1 | zhoblimp_principle_A_c_command: 1.000</title></rect>
<text x="707.3" y="466" transform="rotate(62 707.3 466)" class="label">zhoblimp_principle_A_c_command</text>
<rect x="748.9" y="72.0" width="14.6" height="378.0" fill="#2f6f9f"><title>10k_gpu1 | zhoblimp_principle_A_domain_number: 1.000</title></rect>
<rect x="765.5" y="72.0" width="14.6" height="378.0" fill="#c44e52"><title>10k_hanzi_gpu1 | zhoblimp_principle_A_domain_number: 1.000</title></rect>
<rect x="782.1" y="72.0" width="14.6" height="378.0" fill="#55a868"><title>10k_initials_gpu1 | zhoblimp_principle_A_domain_number: 1.000</title></rect>
<text x="773.8" y="466" transform="rotate(62 773.8 466)" class="label">zhoblimp_principle_A_domain_number</text>
<rect x="815.3" y="72.0" width="14.6" height="378.0" fill="#2f6f9f"><title>10k_gpu1 | zhoblimp_BA_verb_le_a: 1.000</title></rect>
<rect x="832.0" y="72.0" width="14.6" height="378.0" fill="#c44e52"><title>10k_hanzi_gpu1 | zhoblimp_BA_verb_le_a: 1.000</title></rect>
<rect x="848.6" y="72.0" width="14.6" height="378.0" fill="#55a868"><title>10k_initials_gpu1 | zhoblimp_BA_verb_le_a: 1.000</title></rect>
<text x="840.3" y="466" transform="rotate(62 840.3 466)" class="label">zhoblimp_BA_verb_le_a</text>
<rect x="881.8" y="73.3" width="14.6" height="376.7" fill="#2f6f9f"><title>10k_gpu1 | zhoblimp_classifier_noun_subj: 0.997</title></rect>
<rect x="898.4" y="72.0" width="14.6" height="378.0" fill="#c44e52"><title>10k_hanzi_gpu1 | zhoblimp_classifier_noun_subj: 1.000</title></rect>
<rect x="915.0" y="72.0" width="14.6" height="378.0" fill="#55a868"><title>10k_initials_gpu1 | zhoblimp_classifier_noun_subj: 1.000</title></rect>
<text x="906.7" y="466" transform="rotate(62 906.7 466)" class="label">zhoblimp_classifier_noun_subj</text>
<rect x="948.2" y="74.5" width="14.6" height="375.5" fill="#2f6f9f"><title>10k_gpu1 | zhoblimp_fci_renhe_ruguo: 0.993</title></rect>
<rect x="964.9" y="72.0" width="14.6" height="378.0" fill="#c44e52"><title>10k_hanzi_gpu1 | zhoblimp_fci_renhe_ruguo: 1.000</title></rect>
<rect x="981.5" y="72.0" width="14.6" height="378.0" fill="#55a868"><title>10k_initials_gpu1 | zhoblimp_fci_renhe_ruguo: 1.000</title></rect>
<text x="973.2" y="466" transform="rotate(62 973.2 466)" class="label">zhoblimp_fci_renhe_ruguo</text>
<rect x="1014.7" y="77.0" width="14.6" height="373.0" fill="#2f6f9f"><title>10k_gpu1 | zhoblimp_PN_numP_a: 0.987</title></rect>
<rect x="1031.3" y="72.0" width="14.6" height="378.0" fill="#c44e52"><title>10k_hanzi_gpu1 | zhoblimp_PN_numP_a: 1.000</title></rect>
<rect x="1047.9" y="72.0" width="14.6" height="378.0" fill="#55a868"><title>10k_initials_gpu1 | zhoblimp_PN_numP_a: 1.000</title></rect>
<text x="1039.6" y="466" transform="rotate(62 1039.6 466)" class="label">zhoblimp_PN_numP_a</text>
<rect x="1081.2" y="73.3" width="14.6" height="376.7" fill="#2f6f9f"><title>10k_gpu1 | zhoblimp_question_A_not_A: 0.997</title></rect>
<rect x="1097.8" y="73.3" width="14.6" height="376.7" fill="#c44e52"><title>10k_hanzi_gpu1 | zhoblimp_question_A_not_A: 0.997</title></rect>
<rect x="1114.4" y="74.5" width="14.6" height="375.5" fill="#55a868"><title>10k_initials_gpu1 | zhoblimp_question_A_not_A: 0.993</title></rect>
<text x="1106.1" y="466" transform="rotate(62 1106.1 466)" class="label">zhoblimp_question_A_not_A</text>
<rect x="1147.6" y="87.1" width="14.6" height="362.9" fill="#2f6f9f"><title>10k_gpu1 | zhoblimp_relativization_movement_no_gap: 0.960</title></rect>
<rect x="1164.2" y="72.0" width="14.6" height="378.0" fill="#c44e52"><title>10k_hanzi_gpu1 | zhoblimp_relativization_movement_no_gap: 1.000</title></rect>
<rect x="1180.9" y="72.0" width="14.6" height="378.0" fill="#55a868"><title>10k_initials_gpu1 | zhoblimp_relativization_movement_no_gap: 1.000</title></rect>
<text x="1172.5" y="466" transform="rotate(62 1172.5 466)" class="label">zhoblimp_relativization_movement_...</text>
<rect x="1214.1" y="98.5" width="14.6" height="351.5" fill="#2f6f9f"><title>10k_gpu1 | zhoblimp_control_modal_vs_raising_modal: 0.930</title></rect>
<rect x="1230.7" y="72.0" width="14.6" height="378.0" fill="#c44e52"><title>10k_hanzi_gpu1 | zhoblimp_control_modal_vs_raising_modal: 1.000</title></rect>
<rect x="1247.3" y="72.0" width="14.6" height="378.0" fill="#55a868"><title>10k_initials_gpu1 | zhoblimp_control_modal_vs_raising_modal: 1.000</title></rect>
<text x="1239.0" y="466" transform="rotate(62 1239.0 466)" class="label">zhoblimp_control_modal_vs_raising...</text>
<rect x="1280.5" y="80.8" width="14.6" height="369.2" fill="#2f6f9f"><title>10k_gpu1 | zhoblimp_BA_no_progressive: 0.977</title></rect>
<rect x="1297.1" y="93.4" width="14.6" height="356.6" fill="#c44e52"><title>10k_hanzi_gpu1 | zhoblimp_BA_no_progressive: 0.943</title></rect>
<rect x="1313.8" y="73.3" width="14.6" height="376.7" fill="#55a868"><title>10k_initials_gpu1 | zhoblimp_BA_no_progressive: 0.997</title></rect>
<text x="1305.5" y="466" transform="rotate(62 1305.5 466)" class="label">zhoblimp_BA_no_progressive</text>
<rect x="1347.0" y="72.0" width="14.6" height="378.0" fill="#2f6f9f"><title>10k_gpu1 | zhoblimp_BA_suo_adverbial_a: 1.000</title></rect>
<rect x="1363.6" y="90.9" width="14.6" height="359.1" fill="#c44e52"><title>10k_hanzi_gpu1 | zhoblimp_BA_suo_adverbial_a: 0.950</title></rect>
<rect x="1380.2" y="90.9" width="14.6" height="359.1" fill="#55a868"><title>10k_initials_gpu1 | zhoblimp_BA_suo_adverbial_a: 0.950</title></rect>
<text x="1371.9" y="466" transform="rotate(62 1371.9 466)" class="label">zhoblimp_BA_suo_adverbial_a</text>
<rect x="1413.5" y="73.3" width="14.6" height="376.7" fill="#2f6f9f"><title>10k_gpu1 | zhoblimp_nominal_definite_men: 0.997</title></rect>
<rect x="1430.1" y="92.2" width="14.6" height="357.8" fill="#c44e52"><title>10k_hanzi_gpu1 | zhoblimp_nominal_definite_men: 0.947</title></rect>
<rect x="1446.7" y="92.2" width="14.6" height="357.8" fill="#55a868"><title>10k_initials_gpu1 | zhoblimp_nominal_definite_men: 0.947</title></rect>
<text x="1438.4" y="466" transform="rotate(62 1438.4 466)" class="label">zhoblimp_nominal_definite_men</text>
<rect x="1479.9" y="79.6" width="14.6" height="370.4" fill="#2f6f9f"><title>10k_gpu1 | zhoblimp_plural_cardinal_men_b: 0.980</title></rect>
<rect x="1496.5" y="92.2" width="14.6" height="357.8" fill="#c44e52"><title>10k_hanzi_gpu1 | zhoblimp_plural_cardinal_men_b: 0.947</title></rect>
<rect x="1513.1" y="92.2" width="14.6" height="357.8" fill="#55a868"><title>10k_initials_gpu1 | zhoblimp_plural_cardinal_men_b: 0.947</title></rect>
<text x="1504.8" y="466" transform="rotate(62 1504.8 466)" class="label">zhoblimp_plural_cardinal_men_b</text>
<rect x="1546.4" y="83.3" width="14.6" height="366.7" fill="#2f6f9f"><title>10k_gpu1 | zhoblimp_plural_cardinal_men_a: 0.970</title></rect>
<rect x="1563.0" y="90.9" width="14.6" height="359.1" fill="#c44e52"><title>10k_hanzi_gpu1 | zhoblimp_plural_cardinal_men_a: 0.950</title></rect>
<rect x="1579.6" y="90.9" width="14.6" height="359.1" fill="#55a868"><title>10k_initials_gpu1 | zhoblimp_plural_cardinal_men_a: 0.950</title></rect>
<text x="1571.3" y="466" transform="rotate(62 1571.3 466)" class="label">zhoblimp_plural_cardinal_men_a</text>
<rect x="1612.8" y="135.0" width="14.6" height="315.0" fill="#2f6f9f"><title>10k_gpu1 | zhoblimp_singular_PN_but_plural_pron: 0.833</title></rect>
<rect x="1629.4" y="72.0" width="14.6" height="378.0" fill="#c44e52"><title>10k_hanzi_gpu1 | zhoblimp_singular_PN_but_plural_pron: 1.000</title></rect>
<rect x="1646.1" y="72.0" width="14.6" height="378.0" fill="#55a868"><title>10k_initials_gpu1 | zhoblimp_singular_PN_but_plural_pron: 1.000</title></rect>
<text x="1637.7" y="466" transform="rotate(62 1637.7 466)" class="label">zhoblimp_singular_PN_but_plural_p...</text>
<rect x="1679.3" y="74.5" width="14.6" height="375.5" fill="#2f6f9f"><title>10k_gpu1 | zhoblimp_BA_no_stative_verb: 0.993</title></rect>
<rect x="1695.9" y="72.0" width="14.6" height="378.0" fill="#c44e52"><title>10k_hanzi_gpu1 | zhoblimp_BA_no_stative_verb: 1.000</title></rect>
<rect x="1712.5" y="189.2" width="14.6" height="260.8" fill="#55a868"><title>10k_initials_gpu1 | zhoblimp_BA_no_stative_verb: 0.690</title></rect>
<text x="1704.2" y="466" transform="rotate(62 1704.2 466)" class="label">zhoblimp_BA_no_stative_verb</text>
<rect x="1745.7" y="102.2" width="14.6" height="347.8" fill="#2f6f9f"><title>10k_gpu1 | zhoblimp_question_daodi_nandao_1: 0.920</title></rect>
<rect x="1762.3" y="170.3" width="14.6" height="279.7" fill="#c44e52"><title>10k_hanzi_gpu1 | zhoblimp_question_daodi_nandao_1: 0.740</title></rect>
<rect x="1779.0" y="72.0" width="14.6" height="378.0" fill="#55a868"><title>10k_initials_gpu1 | zhoblimp_question_daodi_nandao_1: 1.000</title></rect>
<text x="1770.7" y="466" transform="rotate(62 1770.7 466)" class="label">zhoblimp_question_daodi_nandao_1</text>
<rect x="1812.2" y="269.8" width="14.6" height="180.2" fill="#2f6f9f"><title>10k_gpu1 | zhoblimp_question_particle_daodi_choice_intran: 0.477</title></rect>
<rect x="1828.8" y="72.0" width="14.6" height="378.0" fill="#c44e52"><title>10k_hanzi_gpu1 | zhoblimp_question_particle_daodi_choice_intran: 1.000</title></rect>
<rect x="1845.4" y="72.0" width="14.6" height="378.0" fill="#55a868"><title>10k_initials_gpu1 | zhoblimp_question_particle_daodi_choice_intran: 1.000</title></rect>
<text x="1837.1" y="466" transform="rotate(62 1837.1 466)" class="label">zhoblimp_question_particle_daodi_...</text>
<rect x="1878.7" y="114.8" width="14.6" height="335.2" fill="#2f6f9f"><title>10k_gpu1 | zhoblimp_classifier_noun_agreement: 0.887</title></rect>
<rect x="1895.3" y="187.9" width="14.6" height="262.1" fill="#c44e52"><title>10k_hanzi_gpu1 | zhoblimp_classifier_noun_agreement: 0.693</title></rect>
<rect x="1911.9" y="152.6" width="14.6" height="297.4" fill="#55a868"><title>10k_initials_gpu1 | zhoblimp_classifier_noun_agreement: 0.787</title></rect>
<text x="1903.6" y="466" transform="rotate(62 1903.6 466)" class="label">zhoblimp_classifier_noun_agreement</text>
<rect x="1945.1" y="305.1" width="14.6" height="144.9" fill="#2f6f9f"><title>10k_gpu1 | zhoblimp_question_particle_nandao: 0.383</title></rect>
<rect x="1961.7" y="113.6" width="14.6" height="336.4" fill="#c44e52"><title>10k_hanzi_gpu1 | zhoblimp_question_particle_nandao: 0.890</title></rect>
<rect x="1978.3" y="72.0" width="14.6" height="378.0" fill="#55a868"><title>10k_initials_gpu1 | zhoblimp_question_particle_nandao: 1.000</title></rect>
<text x="1970.0" y="466" transform="rotate(62 1970.0 466)" class="label">zhoblimp_question_particle_nandao</text>
<rect x="2011.6" y="109.8" width="14.6" height="340.2" fill="#2f6f9f"><title>10k_gpu1 | zhoblimp_noun_phrase_conjunction_jian: 0.900</title></rect>
<rect x="2028.2" y="284.9" width="14.6" height="165.1" fill="#c44e52"><title>10k_hanzi_gpu1 | zhoblimp_noun_phrase_conjunction_jian: 0.437</title></rect>
<rect x="2044.8" y="102.2" width="14.6" height="347.8" fill="#55a868"><title>10k_initials_gpu1 | zhoblimp_noun_phrase_conjunction_jian: 0.920</title></rect>
<text x="2036.5" y="466" transform="rotate(62 2036.5 466)" class="label">zhoblimp_noun_phrase_conjunction_...</text>
<rect x="2078.0" y="358.0" width="14.6" height="92.0" fill="#2f6f9f"><title>10k_gpu1 | zhoblimp_question_particle_daodi_choice_tran: 0.243</title></rect>
<rect x="2094.6" y="72.0" width="14.6" height="378.0" fill="#c44e52"><title>10k_hanzi_gpu1 | zhoblimp_question_particle_daodi_choice_tran: 1.000</title></rect>
<rect x="2111.2" y="72.0" width="14.6" height="378.0" fill="#55a868"><title>10k_initials_gpu1 | zhoblimp_question_particle_daodi_choice_tran: 1.000</title></rect>
<text x="2102.9" y="466" transform="rotate(62 2102.9 466)" class="label">zhoblimp_question_particle_daodi_...</text>
<rect x="2144.5" y="72.0" width="14.6" height="378.0" fill="#2f6f9f"><title>10k_gpu1 | zhoblimp_PN_numP_b: 1.000</title></rect>
<rect x="2161.1" y="219.4" width="14.6" height="230.6" fill="#c44e52"><title>10k_hanzi_gpu1 | zhoblimp_PN_numP_b: 0.610</title></rect>
<rect x="2177.7" y="213.1" width="14.6" height="236.9" fill="#55a868"><title>10k_initials_gpu1 | zhoblimp_PN_numP_b: 0.627</title></rect>
<text x="2169.4" y="466" transform="rotate(62 2169.4 466)" class="label">zhoblimp_PN_numP_b</text>
<rect x="2210.9" y="72.0" width="14.6" height="378.0" fill="#2f6f9f"><title>10k_gpu1 | zhoblimp_question_daodi_negation: 1.000</title></rect>
<rect x="2227.6" y="224.5" width="14.6" height="225.5" fill="#c44e52"><title>10k_hanzi_gpu1 | zhoblimp_question_daodi_negation: 0.597</title></rect>
<rect x="2244.2" y="216.9" width="14.6" height="233.1" fill="#55a868"><title>10k_initials_gpu1 | zhoblimp_question_daodi_negation: 0.617</title></rect>
<text x="2235.9" y="466" transform="rotate(62 2235.9 466)" class="label">zhoblimp_question_daodi_negation</text>
<rect x="2277.4" y="73.3" width="14.6" height="376.7" fill="#2f6f9f"><title>10k_gpu1 | zhoblimp_question_nandao_negation: 0.997</title></rect>
<rect x="2294.0" y="244.6" width="14.6" height="205.4" fill="#c44e52"><title>10k_hanzi_gpu1 | zhoblimp_question_nandao_negation: 0.543</title></rect>
<rect x="2310.6" y="262.3" width="14.6" height="187.7" fill="#55a868"><title>10k_initials_gpu1 | zhoblimp_question_nandao_negation: 0.497</title></rect>
<text x="2302.3" y="466" transform="rotate(62 2302.3 466)" class="label">zhoblimp_question_nandao_negation</text>
<rect x="2343.8" y="450.0" width="14.6" height="0.0" fill="#2f6f9f"><title>10k_gpu1 | zhoblimp_principle_A_c_command_number: 0.000</title></rect>
<rect x="2360.5" y="72.0" width="14.6" height="378.0" fill="#c44e52"><title>10k_hanzi_gpu1 | zhoblimp_principle_A_c_command_number: 1.000</title></rect>
<rect x="2377.1" y="72.0" width="14.6" height="378.0" fill="#55a868"><title>10k_initials_gpu1 | zhoblimp_principle_A_c_command_number: 1.000</title></rect>
<text x="2368.8" y="466" transform="rotate(62 2368.8 466)" class="label">zhoblimp_principle_A_c_command_nu...</text>
<rect x="76" y="580" width="14" height="14" fill="#2f6f9f"/>
<text x="96" y="592" class="legend">10k_gpu1</text>
<rect x="286" y="580" width="14" height="14" fill="#c44e52"/>
<text x="306" y="592" class="legend">10k_hanzi_gpu1</text>
<rect x="496" y="580" width="14" height="14" fill="#55a868"/>
<text x="516" y="592" class="legend">10k_initials_gpu1</text>
</svg>
