<svg xmlns="http://www.w3.org/2000/svg" width="2430" height="620" viewBox="0 0 2430 620">
<style>text{font-family:Arial,sans-serif;fill:#1f2933}.axis{stroke:#9aa5b1;stroke-width:1}.grid{stroke:#e4e7eb;stroke-width:1}.label{font-size:12px}.title{font-size:22px;font-weight:700}.legend{font-size:13px}</style>
<rect width="2430" height="620" fill="#ffffff"/>
<text x="76" y="34" class="title">acc by zhoblimp subtask (2/4)</text>
<line x1="76" y1="450.0" x2="2402" y2="450.0" class="grid"/>
<text x="66" y="454.0" text-anchor="end" class="label">0.0</text>
<line x1="76" y1="374.4" x2="2402" y2="374.4" class="grid"/>
<text x="66" y="378.4" text-anchor="end" class="label">0.2</text>
<line x1="76" y1="298.8" x2="2402" y2="298.8" class="grid"/>
<text x="66" y="302.8" text-anchor="end" class="label">0.4</text>
<line x1="76" y1="223.2" x2="2402" y2="223.2" class="grid"/>
<text x="66" y="227.2" text-anchor="end" class="label">0.6</text>
<line x1="76" y1="147.6" x2="2402" y2="147.6" class="grid"/>
<text x="66" y="151.6" text-anchor="end" class="label">0.8</text>
<line x1="76" y1="72.0" x2="2402" y2="72.0" class="grid"/>
<text x="66" y="76.0" text-anchor="end" class="label">1.0</text>
<line x1="76" y1="72" x2="76" y2="450" class="axis"/>
<line x1="76" y1="450" x2="2402" y2="450" class="axis"/>
<rect x="84.3" y="450.0" width="14.6" height="0.0" fill="#2f6f9f"><title>10k_gpu1 | zhoblimp_anaphor_number_agreement: 0.000</title></rect>
<rect x="100.9" y="72.0" width="14.6" height="378.0" fill="#c44e52"><title>10k_hanzi_gpu1 | zhoblimp_anaphor_number_agreement: 1.000</title></rect>
<rect x="117.5" y="72.0" width="14.6" height="378.0" fill="#55a868"><title>10k_initials_gpu1 | zhoblimp_anaphor_number_agreement: 1.000</title></rect>
<text x="109.2" y="466" transform="rotate(62 109.2 466)" class="label">zhoblimp_anaphor_number_agreement</text>
<rect x="150.8" y="191.7" width="14.6" height="258.3" fill="#2f6f9f"><title>10k_gpu1 | zhoblimp_BEI_construction_b: 0.683</title></rect>
<rect x="167.4" y="310.1" width="14.6" height="139.9" fill="#c44e52"><title>10k_hanzi_gpu1 | zhoblimp_BEI_construction_b: 0.370</title></rect>
<rect x="184.0" y="102.2" width="14.6" height="347.8" fill="#55a868"><title>10k_initials_gpu1 | zhoblimp_BEI_construction_b: 0.920</title></rect>
<text x="175.7" y="466" transform="rotate(62 175.7 466)" class="label">zhoblimp_BEI_construction_b</text>
<rect x="217.2" y="182.9" width="14.6" height="267.1" fill="#2f6f9f"><title>10k_gpu1 | zhoblimp_passive_body_part: 0.707</title></rect>
<rect x="233.8" y="199.3" width="14.6" height="250.7" fill="#c44e52"><title>10k_hanzi_gpu1 | zhoblimp_passive_body_part: 0.663</title></rect>
<rect x="250.4" y="223.2" width="14.6" height="226.8" fill="#55a868"><title>10k_initials_gpu1 | zhoblimp_passive_body_part: 0.600</title></rect>
<text x="242.1" y="466" transform="rotate(62 242.1 466)" class="label">zhoblimp_passive_body_part</text>
<rect x="283.7" y="72.0" width="14.6" height="378.0" fill="#2f6f9f"><title>10k_gpu1 | zhoblimp_question_nandao_raising_1_a: 1.000</title></rect>
<rect x="300.3" y="450.0" width="14.6" height="0.0" fill="#c44e52"><title>10k_hanzi_gpu1 | zhoblimp_question_nandao_raising_1_a: 0.000</title></rect>
<rect x="316.9" y="90.9" width="14.6" height="359.1" fill="#55a868"><title>10k_initials_gpu1 | zhoblimp_question_nandao_raising_1_a: 0.950</title></rect>
<text x="308.6" y="466" transform="rotate(62 308.6 466)" class="label">zhoblimp_question_nandao_raising_...</text>
<rect x="350.1" y="93.4" width="14.6" height="356.6" fill="#2f6f9f"><title>10k_gpu1 | zhoblimp_relative_operator_who: 0.943</title></rect>
<rect x="366.7" y="72.0" width="14.6" height="378.0" fill="#c44e52"><title>10k_hanzi_gpu1 | zhoblimp_relative_operator_who: 1.000</title></rect>
<rect x="383.4" y="450.0" width="14.6" height="0.0" fill="#55a868"><title>10k_initials_gpu1 | zhoblimp_relative_operator_who: 0.000</title></rect>
<text x="375.1" y="466" transform="rotate(62 375.1 466)" class="label">zhoblimp_relative_operator_who</text>
<rect x="416.6" y="166.5" width="14.6" height="283.5" fill="#2f6f9f"><title>10k_gpu1 | zhoblimp_left_adverbial_e: 0.750</title></rect>
<rect x="433.2" y="235.8" width="14.6" height="214.2" fill="#c44e52"><title>10k_hanzi_gpu1 | zhoblimp_left_adverbial_e: 0.567</title></rect>
<rect x="449.8" y="215.6" width="14.6" height="234.4" fill="#55a868"><title>10k_initials_gpu1 | zhoblimp_left_adverbial_e: 0.620</title></rect>
<text x="441.5" y="466" transform="rotate(62 441.5 466)" class="label">zhoblimp_left_adverbial_e</text>
<rect x="483.0" y="88.4" width="14.6" height="361.6" fill="#2f6f9f"><title>10k_gpu1 | zhoblimp_left_dou: 0.957</title></rect>
<rect x="499.7" y="284.9" width="14.6" height="165.1" fill="#c44e52"><title>10k_hanzi_gpu1 | zhoblimp_left_dou: 0.437</title></rect>
<rect x="516.3" y="257.2" width="14.6" height="192.8" fill="#55a868"><title>10k_initials_gpu1 | zhoblimp_left_dou: 0.510</title></rect>
<text x="508.0" y="466" transform="rotate(62 508.0 466)" class="label">zhoblimp_left_dou</text>
<rect x="549.5" y="219.4" width="14.6" height="230.6" fill="#2f6f9f"><title>10k_gpu1 | zhoblimp_ellipsis_adj: 0.610</title></rect>
<rect x="566.1" y="227.0" width="14.6" height="223.0" fill="#c44e52"><title>10k_hanzi_gpu1 | zhoblimp_ellipsis_adj: 0.590</title></rect>
<rect x="582.7" y="201.8" width="14.6" height="248.2" fill="#55a868"><title>10k_initials_gpu1 | zhoblimp_ellipsis_adj: 0.657</title></rect>
<text x="574.4" y="466" transform="rotate(62 574.4 466)" class="label">zhoblimp_ellipsis_adj</text>
<rect x="616.0" y="256.0" width="14.6" height="194.0" fill="#2f6f9f"><title>10k_gpu1 | zhoblimp_npi_renhe_wh_question_subj: 0.513</title></rect>
<rect x="632.6" y="140.0" width="14.6" height="310.0" fill="#c44e52"><title>10k_hanzi_gpu1 | zhoblimp_npi_renhe_wh_question_subj: 0.820</title></rect>
<rect x="649.2" y="256.0" width="14.6" height="194.0" fill="#55a868"><title>10k_initials_gpu1 | zhoblimp_npi_renhe_wh_question_subj: 0.513</title></rect>
<text x="640.9" y="466" transform="rotate(62 640.9 466)" class="label">zhoblimp_npi_renhe_wh_question_su...</text>
<rect x="682.4" y="196.7" width="14.6" height="253.3" fill="#2f6f9f"><title>10k_gpu1 | zhoblimp_left_adverbial_b: 0.670</title></rect>
<rect x="699.0" y="224.5" width="14.6" height="225.5" fill="#c44e52"><title>10k_hanzi_gpu1 | zhoblimp_left_adverbial_b: 0.597</title></rect>
<rect x="715.6" y="238.3" width="14.6" height="211.7" fill="#55a868"><title>10k_initials_gpu1 | zhoblimp_left_adverbial_b: 0.560</title></rect>
<text x="707.3" y="466" transform="rotate(62 707.3 466)" class="label">zhoblimp_left_adverbial_b</text>
<rect x="748.9" y="124.9" width="14.6" height="325.1" fill="#2f6f9f"><title>10k_gpu1 | zhoblimp_you_quantifier_adj: 0.860</title></rect>
<rect x="765.5" y="254.7" width="14.6" height="195.3" fill="#c44e52"><title>10k_hanzi_gpu1 | zhoblimp_you_quantifier_adj: 0.517</title></rect>
<rect x="782.1" y="279.9" width="14.6" height="170.1" fill="#55a868"><title>10k_initials_gpu1 | zhoblimp_you_quantifier_adj: 0.450</title></rect>
<text x="773.8" y="466" transform="rotate(62 773.8 466)" class="label">zhoblimp_you_quantifier_adj</text>
<rect x="815.3" y="72.0" width="14.6" height="378.0" fill="#2f6f9f"><title>10k_gpu1 | zhoblimp_question_nandao_raising_1_b: 1.000</title></rect>
<rect x="832.0" y="450.0" width="14.6" height="0.0" fill="#c44e52"><title>10k_hanzi_gpu1 | zhoblimp_question_nandao_raising_1_b: 0.000</title></rect>
<rect x="848.6" y="138.8" width="14.6" height="311.2" fill="#55a868"><title>10k_initials_gpu1 | zhoblimp_question_nandao_raising_1_b: 0.823</title></rect>
<text x="840.3" y="466" transform="rotate(62 840.3 466)" class="label">zhoblimp_question_nandao_raising_...</text>
<rect x="881.8" y="257.2" width="14.6" height="192.8" fill="#2f6f9f"><title>10k_gpu1 | zhoblimp_agent_animacy_passive: 0.510</title></rect>
<rect x="898.4" y="179.1" width="14.6" height="270.9" fill="#c44e52"><title>10k_hanzi_gpu1 | zhoblimp_agent_animacy_passive: 0.717</title></rect>
<rect x="915.0" y="225.7" width="14.6" height="224.3" fill="#55a868"><title>10k_initials_gpu1 | zhoblimp_agent_animacy_passive: 0.593</title></rect>
<text x="906.7" y="466" transform="rotate(62 906.7 466)" class="label">zhoblimp_agent_animacy_passive</text>
<rect x="948.2" y="247.1" width="14.6" height="202.9" fill="#2f6f9f"><title>10k_gpu1 | zhoblimp_intransitive_no_obj: 0.537</title></rect>
<rect x="964.9" y="230.8" width="14.6" height="219.2" fill="#c44e52"><title>10k_hanzi_gpu1 | zhoblimp_intransitive_no_obj: 0.580</title></rect>
<rect x="981.5" y="201.8" width="14.6" height="248.2" fill="#55a868"><title>10k_initials_gpu1 | zhoblimp_intransitive_no_obj: 0.657</title></rect>
<text x="973.2" y="466" transform="rotate(62 973.2 466)" class="label">zhoblimp_intransitive_no_obj</text>
<rect x="1014.7" y="225.7" width="14.6" height="224.3" fill="#2f6f9f"><title>10k_gpu1 | zhoblimp_BEI_construction_a: 0.593</title></rect>
<rect x="1031.3" y="300.1" width="14.6" height="149.9" fill="#c44e52"><title>10k_hanzi_gpu1 | zhoblimp_BEI_construction_a: 0.397</title></rect>
<rect x="1047.9" y="156.4" width="14.6" height="293.6" fill="#55a868"><title>10k_initials_gpu1 | zhoblimp_BEI_construction_a: 0.777</title></rect>
<text x="1039.6" y="466" transform="rotate(62 1039.6 466)" class="label">zhoblimp_BEI_construction_a</text>
<rect x="1081.2" y="205.6" width="14.6" height="244.4" fill="#2f6f9f"><title>10k_gpu1 | zhoblimp_nominal_modal_insertion: 0.647</title></rect>
<rect x="1097.8" y="190.4" width="14.6" height="259.6" fill="#c44e52"><title>10k_hanzi_gpu1 | zhoblimp_nominal_modal_insertion: 0.687</title></rect>
<rect x="1114.4" y="288.7" width="14.6" height="161.3" fill="#55a868"><title>10k_initials_gpu1 | zhoblimp_nominal_modal_insertion: 0.427</title></rect>
<text x="1106.1" y="466" transform="rotate(62 1106.1 466)" class="label">zhoblimp_nominal_modal_insertion</text>
<rect x="1147.6" y="189.2" width="14.6" height="260.8" fill="#2f6f9f"><title>10k_gpu1 | zhoblimp_question_V_not_VP_2: 0.690</title></rect>
<rect x="1164.2" y="218.2" width="14.6" height="231.8" fill="#c44e52"><title>10k_hanzi_gpu1 | zhoblimp_question_V_not_VP_2: 0.613</title></rect>
<rect x="1180.9" y="283.7" width="14.6" height="166.3" fill="#55a868"><title>10k_initials_gpu1 | zhoblimp_question_V_not_VP_2: 0.440</title></rect>
<text x="1172.5" y="466" transform="rotate(62 1172.5 466)" class="label">zhoblimp_question_V_not_VP_2</text>
<rect x="1214.1" y="356.8" width="14.6" height="93.2" fill="#2f6f9f"><title>10k_gpu1 | zhoblimp_topicalization_OSV_mei: 0.247</title></rect>
<rect x="1230.7" y="271.1" width="14.6" height="178.9" fill="#c44e52"><title>10k_hanzi_gpu1 | zhoblimp_topicalization_OSV_mei: 0.473</title></rect>
<rect x="1247.3" y="72.0" width="14.6" height="378.0" fill="#55a868"><title>10k_initials_gpu1 | zhoblimp_topicalization_OSV_mei: 1.000</title></rect>
<text x="1239.0" y="466" transform="rotate(62 1239.0 466)" class="label">zhoblimp_topicalization_OSV_mei</text>
<rect x="1280.5" y="353.0" width="14.6" height="97.0" fill="#2f6f9f"><title>10k_gpu1 | zhoblimp_causative_shi_ba: 0.257</title></rect>
<rect x="1297.1" y="262.3" width="14.6" height="187.7" fill="#c44e52"><title>10k_hanzi_gpu1 | zhoblimp_causative_shi_ba: 0.497</title></rect>
<rect x="1313.8" y="89.6" width="14.6" height="360.4" fill="#55a868"><title>10k_initials_gpu1 | zhoblimp_causative_shi_ba: 0.953</title></rect>
<text x="1305.5" y="466" transform="rotate(62 1305.5 466)" class="label">zhoblimp_causative_shi_ba</text>
<rect x="1347.0" y="245.9" width="14.6" height="204.1" fill="#2f6f9f"><title>10k_gpu1 | zhoblimp_agent_causative: 0.540</title></rect>
<rect x="1363.6" y="220.7" width="14.6" height="229.3" fill="#c44e52"><title>10k_hanzi_gpu1 | zhoblimp_agent_causative: 0.607</title></rect>
<rect x="1380.2" y="245.9" width="14.6" height="204.1" fill="#55a868"><title>10k_initials_gpu1 | zhoblimp_agent_causative: 0.540</title></rect>
<text x="1371.9" y="466" transform="rotate(62 1371.9 466)" class="label">zhoblimp_agent_causative</text>
<rect x="1413.5" y="184.1" width="14.6" height="265.9" fill="#2f6f9f"><title>10k_gpu1 | zhoblimp_left_adverbial_d: 0.703</title></rect>
<rect x="1430.1" y="257.2" width="14.6" height="192.8" fill="#c44e52"><title>10k_hanzi_gpu1 | zhoblimp_left_adverbial_d: 0.510</title></rect>
<rect x="1446.7" y="274.9" width="14.6" height="175.1" fill="#55a868"><title>10k_initials_gpu1 | zhoblimp_left_adverbial_d: 0.463</title></rect>
<text x="1438.4" y="466" transform="rotate(62 1438.4 466)" class="label">zhoblimp_left_adverbial_d</text>
<rect x="1479.9" y="141.3" width="14.6" height="308.7" fill="#2f6f9f"><title>10k_gpu1 | zhoblimp_topicalization_SOV: 0.817</title></rect>
<rect x="1496.5" y="378.2" width="14.6" height="71.8" fill="#c44e52"><title>10k_hanzi_gpu1 | zhoblimp_topicalization_SOV: 0.190</title></rect>
<rect x="1513.1" y="209.3" width="14.6" height="240.7" fill="#55a868"><title>10k_initials_gpu1 | zhoblimp_topicalization_SOV: 0.637</title></rect>
<text x="1504.8" y="466" transform="rotate(62 1504.8 466)" class="label">zhoblimp_topicalization_SOV</text>
<rect x="1546.4" y="186.7" width="14.6" height="263.3" fill="#2f6f9f"><title>10k_gpu1 | zhoblimp_existential_there_subject_raising: 0.697</title></rect>
<rect x="1563.0" y="145.1" width="14.6" height="304.9" fill="#c44e52"><title>10k_hanzi_gpu1 | zhoblimp_existential_there_subject_raising: 0.807</title></rect>
<rect x="1579.6" y="398.3" width="14.6" height="51.7" fill="#55a868"><title>10k_initials_gpu1 | zhoblimp_existential_there_subject_raising: 0.137</title></rect>
<text x="1571.3" y="466" transform="rotate(62 1571.3 466)" class="label">zhoblimp_existential_there_subjec...</text>
<rect x="1612.8" y="300.1" width="14.6" height="149.9" fill="#2f6f9f"><title>10k_gpu1 | zhoblimp_BEI_preposition: 0.397</title></rect>
<rect x="1629.4" y="371.9" width="14.6" height="78.1" fill="#c44e52"><title>10k_hanzi_gpu1 | zhoblimp_BEI_preposition: 0.207</title></rect>
<rect x="1646.1" y="72.0" width="14.6" height="378.0" fill="#55a868"><title>10k_initials_gpu1 | zhoblimp_BEI_preposition: 1.000</title></rect>
<text x="1637.7" y="466" transform="rotate(62 1637.7 466)" class="label">zhoblimp_BEI_preposition</text>
<rect x="1679.3" y="213.1" width="14.6" height="236.9" fill="#2f6f9f"><title>10k_gpu1 | zhoblimp_left_adverbial_negation: 0.627</title></rect>
<rect x="1695.9" y="264.8" width="14.6" height="185.2" fill="#c44e52"><title>10k_hanzi_gpu1 | zhoblimp_left_adverbial_negation: 0.490</title></rect>
<rect x="1712.5" y="271.1" width="14.6" height="178.9" fill="#55a868"><title>10k_initials_gpu1 | zhoblimp_left_adverbial_negation: 0.473</title></rect>
<text x="1704.2" y="466" transform="rotate(62 1704.2 466)" class="label">zhoblimp_left_adverbial_negation</text>
<rect x="1745.7" y="229.5" width="14.6" height="220.5" fill="#2f6f9f"><title>10k_gpu1 | zhoblimp_npi_renhe_wh_question_obj: 0.583</title></rect>
<rect x="1762.3" y="72.0" width="14.6" height="378.0" fill="#c44e52"><title>10k_hanzi_gpu1 | zhoblimp_npi_renhe_wh_question_obj: 1.000</title></rect>
<rect x="1779.0" y="450.0" width="14.6" height="0.0" fill="#55a868"><title>10k_initials_gpu1 | zhoblimp_npi_renhe_wh_question_obj: 0.000</title></rect>
<text x="1770.7" y="466" transform="rotate(62 1770.7 466)" class="label">zhoblimp_npi_renhe_wh_question_obj</text>
<rect x="1812.2" y="244.6" width="14.6" height="205.4" fill="#2f6f9f"><title>10k_gpu1 | zhoblimp_ellipsis_n_bar_class: 0.543</title></rect>
<rect x="1828.8" y="254.7" width="14.6" height="195.3" fill="#c44e52"><title>10k_hanzi_gpu1 | zhoblimp_ellipsis_n_bar_class: 0.517</title></rect>
<rect x="1845.4" y="254.7" width="14.6" height="195.3" fill="#55a868"><title>10k_initials_gpu1 | zhoblimp_ellipsis_n_bar_class: 0.517</title></rect>
<text x="1837.1" y="466" transform="rotate(62 1837.1 466)" class="label">zhoblimp_ellipsis_n_bar_class</text>
<rect x="1878.7" y="153.9" width="14.6" height="296.1" fill="#2f6f9f"><title>10k_gpu1 | zhoblimp_topicalization_SOV_mei: 0.783</title></rect>
<rect x="1895.3" y="288.7" width="14.6" height="161.3" fill="#c44e52"><title>10k_hanzi_gpu1 | zhoblimp_topicalization_SOV_mei: 0.427</title></rect>
<rect x="1911.9" y="313.9" width="14.6" height="136.1" fill="#55a868"><title>10k_initials_gpu1 | zhoblimp_topicalization_SOV_mei: 0.360</title></rect>
<text x="1903.6" y="466" transform="rotate(62 1903.6 466)" class="label">zhoblimp_topicalization_SOV_mei</text>
<rect x="1945.1" y="146.3" width="14.6" height="303.7" fill="#2f6f9f"><title>10k_gpu1 | zhoblimp_verb_phrase_left_adverbial: 0.803</title></rect>
<rect x="1961.7" y="306.4" width="14.6" height="143.6" fill="#c44e52"><title>10k_hanzi_gpu1 | zhoblimp_verb_phrase_left_adverbial: 0.380</title></rect>
<rect x="1978.3" y="315.2" width="14.6" height="134.8" fill="#55a868"><title>10k_initials_gpu1 | zhoblimp_verb_phrase_left_adverbial: 0.357</title></rect>
<text x="1970.0" y="466" transform="rotate(62 1970.0 466)" class="label">zhoblimp_verb_phrase_left_adverbi...</text>
<rect x="2011.6" y="186.7" width="14.6" height="263.3" fill="#2f6f9f"><title>10k_gpu1 | zhoblimp_BA_negation: 0.697</title></rect>
<rect x="2028.2" y="281.2" width="14.6" height="168.8" fill="#c44e52"><title>10k_hanzi_gpu1 | zhoblimp_BA_negation: 0.447</title></rect>
<rect x="2044.8" y="300.1" width="14.6" height="149.9" fill="#55a868"><title>10k_initials_gpu1 | zhoblimp_BA_negation: 0.397</title></rect>
<text x="2036.5" y="466" transform="rotate(62 2036.5 466)" class="label">zhoblimp_BA_negation</text>
<rect x="2078.0" y="263.5" width="14.6" height="186.5" fill="#2f6f9f"><title>10k_gpu1 | zhoblimp_anaphor_gender_agreement: 0.493</title></rect>
<rect x="2094.6" y="256.0" width="14.6" height="194.0" fill="#c44e52"><title>10k_hanzi_gpu1 | zhoblimp_anaphor_gender_agreement: 0.513</title></rect>
<rect x="2111.2" y="254.7" width="14.6" height="195.3" fill="#55a868"><title>10k_initials_gpu1 | zhoblimp_anaphor_gender_agreement: 0.517</title></rect>
<text x="2102.9" y="466" transform="rotate(62 2102.9 466)" class="label">zhoblimp_anaphor_gender_agreement</text>
<rect x="2144.5" y="127.4" width="14.6" height="322.6" fill="#2f6f9f"><title>10k_gpu1 | zhoblimp_modal_raising_hui: 0.853</title></rect>
<rect x="2161.1" y="346.7" width="14.6" height="103.3" fill="#c44e52"><title>10k_hanzi_gpu1 | zhoblimp_modal_raising_hui: 0.273</title></rect>
<rect x="2177.7" y="303.8" width="14.6" height="146.2" fill="#55a868"><title>10k_initials_gpu1 | zhoblimp_modal_raising_hui: 0.387</title></rect>
<text x="2169.4" y="466" transform="rotate(62 2169.4 466)" class="label">zhoblimp_modal_raising_hui</text>
<rect x="2210.9" y="180.4" width="14.6" height="269.6" fill="#2f6f9f"><title>10k_gpu1 | zhoblimp_question_nandao_raising_3: 0.713</title></rect>
<rect x="2227.6" y="258.5" width="14.6" height="191.5" fill="#c44e52"><title>10k_hanzi_gpu1 | zhoblimp_question_nandao_raising_3: 0.507</title></rect>
<rect x="2244.2" y="341.6" width="14.6" height="108.4" fill="#55a868"><title>10k_initials_gpu1 | zhoblimp_question_nandao_raising_3: 0.287</title></rect>
<text x="2235.9" y="466" transform="rotate(62 2235.9 466)" class="label">zhoblimp_question_nandao_raising_3</text>
<rect x="2277.4" y="239.6" width="14.6" height="210.4" fill="#2f6f9f"><title>10k_gpu1 | zhoblimp_verb_phrase_left_negation: 0.557</title></rect>
<rect x="2294.0" y="339.1" width="14.6" height="110.9" fill="#c44e52"><title>10k_hanzi_gpu1 | zhoblimp_verb_phrase_left_negation: 0.293</title></rect>
<rect x="2310.6" y="208.1" width="14.6" height="241.9" fill="#55a868"><title>10k_initials_gpu1 | zhoblimp_verb_phrase_left_negation: 0.640</title></rect>
<text x="2302.3" y="466" transform="rotate(62 2302.3 466)" class="label">zhoblimp_verb_phrase_left_negation</text>
<rect x="2343.8" y="140.0" width="14.6" height="310.0" fill="#2f6f9f"><title>10k_gpu1 | zhoblimp_passive_no_adj: 0.820</title></rect>
<rect x="2360.5" y="315.2" width="14.6" height="134.8" fill="#c44e52"><title>10k_hanzi_gpu1 | zhoblimp_passive_no_adj: 0.357</title></rect>
<rect x="2377.1" y="331.6" width="14.6" height="118.4" fill="#55a868"><title>10k_initials_gpu1 | zhoblimp_passive_no_adj: 0.313</title></rect>
<text x="2368.8" y="466" transform="rotate(62 2368.8 466)" class="label">zhoblimp_passive_no_adj</text>
<rect x="76" y="580" width="14" height="14" fill="#2f6f9f"/>
<text x="96" y="592" class="legend">10k_gpu1</text>
<rect x="286" y="580" width="14" height="14" fill="#c44e52"/>
<text x="306" y="592" class="legend">10k_hanzi_gpu1</text>
<rect x="496" y="580" width="14" height="14" fill="#55a868"/>
<text x="516" y="592" class="legend">10k_initials_gpu1</text>
</svg>
