<svg xmlns="http://www.w3.org/2000/svg" width="980" height="560" viewBox="0 0 980 560">
<style>text{font-family:Arial,sans-serif;fill:#1f2933}.axis{stroke:#9aa5b1;stroke-width:1}.grid{stroke:#e4e7eb;stroke-width:1}.label{font-size:12px}.title{font-size:22px;font-weight:700}.legend{font-size:13px}</style>
<rect width="980" height="560" fill="#ffffff"/>
<text x="76" y="34" class="title">acc KDE across zhoblimp subtasks</text>
<line x1="76" y1="488.0" x2="952" y2="488.0" class="grid"/>
<text x="66" y="492.0" text-anchor="end" class="label">0.0</text>
<line x1="76" y1="404.8" x2="952" y2="404.8" class="grid"/>
<text x="66" y="408.8" text-anchor="end" class="label">0.2</text>
<line x1="76" y1="321.6" x2="952" y2="321.6" class="grid"/>
<text x="66" y="325.6" text-anchor="end" class="label">0.4</text>
<line x1="76" y1="238.4" x2="952" y2="238.4" class="grid"/>
<text x="66" y="242.4" text-anchor="end" class="label">0.6</text>
<line x1="76" y1="155.2" x2="952" y2="155.2" class="grid"/>
<text x="66" y="159.2" text-anchor="end" class="label">0.8</text>
<line x1="76" y1="72.0" x2="952" y2="72.0" class="grid"/>
<text x="66" y="76.0" text-anchor="end" class="label">1.0</text>
<line x1="76" y1="72" x2="76" y2="488" class="axis"/>
<line x1="76" y1="488" x2="952" y2="488" class="axis"/>
<polyline points="76.0,242.7 81.5,239.7 87.0,237.1 92.5,234.7 98.0,232.7 103.5,230.9 109.1,229.4 114.6,228.3 120.1,227.4 125.6,226.8 131.1,226.4 136.6,226.4 142.1,226.6 147.6,227.0 153.1,227.7 158.6,228.6 164.2,229.7 169.7,231.0 175.2,232.5 180.7,234.1 186.2,235.9 191.7,237.9 197.2,239.9 202.7,242.0 208.2,244.2 213.7,246.4 219.2,248.7 224.8,251.0 230.3,253.4 235.8,255.7 241.3,257.9 246.8,260.2 252.3,262.3 257.8,264.4 263.3,266.5 268.8,268.4 274.3,270.2 279.8,271.8 285.4,273.4 290.9,274.8 296.4,276.0 301.9,277.1 307.4,278.1 312.9,278.8 318.4,279.4 323.9,279.8 329.4,280.0 334.9,280.1 340.5,279.9 346.0,279.6 351.5,279.1 357.0,278.4 362.5,277.5 368.0,276.5 373.5,275.3 379.0,273.9 384.5,272.3 390.0,270.6 395.5,268.7 401.1,266.7 406.6,264.6 412.1,262.3 417.6,259.9 423.1,257.4 428.6,254.7 434.1,252.0 439.6,249.2 445.1,246.3 450.6,243.3 456.2,240.2 461.7,237.1 467.2,234.0 472.7,230.8 478.2,227.6 483.7,224.4 489.2,221.2 494.7,218.0 500.2,214.8 505.7,211.6 511.2,208.4 516.8,205.3 522.3,202.3 527.8,199.2 533.3,196.3 538.8,193.4 544.3,190.5 549.8,187.8 555.3,185.1 560.8,182.5 566.3,179.9 571.8,177.5 577.4,175.1 582.9,172.9 588.4,170.7 593.9,168.6 599.4,166.5 604.9,164.6 610.4,162.7 615.9,160.9 621.4,159.2 626.9,157.5 632.5,155.9 638.0,154.3 643.5,152.8 649.0,151.3 654.5,149.8 660.0,148.3 665.5,146.9 671.0,145.4 676.5,143.9 682.0,142.4 687.5,140.9 693.1,139.3 698.6,137.7 704.1,136.1 709.6,134.4 715.1,132.6 720.6,130.7 726.1,128.8 731.6,126.8 737.1,124.8 742.6,122.6 748.2,120.4 753.7,118.1 759.2,115.8 764.7,113.4 770.2,110.9 775.7,108.4 781.2,105.8 786.7,103.2 792.2,100.6 797.7,98.0 803.2,95.4 808.8,92.9 814.3,90.4 819.8,88.0 825.3,85.6 830.8,83.4 836.3,81.3 841.8,79.4 847.3,77.6 852.8,76.1 858.3,74.7 863.8,73.6 869.4,72.8 874.9,72.2 880.4,72.0 885.9,72.1 891.4,72.5 896.9,73.3 902.4,74.4 907.9,76.0 913.4,77.9 918.9,80.3 924.5,83.0 930.0,86.2 935.5,89.8 941.0,93.8 946.5,98.2 952.0,103.1" fill="none" stroke="#2f6f9f" stroke-width="2.5"><title>10k_gpu1</title></polyline>
<polyline points="76.0,219.4 81.5,217.1 87.0,215.2 92.5,213.5 98.0,212.1 103.5,211.1 109.1,210.3 114.6,209.8 120.1,209.5 125.6,209.5 131.1,209.7 136.6,210.2 142.1,210.8 147.6,211.6 153.1,212.6 158.6,213.7 164.2,214.9 169.7,216.2 175.2,217.6 180.7,219.1 186.2,220.6 191.7,222.1 197.2,223.6 202.7,225.0 208.2,226.4 213.7,227.7 219.2,229.0 224.8,230.1 230.3,231.1 235.8,232.0 241.3,232.7 246.8,233.3 252.3,233.7 257.8,233.9 263.3,233.9 268.8,233.7 274.3,233.3 279.8,232.7 285.4,232.0 290.9,231.0 296.4,229.8 301.9,228.4 307.4,226.8 312.9,225.0 318.4,223.0 323.9,220.9 329.4,218.5 334.9,216.1 340.5,213.5 346.0,210.7 351.5,207.9 357.0,204.9 362.5,201.8 368.0,198.7 373.5,195.5 379.0,192.2 384.5,189.0 390.0,185.7 395.5,182.4 401.1,179.1 406.6,175.9 412.1,172.7 417.6,169.6 423.1,166.5 428.6,163.6 434.1,160.8 439.6,158.0 445.1,155.5 450.6,153.0 456.2,150.8 461.7,148.7 467.2,146.8 472.7,145.0 478.2,143.5 483.7,142.2 489.2,141.1 494.7,140.2 500.2,139.6 505.7,139.1 511.2,138.9 516.8,139.0 522.3,139.2 527.8,139.7 533.3,140.5 538.8,141.4 544.3,142.6 549.8,144.0 555.3,145.6 560.8,147.4 566.3,149.4 571.8,151.5 577.4,153.9 582.9,156.4 588.4,159.0 593.9,161.8 599.4,164.6 604.9,167.6 610.4,170.7 615.9,173.8 621.4,177.0 626.9,180.2 632.5,183.4 638.0,186.6 643.5,189.7 649.0,192.9 654.5,195.9 660.0,198.9 665.5,201.7 671.0,204.5 676.5,207.0 682.0,209.5 687.5,211.7 693.1,213.8 698.6,215.6 704.1,217.3 709.6,218.7 715.1,219.8 720.6,220.7 726.1,221.4 731.6,221.8 737.1,221.9 742.6,221.7 748.2,221.3 753.7,220.6 759.2,219.6 764.7,218.3 770.2,216.9 775.7,215.1 781.2,213.1 786.7,211.0 792.2,208.6 797.7,206.0 803.2,203.2 808.8,200.3 814.3,197.3 819.8,194.2 825.3,191.0 830.8,187.8 836.3,184.5 841.8,181.3 847.3,178.1 852.8,174.9 858.3,171.9 863.8,168.9 869.4,166.2 874.9,163.6 880.4,161.2 885.9,159.0 891.4,157.1 896.9,155.5 902.4,154.2 907.9,153.2 913.4,152.6 918.9,152.4 924.5,152.5 930.0,153.0 935.5,153.9 941.0,155.3 946.5,157.0 952.0,159.2" fill="none" stroke="#c44e52" stroke-width="2.5"><title>10k_hanzi_gpu1</title></polyline>
<polyline points="76.0,186.2 81.5,183.4 87.0,180.9 92.5,178.7 98.0,176.9 103.5,175.4 109.1,174.1 114.6,173.2 120.1,172.6 125.6,172.3 131.1,172.2 136.6,172.5 142.1,172.9 147.6,173.6 153.1,174.5 158.6,175.7 164.2,177.0 169.7,178.5 175.2,180.1 180.7,181.9 186.2,183.8 191.7,185.8 197.2,187.8 202.7,189.9 208.2,192.1 213.7,194.2 219.2,196.4 224.8,198.6 230.3,200.7 235.8,202.8 241.3,204.8 246.8,206.7 252.3,208.6 257.8,210.3 263.3,212.0 268.8,213.5 274.3,214.9 279.8,216.1 285.4,217.3 290.9,218.2 296.4,219.1 301.9,219.7 307.4,220.3 312.9,220.7 318.4,220.9 323.9,221.0 329.4,221.0 334.9,220.8 340.5,220.5 346.0,220.1 351.5,219.6 357.0,219.0 362.5,218.3 368.0,217.5 373.5,216.6 379.0,215.7 384.5,214.7 390.0,213.7 395.5,212.7 401.1,211.7 406.6,210.6 412.1,209.6 417.6,208.6 423.1,207.6 428.6,206.6 434.1,205.7 439.6,204.9 445.1,204.2 450.6,203.5 456.2,202.9 461.7,202.4 467.2,202.0 472.7,201.7 478.2,201.5 483.7,201.5 489.2,201.5 494.7,201.7 500.2,202.0 505.7,202.4 511.2,203.0 516.8,203.6 522.3,204.4 527.8,205.3 533.3,206.3 538.8,207.4 544.3,208.6 549.8,209.9 555.3,211.2 560.8,212.7 566.3,214.2 571.8,215.8 577.4,217.4 582.9,219.0 588.4,220.7 593.9,222.3 599.4,224.0 604.9,225.7 610.4,227.3 615.9,228.9 621.4,230.4 626.9,231.9 632.5,233.3 638.0,234.6 643.5,235.8 649.0,236.8 654.5,237.8 660.0,238.6 665.5,239.2 671.0,239.7 676.5,240.0 682.0,240.1 687.5,240.0 693.1,239.8 698.6,239.3 704.1,238.6 709.6,237.7 715.1,236.6 720.6,235.3 726.1,233.7 731.6,232.0 737.1,230.0 742.6,227.8 748.2,225.5 753.7,222.9 759.2,220.2 764.7,217.2 770.2,214.2 775.7,210.9 781.2,207.6 786.7,204.1 792.2,200.6 797.7,196.9 803.2,193.2 808.8,189.5 814.3,185.7 819.8,182.0 825.3,178.2 830.8,174.6 836.3,171.0 841.8,167.5 847.3,164.1 852.8,160.9 858.3,157.8 863.8,155.0 869.4,152.4 874.9,150.0 880.4,147.9 885.9,146.0 891.4,144.5 896.9,143.2 902.4,142.4 907.9,141.8 913.4,141.6 918.9,141.8 924.5,142.4 930.0,143.4 935.5,144.8 941.0,146.5 946.5,148.7 952.0,151.3" fill="none" stroke="#55a868" stroke-width="2.5"><title>10k_initials_gpu1</title></polyline>
<line x1="76.0" y1="488" x2="76.0" y2="493" class="axis"/>
<text x="76.0" y="510" text-anchor="middle" class="label">0.0</text>
<line x1="251.2" y1="488" x2="251.2" y2="493" class="axis"/>
<text x="251.2" y="510" text-anchor="middle" class="label">0.2</text>
<line x1="426.4" y1="488" x2="426.4" y2="493" class="axis"/>
<text x="426.4" y="510" text-anchor="middle" class="label">0.4</text>
<line x1="601.6" y1="488" x2="601.6" y2="493" class="axis"/>
<text x="601.6" y="510" text-anchor="middle" class="label">0.6</text>
<line x1="776.8" y1="488" x2="776.8" y2="493" class="axis"/>
<text x="776.8" y="510" text-anchor="middle" class="label">0.8</text>
<line x1="952.0" y1="488" x2="952.0" y2="493" class="axis"/>
<text x="952.0" y="510" text-anchor="middle" class="label">1.0</text>
<rect x="76" y="520" width="14" height="14" fill="#2f6f9f"/>
<text x="96" y="532" class="legend">10k_gpu1</text>
<rect x="286" y="520" width="14" height="14" fill="#c44e52"/>
<text x="306" y="532" class="legend">10k_hanzi_gpu1</text>
<rect x="496" y="520" width="14" height="14" fill="#55a868"/>
<text x="516" y="532" class="legend">10k_initials_gpu1</text>
</svg>
