<svg xmlns="http://www.w3.org/2000/svg" width="980" height="560" viewBox="0 0 980 560">
<style>text{font-family:Arial,sans-serif;fill:#1f2933}.axis{stroke:#9aa5b1;stroke-width:1}.grid{stroke:#e4e7eb;stroke-width:1}.label{font-size:12px}.title{font-size:22px;font-weight:700}.legend{font-size:13px}</style>
<rect width="980" height="560" fill="#ffffff"/>
<text x="76" y="34" class="title">acc distribution across zhoblimp subtasks</text>
<line x1="76" y1="488.0" x2="952" y2="488.0" class="grid"/>
<text x="66" y="492.0" text-anchor="end" class="label">0</text>
<line x1="76" y1="404.8" x2="952" y2="404.8" class="grid"/>
<text x="66" y="408.8" text-anchor="end" class="label">6</text>
<line x1="76" y1="321.6" x2="952" y2="321.6" class="grid"/>
<text x="66" y="325.6" text-anchor="end" class="label">13</text>
<line x1="76" y1="238.4" x2="952" y2="238.4" class="grid"/>
<text x="66" y="242.4" text-anchor="end" class="label">19</text>
<line x1="76" y1="155.2" x2="952" y2="155.2" class="grid"/>
<text x="66" y="159.2" text-anchor="end" class="label">26</text>
<line x1="76" y1="72.0" x2="952" y2="72.0" class="grid"/>
<text x="66" y="76.0" text-anchor="end" class="label">32</text>
<line x1="76" y1="72" x2="76" y2="488" class="axis"/>
<line x1="76" y1="488" x2="952" y2="488" class="axis"/>
<rect x="76.0" y="254.0" width="3.7" height="234.0" fill="#2f6f9f" opacity="0.82"><title>10k_chinese_gpu1 | 0.00-0.05: 18</title></rect>
<rect x="81.7" y="384.0" width="3.7" height="104.0" fill="#c44e52" opacity="0.82"><title>10k_chinese_whitespace_false_gpu1 | 0.00-0.05: 8</title></rect>
<rect x="87.4" y="254.0" width="3.7" height="234.0" fill="#55a868" opacity="0.82"><title>10k_gpu1 | 0.00-0.05: 18</title></rect>
<rect x="93.1" y="150.0" width="3.7" height="338.0" fill="#8172b3" opacity="0.82"><title>10k_hanzi_gpu1 | 0.00-0.05: 26</title></rect>
<rect x="98.8" y="124.0" width="3.7" height="364.0" fill="#ccb974" opacity="0.82"><title>10k_initials_gpu1 | 0.00-0.05: 28</title></rect>
<rect x="104.5" y="254.0" width="3.7" height="234.0" fill="#64b5cd" opacity="0.82"><title>10k_whitespace_false_gpu1 | 0.00-0.05: 18</title></rect>
<rect x="119.8" y="436.0" width="3.7" height="52.0" fill="#2f6f9f" opacity="0.82"><title>10k_chinese_gpu1 | 0.05-0.10: 4</title></rect>
<rect x="125.5" y="462.0" width="3.7" height="26.0" fill="#c44e52" opacity="0.82"><title>10k_chinese_whitespace_false_gpu1 | 0.05-0.10: 2</title></rect>
<rect x="131.2" y="410.0" width="3.7" height="78.0" fill="#55a868" opacity="0.82"><title>10k_gpu1 | 0.05-0.10: 6</title></rect>
<rect x="136.9" y="488.0" width="3.7" height="0.0" fill="#8172b3" opacity="0.82"><title>10k_hanzi_gpu1 | 0.05-0.10: 0</title></rect>
<rect x="142.6" y="449.0" width="3.7" height="39.0" fill="#ccb974" opacity="0.82"><title>10k_initials_gpu1 | 0.05-0.10: 3</title></rect>
<rect x="148.3" y="462.0" width="3.7" height="26.0" fill="#64b5cd" opacity="0.82"><title>10k_whitespace_false_gpu1 | 0.05-0.10: 2</title></rect>
<rect x="163.6" y="488.0" width="3.7" height="0.0" fill="#2f6f9f" opacity="0.82"><title>10k_chinese_gpu1 | 0.10-0.15: 0</title></rect>
<rect x="169.3" y="423.0" width="3.7" height="65.0" fill="#c44e52" opacity="0.82"><title>10k_chinese_whitespace_false_gpu1 | 0.10-0.15: 5</title></rect>
<rect x="175.0" y="475.0" width="3.7" height="13.0" fill="#55a868" opacity="0.82"><title>10k_gpu1 | 0.10-0.15: 1</title></rect>
<rect x="180.7" y="462.0" width="3.7" height="26.0" fill="#8172b3" opacity="0.82"><title>10k_hanzi_gpu1 | 0.10-0.15: 2</title></rect>
<rect x="186.4" y="462.0" width="3.7" height="26.0" fill="#ccb974" opacity="0.82"><title>10k_initials_gpu1 | 0.10-0.15: 2</title></rect>
<rect x="192.1" y="449.0" width="3.7" height="39.0" fill="#64b5cd" opacity="0.82"><title>10k_whitespace_false_gpu1 | 0.10-0.15: 3</title></rect>
<rect x="207.4" y="462.0" width="3.7" height="26.0" fill="#2f6f9f" opacity="0.82"><title>10k_chinese_gpu1 | 0.15-0.20: 2</title></rect>
<rect x="213.1" y="462.0" width="3.7" height="26.0" fill="#c44e52" opacity="0.82"><title>10k_chinese_whitespace_false_gpu1 | 0.15-0.20: 2</title></rect>
<rect x="218.8" y="449.0" width="3.7" height="39.0" fill="#55a868" opacity="0.82"><title>10k_gpu1 | 0.15-0.20: 3</title></rect>
<rect x="224.5" y="462.0" width="3.7" height="26.0" fill="#8172b3" opacity="0.82"><title>10k_hanzi_gpu1 | 0.15-0.20: 2</title></rect>
<rect x="230.2" y="449.0" width="3.7" height="39.0" fill="#ccb974" opacity="0.82"><title>10k_initials_gpu1 | 0.15-0.20: 3</title></rect>
<rect x="235.9" y="462.0" width="3.7" height="26.0" fill="#64b5cd" opacity="0.82"><title>10k_whitespace_false_gpu1 | 0.15-0.20: 2</title></rect>
<rect x="251.2" y="462.0" width="3.7" height="26.0" fill="#2f6f9f" opacity="0.82"><title>10k_chinese_gpu1 | 0.20-0.25: 2</title></rect>
<rect x="256.9" y="475.0" width="3.7" height="13.0" fill="#c44e52" opacity="0.82"><title>10k_chinese_whitespace_false_gpu1 | 0.20-0.25: 1</title></rect>
<rect x="262.6" y="449.0" width="3.7" height="39.0" fill="#55a868" opacity="0.82"><title>10k_gpu1 | 0.20-0.25: 3</title></rect>
<rect x="268.3" y="475.0" width="3.7" height="13.0" fill="#8172b3" opacity="0.82"><title>10k_hanzi_gpu1 | 0.20-0.25: 1</title></rect>
<rect x="274.0" y="475.0" width="3.7" height="13.0" fill="#ccb974" opacity="0.82"><title>10k_initials_gpu1 | 0.20-0.25: 1</title></rect>
<rect x="279.7" y="462.0" width="3.7" height="26.0" fill="#64b5cd" opacity="0.82"><title>10k_whitespace_false_gpu1 | 0.20-0.25: 2</title></rect>
<rect x="295.0" y="462.0" width="3.7" height="26.0" fill="#2f6f9f" opacity="0.82"><title>10k_chinese_gpu1 | 0.25-0.30: 2</title></rect>
<rect x="300.7" y="462.0" width="3.7" height="26.0" fill="#c44e52" opacity="0.82"><title>10k_chinese_whitespace_false_gpu1 | 0.25-0.30: 2</title></rect>
<rect x="306.4" y="462.0" width="3.7" height="26.0" fill="#55a868" opacity="0.82"><title>10k_gpu1 | 0.25-0.30: 2</title></rect>
<rect x="312.1" y="436.0" width="3.7" height="52.0" fill="#8172b3" opacity="0.82"><title>10k_hanzi_gpu1 | 0.25-0.30: 4</title></rect>
<rect x="317.8" y="449.0" width="3.7" height="39.0" fill="#ccb974" opacity="0.82"><title>10k_initials_gpu1 | 0.25-0.30: 3</title></rect>
<rect x="323.5" y="475.0" width="3.7" height="13.0" fill="#64b5cd" opacity="0.82"><title>10k_whitespace_false_gpu1 | 0.25-0.30: 1</title></rect>
<rect x="338.8" y="462.0" width="3.7" height="26.0" fill="#2f6f9f" opacity="0.82"><title>10k_chinese_gpu1 | 0.30-0.35: 2</title></rect>
<rect x="344.5" y="449.0" width="3.7" height="39.0" fill="#c44e52" opacity="0.82"><title>10k_chinese_whitespace_false_gpu1 | 0.30-0.35: 3</title></rect>
<rect x="350.2" y="488.0" width="3.7" height="0.0" fill="#55a868" opacity="0.82"><title>10k_gpu1 | 0.30-0.35: 0</title></rect>
<rect x="355.9" y="475.0" width="3.7" height="13.0" fill="#8172b3" opacity="0.82"><title>10k_hanzi_gpu1 | 0.30-0.35: 1</title></rect>
<rect x="361.6" y="462.0" width="3.7" height="26.0" fill="#ccb974" opacity="0.82"><title>10k_initials_gpu1 | 0.30-0.35: 2</title></rect>
<rect x="367.3" y="449.0" width="3.7" height="39.0" fill="#64b5cd" opacity="0.82"><title>10k_whitespace_false_gpu1 | 0.30-0.35: 3</title></rect>
<rect x="382.6" y="462.0" width="3.7" height="26.0" fill="#2f6f9f" opacity="0.82"><title>10k_chinese_gpu1 | 0.35-0.40: 2</title></rect>
<rect x="388.3" y="436.0" width="3.7" height="52.0" fill="#c44e52" opacity="0.82"><title>10k_chinese_whitespace_false_gpu1 | 0.35-0.40: 4</title></rect>
<rect x="394.0" y="410.0" width="3.7" height="78.0" fill="#55a868" opacity="0.82"><title>10k_gpu1 | 0.35-0.40: 6</title></rect>
<rect x="399.7" y="384.0" width="3.7" height="104.0" fill="#8172b3" opacity="0.82"><title>10k_hanzi_gpu1 | 0.35-0.40: 8</title></rect>
<rect x="405.4" y="410.0" width="3.7" height="78.0" fill="#ccb974" opacity="0.82"><title>10k_initials_gpu1 | 0.35-0.40: 6</title></rect>
<rect x="411.1" y="436.0" width="3.7" height="52.0" fill="#64b5cd" opacity="0.82"><title>10k_whitespace_false_gpu1 | 0.35-0.40: 4</title></rect>
<rect x="426.4" y="449.0" width="3.7" height="39.0" fill="#2f6f9f" opacity="0.82"><title>10k_chinese_gpu1 | 0.40-0.45: 3</title></rect>
<rect x="432.1" y="436.0" width="3.7" height="52.0" fill="#c44e52" opacity="0.82"><title>10k_chinese_whitespace_false_gpu1 | 0.40-0.45: 4</title></rect>
<rect x="437.8" y="475.0" width="3.7" height="13.0" fill="#55a868" opacity="0.82"><title>10k_gpu1 | 0.40-0.45: 1</title></rect>
<rect x="443.5" y="397.0" width="3.7" height="91.0" fill="#8172b3" opacity="0.82"><title>10k_hanzi_gpu1 | 0.40-0.45: 7</title></rect>
<rect x="449.2" y="423.0" width="3.7" height="65.0" fill="#ccb974" opacity="0.82"><title>10k_initials_gpu1 | 0.40-0.45: 5</title></rect>
<rect x="454.9" y="436.0" width="3.7" height="52.0" fill="#64b5cd" opacity="0.82"><title>10k_whitespace_false_gpu1 | 0.40-0.45: 4</title></rect>
<rect x="470.2" y="410.0" width="3.7" height="78.0" fill="#2f6f9f" opacity="0.82"><title>10k_chinese_gpu1 | 0.45-0.50: 6</title></rect>
<rect x="475.9" y="410.0" width="3.7" height="78.0" fill="#c44e52" opacity="0.82"><title>10k_chinese_whitespace_false_gpu1 | 0.45-0.50: 6</title></rect>
<rect x="481.6" y="462.0" width="3.7" height="26.0" fill="#55a868" opacity="0.82"><title>10k_gpu1 | 0.45-0.50: 2</title></rect>
<rect x="487.3" y="449.0" width="3.7" height="39.0" fill="#8172b3" opacity="0.82"><title>10k_hanzi_gpu1 | 0.45-0.50: 3</title></rect>
<rect x="493.0" y="410.0" width="3.7" height="78.0" fill="#ccb974" opacity="0.82"><title>10k_initials_gpu1 | 0.45-0.50: 6</title></rect>
<rect x="498.7" y="410.0" width="3.7" height="78.0" fill="#64b5cd" opacity="0.82"><title>10k_whitespace_false_gpu1 | 0.45-0.50: 6</title></rect>
<rect x="514.0" y="423.0" width="3.7" height="65.0" fill="#2f6f9f" opacity="0.82"><title>10k_chinese_gpu1 | 0.50-0.55: 5</title></rect>
<rect x="519.7" y="371.0" width="3.7" height="117.0" fill="#c44e52" opacity="0.82"><title>10k_chinese_whitespace_false_gpu1 | 0.50-0.55: 9</title></rect>
<rect x="525.4" y="384.0" width="3.7" height="104.0" fill="#55a868" opacity="0.82"><title>10k_gpu1 | 0.50-0.55: 8</title></rect>
<rect x="531.1" y="384.0" width="3.7" height="104.0" fill="#8172b3" opacity="0.82"><title>10k_hanzi_gpu1 | 0.50-0.55: 8</title></rect>
<rect x="536.8" y="410.0" width="3.7" height="78.0" fill="#ccb974" opacity="0.82"><title>10k_initials_gpu1 | 0.50-0.55: 6</title></rect>
<rect x="542.5" y="371.0" width="3.7" height="117.0" fill="#64b5cd" opacity="0.82"><title>10k_whitespace_false_gpu1 | 0.50-0.55: 9</title></rect>
<rect x="557.8" y="436.0" width="3.7" height="52.0" fill="#2f6f9f" opacity="0.82"><title>10k_chinese_gpu1 | 0.55-0.60: 4</title></rect>
<rect x="563.5" y="397.0" width="3.7" height="91.0" fill="#c44e52" opacity="0.82"><title>10k_chinese_whitespace_false_gpu1 | 0.55-0.60: 7</title></rect>
<rect x="569.2" y="423.0" width="3.7" height="65.0" fill="#55a868" opacity="0.82"><title>10k_gpu1 | 0.55-0.60: 5</title></rect>
<rect x="574.9" y="371.0" width="3.7" height="117.0" fill="#8172b3" opacity="0.82"><title>10k_hanzi_gpu1 | 0.55-0.60: 9</title></rect>
<rect x="580.6" y="462.0" width="3.7" height="26.0" fill="#ccb974" opacity="0.82"><title>10k_initials_gpu1 | 0.55-0.60: 2</title></rect>
<rect x="586.3" y="397.0" width="3.7" height="91.0" fill="#64b5cd" opacity="0.82"><title>10k_whitespace_false_gpu1 | 0.55-0.60: 7</title></rect>
<rect x="601.6" y="423.0" width="3.7" height="65.0" fill="#2f6f9f" opacity="0.82"><title>10k_chinese_gpu1 | 0.60-0.65: 5</title></rect>
<rect x="607.3" y="410.0" width="3.7" height="78.0" fill="#c44e52" opacity="0.82"><title>10k_chinese_whitespace_false_gpu1 | 0.60-0.65: 6</title></rect>
<rect x="613.0" y="423.0" width="3.7" height="65.0" fill="#55a868" opacity="0.82"><title>10k_gpu1 | 0.60-0.65: 5</title></rect>
<rect x="618.7" y="436.0" width="3.7" height="52.0" fill="#8172b3" opacity="0.82"><title>10k_hanzi_gpu1 | 0.60-0.65: 4</title></rect>
<rect x="624.4" y="410.0" width="3.7" height="78.0" fill="#ccb974" opacity="0.82"><title>10k_initials_gpu1 | 0.60-0.65: 6</title></rect>
<rect x="630.1" y="371.0" width="3.7" height="117.0" fill="#64b5cd" opacity="0.82"><title>10k_whitespace_false_gpu1 | 0.60-0.65: 9</title></rect>
<rect x="645.4" y="423.0" width="3.7" height="65.0" fill="#2f6f9f" opacity="0.82"><title>10k_chinese_gpu1 | 0.65-0.70: 5</title></rect>
<rect x="651.1" y="449.0" width="3.7" height="39.0" fill="#c44e52" opacity="0.82"><title>10k_chinese_whitespace_false_gpu1 | 0.65-0.70: 3</title></rect>
<rect x="656.8" y="397.0" width="3.7" height="91.0" fill="#55a868" opacity="0.82"><title>10k_gpu1 | 0.65-0.70: 7</title></rect>
<rect x="662.5" y="449.0" width="3.7" height="39.0" fill="#8172b3" opacity="0.82"><title>10k_hanzi_gpu1 | 0.65-0.70: 3</title></rect>
<rect x="668.2" y="449.0" width="3.7" height="39.0" fill="#ccb974" opacity="0.82"><title>10k_initials_gpu1 | 0.65-0.70: 3</title></rect>
<rect x="673.9" y="462.0" width="3.7" height="26.0" fill="#64b5cd" opacity="0.82"><title>10k_whitespace_false_gpu1 | 0.65-0.70: 2</title></rect>
<rect x="689.2" y="397.0" width="3.7" height="91.0" fill="#2f6f9f" opacity="0.82"><title>10k_chinese_gpu1 | 0.70-0.75: 7</title></rect>
<rect x="694.9" y="371.0" width="3.7" height="117.0" fill="#c44e52" opacity="0.82"><title>10k_chinese_whitespace_false_gpu1 | 0.70-0.75: 9</title></rect>
<rect x="700.6" y="436.0" width="3.7" height="52.0" fill="#55a868" opacity="0.82"><title>10k_gpu1 | 0.70-0.75: 4</title></rect>
<rect x="706.3" y="449.0" width="3.7" height="39.0" fill="#8172b3" opacity="0.82"><title>10k_hanzi_gpu1 | 0.70-0.75: 3</title></rect>
<rect x="712.0" y="488.0" width="3.7" height="0.0" fill="#ccb974" opacity="0.82"><title>10k_initials_gpu1 | 0.70-0.75: 0</title></rect>
<rect x="717.7" y="423.0" width="3.7" height="65.0" fill="#64b5cd" opacity="0.82"><title>10k_whitespace_false_gpu1 | 0.70-0.75: 5</title></rect>
<rect x="733.0" y="462.0" width="3.7" height="26.0" fill="#2f6f9f" opacity="0.82"><title>10k_chinese_gpu1 | 0.75-0.80: 2</title></rect>
<rect x="738.7" y="449.0" width="3.7" height="39.0" fill="#c44e52" opacity="0.82"><title>10k_chinese_whitespace_false_gpu1 | 0.75-0.80: 3</title></rect>
<rect x="744.4" y="449.0" width="3.7" height="39.0" fill="#55a868" opacity="0.82"><title>10k_gpu1 | 0.75-0.80: 3</title></rect>
<rect x="750.1" y="488.0" width="3.7" height="0.0" fill="#8172b3" opacity="0.82"><title>10k_hanzi_gpu1 | 0.75-0.80: 0</title></rect>
<rect x="755.8" y="449.0" width="3.7" height="39.0" fill="#ccb974" opacity="0.82"><title>10k_initials_gpu1 | 0.75-0.80: 3</title></rect>
<rect x="761.5" y="423.0" width="3.7" height="65.0" fill="#64b5cd" opacity="0.82"><title>10k_whitespace_false_gpu1 | 0.75-0.80: 5</title></rect>
<rect x="776.8" y="423.0" width="3.7" height="65.0" fill="#2f6f9f" opacity="0.82"><title>10k_chinese_gpu1 | 0.80-0.85: 5</title></rect>
<rect x="782.5" y="423.0" width="3.7" height="65.0" fill="#c44e52" opacity="0.82"><title>10k_chinese_whitespace_false_gpu1 | 0.80-0.85: 5</title></rect>
<rect x="788.2" y="436.0" width="3.7" height="52.0" fill="#55a868" opacity="0.82"><title>10k_gpu1 | 0.80-0.85: 4</title></rect>
<rect x="793.9" y="462.0" width="3.7" height="26.0" fill="#8172b3" opacity="0.82"><title>10k_hanzi_gpu1 | 0.80-0.85: 2</title></rect>
<rect x="799.6" y="475.0" width="3.7" height="13.0" fill="#ccb974" opacity="0.82"><title>10k_initials_gpu1 | 0.80-0.85: 1</title></rect>
<rect x="805.3" y="436.0" width="3.7" height="52.0" fill="#64b5cd" opacity="0.82"><title>10k_whitespace_false_gpu1 | 0.80-0.85: 4</title></rect>
<rect x="820.6" y="410.0" width="3.7" height="78.0" fill="#2f6f9f" opacity="0.82"><title>10k_chinese_gpu1 | 0.85-0.90: 6</title></rect>
<rect x="826.3" y="397.0" width="3.7" height="91.0" fill="#c44e52" opacity="0.82"><title>10k_chinese_whitespace_false_gpu1 | 0.85-0.90: 7</title></rect>
<rect x="832.0" y="436.0" width="3.7" height="52.0" fill="#55a868" opacity="0.82"><title>10k_gpu1 | 0.85-0.90: 4</title></rect>
<rect x="837.7" y="475.0" width="3.7" height="13.0" fill="#8172b3" opacity="0.82"><title>10k_hanzi_gpu1 | 0.85-0.90: 1</title></rect>
<rect x="843.4" y="462.0" width="3.7" height="26.0" fill="#ccb974" opacity="0.82"><title>10k_initials_gpu1 | 0.85-0.90: 2</title></rect>
<rect x="849.1" y="462.0" width="3.7" height="26.0" fill="#64b5cd" opacity="0.82"><title>10k_whitespace_false_gpu1 | 0.85-0.90: 2</title></rect>
<rect x="864.4" y="410.0" width="3.7" height="78.0" fill="#2f6f9f" opacity="0.82"><title>10k_chinese_gpu1 | 0.90-0.95: 6</title></rect>
<rect x="870.1" y="397.0" width="3.7" height="91.0" fill="#c44e52" opacity="0.82"><title>10k_chinese_whitespace_false_gpu1 | 0.90-0.95: 7</title></rect>
<rect x="875.8" y="423.0" width="3.7" height="65.0" fill="#55a868" opacity="0.82"><title>10k_gpu1 | 0.90-0.95: 5</title></rect>
<rect x="881.5" y="449.0" width="3.7" height="39.0" fill="#8172b3" opacity="0.82"><title>10k_hanzi_gpu1 | 0.90-0.95: 3</title></rect>
<rect x="887.2" y="436.0" width="3.7" height="52.0" fill="#ccb974" opacity="0.82"><title>10k_initials_gpu1 | 0.90-0.95: 4</title></rect>
<rect x="892.9" y="423.0" width="3.7" height="65.0" fill="#64b5cd" opacity="0.82"><title>10k_whitespace_false_gpu1 | 0.90-0.95: 5</title></rect>
<rect x="908.2" y="72.0" width="3.7" height="416.0" fill="#2f6f9f" opacity="0.82"><title>10k_chinese_gpu1 | 0.95-1.00: 32</title></rect>
<rect x="913.9" y="163.0" width="3.7" height="325.0" fill="#c44e52" opacity="0.82"><title>10k_chinese_whitespace_false_gpu1 | 0.95-1.00: 25</title></rect>
<rect x="919.6" y="85.0" width="3.7" height="403.0" fill="#55a868" opacity="0.82"><title>10k_gpu1 | 0.95-1.00: 31</title></rect>
<rect x="925.3" y="85.0" width="3.7" height="403.0" fill="#8172b3" opacity="0.82"><title>10k_hanzi_gpu1 | 0.95-1.00: 31</title></rect>
<rect x="931.0" y="72.0" width="3.7" height="416.0" fill="#ccb974" opacity="0.82"><title>10k_initials_gpu1 | 0.95-1.00: 32</title></rect>
<rect x="936.7" y="163.0" width="3.7" height="325.0" fill="#64b5cd" opacity="0.82"><title>10k_whitespace_false_gpu1 | 0.95-1.00: 25</title></rect>
<line x1="76.0" y1="488" x2="76.0" y2="493" class="axis"/>
<text x="76.0" y="510" text-anchor="middle" class="label">0.0</text>
<line x1="251.2" y1="488" x2="251.2" y2="493" class="axis"/>
<text x="251.2" y="510" text-anchor="middle" class="label">0.2</text>
<line x1="426.4" y1="488" x2="426.4" y2="493" class="axis"/>
<text x="426.4" y="510" text-anchor="middle" class="label">0.4</text>
<line x1="601.6" y1="488" x2="601.6" y2="493" class="axis"/>
<text x="601.6" y="510" text-anchor="middle" class="label">0.6</text>
<line x1="776.8" y1="488" x2="776.8" y2="493" class="axis"/>
<text x="776.8" y="510" text-anchor="middle" class="label">0.8</text>
<line x1="952.0" y1="488" x2="952.0" y2="493" class="axis"/>
<text x="952.0" y="510" text-anchor="middle" class="label">1.0</text>
<rect x="76" y="520" width="14" height="14" fill="#2f6f9f"/>
<text x="96" y="532" class="legend">10k_chinese_gpu1</text>
<rect x="286" y="520" width="14" height="14" fill="#c44e52"/>
<text x="306" y="532" class="legend">10k_chinese_whitespace_false_gpu1</text>
<rect x="496" y="520" width="14" height="14" fill="#55a868"/>
<text x="516" y="532" class="legend">10k_gpu1</text>
<rect x="706" y="520" width="14" height="14" fill="#8172b3"/>
<text x="726" y="532" class="legend">10k_hanzi_gpu1</text>
<rect x="916" y="520" width="14" height="14" fill="#ccb974"/>
<text x="936" y="532" class="legend">10k_initials_gpu1</text>
<rect x="1126" y="520" width="14" height="14" fill="#64b5cd"/>
<text x="1146" y="532" class="legend">10k_whitespace_false_gpu1</text>
</svg>
