<svg xmlns="http://www.w3.org/2000/svg" width="980" height="560" viewBox="0 0 980 560">
<style>text{font-family:Arial,sans-serif;fill:#1f2933}.axis{stroke:#9aa5b1;stroke-width:1}.grid{stroke:#e4e7eb;stroke-width:1}.label{font-size:12px}.title{font-size:22px;font-weight:700}.legend{font-size:13px}</style>
<rect width="980" height="560" fill="#ffffff"/>
<text x="76" y="34" class="title">acc KDE across zhoblimp subtasks</text>
<line x1="76" y1="488.0" x2="952" y2="488.0" class="grid"/>
<text x="66" y="492.0" text-anchor="end" class="label">0.0</text>
<line x1="76" y1="404.8" x2="952" y2="404.8" class="grid"/>
<text x="66" y="408.8" text-anchor="end" class="label">0.2</text>
<line x1="76" y1="321.6" x2="952" y2="321.6" class="grid"/>
<text x="66" y="325.6" text-anchor="end" class="label">0.5</text>
<line x1="76" y1="238.4" x2="952" y2="238.4" class="grid"/>
<text x="66" y="242.4" text-anchor="end" class="label">0.7</text>
<line x1="76" y1="155.2" x2="952" y2="155.2" class="grid"/>
<text x="66" y="159.2" text-anchor="end" class="label">0.9</text>
<line x1="76" y1="72.0" x2="952" y2="72.0" class="grid"/>
<text x="66" y="76.0" text-anchor="end" class="label">1.2</text>
<line x1="76" y1="72" x2="76" y2="488" class="axis"/>
<line x1="76" y1="488" x2="952" y2="488" class="axis"/>
<polyline points="76.0,288.9 81.5,286.8 87.0,284.9 92.5,283.3 98.0,281.9 103.5,280.8 109.1,279.9 114.6,279.3 120.1,278.9 125.6,278.8 131.1,278.9 136.6,279.2 142.1,279.7 147.6,280.4 153.1,281.3 158.6,282.3 164.2,283.5 169.7,284.9 175.2,286.4 180.7,287.9 186.2,289.6 191.7,291.4 197.2,293.2 202.7,295.0 208.2,296.9 213.7,298.8 219.2,300.7 224.8,302.6 230.3,304.4 235.8,306.2 241.3,307.9 246.8,309.5 252.3,311.0 257.8,312.5 263.3,313.8 268.8,315.0 274.3,316.1 279.8,317.0 285.4,317.8 290.9,318.5 296.4,319.0 301.9,319.3 307.4,319.4 312.9,319.5 318.4,319.3 323.9,319.0 329.4,318.5 334.9,317.8 340.5,317.0 346.0,316.0 351.5,314.9 357.0,313.6 362.5,312.1 368.0,310.5 373.5,308.8 379.0,307.0 384.5,305.0 390.0,302.9 395.5,300.7 401.1,298.4 406.6,296.0 412.1,293.5 417.6,290.9 423.1,288.2 428.6,285.5 434.1,282.7 439.6,279.9 445.1,277.0 450.6,274.1 456.2,271.1 461.7,268.2 467.2,265.2 472.7,262.2 478.2,259.2 483.7,256.2 489.2,253.3 494.7,250.3 500.2,247.4 505.7,244.5 511.2,241.6 516.8,238.7 522.3,235.9 527.8,233.1 533.3,230.4 538.8,227.7 544.3,225.1 549.8,222.5 555.3,220.0 560.8,217.5 566.3,215.0 571.8,212.6 577.4,210.3 582.9,208.0 588.4,205.7 593.9,203.4 599.4,201.2 604.9,199.0 610.4,196.9 615.9,194.7 621.4,192.6 626.9,190.4 632.5,188.3 638.0,186.2 643.5,184.0 649.0,181.8 654.5,179.6 660.0,177.4 665.5,175.2 671.0,172.9 676.5,170.5 682.0,168.1 687.5,165.6 693.1,163.1 698.6,160.5 704.1,157.8 709.6,155.1 715.1,152.2 720.6,149.3 726.1,146.4 731.6,143.3 737.1,140.2 742.6,137.0 748.2,133.7 753.7,130.4 759.2,127.1 764.7,123.7 770.2,120.3 775.7,116.8 781.2,113.4 786.7,110.0 792.2,106.6 797.7,103.2 803.2,99.9 808.8,96.7 814.3,93.6 819.8,90.6 825.3,87.8 830.8,85.1 836.3,82.6 841.8,80.3 847.3,78.2 852.8,76.4 858.3,74.9 863.8,73.7 869.4,72.8 874.9,72.2 880.4,72.0 885.9,72.2 891.4,72.7 896.9,73.7 902.4,75.0 907.9,76.8 913.4,79.0 918.9,81.7 924.5,84.8 930.0,88.4 935.5,92.3 941.0,96.8 946.5,101.7 952.0,106.9" fill="none" stroke="#2f6f9f" stroke-width="2.5"><title>10k_chinese_gpu1</title></polyline>
<polyline points="76.0,267.1 81.5,264.5 87.0,262.1 92.5,260.0 98.0,258.1 103.5,256.5 109.1,255.2 114.6,254.2 120.1,253.4 125.6,252.8 131.1,252.5 136.6,252.5 142.1,252.6 147.6,253.0 153.1,253.6 158.6,254.5 164.2,255.5 169.7,256.6 175.2,258.0 180.7,259.5 186.2,261.1 191.7,262.8 197.2,264.6 202.7,266.5 208.2,268.5 213.7,270.5 219.2,272.6 224.8,274.7 230.3,276.8 235.8,278.8 241.3,280.9 246.8,282.9 252.3,284.8 257.8,286.7 263.3,288.5 268.8,290.3 274.3,291.9 279.8,293.4 285.4,294.8 290.9,296.0 296.4,297.2 301.9,298.1 307.4,299.0 312.9,299.7 318.4,300.2 323.9,300.6 329.4,300.8 334.9,300.8 340.5,300.7 346.0,300.4 351.5,299.9 357.0,299.3 362.5,298.5 368.0,297.6 373.5,296.5 379.0,295.2 384.5,293.8 390.0,292.3 395.5,290.6 401.1,288.8 406.6,286.9 412.1,284.8 417.6,282.6 423.1,280.4 428.6,278.0 434.1,275.5 439.6,273.0 445.1,270.4 450.6,267.7 456.2,264.9 461.7,262.2 467.2,259.3 472.7,256.5 478.2,253.6 483.7,250.7 489.2,247.8 494.7,244.9 500.2,242.0 505.7,239.2 511.2,236.3 516.8,233.5 522.3,230.7 527.8,228.0 533.3,225.3 538.8,222.7 544.3,220.2 549.8,217.7 555.3,215.3 560.8,212.9 566.3,210.6 571.8,208.4 577.4,206.3 582.9,204.3 588.4,202.3 593.9,200.4 599.4,198.6 604.9,196.8 610.4,195.2 615.9,193.5 621.4,192.0 626.9,190.5 632.5,189.0 638.0,187.6 643.5,186.2 649.0,184.9 654.5,183.5 660.0,182.2 665.5,180.9 671.0,179.6 676.5,178.2 682.0,176.9 687.5,175.5 693.1,174.1 698.6,172.7 704.1,171.2 709.6,169.6 715.1,168.0 720.6,166.4 726.1,164.6 731.6,162.8 737.1,161.0 742.6,159.1 748.2,157.1 753.7,155.0 759.2,152.9 764.7,150.7 770.2,148.5 775.7,146.2 781.2,143.9 786.7,141.6 792.2,139.3 797.7,136.9 803.2,134.6 808.8,132.3 814.3,130.0 819.8,127.9 825.3,125.8 830.8,123.8 836.3,121.9 841.8,120.1 847.3,118.5 852.8,117.1 858.3,115.9 863.8,114.9 869.4,114.2 874.9,113.7 880.4,113.5 885.9,113.6 891.4,113.9 896.9,114.6 902.4,115.7 907.9,117.1 913.4,118.8 918.9,120.9 924.5,123.4 930.0,126.2 935.5,129.5 941.0,133.1 946.5,137.1 952.0,141.4" fill="none" stroke="#c44e52" stroke-width="2.5"><title>10k_gpu1</title></polyline>
<polyline points="76.0,246.2 81.5,244.1 87.0,242.4 92.5,240.9 98.0,239.7 103.5,238.7 109.1,238.0 114.6,237.5 120.1,237.3 125.6,237.3 131.1,237.5 136.6,237.9 142.1,238.4 147.6,239.2 153.1,240.0 158.6,241.0 164.2,242.1 169.7,243.3 175.2,244.6 180.7,245.9 186.2,247.2 191.7,248.6 197.2,249.9 202.7,251.2 208.2,252.5 213.7,253.7 219.2,254.8 224.8,255.8 230.3,256.7 235.8,257.5 241.3,258.2 246.8,258.7 252.3,259.0 257.8,259.2 263.3,259.2 268.8,259.1 274.3,258.7 279.8,258.2 285.4,257.5 290.9,256.6 296.4,255.5 301.9,254.2 307.4,252.8 312.9,251.2 318.4,249.4 323.9,247.5 329.4,245.4 334.9,243.2 340.5,240.8 346.0,238.4 351.5,235.8 357.0,233.1 362.5,230.4 368.0,227.5 373.5,224.7 379.0,221.7 384.5,218.8 390.0,215.8 395.5,212.9 401.1,209.9 406.6,207.0 412.1,204.1 417.6,201.3 423.1,198.6 428.6,195.9 434.1,193.4 439.6,190.9 445.1,188.6 450.6,186.4 456.2,184.4 461.7,182.5 467.2,180.8 472.7,179.2 478.2,177.9 483.7,176.7 489.2,175.7 494.7,174.9 500.2,174.3 505.7,173.9 511.2,173.7 516.8,173.8 522.3,174.0 527.8,174.5 533.3,175.1 538.8,176.0 544.3,177.0 549.8,178.3 555.3,179.7 560.8,181.3 566.3,183.1 571.8,185.1 577.4,187.2 582.9,189.4 588.4,191.8 593.9,194.3 599.4,196.9 604.9,199.6 610.4,202.3 615.9,205.1 621.4,208.0 626.9,210.9 632.5,213.8 638.0,216.6 643.5,219.5 649.0,222.3 654.5,225.0 660.0,227.7 665.5,230.3 671.0,232.7 676.5,235.1 682.0,237.2 687.5,239.3 693.1,241.1 698.6,242.8 704.1,244.3 709.6,245.5 715.1,246.6 720.6,247.4 726.1,248.0 731.6,248.3 737.1,248.4 742.6,248.3 748.2,247.9 753.7,247.2 759.2,246.3 764.7,245.2 770.2,243.9 775.7,242.3 781.2,240.6 786.7,238.6 792.2,236.4 797.7,234.1 803.2,231.6 808.8,229.0 814.3,226.3 819.8,223.5 825.3,220.6 830.8,217.7 836.3,214.8 841.8,211.9 847.3,209.0 852.8,206.1 858.3,203.4 863.8,200.7 869.4,198.2 874.9,195.9 880.4,193.8 885.9,191.8 891.4,190.1 896.9,188.7 902.4,187.5 907.9,186.6 913.4,186.1 918.9,185.8 924.5,186.0 930.0,186.4 935.5,187.3 941.0,188.5 946.5,190.0 952.0,192.0" fill="none" stroke="#55a868" stroke-width="2.5"><title>10k_hanzi_gpu1</title></polyline>
<polyline points="76.0,216.3 81.5,213.7 87.0,211.5 92.5,209.6 98.0,207.9 103.5,206.5 109.1,205.4 114.6,204.6 120.1,204.1 125.6,203.8 131.1,203.7 136.6,203.9 142.1,204.3 147.6,205.0 153.1,205.8 158.6,206.8 164.2,208.0 169.7,209.3 175.2,210.8 180.7,212.4 186.2,214.1 191.7,215.9 197.2,217.7 202.7,219.6 208.2,221.6 213.7,223.5 219.2,225.5 224.8,227.4 230.3,229.3 235.8,231.2 241.3,233.0 246.8,234.8 252.3,236.4 257.8,238.0 263.3,239.5 268.8,240.9 274.3,242.1 279.8,243.2 285.4,244.2 290.9,245.1 296.4,245.9 301.9,246.5 307.4,247.0 312.9,247.3 318.4,247.5 323.9,247.6 329.4,247.6 334.9,247.4 340.5,247.2 346.0,246.8 351.5,246.4 357.0,245.8 362.5,245.2 368.0,244.5 373.5,243.7 379.0,242.9 384.5,242.0 390.0,241.1 395.5,240.2 401.1,239.2 406.6,238.3 412.1,237.3 417.6,236.4 423.1,235.5 428.6,234.7 434.1,233.9 439.6,233.1 445.1,232.5 450.6,231.9 456.2,231.3 461.7,230.9 467.2,230.5 472.7,230.3 478.2,230.1 483.7,230.0 489.2,230.1 494.7,230.3 500.2,230.5 505.7,230.9 511.2,231.4 516.8,232.0 522.3,232.7 527.8,233.5 533.3,234.4 538.8,235.4 544.3,236.4 549.8,237.6 555.3,238.8 560.8,240.1 566.3,241.5 571.8,242.9 577.4,244.3 582.9,245.8 588.4,247.3 593.9,248.8 599.4,250.3 604.9,251.8 610.4,253.3 615.9,254.7 621.4,256.1 626.9,257.4 632.5,258.7 638.0,259.9 643.5,260.9 649.0,261.9 654.5,262.7 660.0,263.4 665.5,264.0 671.0,264.5 676.5,264.7 682.0,264.8 687.5,264.8 693.1,264.5 698.6,264.1 704.1,263.5 709.6,262.7 715.1,261.7 720.6,260.5 726.1,259.1 731.6,257.5 737.1,255.7 742.6,253.8 748.2,251.6 753.7,249.3 759.2,246.9 764.7,244.2 770.2,241.5 775.7,238.6 781.2,235.6 786.7,232.4 792.2,229.2 797.7,225.9 803.2,222.6 808.8,219.2 814.3,215.8 819.8,212.5 825.3,209.1 830.8,205.8 836.3,202.6 841.8,199.4 847.3,196.4 852.8,193.5 858.3,190.8 863.8,188.2 869.4,185.8 874.9,183.7 880.4,181.8 885.9,180.1 891.4,178.7 896.9,177.6 902.4,176.8 907.9,176.3 913.4,176.2 918.9,176.4 924.5,176.9 930.0,177.8 935.5,179.0 941.0,180.6 946.5,182.5 952.0,184.8" fill="none" stroke="#8172b3" stroke-width="2.5"><title>10k_initials_gpu1</title></polyline>
<polyline points="76.0,283.0 81.5,280.4 87.0,278.0 92.5,276.0 98.0,274.2 103.5,272.7 109.1,271.5 114.6,270.5 120.1,269.8 125.6,269.4 131.1,269.2 136.6,269.2 142.1,269.4 147.6,269.9 153.1,270.5 158.6,271.3 164.2,272.2 169.7,273.3 175.2,274.5 180.7,275.8 186.2,277.1 191.7,278.5 197.2,280.0 202.7,281.4 208.2,282.8 213.7,284.2 219.2,285.6 224.8,286.9 230.3,288.1 235.8,289.2 241.3,290.2 246.8,291.0 252.3,291.7 257.8,292.2 263.3,292.6 268.8,292.7 274.3,292.7 279.8,292.5 285.4,292.1 290.9,291.4 296.4,290.5 301.9,289.5 307.4,288.1 312.9,286.6 318.4,284.9 323.9,282.9 329.4,280.7 334.9,278.3 340.5,275.7 346.0,272.9 351.5,269.9 357.0,266.7 362.5,263.4 368.0,259.8 373.5,256.1 379.0,252.3 384.5,248.4 390.0,244.3 395.5,240.1 401.1,235.8 406.6,231.5 412.1,227.1 417.6,222.6 423.1,218.1 428.6,213.6 434.1,209.0 439.6,204.5 445.1,200.0 450.6,195.5 456.2,191.1 461.7,186.7 467.2,182.5 472.7,178.3 478.2,174.2 483.7,170.3 489.2,166.5 494.7,162.8 500.2,159.3 505.7,155.9 511.2,152.7 516.8,149.8 522.3,147.0 527.8,144.4 533.3,142.0 538.8,139.8 544.3,137.9 549.8,136.1 555.3,134.6 560.8,133.3 566.3,132.2 571.8,131.4 577.4,130.8 582.9,130.3 588.4,130.1 593.9,130.1 599.4,130.3 604.9,130.7 610.4,131.2 615.9,131.9 621.4,132.8 626.9,133.7 632.5,134.9 638.0,136.1 643.5,137.4 649.0,138.9 654.5,140.3 660.0,141.9 665.5,143.5 671.0,145.1 676.5,146.7 682.0,148.3 687.5,149.8 693.1,151.4 698.6,152.8 704.1,154.2 709.6,155.6 715.1,156.8 720.6,157.9 726.1,159.0 731.6,159.9 737.1,160.6 742.6,161.3 748.2,161.8 753.7,162.2 759.2,162.4 764.7,162.5 770.2,162.5 775.7,162.4 781.2,162.1 786.7,161.7 792.2,161.3 797.7,160.7 803.2,160.1 808.8,159.4 814.3,158.6 819.8,157.9 825.3,157.1 830.8,156.3 836.3,155.6 841.8,155.0 847.3,154.4 852.8,153.9 858.3,153.6 863.8,153.4 869.4,153.3 874.9,153.5 880.4,153.9 885.9,154.5 891.4,155.4 896.9,156.5 902.4,157.9 907.9,159.7 913.4,161.7 918.9,164.1 924.5,166.8 930.0,169.8 935.5,173.2 941.0,176.9 946.5,181.0 952.0,185.5" fill="none" stroke="#ccb974" stroke-width="2.5"><title>10k_whitespace_false_gpu1</title></polyline>
<line x1="76.0" y1="488" x2="76.0" y2="493" class="axis"/>
<text x="76.0" y="510" text-anchor="middle" class="label">0.0</text>
<line x1="251.2" y1="488" x2="251.2" y2="493" class="axis"/>
<text x="251.2" y="510" text-anchor="middle" class="label">0.2</text>
<line x1="426.4" y1="488" x2="426.4" y2="493" class="axis"/>
<text x="426.4" y="510" text-anchor="middle" class="label">0.4</text>
<line x1="601.6" y1="488" x2="601.6" y2="493" class="axis"/>
<text x="601.6" y="510" text-anchor="middle" class="label">0.6</text>
<line x1="776.8" y1="488" x2="776.8" y2="493" class="axis"/>
<text x="776.8" y="510" text-anchor="middle" class="label">0.8</text>
<line x1="952.0" y1="488" x2="952.0" y2="493" class="axis"/>
<text x="952.0" y="510" text-anchor="middle" class="label">1.0</text>
<rect x="76" y="520" width="14" height="14" fill="#2f6f9f"/>
<text x="96" y="532" class="legend">10k_chinese_gpu1</text>
<rect x="286" y="520" width="14" height="14" fill="#c44e52"/>
<text x="306" y="532" class="legend">10k_gpu1</text>
<rect x="496" y="520" width="14" height="14" fill="#55a868"/>
<text x="516" y="532" class="legend">10k_hanzi_gpu1</text>
<rect x="706" y="520" width="14" height="14" fill="#8172b3"/>
<text x="726" y="532" class="legend">10k_initials_gpu1</text>
<rect x="916" y="520" width="14" height="14" fill="#ccb974"/>
<text x="936" y="532" class="legend">10k_whitespace_false_gpu1</text>
</svg>
