<svg xmlns="http://www.w3.org/2000/svg" width="4740" height="620" viewBox="0 0 4740 620">
<style>text{font-family:Arial,sans-serif;fill:#1f2933}.axis{stroke:#9aa5b1;stroke-width:1}.grid{stroke:#e4e7eb;stroke-width:1}.label{font-size:12px}.title{font-size:22px;font-weight:700}.legend{font-size:13px}</style>
<rect width="4740" height="620" fill="#ffffff"/>
<text x="76" y="34" class="title">acc by zhoblimp subtask (1/4)</text>
<line x1="76" y1="450.0" x2="4712" y2="450.0" class="grid"/>
<text x="66" y="454.0" text-anchor="end" class="label">0.0</text>
<line x1="76" y1="374.4" x2="4712" y2="374.4" class="grid"/>
<text x="66" y="378.4" text-anchor="end" class="label">0.2</text>
<line x1="76" y1="298.8" x2="4712" y2="298.8" class="grid"/>
<text x="66" y="302.8" text-anchor="end" class="label">0.4</text>
<line x1="76" y1="223.2" x2="4712" y2="223.2" class="grid"/>
<text x="66" y="227.2" text-anchor="end" class="label">0.6</text>
<line x1="76" y1="147.6" x2="4712" y2="147.6" class="grid"/>
<text x="66" y="151.6" text-anchor="end" class="label">0.8</text>
<line x1="76" y1="72.0" x2="4712" y2="72.0" class="grid"/>
<text x="66" y="76.0" text-anchor="end" class="label">1.0</text>
<line x1="76" y1="72" x2="76" y2="450" class="axis"/>
<line x1="76" y1="450" x2="4712" y2="450" class="axis"/>
<rect x="92.6" y="72.0" width="14.6" height="378.0" fill="#2f6f9f"><title>10k_chinese_gpu1 | zhoblimp_BA_meiba: 1.000</title></rect>
<rect x="109.1" y="72.0" width="14.6" height="378.0" fill="#c44e52"><title>10k_chinese_whitespace_false_gpu1 | zhoblimp_BA_meiba: 1.000</title></rect>
<rect x="125.7" y="72.0" width="14.6" height="378.0" fill="#55a868"><title>10k_gpu1 | zhoblimp_BA_meiba: 1.000</title></rect>
<rect x="142.2" y="72.0" width="14.6" height="378.0" fill="#8172b3"><title>10k_hanzi_gpu1 | zhoblimp_BA_meiba: 1.000</title></rect>
<rect x="158.8" y="72.0" width="14.6" height="378.0" fill="#ccb974"><title>10k_initials_gpu1 | zhoblimp_BA_meiba: 1.000</title></rect>
<rect x="175.3" y="72.0" width="14.6" height="378.0" fill="#64b5cd"><title>10k_whitespace_false_gpu1 | zhoblimp_BA_meiba: 1.000</title></rect>
<text x="142.2" y="466" transform="rotate(62 142.2 466)" class="label">zhoblimp_BA_meiba</text>
<rect x="225.0" y="72.0" width="14.6" height="378.0" fill="#2f6f9f"><title>10k_chinese_gpu1 | zhoblimp_question_A_not_A_indirect: 1.000</title></rect>
<rect x="241.6" y="72.0" width="14.6" height="378.0" fill="#c44e52"><title>10k_chinese_whitespace_false_gpu1 | zhoblimp_question_A_not_A_indirect: 1.000</title></rect>
<rect x="258.1" y="72.0" width="14.6" height="378.0" fill="#55a868"><title>10k_gpu1 | zhoblimp_question_A_not_A_indirect: 1.000</title></rect>
<rect x="274.7" y="72.0" width="14.6" height="378.0" fill="#8172b3"><title>10k_hanzi_gpu1 | zhoblimp_question_A_not_A_indirect: 1.000</title></rect>
<rect x="291.2" y="72.0" width="14.6" height="378.0" fill="#ccb974"><title>10k_initials_gpu1 | zhoblimp_question_A_not_A_indirect: 1.000</title></rect>
<rect x="307.8" y="72.0" width="14.6" height="378.0" fill="#64b5cd"><title>10k_whitespace_false_gpu1 | zhoblimp_question_A_not_A_indirect: 1.000</title></rect>
<text x="274.7" y="466" transform="rotate(62 274.7 466)" class="label">zhoblimp_question_A_not_A_indirect</text>
<rect x="357.5" y="72.0" width="14.6" height="378.0" fill="#2f6f9f"><title>10k_chinese_gpu1 | zhoblimp_principle_A_c_command: 1.000</title></rect>
<rect x="374.0" y="72.0" width="14.6" height="378.0" fill="#c44e52"><title>10k_chinese_whitespace_false_gpu1 | zhoblimp_principle_A_c_command: 1.000</title></rect>
<rect x="390.6" y="72.0" width="14.6" height="378.0" fill="#55a868"><title>10k_gpu1 | zhoblimp_principle_A_c_command: 1.000</title></rect>
<rect x="407.1" y="72.0" width="14.6" height="378.0" fill="#8172b3"><title>10k_hanzi_gpu1 | zhoblimp_principle_A_c_command: 1.000</title></rect>
<rect x="423.7" y="72.0" width="14.6" height="378.0" fill="#ccb974"><title>10k_initials_gpu1 | zhoblimp_principle_A_c_command: 1.000</title></rect>
<rect x="440.3" y="72.0" width="14.6" height="378.0" fill="#64b5cd"><title>10k_whitespace_false_gpu1 | zhoblimp_principle_A_c_command: 1.000</title></rect>
<text x="407.1" y="466" transform="rotate(62 407.1 466)" class="label">zhoblimp_principle_A_c_command</text>
<rect x="489.9" y="72.0" width="14.6" height="378.0" fill="#2f6f9f"><title>10k_chinese_gpu1 | zhoblimp_BA_verb_le_a: 1.000</title></rect>
<rect x="506.5" y="72.0" width="14.6" height="378.0" fill="#c44e52"><title>10k_chinese_whitespace_false_gpu1 | zhoblimp_BA_verb_le_a: 1.000</title></rect>
<rect x="523.0" y="72.0" width="14.6" height="378.0" fill="#55a868"><title>10k_gpu1 | zhoblimp_BA_verb_le_a: 1.000</title></rect>
<rect x="539.6" y="72.0" width="14.6" height="378.0" fill="#8172b3"><title>10k_hanzi_gpu1 | zhoblimp_BA_verb_le_a: 1.000</title></rect>
<rect x="556.2" y="72.0" width="14.6" height="378.0" fill="#ccb974"><title>10k_initials_gpu1 | zhoblimp_BA_verb_le_a: 1.000</title></rect>
<rect x="572.7" y="72.0" width="14.6" height="378.0" fill="#64b5cd"><title>10k_whitespace_false_gpu1 | zhoblimp_BA_verb_le_a: 1.000</title></rect>
<text x="539.6" y="466" transform="rotate(62 539.6 466)" class="label">zhoblimp_BA_verb_le_a</text>
<rect x="622.4" y="72.0" width="14.6" height="378.0" fill="#2f6f9f"><title>10k_chinese_gpu1 | zhoblimp_BA_suo_adverbial_b: 1.000</title></rect>
<rect x="638.9" y="72.0" width="14.6" height="378.0" fill="#c44e52"><title>10k_chinese_whitespace_false_gpu1 | zhoblimp_BA_suo_adverbial_b: 1.000</title></rect>
<rect x="655.5" y="72.0" width="14.6" height="378.0" fill="#55a868"><title>10k_gpu1 | zhoblimp_BA_suo_adverbial_b: 1.000</title></rect>
<rect x="672.1" y="72.0" width="14.6" height="378.0" fill="#8172b3"><title>10k_hanzi_gpu1 | zhoblimp_BA_suo_adverbial_b: 1.000</title></rect>
<rect x="688.6" y="72.0" width="14.6" height="378.0" fill="#ccb974"><title>10k_initials_gpu1 | zhoblimp_BA_suo_adverbial_b: 1.000</title></rect>
<rect x="705.2" y="72.0" width="14.6" height="378.0" fill="#64b5cd"><title>10k_whitespace_false_gpu1 | zhoblimp_BA_suo_adverbial_b: 1.000</title></rect>
<text x="672.1" y="466" transform="rotate(62 672.1 466)" class="label">zhoblimp_BA_suo_adverbial_b</text>
<rect x="754.8" y="72.0" width="14.6" height="378.0" fill="#2f6f9f"><title>10k_chinese_gpu1 | zhoblimp_ellipsis_double_object: 1.000</title></rect>
<rect x="771.4" y="72.0" width="14.6" height="378.0" fill="#c44e52"><title>10k_chinese_whitespace_false_gpu1 | zhoblimp_ellipsis_double_object: 1.000</title></rect>
<rect x="788.0" y="72.0" width="14.6" height="378.0" fill="#55a868"><title>10k_gpu1 | zhoblimp_ellipsis_double_object: 1.000</title></rect>
<rect x="804.5" y="72.0" width="14.6" height="378.0" fill="#8172b3"><title>10k_hanzi_gpu1 | zhoblimp_ellipsis_double_object: 1.000</title></rect>
<rect x="821.1" y="72.0" width="14.6" height="378.0" fill="#ccb974"><title>10k_initials_gpu1 | zhoblimp_ellipsis_double_object: 1.000</title></rect>
<rect x="837.6" y="72.0" width="14.6" height="378.0" fill="#64b5cd"><title>10k_whitespace_false_gpu1 | zhoblimp_ellipsis_double_object: 1.000</title></rect>
<text x="804.5" y="466" transform="rotate(62 804.5 466)" class="label">zhoblimp_ellipsis_double_object</text>
<rect x="887.3" y="72.0" width="14.6" height="378.0" fill="#2f6f9f"><title>10k_chinese_gpu1 | zhoblimp_principle_A_domain: 1.000</title></rect>
<rect x="903.9" y="72.0" width="14.6" height="378.0" fill="#c44e52"><title>10k_chinese_whitespace_false_gpu1 | zhoblimp_principle_A_domain: 1.000</title></rect>
<rect x="920.4" y="72.0" width="14.6" height="378.0" fill="#55a868"><title>10k_gpu1 | zhoblimp_principle_A_domain: 1.000</title></rect>
<rect x="937.0" y="72.0" width="14.6" height="378.0" fill="#8172b3"><title>10k_hanzi_gpu1 | zhoblimp_principle_A_domain: 1.000</title></rect>
<rect x="953.5" y="72.0" width="14.6" height="378.0" fill="#ccb974"><title>10k_initials_gpu1 | zhoblimp_principle_A_domain: 1.000</title></rect>
<rect x="970.1" y="72.0" width="14.6" height="378.0" fill="#64b5cd"><title>10k_whitespace_false_gpu1 | zhoblimp_principle_A_domain: 1.000</title></rect>
<text x="937.0" y="466" transform="rotate(62 937.0 466)" class="label">zhoblimp_principle_A_domain</text>
<rect x="1019.8" y="72.0" width="14.6" height="378.0" fill="#2f6f9f"><title>10k_chinese_gpu1 | zhoblimp_BA_duplicate_argument: 1.000</title></rect>
<rect x="1036.3" y="73.3" width="14.6" height="376.7" fill="#c44e52"><title>10k_chinese_whitespace_false_gpu1 | zhoblimp_BA_duplicate_argument: 0.997</title></rect>
<rect x="1052.9" y="72.0" width="14.6" height="378.0" fill="#55a868"><title>10k_gpu1 | zhoblimp_BA_duplicate_argument: 1.000</title></rect>
<rect x="1069.4" y="72.0" width="14.6" height="378.0" fill="#8172b3"><title>10k_hanzi_gpu1 | zhoblimp_BA_duplicate_argument: 1.000</title></rect>
<rect x="1086.0" y="72.0" width="14.6" height="378.0" fill="#ccb974"><title>10k_initials_gpu1 | zhoblimp_BA_duplicate_argument: 1.000</title></rect>
<rect x="1102.5" y="72.0" width="14.6" height="378.0" fill="#64b5cd"><title>10k_whitespace_false_gpu1 | zhoblimp_BA_duplicate_argument: 1.000</title></rect>
<text x="1069.4" y="466" transform="rotate(62 1069.4 466)" class="label">zhoblimp_BA_duplicate_argument</text>
<rect x="1152.2" y="72.0" width="14.6" height="378.0" fill="#2f6f9f"><title>10k_chinese_gpu1 | zhoblimp_classifier_noun_subj: 1.000</title></rect>
<rect x="1168.8" y="79.6" width="14.6" height="370.4" fill="#c44e52"><title>10k_chinese_whitespace_false_gpu1 | zhoblimp_classifier_noun_subj: 0.980</title></rect>
<rect x="1185.3" y="73.3" width="14.6" height="376.7" fill="#55a868"><title>10k_gpu1 | zhoblimp_classifier_noun_subj: 0.997</title></rect>
<rect x="1201.9" y="72.0" width="14.6" height="378.0" fill="#8172b3"><title>10k_hanzi_gpu1 | zhoblimp_classifier_noun_subj: 1.000</title></rect>
<rect x="1218.4" y="72.0" width="14.6" height="378.0" fill="#ccb974"><title>10k_initials_gpu1 | zhoblimp_classifier_noun_subj: 1.000</title></rect>
<rect x="1235.0" y="72.0" width="14.6" height="378.0" fill="#64b5cd"><title>10k_whitespace_false_gpu1 | zhoblimp_classifier_noun_subj: 1.000</title></rect>
<text x="1201.9" y="466" transform="rotate(62 1201.9 466)" class="label">zhoblimp_classifier_noun_subj</text>
<rect x="1284.7" y="72.0" width="14.6" height="378.0" fill="#2f6f9f"><title>10k_chinese_gpu1 | zhoblimp_fci_renhe_suoyou: 1.000</title></rect>
<rect x="1301.2" y="72.0" width="14.6" height="378.0" fill="#c44e52"><title>10k_chinese_whitespace_false_gpu1 | zhoblimp_fci_renhe_suoyou: 1.000</title></rect>
<rect x="1317.8" y="72.0" width="14.6" height="378.0" fill="#55a868"><title>10k_gpu1 | zhoblimp_fci_renhe_suoyou: 1.000</title></rect>
<rect x="1334.3" y="72.0" width="14.6" height="378.0" fill="#8172b3"><title>10k_hanzi_gpu1 | zhoblimp_fci_renhe_suoyou: 1.000</title></rect>
<rect x="1350.9" y="72.0" width="14.6" height="378.0" fill="#ccb974"><title>10k_initials_gpu1 | zhoblimp_fci_renhe_suoyou: 1.000</title></rect>
<rect x="1367.5" y="80.8" width="14.6" height="369.2" fill="#64b5cd"><title>10k_whitespace_false_gpu1 | zhoblimp_fci_renhe_suoyou: 0.977</title></rect>
<text x="1334.3" y="466" transform="rotate(62 1334.3 466)" class="label">zhoblimp_fci_renhe_suoyou</text>
<rect x="1417.1" y="72.0" width="14.6" height="378.0" fill="#2f6f9f"><title>10k_chinese_gpu1 | zhoblimp_question_A_not_A: 1.000</title></rect>
<rect x="1433.7" y="75.8" width="14.6" height="374.2" fill="#c44e52"><title>10k_chinese_whitespace_false_gpu1 | zhoblimp_question_A_not_A: 0.990</title></rect>
<rect x="1450.2" y="73.3" width="14.6" height="376.7" fill="#55a868"><title>10k_gpu1 | zhoblimp_question_A_not_A: 0.997</title></rect>
<rect x="1466.8" y="73.3" width="14.6" height="376.7" fill="#8172b3"><title>10k_hanzi_gpu1 | zhoblimp_question_A_not_A: 0.997</title></rect>
<rect x="1483.4" y="74.5" width="14.6" height="375.5" fill="#ccb974"><title>10k_initials_gpu1 | zhoblimp_question_A_not_A: 0.993</title></rect>
<rect x="1499.9" y="73.3" width="14.6" height="376.7" fill="#64b5cd"><title>10k_whitespace_false_gpu1 | zhoblimp_question_A_not_A: 0.997</title></rect>
<text x="1466.8" y="466" transform="rotate(62 1466.8 466)" class="label">zhoblimp_question_A_not_A</text>
<rect x="1549.6" y="72.0" width="14.6" height="378.0" fill="#2f6f9f"><title>10k_chinese_gpu1 | zhoblimp_fci_renhe_ruguo: 1.000</title></rect>
<rect x="1566.1" y="89.6" width="14.6" height="360.4" fill="#c44e52"><title>10k_chinese_whitespace_false_gpu1 | zhoblimp_fci_renhe_ruguo: 0.953</title></rect>
<rect x="1582.7" y="74.5" width="14.6" height="375.5" fill="#55a868"><title>10k_gpu1 | zhoblimp_fci_renhe_ruguo: 0.993</title></rect>
<rect x="1599.3" y="72.0" width="14.6" height="378.0" fill="#8172b3"><title>10k_hanzi_gpu1 | zhoblimp_fci_renhe_ruguo: 1.000</title></rect>
<rect x="1615.8" y="72.0" width="14.6" height="378.0" fill="#ccb974"><title>10k_initials_gpu1 | zhoblimp_fci_renhe_ruguo: 1.000</title></rect>
<rect x="1632.4" y="72.0" width="14.6" height="378.0" fill="#64b5cd"><title>10k_whitespace_false_gpu1 | zhoblimp_fci_renhe_ruguo: 1.000</title></rect>
<text x="1599.3" y="466" transform="rotate(62 1599.3 466)" class="label">zhoblimp_fci_renhe_ruguo</text>
<rect x="1682.0" y="97.2" width="14.6" height="352.8" fill="#2f6f9f"><title>10k_chinese_gpu1 | zhoblimp_principle_A_domain_number: 0.933</title></rect>
<rect x="1698.6" y="85.9" width="14.6" height="364.1" fill="#c44e52"><title>10k_chinese_whitespace_false_gpu1 | zhoblimp_principle_A_domain_number: 0.963</title></rect>
<rect x="1715.2" y="72.0" width="14.6" height="378.0" fill="#55a868"><title>10k_gpu1 | zhoblimp_principle_A_domain_number: 1.000</title></rect>
<rect x="1731.7" y="72.0" width="14.6" height="378.0" fill="#8172b3"><title>10k_hanzi_gpu1 | zhoblimp_principle_A_domain_number: 1.000</title></rect>
<rect x="1748.3" y="72.0" width="14.6" height="378.0" fill="#ccb974"><title>10k_initials_gpu1 | zhoblimp_principle_A_domain_number: 1.000</title></rect>
<rect x="1764.8" y="78.3" width="14.6" height="371.7" fill="#64b5cd"><title>10k_whitespace_false_gpu1 | zhoblimp_principle_A_domain_number: 0.983</title></rect>
<text x="1731.7" y="466" transform="rotate(62 1731.7 466)" class="label">zhoblimp_principle_A_domain_number</text>
<rect x="1814.5" y="72.0" width="14.6" height="378.0" fill="#2f6f9f"><title>10k_chinese_gpu1 | zhoblimp_relativization_movement_when_where: 1.000</title></rect>
<rect x="1831.1" y="118.6" width="14.6" height="331.4" fill="#c44e52"><title>10k_chinese_whitespace_false_gpu1 | zhoblimp_relativization_movement_when_where: 0.877</title></rect>
<rect x="1847.6" y="72.0" width="14.6" height="378.0" fill="#55a868"><title>10k_gpu1 | zhoblimp_relativization_movement_when_where: 1.000</title></rect>
<rect x="1864.2" y="72.0" width="14.6" height="378.0" fill="#8172b3"><title>10k_hanzi_gpu1 | zhoblimp_relativization_movement_when_where: 1.000</title></rect>
<rect x="1880.7" y="72.0" width="14.6" height="378.0" fill="#ccb974"><title>10k_initials_gpu1 | zhoblimp_relativization_movement_when_where: 1.000</title></rect>
<rect x="1897.3" y="72.0" width="14.6" height="378.0" fill="#64b5cd"><title>10k_whitespace_false_gpu1 | zhoblimp_relativization_movement_when_where: 1.000</title></rect>
<text x="1864.2" y="466" transform="rotate(62 1864.2 466)" class="label">zhoblimp_relativization_movement_...</text>
<rect x="1947.0" y="72.0" width="14.6" height="378.0" fill="#2f6f9f"><title>10k_chinese_gpu1 | zhoblimp_plural_cardinal_men_b: 1.000</title></rect>
<rect x="1963.5" y="72.0" width="14.6" height="378.0" fill="#c44e52"><title>10k_chinese_whitespace_false_gpu1 | zhoblimp_plural_cardinal_men_b: 1.000</title></rect>
<rect x="1980.1" y="79.6" width="14.6" height="370.4" fill="#55a868"><title>10k_gpu1 | zhoblimp_plural_cardinal_men_b: 0.980</title></rect>
<rect x="1996.6" y="92.2" width="14.6" height="357.8" fill="#8172b3"><title>10k_hanzi_gpu1 | zhoblimp_plural_cardinal_men_b: 0.947</title></rect>
<rect x="2013.2" y="92.2" width="14.6" height="357.8" fill="#ccb974"><title>10k_initials_gpu1 | zhoblimp_plural_cardinal_men_b: 0.947</title></rect>
<rect x="2029.7" y="72.0" width="14.6" height="378.0" fill="#64b5cd"><title>10k_whitespace_false_gpu1 | zhoblimp_plural_cardinal_men_b: 1.000</title></rect>
<text x="1996.6" y="466" transform="rotate(62 1996.6 466)" class="label">zhoblimp_plural_cardinal_men_b</text>
<rect x="2079.4" y="73.3" width="14.6" height="376.7" fill="#2f6f9f"><title>10k_chinese_gpu1 | zhoblimp_plural_cardinal_men_a: 0.997</title></rect>
<rect x="2096.0" y="72.0" width="14.6" height="378.0" fill="#c44e52"><title>10k_chinese_whitespace_false_gpu1 | zhoblimp_plural_cardinal_men_a: 1.000</title></rect>
<rect x="2112.5" y="83.3" width="14.6" height="366.7" fill="#55a868"><title>10k_gpu1 | zhoblimp_plural_cardinal_men_a: 0.970</title></rect>
<rect x="2129.1" y="90.9" width="14.6" height="359.1" fill="#8172b3"><title>10k_hanzi_gpu1 | zhoblimp_plural_cardinal_men_a: 0.950</title></rect>
<rect x="2145.6" y="90.9" width="14.6" height="359.1" fill="#ccb974"><title>10k_initials_gpu1 | zhoblimp_plural_cardinal_men_a: 0.950</title></rect>
<rect x="2162.2" y="72.0" width="14.6" height="378.0" fill="#64b5cd"><title>10k_whitespace_false_gpu1 | zhoblimp_plural_cardinal_men_a: 1.000</title></rect>
<text x="2129.1" y="466" transform="rotate(62 2129.1 466)" class="label">zhoblimp_plural_cardinal_men_a</text>
<rect x="2211.9" y="85.9" width="14.6" height="364.1" fill="#2f6f9f"><title>10k_chinese_gpu1 | zhoblimp_BA_suo_adverbial_a: 0.963</title></rect>
<rect x="2228.4" y="72.0" width="14.6" height="378.0" fill="#c44e52"><title>10k_chinese_whitespace_false_gpu1 | zhoblimp_BA_suo_adverbial_a: 1.000</title></rect>
<rect x="2245.0" y="72.0" width="14.6" height="378.0" fill="#55a868"><title>10k_gpu1 | zhoblimp_BA_suo_adverbial_a: 1.000</title></rect>
<rect x="2261.5" y="90.9" width="14.6" height="359.1" fill="#8172b3"><title>10k_hanzi_gpu1 | zhoblimp_BA_suo_adverbial_a: 0.950</title></rect>
<rect x="2278.1" y="90.9" width="14.6" height="359.1" fill="#ccb974"><title>10k_initials_gpu1 | zhoblimp_BA_suo_adverbial_a: 0.950</title></rect>
<rect x="2294.7" y="72.0" width="14.6" height="378.0" fill="#64b5cd"><title>10k_whitespace_false_gpu1 | zhoblimp_BA_suo_adverbial_a: 1.000</title></rect>
<text x="2261.5" y="466" transform="rotate(62 2261.5 466)" class="label">zhoblimp_BA_suo_adverbial_a</text>
<rect x="2344.3" y="79.6" width="14.6" height="370.4" fill="#2f6f9f"><title>10k_chinese_gpu1 | zhoblimp_nominal_definite_men: 0.980</title></rect>
<rect x="2360.9" y="90.9" width="14.6" height="359.1" fill="#c44e52"><title>10k_chinese_whitespace_false_gpu1 | zhoblimp_nominal_definite_men: 0.950</title></rect>
<rect x="2377.4" y="73.3" width="14.6" height="376.7" fill="#55a868"><title>10k_gpu1 | zhoblimp_nominal_definite_men: 0.997</title></rect>
<rect x="2394.0" y="92.2" width="14.6" height="357.8" fill="#8172b3"><title>10k_hanzi_gpu1 | zhoblimp_nominal_definite_men: 0.947</title></rect>
<rect x="2410.6" y="92.2" width="14.6" height="357.8" fill="#ccb974"><title>10k_initials_gpu1 | zhoblimp_nominal_definite_men: 0.947</title></rect>
<rect x="2427.1" y="72.0" width="14.6" height="378.0" fill="#64b5cd"><title>10k_whitespace_false_gpu1 | zhoblimp_nominal_definite_men: 1.000</title></rect>
<text x="2394.0" y="466" transform="rotate(62 2394.0 466)" class="label">zhoblimp_nominal_definite_men</text>
<rect x="2476.8" y="74.5" width="14.6" height="375.5" fill="#2f6f9f"><title>10k_chinese_gpu1 | zhoblimp_you_yige: 0.993</title></rect>
<rect x="2493.3" y="130.0" width="14.6" height="320.0" fill="#c44e52"><title>10k_chinese_whitespace_false_gpu1 | zhoblimp_you_yige: 0.847</title></rect>
<rect x="2509.9" y="72.0" width="14.6" height="378.0" fill="#55a868"><title>10k_gpu1 | zhoblimp_you_yige: 1.000</title></rect>
<rect x="2526.5" y="72.0" width="14.6" height="378.0" fill="#8172b3"><title>10k_hanzi_gpu1 | zhoblimp_you_yige: 1.000</title></rect>
<rect x="2543.0" y="72.0" width="14.6" height="378.0" fill="#ccb974"><title>10k_initials_gpu1 | zhoblimp_you_yige: 1.000</title></rect>
<rect x="2559.6" y="104.8" width="14.6" height="345.2" fill="#64b5cd"><title>10k_whitespace_false_gpu1 | zhoblimp_you_yige: 0.913</title></rect>
<text x="2526.5" y="466" transform="rotate(62 2526.5 466)" class="label">zhoblimp_you_yige</text>
<rect x="2609.2" y="94.7" width="14.6" height="355.3" fill="#2f6f9f"><title>10k_chinese_gpu1 | zhoblimp_control_modal_vs_raising_modal: 0.940</title></rect>
<rect x="2625.8" y="79.6" width="14.6" height="370.4" fill="#c44e52"><title>10k_chinese_whitespace_false_gpu1 | zhoblimp_control_modal_vs_raising_modal: 0.980</title></rect>
<rect x="2642.4" y="98.5" width="14.6" height="351.5" fill="#55a868"><title>10k_gpu1 | zhoblimp_control_modal_vs_raising_modal: 0.930</title></rect>
<rect x="2658.9" y="72.0" width="14.6" height="378.0" fill="#8172b3"><title>10k_hanzi_gpu1 | zhoblimp_control_modal_vs_raising_modal: 1.000</title></rect>
<rect x="2675.5" y="72.0" width="14.6" height="378.0" fill="#ccb974"><title>10k_initials_gpu1 | zhoblimp_control_modal_vs_raising_modal: 1.000</title></rect>
<rect x="2692.0" y="126.2" width="14.6" height="323.8" fill="#64b5cd"><title>10k_whitespace_false_gpu1 | zhoblimp_control_modal_vs_raising_modal: 0.857</title></rect>
<text x="2658.9" y="466" transform="rotate(62 2658.9 466)" class="label">zhoblimp_control_modal_vs_raising...</text>
<rect x="2741.7" y="74.5" width="14.6" height="375.5" fill="#2f6f9f"><title>10k_chinese_gpu1 | zhoblimp_PN_numP_a: 0.993</title></rect>
<rect x="2758.3" y="184.1" width="14.6" height="265.9" fill="#c44e52"><title>10k_chinese_whitespace_false_gpu1 | zhoblimp_PN_numP_a: 0.703</title></rect>
<rect x="2774.8" y="77.0" width="14.6" height="373.0" fill="#55a868"><title>10k_gpu1 | zhoblimp_PN_numP_a: 0.987</title></rect>
<rect x="2791.4" y="72.0" width="14.6" height="378.0" fill="#8172b3"><title>10k_hanzi_gpu1 | zhoblimp_PN_numP_a: 1.000</title></rect>
<rect x="2807.9" y="72.0" width="14.6" height="378.0" fill="#ccb974"><title>10k_initials_gpu1 | zhoblimp_PN_numP_a: 1.000</title></rect>
<rect x="2824.5" y="72.0" width="14.6" height="378.0" fill="#64b5cd"><title>10k_whitespace_false_gpu1 | zhoblimp_PN_numP_a: 1.000</title></rect>
<text x="2791.4" y="466" transform="rotate(62 2791.4 466)" class="label">zhoblimp_PN_numP_a</text>
<rect x="2874.2" y="92.2" width="14.6" height="357.8" fill="#2f6f9f"><title>10k_chinese_gpu1 | zhoblimp_BA_no_progressive: 0.947</title></rect>
<rect x="2890.7" y="111.1" width="14.6" height="338.9" fill="#c44e52"><title>10k_chinese_whitespace_false_gpu1 | zhoblimp_BA_no_progressive: 0.897</title></rect>
<rect x="2907.3" y="80.8" width="14.6" height="369.2" fill="#55a868"><title>10k_gpu1 | zhoblimp_BA_no_progressive: 0.977</title></rect>
<rect x="2923.8" y="93.4" width="14.6" height="356.6" fill="#8172b3"><title>10k_hanzi_gpu1 | zhoblimp_BA_no_progressive: 0.943</title></rect>
<rect x="2940.4" y="73.3" width="14.6" height="376.7" fill="#ccb974"><title>10k_initials_gpu1 | zhoblimp_BA_no_progressive: 0.997</title></rect>
<rect x="2956.9" y="104.8" width="14.6" height="345.2" fill="#64b5cd"><title>10k_whitespace_false_gpu1 | zhoblimp_BA_no_progressive: 0.913</title></rect>
<text x="2923.8" y="466" transform="rotate(62 2923.8 466)" class="label">zhoblimp_BA_no_progressive</text>
<rect x="3006.6" y="74.5" width="14.6" height="375.5" fill="#2f6f9f"><title>10k_chinese_gpu1 | zhoblimp_relativization_movement_no_gap: 0.993</title></rect>
<rect x="3023.2" y="118.6" width="14.6" height="331.4" fill="#c44e52"><title>10k_chinese_whitespace_false_gpu1 | zhoblimp_relativization_movement_no_gap: 0.877</title></rect>
<rect x="3039.7" y="87.1" width="14.6" height="362.9" fill="#55a868"><title>10k_gpu1 | zhoblimp_relativization_movement_no_gap: 0.960</title></rect>
<rect x="3056.3" y="72.0" width="14.6" height="378.0" fill="#8172b3"><title>10k_hanzi_gpu1 | zhoblimp_relativization_movement_no_gap: 1.000</title></rect>
<rect x="3072.8" y="72.0" width="14.6" height="378.0" fill="#ccb974"><title>10k_initials_gpu1 | zhoblimp_relativization_movement_no_gap: 1.000</title></rect>
<rect x="3089.4" y="170.3" width="14.6" height="279.7" fill="#64b5cd"><title>10k_whitespace_false_gpu1 | zhoblimp_relativization_movement_no_gap: 0.740</title></rect>
<text x="3056.3" y="466" transform="rotate(62 3056.3 466)" class="label">zhoblimp_relativization_movement_...</text>
<rect x="3139.1" y="103.5" width="14.6" height="346.5" fill="#2f6f9f"><title>10k_chinese_gpu1 | zhoblimp_BA_no_stative_verb: 0.917</title></rect>
<rect x="3155.6" y="72.0" width="14.6" height="378.0" fill="#c44e52"><title>10k_chinese_whitespace_false_gpu1 | zhoblimp_BA_no_stative_verb: 1.000</title></rect>
<rect x="3172.2" y="74.5" width="14.6" height="375.5" fill="#55a868"><title>10k_gpu1 | zhoblimp_BA_no_stative_verb: 0.993</title></rect>
<rect x="3188.7" y="72.0" width="14.6" height="378.0" fill="#8172b3"><title>10k_hanzi_gpu1 | zhoblimp_BA_no_stative_verb: 1.000</title></rect>
<rect x="3205.3" y="189.2" width="14.6" height="260.8" fill="#ccb974"><title>10k_initials_gpu1 | zhoblimp_BA_no_stative_verb: 0.690</title></rect>
<rect x="3221.9" y="102.2" width="14.6" height="347.8" fill="#64b5cd"><title>10k_whitespace_false_gpu1 | zhoblimp_BA_no_stative_verb: 0.920</title></rect>
<text x="3188.7" y="466" transform="rotate(62 3188.7 466)" class="label">zhoblimp_BA_no_stative_verb</text>
<rect x="3271.5" y="72.0" width="14.6" height="378.0" fill="#2f6f9f"><title>10k_chinese_gpu1 | zhoblimp_question_daodi_negation: 1.000</title></rect>
<rect x="3288.1" y="107.3" width="14.6" height="342.7" fill="#c44e52"><title>10k_chinese_whitespace_false_gpu1 | zhoblimp_question_daodi_negation: 0.907</title></rect>
<rect x="3304.6" y="72.0" width="14.6" height="378.0" fill="#55a868"><title>10k_gpu1 | zhoblimp_question_daodi_negation: 1.000</title></rect>
<rect x="3321.2" y="224.5" width="14.6" height="225.5" fill="#8172b3"><title>10k_hanzi_gpu1 | zhoblimp_question_daodi_negation: 0.597</title></rect>
<rect x="3337.8" y="216.9" width="14.6" height="233.1" fill="#ccb974"><title>10k_initials_gpu1 | zhoblimp_question_daodi_negation: 0.617</title></rect>
<rect x="3354.3" y="75.8" width="14.6" height="374.2" fill="#64b5cd"><title>10k_whitespace_false_gpu1 | zhoblimp_question_daodi_negation: 0.990</title></rect>
<text x="3321.2" y="466" transform="rotate(62 3321.2 466)" class="label">zhoblimp_question_daodi_negation</text>
<rect x="3404.0" y="114.8" width="14.6" height="335.2" fill="#2f6f9f"><title>10k_chinese_gpu1 | zhoblimp_noun_phrase_conjunction_jian: 0.887</title></rect>
<rect x="3420.5" y="80.8" width="14.6" height="369.2" fill="#c44e52"><title>10k_chinese_whitespace_false_gpu1 | zhoblimp_noun_phrase_conjunction_jian: 0.977</title></rect>
<rect x="3437.1" y="109.8" width="14.6" height="340.2" fill="#55a868"><title>10k_gpu1 | zhoblimp_noun_phrase_conjunction_jian: 0.900</title></rect>
<rect x="3453.7" y="284.9" width="14.6" height="165.1" fill="#8172b3"><title>10k_hanzi_gpu1 | zhoblimp_noun_phrase_conjunction_jian: 0.437</title></rect>
<rect x="3470.2" y="102.2" width="14.6" height="347.8" fill="#ccb974"><title>10k_initials_gpu1 | zhoblimp_noun_phrase_conjunction_jian: 0.920</title></rect>
<rect x="3486.8" y="93.4" width="14.6" height="356.6" fill="#64b5cd"><title>10k_whitespace_false_gpu1 | zhoblimp_noun_phrase_conjunction_jian: 0.943</title></rect>
<text x="3453.7" y="466" transform="rotate(62 3453.7 466)" class="label">zhoblimp_noun_phrase_conjunction_...</text>
<rect x="3536.4" y="116.1" width="14.6" height="333.9" fill="#2f6f9f"><title>10k_chinese_gpu1 | zhoblimp_classifier_noun_agreement: 0.883</title></rect>
<rect x="3553.0" y="127.4" width="14.6" height="322.6" fill="#c44e52"><title>10k_chinese_whitespace_false_gpu1 | zhoblimp_classifier_noun_agreement: 0.853</title></rect>
<rect x="3569.6" y="114.8" width="14.6" height="335.2" fill="#55a868"><title>10k_gpu1 | zhoblimp_classifier_noun_agreement: 0.887</title></rect>
<rect x="3586.1" y="187.9" width="14.6" height="262.1" fill="#8172b3"><title>10k_hanzi_gpu1 | zhoblimp_classifier_noun_agreement: 0.693</title></rect>
<rect x="3602.7" y="152.6" width="14.6" height="297.4" fill="#ccb974"><title>10k_initials_gpu1 | zhoblimp_classifier_noun_agreement: 0.787</title></rect>
<rect x="3619.2" y="111.1" width="14.6" height="338.9" fill="#64b5cd"><title>10k_whitespace_false_gpu1 | zhoblimp_classifier_noun_agreement: 0.897</title></rect>
<text x="3586.1" y="466" transform="rotate(62 3586.1 466)" class="label">zhoblimp_classifier_noun_agreement</text>
<rect x="3668.9" y="78.3" width="14.6" height="371.7" fill="#2f6f9f"><title>10k_chinese_gpu1 | zhoblimp_PN_numP_b: 0.983</title></rect>
<rect x="3685.5" y="77.0" width="14.6" height="373.0" fill="#c44e52"><title>10k_chinese_whitespace_false_gpu1 | zhoblimp_PN_numP_b: 0.987</title></rect>
<rect x="3702.0" y="72.0" width="14.6" height="378.0" fill="#55a868"><title>10k_gpu1 | zhoblimp_PN_numP_b: 1.000</title></rect>
<rect x="3718.6" y="219.4" width="14.6" height="230.6" fill="#8172b3"><title>10k_hanzi_gpu1 | zhoblimp_PN_numP_b: 0.610</title></rect>
<rect x="3735.1" y="213.1" width="14.6" height="236.9" fill="#ccb974"><title>10k_initials_gpu1 | zhoblimp_PN_numP_b: 0.627</title></rect>
<rect x="3751.7" y="165.2" width="14.6" height="284.8" fill="#64b5cd"><title>10k_whitespace_false_gpu1 | zhoblimp_PN_numP_b: 0.753</title></rect>
<text x="3718.6" y="466" transform="rotate(62 3718.6 466)" class="label">zhoblimp_PN_numP_b</text>
<rect x="3801.4" y="73.3" width="14.6" height="376.7" fill="#2f6f9f"><title>10k_chinese_gpu1 | zhoblimp_question_nandao_negation: 0.997</title></rect>
<rect x="3817.9" y="102.2" width="14.6" height="347.8" fill="#c44e52"><title>10k_chinese_whitespace_false_gpu1 | zhoblimp_question_nandao_negation: 0.920</title></rect>
<rect x="3834.5" y="73.3" width="14.6" height="376.7" fill="#55a868"><title>10k_gpu1 | zhoblimp_question_nandao_negation: 0.997</title></rect>
<rect x="3851.0" y="244.6" width="14.6" height="205.4" fill="#8172b3"><title>10k_hanzi_gpu1 | zhoblimp_question_nandao_negation: 0.543</title></rect>
<rect x="3867.6" y="262.3" width="14.6" height="187.7" fill="#ccb974"><title>10k_initials_gpu1 | zhoblimp_question_nandao_negation: 0.497</title></rect>
<rect x="3884.1" y="107.3" width="14.6" height="342.7" fill="#64b5cd"><title>10k_whitespace_false_gpu1 | zhoblimp_question_nandao_negation: 0.907</title></rect>
<text x="3851.0" y="466" transform="rotate(62 3851.0 466)" class="label">zhoblimp_question_nandao_negation</text>
<rect x="3933.8" y="73.3" width="14.6" height="376.7" fill="#2f6f9f"><title>10k_chinese_gpu1 | zhoblimp_singular_PN_but_plural_pron: 0.997</title></rect>
<rect x="3950.4" y="107.3" width="14.6" height="342.7" fill="#c44e52"><title>10k_chinese_whitespace_false_gpu1 | zhoblimp_singular_PN_but_plural_pron: 0.907</title></rect>
<rect x="3966.9" y="135.0" width="14.6" height="315.0" fill="#55a868"><title>10k_gpu1 | zhoblimp_singular_PN_but_plural_pron: 0.833</title></rect>
<rect x="3983.5" y="72.0" width="14.6" height="378.0" fill="#8172b3"><title>10k_hanzi_gpu1 | zhoblimp_singular_PN_but_plural_pron: 1.000</title></rect>
<rect x="4000.0" y="72.0" width="14.6" height="378.0" fill="#ccb974"><title>10k_initials_gpu1 | zhoblimp_singular_PN_but_plural_pron: 1.000</title></rect>
<rect x="4016.6" y="417.2" width="14.6" height="32.8" fill="#64b5cd"><title>10k_whitespace_false_gpu1 | zhoblimp_singular_PN_but_plural_pron: 0.087</title></rect>
<text x="3983.5" y="466" transform="rotate(62 3983.5 466)" class="label">zhoblimp_singular_PN_but_plural_p...</text>
<rect x="4066.3" y="117.4" width="14.6" height="332.6" fill="#2f6f9f"><title>10k_chinese_gpu1 | zhoblimp_question_daodi_nandao_1: 0.880</title></rect>
<rect x="4082.8" y="167.8" width="14.6" height="282.2" fill="#c44e52"><title>10k_chinese_whitespace_false_gpu1 | zhoblimp_question_daodi_nandao_1: 0.747</title></rect>
<rect x="4099.4" y="102.2" width="14.6" height="347.8" fill="#55a868"><title>10k_gpu1 | zhoblimp_question_daodi_nandao_1: 0.920</title></rect>
<rect x="4115.9" y="170.3" width="14.6" height="279.7" fill="#8172b3"><title>10k_hanzi_gpu1 | zhoblimp_question_daodi_nandao_1: 0.740</title></rect>
<rect x="4132.5" y="72.0" width="14.6" height="378.0" fill="#ccb974"><title>10k_initials_gpu1 | zhoblimp_question_daodi_nandao_1: 1.000</title></rect>
<rect x="4149.1" y="272.3" width="14.6" height="177.7" fill="#64b5cd"><title>10k_whitespace_false_gpu1 | zhoblimp_question_daodi_nandao_1: 0.470</title></rect>
<text x="4115.9" y="466" transform="rotate(62 4115.9 466)" class="label">zhoblimp_question_daodi_nandao_1</text>
<rect x="4198.7" y="123.7" width="14.6" height="326.3" fill="#2f6f9f"><title>10k_chinese_gpu1 | zhoblimp_relative_operator_who: 0.863</title></rect>
<rect x="4215.3" y="98.5" width="14.6" height="351.5" fill="#c44e52"><title>10k_chinese_whitespace_false_gpu1 | zhoblimp_relative_operator_who: 0.930</title></rect>
<rect x="4231.8" y="93.4" width="14.6" height="356.6" fill="#55a868"><title>10k_gpu1 | zhoblimp_relative_operator_who: 0.943</title></rect>
<rect x="4248.4" y="72.0" width="14.6" height="378.0" fill="#8172b3"><title>10k_hanzi_gpu1 | zhoblimp_relative_operator_who: 1.000</title></rect>
<rect x="4265.0" y="450.0" width="14.6" height="0.0" fill="#ccb974"><title>10k_initials_gpu1 | zhoblimp_relative_operator_who: 0.000</title></rect>
<rect x="4281.5" y="87.1" width="14.6" height="362.9" fill="#64b5cd"><title>10k_whitespace_false_gpu1 | zhoblimp_relative_operator_who: 0.960</title></rect>
<text x="4248.4" y="466" transform="rotate(62 4248.4 466)" class="label">zhoblimp_relative_operator_who</text>
<rect x="4331.2" y="72.0" width="14.6" height="378.0" fill="#2f6f9f"><title>10k_chinese_gpu1 | zhoblimp_question_nandao_raising_1_a: 1.000</title></rect>
<rect x="4347.7" y="97.2" width="14.6" height="352.8" fill="#c44e52"><title>10k_chinese_whitespace_false_gpu1 | zhoblimp_question_nandao_raising_1_a: 0.933</title></rect>
<rect x="4364.3" y="72.0" width="14.6" height="378.0" fill="#55a868"><title>10k_gpu1 | zhoblimp_question_nandao_raising_1_a: 1.000</title></rect>
<rect x="4380.9" y="450.0" width="14.6" height="0.0" fill="#8172b3"><title>10k_hanzi_gpu1 | zhoblimp_question_nandao_raising_1_a: 0.000</title></rect>
<rect x="4397.4" y="90.9" width="14.6" height="359.1" fill="#ccb974"><title>10k_initials_gpu1 | zhoblimp_question_nandao_raising_1_a: 0.950</title></rect>
<rect x="4414.0" y="153.9" width="14.6" height="296.1" fill="#64b5cd"><title>10k_whitespace_false_gpu1 | zhoblimp_question_nandao_raising_1_a: 0.783</title></rect>
<text x="4380.9" y="466" transform="rotate(62 4380.9 466)" class="label">zhoblimp_question_nandao_raising_...</text>
<rect x="4463.6" y="123.7" width="14.6" height="326.3" fill="#2f6f9f"><title>10k_chinese_gpu1 | zhoblimp_left_dou: 0.863</title></rect>
<rect x="4480.2" y="116.1" width="14.6" height="333.9" fill="#c44e52"><title>10k_chinese_whitespace_false_gpu1 | zhoblimp_left_dou: 0.883</title></rect>
<rect x="4496.8" y="88.4" width="14.6" height="361.6" fill="#55a868"><title>10k_gpu1 | zhoblimp_left_dou: 0.957</title></rect>
<rect x="4513.3" y="284.9" width="14.6" height="165.1" fill="#8172b3"><title>10k_hanzi_gpu1 | zhoblimp_left_dou: 0.437</title></rect>
<rect x="4529.9" y="257.2" width="14.6" height="192.8" fill="#ccb974"><title>10k_initials_gpu1 | zhoblimp_left_dou: 0.510</title></rect>
<rect x="4546.4" y="136.3" width="14.6" height="313.7" fill="#64b5cd"><title>10k_whitespace_false_gpu1 | zhoblimp_left_dou: 0.830</title></rect>
<text x="4513.3" y="466" transform="rotate(62 4513.3 466)" class="label">zhoblimp_left_dou</text>
<rect x="4596.1" y="213.1" width="14.6" height="236.9" fill="#2f6f9f"><title>10k_chinese_gpu1 | zhoblimp_question_V_not_VP_2: 0.627</title></rect>
<rect x="4612.7" y="83.3" width="14.6" height="366.7" fill="#c44e52"><title>10k_chinese_whitespace_false_gpu1 | zhoblimp_question_V_not_VP_2: 0.970</title></rect>
<rect x="4629.2" y="189.2" width="14.6" height="260.8" fill="#55a868"><title>10k_gpu1 | zhoblimp_question_V_not_VP_2: 0.690</title></rect>
<rect x="4645.8" y="218.2" width="14.6" height="231.8" fill="#8172b3"><title>10k_hanzi_gpu1 | zhoblimp_question_V_not_VP_2: 0.613</title></rect>
<rect x="4662.3" y="283.7" width="14.6" height="166.3" fill="#ccb974"><title>10k_initials_gpu1 | zhoblimp_question_V_not_VP_2: 0.440</title></rect>
<rect x="4678.9" y="88.4" width="14.6" height="361.6" fill="#64b5cd"><title>10k_whitespace_false_gpu1 | zhoblimp_question_V_not_VP_2: 0.957</title></rect>
<text x="4645.8" y="466" transform="rotate(62 4645.8 466)" class="label">zhoblimp_question_V_not_VP_2</text>
<rect x="76" y="580" width="14" height="14" fill="#2f6f9f"/>
<text x="96" y="592" class="legend">10k_chinese_gpu1</text>
<rect x="286" y="580" width="14" height="14" fill="#c44e52"/>
<text x="306" y="592" class="legend">10k_chinese_whitespace_false_gpu1</text>
<rect x="496" y="580" width="14" height="14" fill="#55a868"/>
<text x="516" y="592" class="legend">10k_gpu1</text>
<rect x="706" y="580" width="14" height="14" fill="#8172b3"/>
<text x="726" y="592" class="legend">10k_hanzi_gpu1</text>
<rect x="916" y="580" width="14" height="14" fill="#ccb974"/>
<text x="936" y="592" class="legend">10k_initials_gpu1</text>
<rect x="1126" y="580" width="14" height="14" fill="#64b5cd"/>
<text x="1146" y="592" class="legend">10k_whitespace_false_gpu1</text>
</svg>
