<svg xmlns="http://www.w3.org/2000/svg" width="1550" height="620" viewBox="0 0 1550 620">
<style>text{font-family:Arial,sans-serif;fill:#1f2933}.axis{stroke:#9aa5b1;stroke-width:1}.grid{stroke:#e4e7eb;stroke-width:1}.label{font-size:12px}.title{font-size:22px;font-weight:700}.legend{font-size:13px}</style>
<rect width="1550" height="620" fill="#ffffff"/>
<text x="76" y="34" class="title">acc by zhoblimp subtask (4/4)</text>
<line x1="76" y1="450.0" x2="1522" y2="450.0" class="grid"/>
<text x="66" y="454.0" text-anchor="end" class="label">0.0</text>
<line x1="76" y1="374.4" x2="1522" y2="374.4" class="grid"/>
<text x="66" y="378.4" text-anchor="end" class="label">0.2</text>
<line x1="76" y1="298.8" x2="1522" y2="298.8" class="grid"/>
<text x="66" y="302.8" text-anchor="end" class="label">0.4</text>
<line x1="76" y1="223.2" x2="1522" y2="223.2" class="grid"/>
<text x="66" y="227.2" text-anchor="end" class="label">0.6</text>
<line x1="76" y1="147.6" x2="1522" y2="147.6" class="grid"/>
<text x="66" y="151.6" text-anchor="end" class="label">0.8</text>
<line x1="76" y1="72.0" x2="1522" y2="72.0" class="grid"/>
<text x="66" y="76.0" text-anchor="end" class="label">1.0</text>
<line x1="76" y1="72" x2="76" y2="450" class="axis"/>
<line x1="76" y1="450" x2="1522" y2="450" class="axis"/>
<rect x="89.9" y="447.5" width="14.7" height="2.5" fill="#2f6f9f"><title>10k_chinese_gpu1 | zhoblimp_superlative_quantifiers_2: 0.007</title></rect>
<rect x="106.6" y="450.0" width="14.7" height="0.0" fill="#c44e52"><title>10k_gpu1 | zhoblimp_superlative_quantifiers_2: 0.000</title></rect>
<rect x="123.3" y="450.0" width="14.7" height="0.0" fill="#55a868"><title>10k_hanzi_gpu1 | zhoblimp_superlative_quantifiers_2: 0.000</title></rect>
<rect x="140.0" y="450.0" width="14.7" height="0.0" fill="#8172b3"><title>10k_initials_gpu1 | zhoblimp_superlative_quantifiers_2: 0.000</title></rect>
<rect x="156.6" y="408.4" width="14.7" height="41.6" fill="#ccb974"><title>10k_whitespace_false_gpu1 | zhoblimp_superlative_quantifiers_2: 0.110</title></rect>
<text x="131.6" y="466" transform="rotate(62 131.6 466)" class="label">zhoblimp_superlative_quantifiers_2</text>
<rect x="201.1" y="450.0" width="14.7" height="0.0" fill="#2f6f9f"><title>10k_chinese_gpu1 | zhoblimp_passive_suo: 0.000</title></rect>
<rect x="217.8" y="450.0" width="14.7" height="0.0" fill="#c44e52"><title>10k_gpu1 | zhoblimp_passive_suo: 0.000</title></rect>
<rect x="234.5" y="436.1" width="14.7" height="13.9" fill="#55a868"><title>10k_hanzi_gpu1 | zhoblimp_passive_suo: 0.037</title></rect>
<rect x="251.2" y="436.1" width="14.7" height="13.9" fill="#8172b3"><title>10k_initials_gpu1 | zhoblimp_passive_suo: 0.037</title></rect>
<rect x="267.9" y="450.0" width="14.7" height="0.0" fill="#ccb974"><title>10k_whitespace_false_gpu1 | zhoblimp_passive_suo: 0.000</title></rect>
<text x="242.8" y="466" transform="rotate(62 242.8 466)" class="label">zhoblimp_passive_suo</text>
<rect x="312.4" y="443.7" width="14.7" height="6.3" fill="#2f6f9f"><title>10k_chinese_gpu1 | zhoblimp_preposition_deletion: 0.017</title></rect>
<rect x="329.1" y="443.7" width="14.7" height="6.3" fill="#c44e52"><title>10k_gpu1 | zhoblimp_preposition_deletion: 0.017</title></rect>
<rect x="345.7" y="450.0" width="14.7" height="0.0" fill="#55a868"><title>10k_hanzi_gpu1 | zhoblimp_preposition_deletion: 0.000</title></rect>
<rect x="362.4" y="450.0" width="14.7" height="0.0" fill="#8172b3"><title>10k_initials_gpu1 | zhoblimp_preposition_deletion: 0.000</title></rect>
<rect x="379.1" y="439.9" width="14.7" height="10.1" fill="#ccb974"><title>10k_whitespace_false_gpu1 | zhoblimp_preposition_deletion: 0.027</title></rect>
<text x="354.1" y="466" transform="rotate(62 354.1 466)" class="label">zhoblimp_preposition_deletion</text>
<rect x="423.6" y="441.2" width="14.7" height="8.8" fill="#2f6f9f"><title>10k_chinese_gpu1 | zhoblimp_BA_deletion: 0.023</title></rect>
<rect x="440.3" y="445.0" width="14.7" height="5.0" fill="#c44e52"><title>10k_gpu1 | zhoblimp_BA_deletion: 0.013</title></rect>
<rect x="457.0" y="450.0" width="14.7" height="0.0" fill="#55a868"><title>10k_hanzi_gpu1 | zhoblimp_BA_deletion: 0.000</title></rect>
<rect x="473.6" y="448.7" width="14.7" height="1.3" fill="#8172b3"><title>10k_initials_gpu1 | zhoblimp_BA_deletion: 0.003</title></rect>
<rect x="490.3" y="446.2" width="14.7" height="3.8" fill="#ccb974"><title>10k_whitespace_false_gpu1 | zhoblimp_BA_deletion: 0.010</title></rect>
<text x="465.3" y="466" transform="rotate(62 465.3 466)" class="label">zhoblimp_BA_deletion</text>
<rect x="534.8" y="450.0" width="14.7" height="0.0" fill="#2f6f9f"><title>10k_chinese_gpu1 | zhoblimp_passive_agent_deletion_long_right_b: 0.000</title></rect>
<rect x="551.5" y="450.0" width="14.7" height="0.0" fill="#c44e52"><title>10k_gpu1 | zhoblimp_passive_agent_deletion_long_right_b: 0.000</title></rect>
<rect x="568.2" y="442.4" width="14.7" height="7.6" fill="#55a868"><title>10k_hanzi_gpu1 | zhoblimp_passive_agent_deletion_long_right_b: 0.020</title></rect>
<rect x="584.9" y="442.4" width="14.7" height="7.6" fill="#8172b3"><title>10k_initials_gpu1 | zhoblimp_passive_agent_deletion_long_right_b: 0.020</title></rect>
<rect x="601.6" y="450.0" width="14.7" height="0.0" fill="#ccb974"><title>10k_whitespace_false_gpu1 | zhoblimp_passive_agent_deletion_long_right_b: 0.000</title></rect>
<text x="576.5" y="466" transform="rotate(62 576.5 466)" class="label">zhoblimp_passive_agent_deletion_l...</text>
<rect x="646.1" y="443.7" width="14.7" height="6.3" fill="#2f6f9f"><title>10k_chinese_gpu1 | zhoblimp_noun_adjective_shi: 0.017</title></rect>
<rect x="662.7" y="450.0" width="14.7" height="0.0" fill="#c44e52"><title>10k_gpu1 | zhoblimp_noun_adjective_shi: 0.000</title></rect>
<rect x="679.4" y="450.0" width="14.7" height="0.0" fill="#55a868"><title>10k_hanzi_gpu1 | zhoblimp_noun_adjective_shi: 0.000</title></rect>
<rect x="696.1" y="450.0" width="14.7" height="0.0" fill="#8172b3"><title>10k_initials_gpu1 | zhoblimp_noun_adjective_shi: 0.000</title></rect>
<rect x="712.8" y="445.0" width="14.7" height="5.0" fill="#ccb974"><title>10k_whitespace_false_gpu1 | zhoblimp_noun_adjective_shi: 0.013</title></rect>
<text x="687.8" y="466" transform="rotate(62 687.8 466)" class="label">zhoblimp_noun_adjective_shi</text>
<rect x="757.3" y="448.7" width="14.7" height="1.3" fill="#2f6f9f"><title>10k_chinese_gpu1 | zhoblimp_npi_renhe_A_not_A_question: 0.003</title></rect>
<rect x="774.0" y="447.5" width="14.7" height="2.5" fill="#c44e52"><title>10k_gpu1 | zhoblimp_npi_renhe_A_not_A_question: 0.007</title></rect>
<rect x="790.7" y="450.0" width="14.7" height="0.0" fill="#55a868"><title>10k_hanzi_gpu1 | zhoblimp_npi_renhe_A_not_A_question: 0.000</title></rect>
<rect x="807.3" y="450.0" width="14.7" height="0.0" fill="#8172b3"><title>10k_initials_gpu1 | zhoblimp_npi_renhe_A_not_A_question: 0.000</title></rect>
<rect x="824.0" y="443.7" width="14.7" height="6.3" fill="#ccb974"><title>10k_whitespace_false_gpu1 | zhoblimp_npi_renhe_A_not_A_question: 0.017</title></rect>
<text x="799.0" y="466" transform="rotate(62 799.0 466)" class="label">zhoblimp_npi_renhe_A_not_A_questi...</text>
<rect x="868.5" y="450.0" width="14.7" height="0.0" fill="#2f6f9f"><title>10k_chinese_gpu1 | zhoblimp_fci_renhe_dou: 0.000</title></rect>
<rect x="885.2" y="446.2" width="14.7" height="3.8" fill="#c44e52"><title>10k_gpu1 | zhoblimp_fci_renhe_dou: 0.010</title></rect>
<rect x="901.9" y="450.0" width="14.7" height="0.0" fill="#55a868"><title>10k_hanzi_gpu1 | zhoblimp_fci_renhe_dou: 0.000</title></rect>
<rect x="918.6" y="450.0" width="14.7" height="0.0" fill="#8172b3"><title>10k_initials_gpu1 | zhoblimp_fci_renhe_dou: 0.000</title></rect>
<rect x="935.3" y="448.7" width="14.7" height="1.3" fill="#ccb974"><title>10k_whitespace_false_gpu1 | zhoblimp_fci_renhe_dou: 0.003</title></rect>
<text x="910.2" y="466" transform="rotate(62 910.2 466)" class="label">zhoblimp_fci_renhe_dou</text>
<rect x="979.8" y="448.7" width="14.7" height="1.3" fill="#2f6f9f"><title>10k_chinese_gpu1 | zhoblimp_passive_agent_deletion_short: 0.003</title></rect>
<rect x="996.4" y="450.0" width="14.7" height="0.0" fill="#c44e52"><title>10k_gpu1 | zhoblimp_passive_agent_deletion_short: 0.000</title></rect>
<rect x="1013.1" y="450.0" width="14.7" height="0.0" fill="#55a868"><title>10k_hanzi_gpu1 | zhoblimp_passive_agent_deletion_short: 0.000</title></rect>
<rect x="1029.8" y="450.0" width="14.7" height="0.0" fill="#8172b3"><title>10k_initials_gpu1 | zhoblimp_passive_agent_deletion_short: 0.000</title></rect>
<rect x="1046.5" y="450.0" width="14.7" height="0.0" fill="#ccb974"><title>10k_whitespace_false_gpu1 | zhoblimp_passive_agent_deletion_short: 0.000</title></rect>
<text x="1021.5" y="466" transform="rotate(62 1021.5 466)" class="label">zhoblimp_passive_agent_deletion_s...</text>
<rect x="1091.0" y="450.0" width="14.7" height="0.0" fill="#2f6f9f"><title>10k_chinese_gpu1 | zhoblimp_BA_verb_le_b: 0.000</title></rect>
<rect x="1107.7" y="450.0" width="14.7" height="0.0" fill="#c44e52"><title>10k_gpu1 | zhoblimp_BA_verb_le_b: 0.000</title></rect>
<rect x="1124.3" y="450.0" width="14.7" height="0.0" fill="#55a868"><title>10k_hanzi_gpu1 | zhoblimp_BA_verb_le_b: 0.000</title></rect>
<rect x="1141.0" y="450.0" width="14.7" height="0.0" fill="#8172b3"><title>10k_initials_gpu1 | zhoblimp_BA_verb_le_b: 0.000</title></rect>
<rect x="1157.7" y="450.0" width="14.7" height="0.0" fill="#ccb974"><title>10k_whitespace_false_gpu1 | zhoblimp_BA_verb_le_b: 0.000</title></rect>
<text x="1132.7" y="466" transform="rotate(62 1132.7 466)" class="label">zhoblimp_BA_verb_le_b</text>
<rect x="1202.2" y="450.0" width="14.7" height="0.0" fill="#2f6f9f"><title>10k_chinese_gpu1 | zhoblimp_passive_agent_deletion_long_right_a: 0.000</title></rect>
<rect x="1218.9" y="450.0" width="14.7" height="0.0" fill="#c44e52"><title>10k_gpu1 | zhoblimp_passive_agent_deletion_long_right_a: 0.000</title></rect>
<rect x="1235.6" y="450.0" width="14.7" height="0.0" fill="#55a868"><title>10k_hanzi_gpu1 | zhoblimp_passive_agent_deletion_long_right_a: 0.000</title></rect>
<rect x="1252.3" y="450.0" width="14.7" height="0.0" fill="#8172b3"><title>10k_initials_gpu1 | zhoblimp_passive_agent_deletion_long_right_a: 0.000</title></rect>
<rect x="1268.9" y="450.0" width="14.7" height="0.0" fill="#ccb974"><title>10k_whitespace_false_gpu1 | zhoblimp_passive_agent_deletion_long_right_a: 0.000</title></rect>
<text x="1243.9" y="466" transform="rotate(62 1243.9 466)" class="label">zhoblimp_passive_agent_deletion_l...</text>
<rect x="1313.4" y="450.0" width="14.7" height="0.0" fill="#2f6f9f"><title>10k_chinese_gpu1 | zhoblimp_relative_operator_intepretation: 0.000</title></rect>
<rect x="1330.1" y="450.0" width="14.7" height="0.0" fill="#c44e52"><title>10k_gpu1 | zhoblimp_relative_operator_intepretation: 0.000</title></rect>
<rect x="1346.8" y="450.0" width="14.7" height="0.0" fill="#55a868"><title>10k_hanzi_gpu1 | zhoblimp_relative_operator_intepretation: 0.000</title></rect>
<rect x="1363.5" y="450.0" width="14.7" height="0.0" fill="#8172b3"><title>10k_initials_gpu1 | zhoblimp_relative_operator_intepretation: 0.000</title></rect>
<rect x="1380.2" y="450.0" width="14.7" height="0.0" fill="#ccb974"><title>10k_whitespace_false_gpu1 | zhoblimp_relative_operator_intepretation: 0.000</title></rect>
<text x="1355.2" y="466" transform="rotate(62 1355.2 466)" class="label">zhoblimp_relative_operator_intepr...</text>
<rect x="1424.7" y="450.0" width="14.7" height="0.0" fill="#2f6f9f"><title>10k_chinese_gpu1 | zhoblimp_passive_agent_deletion_long_left: 0.000</title></rect>
<rect x="1441.4" y="450.0" width="14.7" height="0.0" fill="#c44e52"><title>10k_gpu1 | zhoblimp_passive_agent_deletion_long_left: 0.000</title></rect>
<rect x="1458.0" y="450.0" width="14.7" height="0.0" fill="#55a868"><title>10k_hanzi_gpu1 | zhoblimp_passive_agent_deletion_long_left: 0.000</title></rect>
<rect x="1474.7" y="450.0" width="14.7" height="0.0" fill="#8172b3"><title>10k_initials_gpu1 | zhoblimp_passive_agent_deletion_long_left: 0.000</title></rect>
<rect x="1491.4" y="450.0" width="14.7" height="0.0" fill="#ccb974"><title>10k_whitespace_false_gpu1 | zhoblimp_passive_agent_deletion_long_left: 0.000</title></rect>
<text x="1466.4" y="466" transform="rotate(62 1466.4 466)" class="label">zhoblimp_passive_agent_deletion_l...</text>
<rect x="76" y="580" width="14" height="14" fill="#2f6f9f"/>
<text x="96" y="592" class="legend">10k_chinese_gpu1</text>
<rect x="286" y="580" width="14" height="14" fill="#c44e52"/>
<text x="306" y="592" class="legend">10k_gpu1</text>
<rect x="496" y="580" width="14" height="14" fill="#55a868"/>
<text x="516" y="592" class="legend">10k_hanzi_gpu1</text>
<rect x="706" y="580" width="14" height="14" fill="#8172b3"/>
<text x="726" y="592" class="legend">10k_initials_gpu1</text>
<rect x="916" y="580" width="14" height="14" fill="#ccb974"/>
<text x="936" y="592" class="legend">10k_whitespace_false_gpu1</text>
</svg>
