<svg xmlns="http://www.w3.org/2000/svg" width="2430" height="620" viewBox="0 0 2430 620">
<style>text{font-family:Arial,sans-serif;fill:#1f2933}.axis{stroke:#9aa5b1;stroke-width:1}.grid{stroke:#e4e7eb;stroke-width:1}.label{font-size:12px}.title{font-size:22px;font-weight:700}.legend{font-size:13px}</style>
<rect width="2430" height="620" fill="#ffffff"/>
<text x="76" y="34" class="title">acc by zhoblimp subtask (3/4)</text>
<line x1="76" y1="450.0" x2="2402" y2="450.0" class="grid"/>
<text x="66" y="454.0" text-anchor="end" class="label">0.0</text>
<line x1="76" y1="374.4" x2="2402" y2="374.4" class="grid"/>
<text x="66" y="378.4" text-anchor="end" class="label">0.2</text>
<line x1="76" y1="298.8" x2="2402" y2="298.8" class="grid"/>
<text x="66" y="302.8" text-anchor="end" class="label">0.4</text>
<line x1="76" y1="223.2" x2="2402" y2="223.2" class="grid"/>
<text x="66" y="227.2" text-anchor="end" class="label">0.6</text>
<line x1="76" y1="147.6" x2="2402" y2="147.6" class="grid"/>
<text x="66" y="151.6" text-anchor="end" class="label">0.8</text>
<line x1="76" y1="72.0" x2="2402" y2="72.0" class="grid"/>
<text x="66" y="76.0" text-anchor="end" class="label">1.0</text>
<line x1="76" y1="72" x2="76" y2="450" class="axis"/>
<line x1="76" y1="450" x2="2402" y2="450" class="axis"/>
<rect x="84.3" y="301.3" width="14.6" height="148.7" fill="#2f6f9f"><title>10k_gpu1 | zhoblimp_intransitive_double_obj: 0.393</title></rect>
<rect x="100.9" y="167.8" width="14.6" height="282.2" fill="#c44e52"><title>10k_hanzi_gpu1 | zhoblimp_intransitive_double_obj: 0.747</title></rect>
<rect x="117.5" y="320.2" width="14.6" height="129.8" fill="#55a868"><title>10k_initials_gpu1 | zhoblimp_intransitive_double_obj: 0.343</title></rect>
<text x="109.2" y="466" transform="rotate(62 109.2 466)" class="label">zhoblimp_intransitive_double_obj</text>
<rect x="150.8" y="450.0" width="14.6" height="0.0" fill="#2f6f9f"><title>10k_gpu1 | zhoblimp_npi_renhe_conditional: 0.000</title></rect>
<rect x="167.4" y="72.0" width="14.6" height="378.0" fill="#c44e52"><title>10k_hanzi_gpu1 | zhoblimp_npi_renhe_conditional: 1.000</title></rect>
<rect x="184.0" y="278.6" width="14.6" height="171.4" fill="#55a868"><title>10k_initials_gpu1 | zhoblimp_npi_renhe_conditional: 0.453</title></rect>
<text x="175.7" y="466" transform="rotate(62 175.7 466)" class="label">zhoblimp_npi_renhe_conditional</text>
<rect x="217.2" y="123.7" width="14.6" height="326.3" fill="#2f6f9f"><title>10k_gpu1 | zhoblimp_ya_insertion: 0.863</title></rect>
<rect x="233.8" y="295.0" width="14.6" height="155.0" fill="#c44e52"><title>10k_hanzi_gpu1 | zhoblimp_ya_insertion: 0.410</title></rect>
<rect x="250.4" y="389.5" width="14.6" height="60.5" fill="#55a868"><title>10k_initials_gpu1 | zhoblimp_ya_insertion: 0.160</title></rect>
<text x="242.1" y="466" transform="rotate(62 242.1 466)" class="label">zhoblimp_ya_insertion</text>
<rect x="283.7" y="247.1" width="14.6" height="202.9" fill="#2f6f9f"><title>10k_gpu1 | zhoblimp_BA_inversion: 0.537</title></rect>
<rect x="300.3" y="281.2" width="14.6" height="168.8" fill="#c44e52"><title>10k_hanzi_gpu1 | zhoblimp_BA_inversion: 0.447</title></rect>
<rect x="316.9" y="282.4" width="14.6" height="167.6" fill="#55a868"><title>10k_initials_gpu1 | zhoblimp_BA_inversion: 0.443</title></rect>
<text x="308.6" y="466" transform="rotate(62 308.6 466)" class="label">zhoblimp_BA_inversion</text>
<rect x="350.1" y="261.0" width="14.6" height="189.0" fill="#2f6f9f"><title>10k_gpu1 | zhoblimp_agent_animacy_subj: 0.500</title></rect>
<rect x="366.7" y="256.0" width="14.6" height="194.0" fill="#c44e52"><title>10k_hanzi_gpu1 | zhoblimp_agent_animacy_subj: 0.513</title></rect>
<rect x="383.4" y="302.6" width="14.6" height="147.4" fill="#55a868"><title>10k_initials_gpu1 | zhoblimp_agent_animacy_subj: 0.390</title></rect>
<text x="375.1" y="466" transform="rotate(62 375.1 466)" class="label">zhoblimp_agent_animacy_subj</text>
<rect x="416.6" y="303.8" width="14.6" height="146.2" fill="#2f6f9f"><title>10k_gpu1 | zhoblimp_npi_renhe_neg_scope_subj: 0.387</title></rect>
<rect x="433.2" y="73.3" width="14.6" height="376.7" fill="#c44e52"><title>10k_hanzi_gpu1 | zhoblimp_npi_renhe_neg_scope_subj: 0.997</title></rect>
<rect x="449.8" y="450.0" width="14.6" height="0.0" fill="#55a868"><title>10k_initials_gpu1 | zhoblimp_npi_renhe_neg_scope_subj: 0.000</title></rect>
<text x="441.5" y="466" transform="rotate(62 441.5 466)" class="label">zhoblimp_npi_renhe_neg_scope_subj</text>
<rect x="483.0" y="363.1" width="14.6" height="86.9" fill="#2f6f9f"><title>10k_gpu1 | zhoblimp_right_yijing_b: 0.230</title></rect>
<rect x="499.7" y="230.8" width="14.6" height="219.2" fill="#c44e52"><title>10k_hanzi_gpu1 | zhoblimp_right_yijing_b: 0.580</title></rect>
<rect x="516.3" y="256.0" width="14.6" height="194.0" fill="#55a868"><title>10k_initials_gpu1 | zhoblimp_right_yijing_b: 0.513</title></rect>
<text x="508.0" y="466" transform="rotate(62 508.0 466)" class="label">zhoblimp_right_yijing_b</text>
<rect x="549.5" y="253.4" width="14.6" height="196.6" fill="#2f6f9f"><title>10k_gpu1 | zhoblimp_passive_intransitive: 0.520</title></rect>
<rect x="566.1" y="302.6" width="14.6" height="147.4" fill="#c44e52"><title>10k_hanzi_gpu1 | zhoblimp_passive_intransitive: 0.390</title></rect>
<rect x="582.7" y="305.1" width="14.6" height="144.9" fill="#55a868"><title>10k_initials_gpu1 | zhoblimp_passive_intransitive: 0.383</title></rect>
<text x="574.4" y="466" transform="rotate(62 574.4 466)" class="label">zhoblimp_passive_intransitive</text>
<rect x="616.0" y="295.0" width="14.6" height="155.0" fill="#2f6f9f"><title>10k_gpu1 | zhoblimp_renhe_no_episodic_sentences: 0.410</title></rect>
<rect x="632.6" y="450.0" width="14.6" height="0.0" fill="#c44e52"><title>10k_hanzi_gpu1 | zhoblimp_renhe_no_episodic_sentences: 0.000</title></rect>
<rect x="649.2" y="119.9" width="14.6" height="330.1" fill="#55a868"><title>10k_initials_gpu1 | zhoblimp_renhe_no_episodic_sentences: 0.873</title></rect>
<text x="640.9" y="466" transform="rotate(62 640.9 466)" class="label">zhoblimp_renhe_no_episodic_senten...</text>
<rect x="682.4" y="347.9" width="14.6" height="102.1" fill="#2f6f9f"><title>10k_gpu1 | zhoblimp_question_A_not_A_daodi_b: 0.270</title></rect>
<rect x="699.0" y="232.0" width="14.6" height="218.0" fill="#c44e52"><title>10k_hanzi_gpu1 | zhoblimp_question_A_not_A_daodi_b: 0.577</title></rect>
<rect x="715.6" y="284.9" width="14.6" height="165.1" fill="#55a868"><title>10k_initials_gpu1 | zhoblimp_question_A_not_A_daodi_b: 0.437</title></rect>
<text x="707.3" y="466" transform="rotate(62 707.3 466)" class="label">zhoblimp_question_A_not_A_daodi_b</text>
<rect x="748.9" y="182.9" width="14.6" height="267.1" fill="#2f6f9f"><title>10k_gpu1 | zhoblimp_modal_raising_topicalization: 0.707</title></rect>
<rect x="765.5" y="300.1" width="14.6" height="149.9" fill="#c44e52"><title>10k_hanzi_gpu1 | zhoblimp_modal_raising_topicalization: 0.397</title></rect>
<rect x="782.1" y="398.3" width="14.6" height="51.7" fill="#55a868"><title>10k_initials_gpu1 | zhoblimp_modal_raising_topicalization: 0.137</title></rect>
<text x="773.8" y="466" transform="rotate(62 773.8 466)" class="label">zhoblimp_modal_raising_topicaliza...</text>
<rect x="815.3" y="194.2" width="14.6" height="255.8" fill="#2f6f9f"><title>10k_gpu1 | zhoblimp_question_V_not_VP_1: 0.677</title></rect>
<rect x="832.0" y="240.8" width="14.6" height="209.2" fill="#c44e52"><title>10k_hanzi_gpu1 | zhoblimp_question_V_not_VP_1: 0.553</title></rect>
<rect x="848.6" y="450.0" width="14.6" height="0.0" fill="#55a868"><title>10k_initials_gpu1 | zhoblimp_question_V_not_VP_1: 0.000</title></rect>
<text x="840.3" y="466" transform="rotate(62 840.3 466)" class="label">zhoblimp_question_V_not_VP_1</text>
<rect x="881.8" y="312.7" width="14.6" height="137.3" fill="#2f6f9f"><title>10k_gpu1 | zhoblimp_verb_negation_particle: 0.363</title></rect>
<rect x="898.4" y="450.0" width="14.6" height="0.0" fill="#c44e52"><title>10k_hanzi_gpu1 | zhoblimp_verb_negation_particle: 0.000</title></rect>
<rect x="915.0" y="123.7" width="14.6" height="326.3" fill="#55a868"><title>10k_initials_gpu1 | zhoblimp_verb_negation_particle: 0.863</title></rect>
<text x="906.7" y="466" transform="rotate(62 906.7 466)" class="label">zhoblimp_verb_negation_particle</text>
<rect x="948.2" y="413.5" width="14.6" height="36.5" fill="#2f6f9f"><title>10k_gpu1 | zhoblimp_right_yijing_a: 0.097</title></rect>
<rect x="964.9" y="73.3" width="14.6" height="376.7" fill="#c44e52"><title>10k_hanzi_gpu1 | zhoblimp_right_yijing_a: 0.997</title></rect>
<rect x="981.5" y="417.2" width="14.6" height="32.8" fill="#55a868"><title>10k_initials_gpu1 | zhoblimp_right_yijing_a: 0.087</title></rect>
<text x="973.2" y="466" transform="rotate(62 973.2 466)" class="label">zhoblimp_right_yijing_a</text>
<rect x="1014.7" y="413.5" width="14.6" height="36.5" fill="#2f6f9f"><title>10k_gpu1 | zhoblimp_topicalization_OSV: 0.097</title></rect>
<rect x="1031.3" y="337.9" width="14.6" height="112.1" fill="#c44e52"><title>10k_hanzi_gpu1 | zhoblimp_topicalization_OSV: 0.297</title></rect>
<rect x="1047.9" y="155.2" width="14.6" height="294.8" fill="#55a868"><title>10k_initials_gpu1 | zhoblimp_topicalization_OSV: 0.780</title></rect>
<text x="1039.6" y="466" transform="rotate(62 1039.6 466)" class="label">zhoblimp_topicalization_OSV</text>
<rect x="1081.2" y="375.7" width="14.6" height="74.3" fill="#2f6f9f"><title>10k_gpu1 | zhoblimp_question_A_not_A_daodi_a: 0.197</title></rect>
<rect x="1097.8" y="245.9" width="14.6" height="204.1" fill="#c44e52"><title>10k_hanzi_gpu1 | zhoblimp_question_A_not_A_daodi_a: 0.540</title></rect>
<rect x="1114.4" y="288.7" width="14.6" height="161.3" fill="#55a868"><title>10k_initials_gpu1 | zhoblimp_question_A_not_A_daodi_a: 0.427</title></rect>
<text x="1106.1" y="466" transform="rotate(62 1106.1 466)" class="label">zhoblimp_question_A_not_A_daodi_a</text>
<rect x="1147.6" y="72.0" width="14.6" height="378.0" fill="#2f6f9f"><title>10k_gpu1 | zhoblimp_question_nandao_raising_2: 1.000</title></rect>
<rect x="1164.2" y="402.1" width="14.6" height="47.9" fill="#c44e52"><title>10k_hanzi_gpu1 | zhoblimp_question_nandao_raising_2: 0.127</title></rect>
<rect x="1180.9" y="450.0" width="14.6" height="0.0" fill="#55a868"><title>10k_initials_gpu1 | zhoblimp_question_nandao_raising_2: 0.000</title></rect>
<text x="1172.5" y="466" transform="rotate(62 1172.5 466)" class="label">zhoblimp_question_nandao_raising_2</text>
<rect x="1214.1" y="152.6" width="14.6" height="297.4" fill="#2f6f9f"><title>10k_gpu1 | zhoblimp_agent_animacy_adv: 0.787</title></rect>
<rect x="1230.7" y="441.2" width="14.6" height="8.8" fill="#c44e52"><title>10k_hanzi_gpu1 | zhoblimp_agent_animacy_adv: 0.023</title></rect>
<rect x="1247.3" y="368.1" width="14.6" height="81.9" fill="#55a868"><title>10k_initials_gpu1 | zhoblimp_agent_animacy_adv: 0.217</title></rect>
<text x="1239.0" y="466" transform="rotate(62 1239.0 466)" class="label">zhoblimp_agent_animacy_adv</text>
<rect x="1280.5" y="72.0" width="14.6" height="378.0" fill="#2f6f9f"><title>10k_gpu1 | zhoblimp_fci_renhe_prepP: 1.000</title></rect>
<rect x="1297.1" y="450.0" width="14.6" height="0.0" fill="#c44e52"><title>10k_hanzi_gpu1 | zhoblimp_fci_renhe_prepP: 0.000</title></rect>
<rect x="1313.8" y="450.0" width="14.6" height="0.0" fill="#55a868"><title>10k_initials_gpu1 | zhoblimp_fci_renhe_prepP: 0.000</title></rect>
<text x="1305.5" y="466" transform="rotate(62 1305.5 466)" class="label">zhoblimp_fci_renhe_prepP</text>
<rect x="1347.0" y="239.6" width="14.6" height="210.4" fill="#2f6f9f"><title>10k_gpu1 | zhoblimp_question_daodi_nandao_A_not_A_intran: 0.557</title></rect>
<rect x="1363.6" y="291.2" width="14.6" height="158.8" fill="#c44e52"><title>10k_hanzi_gpu1 | zhoblimp_question_daodi_nandao_A_not_A_intran: 0.420</title></rect>
<rect x="1380.2" y="446.2" width="14.6" height="3.8" fill="#55a868"><title>10k_initials_gpu1 | zhoblimp_question_daodi_nandao_A_not_A_intran: 0.010</title></rect>
<text x="1371.9" y="466" transform="rotate(62 1371.9 466)" class="label">zhoblimp_question_daodi_nandao_A_...</text>
<rect x="1413.5" y="218.2" width="14.6" height="231.8" fill="#2f6f9f"><title>10k_gpu1 | zhoblimp_question_nandao_scope_1: 0.613</title></rect>
<rect x="1430.1" y="379.4" width="14.6" height="70.6" fill="#c44e52"><title>10k_hanzi_gpu1 | zhoblimp_question_nandao_scope_1: 0.187</title></rect>
<rect x="1446.7" y="379.4" width="14.6" height="70.6" fill="#55a868"><title>10k_initials_gpu1 | zhoblimp_question_nandao_scope_1: 0.187</title></rect>
<text x="1438.4" y="466" transform="rotate(62 1438.4 466)" class="label">zhoblimp_question_nandao_scope_1</text>
<rect x="1479.9" y="94.7" width="14.6" height="355.3" fill="#2f6f9f"><title>10k_gpu1 | zhoblimp_fci_renhe_subj: 0.940</title></rect>
<rect x="1496.5" y="450.0" width="14.6" height="0.0" fill="#c44e52"><title>10k_hanzi_gpu1 | zhoblimp_fci_renhe_subj: 0.000</title></rect>
<rect x="1513.1" y="450.0" width="14.6" height="0.0" fill="#55a868"><title>10k_initials_gpu1 | zhoblimp_fci_renhe_subj: 0.000</title></rect>
<text x="1504.8" y="466" transform="rotate(62 1504.8 466)" class="label">zhoblimp_fci_renhe_subj</text>
<rect x="1546.4" y="393.3" width="14.6" height="56.7" fill="#2f6f9f"><title>10k_gpu1 | zhoblimp_question_nandao_scope_2: 0.150</title></rect>
<rect x="1563.0" y="234.5" width="14.6" height="215.5" fill="#c44e52"><title>10k_hanzi_gpu1 | zhoblimp_question_nandao_scope_2: 0.570</title></rect>
<rect x="1579.6" y="378.2" width="14.6" height="71.8" fill="#55a868"><title>10k_initials_gpu1 | zhoblimp_question_nandao_scope_2: 0.190</title></rect>
<text x="1571.3" y="466" transform="rotate(62 1571.3 466)" class="label">zhoblimp_question_nandao_scope_2</text>
<rect x="1612.8" y="228.2" width="14.6" height="221.8" fill="#2f6f9f"><title>10k_gpu1 | zhoblimp_question_daodi_nandao_2: 0.587</title></rect>
<rect x="1629.4" y="327.8" width="14.6" height="122.2" fill="#c44e52"><title>10k_hanzi_gpu1 | zhoblimp_question_daodi_nandao_2: 0.323</title></rect>
<rect x="1646.1" y="450.0" width="14.6" height="0.0" fill="#55a868"><title>10k_initials_gpu1 | zhoblimp_question_daodi_nandao_2: 0.000</title></rect>
<text x="1637.7" y="466" transform="rotate(62 1637.7 466)" class="label">zhoblimp_question_daodi_nandao_2</text>
<rect x="1679.3" y="431.1" width="14.6" height="18.9" fill="#2f6f9f"><title>10k_gpu1 | zhoblimp_npi_renhe_neg_scope_locP: 0.050</title></rect>
<rect x="1695.9" y="317.7" width="14.6" height="132.3" fill="#c44e52"><title>10k_hanzi_gpu1 | zhoblimp_npi_renhe_neg_scope_locP: 0.350</title></rect>
<rect x="1712.5" y="262.3" width="14.6" height="187.7" fill="#55a868"><title>10k_initials_gpu1 | zhoblimp_npi_renhe_neg_scope_locP: 0.497</title></rect>
<text x="1704.2" y="466" transform="rotate(62 1704.2 466)" class="label">zhoblimp_npi_renhe_neg_scope_locP</text>
<rect x="1745.7" y="219.4" width="14.6" height="230.6" fill="#2f6f9f"><title>10k_gpu1 | zhoblimp_question_daodi_nandao_A_not_A_tran: 0.610</title></rect>
<rect x="1762.3" y="345.4" width="14.6" height="104.6" fill="#c44e52"><title>10k_hanzi_gpu1 | zhoblimp_question_daodi_nandao_A_not_A_tran: 0.277</title></rect>
<rect x="1779.0" y="450.0" width="14.6" height="0.0" fill="#55a868"><title>10k_initials_gpu1 | zhoblimp_question_daodi_nandao_A_not_A_tran: 0.000</title></rect>
<text x="1770.7" y="466" transform="rotate(62 1770.7 466)" class="label">zhoblimp_question_daodi_nandao_A_...</text>
<rect x="1812.2" y="431.1" width="14.6" height="18.9" fill="#2f6f9f"><title>10k_gpu1 | zhoblimp_BA_BEI_subj_drop: 0.050</title></rect>
<rect x="1828.8" y="208.1" width="14.6" height="241.9" fill="#c44e52"><title>10k_hanzi_gpu1 | zhoblimp_BA_BEI_subj_drop: 0.640</title></rect>
<rect x="1845.4" y="414.7" width="14.6" height="35.3" fill="#55a868"><title>10k_initials_gpu1 | zhoblimp_BA_BEI_subj_drop: 0.093</title></rect>
<text x="1837.1" y="466" transform="rotate(62 1837.1 466)" class="label">zhoblimp_BA_BEI_subj_drop</text>
<rect x="1878.7" y="390.8" width="14.6" height="59.2" fill="#2f6f9f"><title>10k_gpu1 | zhoblimp_classifier_noun_agreement_no_gap: 0.157</title></rect>
<rect x="1895.3" y="317.7" width="14.6" height="132.3" fill="#c44e52"><title>10k_hanzi_gpu1 | zhoblimp_classifier_noun_agreement_no_gap: 0.350</title></rect>
<rect x="1911.9" y="349.2" width="14.6" height="100.8" fill="#55a868"><title>10k_initials_gpu1 | zhoblimp_classifier_noun_agreement_no_gap: 0.267</title></rect>
<text x="1903.6" y="466" transform="rotate(62 1903.6 466)" class="label">zhoblimp_classifier_noun_agreemen...</text>
<rect x="1945.1" y="191.7" width="14.6" height="258.3" fill="#2f6f9f"><title>10k_gpu1 | zhoblimp_superlative_quantifiers_1: 0.683</title></rect>
<rect x="1961.7" y="450.0" width="14.6" height="0.0" fill="#c44e52"><title>10k_hanzi_gpu1 | zhoblimp_superlative_quantifiers_1: 0.000</title></rect>
<rect x="1978.3" y="450.0" width="14.6" height="0.0" fill="#55a868"><title>10k_initials_gpu1 | zhoblimp_superlative_quantifiers_1: 0.000</title></rect>
<text x="1970.0" y="466" transform="rotate(62 1970.0 466)" class="label">zhoblimp_superlative_quantifiers_1</text>
<rect x="2011.6" y="424.8" width="14.6" height="25.2" fill="#2f6f9f"><title>10k_gpu1 | zhoblimp_renhe_non_factive_verb: 0.067</title></rect>
<rect x="2028.2" y="407.2" width="14.6" height="42.8" fill="#c44e52"><title>10k_hanzi_gpu1 | zhoblimp_renhe_non_factive_verb: 0.113</title></rect>
<rect x="2044.8" y="347.9" width="14.6" height="102.1" fill="#55a868"><title>10k_initials_gpu1 | zhoblimp_renhe_non_factive_verb: 0.270</title></rect>
<text x="2036.5" y="466" transform="rotate(62 2036.5 466)" class="label">zhoblimp_renhe_non_factive_verb</text>
<rect x="2078.0" y="306.4" width="14.6" height="143.6" fill="#2f6f9f"><title>10k_gpu1 | zhoblimp_preposition_insertion: 0.380</title></rect>
<rect x="2094.6" y="446.2" width="14.6" height="3.8" fill="#c44e52"><title>10k_hanzi_gpu1 | zhoblimp_preposition_insertion: 0.010</title></rect>
<rect x="2111.2" y="442.4" width="14.6" height="7.6" fill="#55a868"><title>10k_initials_gpu1 | zhoblimp_preposition_insertion: 0.020</title></rect>
<text x="2102.9" y="466" transform="rotate(62 2102.9 466)" class="label">zhoblimp_preposition_insertion</text>
<rect x="2144.5" y="414.7" width="14.6" height="35.3" fill="#2f6f9f"><title>10k_gpu1 | zhoblimp_BEI_deletion: 0.093</title></rect>
<rect x="2161.1" y="443.7" width="14.6" height="6.3" fill="#c44e52"><title>10k_hanzi_gpu1 | zhoblimp_BEI_deletion: 0.017</title></rect>
<rect x="2177.7" y="447.5" width="14.6" height="2.5" fill="#55a868"><title>10k_initials_gpu1 | zhoblimp_BEI_deletion: 0.007</title></rect>
<text x="2169.4" y="466" transform="rotate(62 2169.4 466)" class="label">zhoblimp_BEI_deletion</text>
<rect x="2210.9" y="408.4" width="14.6" height="41.6" fill="#2f6f9f"><title>10k_gpu1 | zhoblimp_renhe_no_superordinate_negation: 0.110</title></rect>
<rect x="2227.6" y="450.0" width="14.6" height="0.0" fill="#c44e52"><title>10k_hanzi_gpu1 | zhoblimp_renhe_no_superordinate_negation: 0.000</title></rect>
<rect x="2244.2" y="450.0" width="14.6" height="0.0" fill="#55a868"><title>10k_initials_gpu1 | zhoblimp_renhe_no_superordinate_negation: 0.000</title></rect>
<text x="2235.9" y="466" transform="rotate(62 2235.9 466)" class="label">zhoblimp_renhe_no_superordinate_n...</text>
<rect x="2277.4" y="447.5" width="14.6" height="2.5" fill="#2f6f9f"><title>10k_gpu1 | zhoblimp_adjective_transitive_dui: 0.007</title></rect>
<rect x="2294.0" y="450.0" width="14.6" height="0.0" fill="#c44e52"><title>10k_hanzi_gpu1 | zhoblimp_adjective_transitive_dui: 0.000</title></rect>
<rect x="2310.6" y="413.5" width="14.6" height="36.5" fill="#55a868"><title>10k_initials_gpu1 | zhoblimp_adjective_transitive_dui: 0.097</title></rect>
<text x="2302.3" y="466" transform="rotate(62 2302.3 466)" class="label">zhoblimp_adjective_transitive_dui</text>
<rect x="2343.8" y="450.0" width="14.6" height="0.0" fill="#2f6f9f"><title>10k_gpu1 | zhoblimp_passive_suo: 0.000</title></rect>
<rect x="2360.5" y="436.1" width="14.6" height="13.9" fill="#c44e52"><title>10k_hanzi_gpu1 | zhoblimp_passive_suo: 0.037</title></rect>
<rect x="2377.1" y="436.1" width="14.6" height="13.9" fill="#55a868"><title>10k_initials_gpu1 | zhoblimp_passive_suo: 0.037</title></rect>
<text x="2368.8" y="466" transform="rotate(62 2368.8 466)" class="label">zhoblimp_passive_suo</text>
<rect x="76" y="580" width="14" height="14" fill="#2f6f9f"/>
<text x="96" y="592" class="legend">10k_gpu1</text>
<rect x="286" y="580" width="14" height="14" fill="#c44e52"/>
<text x="306" y="592" class="legend">10k_hanzi_gpu1</text>
<rect x="496" y="580" width="14" height="14" fill="#55a868"/>
<text x="516" y="592" class="legend">10k_initials_gpu1</text>
</svg>
