<svg xmlns="http://www.w3.org/2000/svg" width="980" height="560" viewBox="0 0 980 560">
<style>text{font-family:Arial,sans-serif;fill:#1f2933}.axis{stroke:#9aa5b1;stroke-width:1}.grid{stroke:#e4e7eb;stroke-width:1}.label{font-size:12px}.title{font-size:22px;font-weight:700}.legend{font-size:13px}</style>
<rect width="980" height="560" fill="#ffffff"/>
<text x="76" y="34" class="title">acc KDE across zhoblimp subtasks</text>
<line x1="76" y1="488.0" x2="952" y2="488.0" class="grid"/>
<text x="66" y="492.0" text-anchor="end" class="label">0.0</text>
<line x1="76" y1="404.8" x2="952" y2="404.8" class="grid"/>
<text x="66" y="408.8" text-anchor="end" class="label">0.2</text>
<line x1="76" y1="321.6" x2="952" y2="321.6" class="grid"/>
<text x="66" y="325.6" text-anchor="end" class="label">0.5</text>
<line x1="76" y1="238.4" x2="952" y2="238.4" class="grid"/>
<text x="66" y="242.4" text-anchor="end" class="label">0.7</text>
<line x1="76" y1="155.2" x2="952" y2="155.2" class="grid"/>
<text x="66" y="159.2" text-anchor="end" class="label">0.9</text>
<line x1="76" y1="72.0" x2="952" y2="72.0" class="grid"/>
<text x="66" y="76.0" text-anchor="end" class="label">1.2</text>
<line x1="76" y1="72" x2="76" y2="488" class="axis"/>
<line x1="76" y1="488" x2="952" y2="488" class="axis"/>
<polyline points="76.0,293.0 81.5,290.9 87.0,289.1 92.5,287.5 98.0,286.2 103.5,285.1 109.1,284.2 114.6,283.6 120.1,283.2 125.6,283.1 131.1,283.2 136.6,283.5 142.1,284.0 147.6,284.7 153.1,285.5 158.6,286.6 164.2,287.7 169.7,289.1 175.2,290.5 180.7,292.1 186.2,293.7 191.7,295.4 197.2,297.2 202.7,299.0 208.2,300.9 213.7,302.7 219.2,304.6 224.8,306.4 230.3,308.2 235.8,309.9 241.3,311.6 246.8,313.2 252.3,314.7 257.8,316.1 263.3,317.4 268.8,318.6 274.3,319.6 279.8,320.5 285.4,321.3 290.9,322.0 296.4,322.4 301.9,322.8 307.4,322.9 312.9,322.9 318.4,322.8 323.9,322.4 329.4,322.0 334.9,321.3 340.5,320.5 346.0,319.5 351.5,318.4 357.0,317.2 362.5,315.7 368.0,314.2 373.5,312.5 379.0,310.7 384.5,308.8 390.0,306.7 395.5,304.5 401.1,302.3 406.6,299.9 412.1,297.5 417.6,294.9 423.1,292.3 428.6,289.7 434.1,286.9 439.6,284.2 445.1,281.3 450.6,278.5 456.2,275.6 461.7,272.7 467.2,269.8 472.7,266.9 478.2,263.9 483.7,261.0 489.2,258.1 494.7,255.2 500.2,252.3 505.7,249.5 511.2,246.6 516.8,243.9 522.3,241.1 527.8,238.4 533.3,235.7 538.8,233.1 544.3,230.5 549.8,228.0 555.3,225.5 560.8,223.1 566.3,220.7 571.8,218.3 577.4,216.0 582.9,213.7 588.4,211.5 593.9,209.3 599.4,207.1 604.9,205.0 610.4,202.8 615.9,200.7 621.4,198.6 626.9,196.6 632.5,194.5 638.0,192.4 643.5,190.3 649.0,188.1 654.5,186.0 660.0,183.8 665.5,181.6 671.0,179.3 676.5,177.0 682.0,174.7 687.5,172.3 693.1,169.8 698.6,167.2 704.1,164.6 709.6,161.9 715.1,159.1 720.6,156.3 726.1,153.4 731.6,150.4 737.1,147.3 742.6,144.2 748.2,141.0 753.7,137.8 759.2,134.5 764.7,131.2 770.2,127.8 775.7,124.5 781.2,121.1 786.7,117.8 792.2,114.4 797.7,111.1 803.2,107.9 808.8,104.8 814.3,101.7 819.8,98.8 825.3,96.0 830.8,93.4 836.3,90.9 841.8,88.7 847.3,86.7 852.8,84.9 858.3,83.4 863.8,82.2 869.4,81.3 874.9,80.8 880.4,80.6 885.9,80.7 891.4,81.3 896.9,82.2 902.4,83.5 907.9,85.3 913.4,87.5 918.9,90.1 924.5,93.1 930.0,96.6 935.5,100.5 941.0,104.8 946.5,109.6 952.0,114.8" fill="none" stroke="#2f6f9f" stroke-width="2.5"><title>10k_chinese_gpu1</title></polyline>
<polyline points="76.0,354.6 81.5,351.4 87.0,348.4 92.5,345.4 98.0,342.7 103.5,340.1 109.1,337.7 114.6,335.4 120.1,333.3 125.6,331.4 131.1,329.7 136.6,328.2 142.1,326.8 147.6,325.6 153.1,324.5 158.6,323.6 164.2,322.8 169.7,322.2 175.2,321.6 180.7,321.2 186.2,320.9 191.7,320.7 197.2,320.5 202.7,320.4 208.2,320.3 213.7,320.3 219.2,320.3 224.8,320.2 230.3,320.2 235.8,320.0 241.3,319.9 246.8,319.7 252.3,319.3 257.8,318.9 263.3,318.4 268.8,317.8 274.3,317.0 279.8,316.0 285.4,315.0 290.9,313.7 296.4,312.2 301.9,310.6 307.4,308.8 312.9,306.8 318.4,304.5 323.9,302.1 329.4,299.4 334.9,296.6 340.5,293.5 346.0,290.3 351.5,286.8 357.0,283.1 362.5,279.2 368.0,275.2 373.5,270.9 379.0,266.5 384.5,262.0 390.0,257.3 395.5,252.5 401.1,247.5 406.6,242.4 412.1,237.3 417.6,232.1 423.1,226.8 428.6,221.5 434.1,216.2 439.6,210.9 445.1,205.6 450.6,200.4 456.2,195.2 461.7,190.1 467.2,185.1 472.7,180.2 478.2,175.5 483.7,170.9 489.2,166.4 494.7,162.1 500.2,158.1 505.7,154.2 511.2,150.5 516.8,147.1 522.3,143.9 527.8,140.9 533.3,138.2 538.8,135.7 544.3,133.4 549.8,131.4 555.3,129.7 560.8,128.1 566.3,126.8 571.8,125.7 577.4,124.8 582.9,124.2 588.4,123.7 593.9,123.3 599.4,123.2 604.9,123.1 610.4,123.3 615.9,123.5 621.4,123.8 626.9,124.2 632.5,124.6 638.0,125.1 643.5,125.6 649.0,126.0 654.5,126.5 660.0,126.9 665.5,127.3 671.0,127.6 676.5,127.8 682.0,127.9 687.5,127.9 693.1,127.8 698.6,127.5 704.1,127.1 709.6,126.5 715.1,125.7 720.6,124.8 726.1,123.7 731.6,122.4 737.1,120.9 742.6,119.3 748.2,117.5 753.7,115.5 759.2,113.4 764.7,111.2 770.2,108.8 775.7,106.3 781.2,103.7 786.7,101.1 792.2,98.4 797.7,95.7 803.2,93.0 808.8,90.3 814.3,87.7 819.8,85.2 825.3,82.8 830.8,80.5 836.3,78.5 841.8,76.7 847.3,75.1 852.8,73.8 858.3,72.8 863.8,72.2 869.4,72.0 874.9,72.2 880.4,72.8 885.9,73.9 891.4,75.4 896.9,77.5 902.4,80.0 907.9,83.1 913.4,86.7 918.9,90.9 924.5,95.6 930.0,100.8 935.5,106.6 941.0,112.9 946.5,119.6 952.0,126.9" fill="none" stroke="#c44e52" stroke-width="2.5"><title>10k_chinese_whitespace_false_gpu1</title></polyline>
<polyline points="76.0,271.7 81.5,269.1 87.0,266.8 92.5,264.7 98.0,262.9 103.5,261.3 109.1,260.0 114.6,259.0 120.1,258.2 125.6,257.6 131.1,257.4 136.6,257.3 142.1,257.5 147.6,257.9 153.1,258.5 158.6,259.3 164.2,260.2 169.7,261.4 175.2,262.7 180.7,264.2 186.2,265.7 191.7,267.4 197.2,269.2 202.7,271.1 208.2,273.0 213.7,275.0 219.2,277.0 224.8,279.1 230.3,281.1 235.8,283.1 241.3,285.1 246.8,287.1 252.3,289.0 257.8,290.9 263.3,292.6 268.8,294.3 274.3,295.9 279.8,297.4 285.4,298.8 290.9,300.0 296.4,301.1 301.9,302.1 307.4,302.9 312.9,303.5 318.4,304.1 323.9,304.4 329.4,304.6 334.9,304.7 340.5,304.5 346.0,304.2 351.5,303.8 357.0,303.2 362.5,302.4 368.0,301.5 373.5,300.4 379.0,299.2 384.5,297.8 390.0,296.3 395.5,294.7 401.1,292.9 406.6,291.0 412.1,289.0 417.6,286.9 423.1,284.6 428.6,282.3 434.1,279.9 439.6,277.4 445.1,274.8 450.6,272.2 456.2,269.5 461.7,266.8 467.2,264.0 472.7,261.2 478.2,258.4 483.7,255.6 489.2,252.8 494.7,249.9 500.2,247.1 505.7,244.3 511.2,241.5 516.8,238.7 522.3,236.0 527.8,233.4 533.3,230.8 538.8,228.2 544.3,225.7 549.8,223.3 555.3,220.9 560.8,218.6 566.3,216.4 571.8,214.2 577.4,212.1 582.9,210.1 588.4,208.2 593.9,206.3 599.4,204.6 604.9,202.8 610.4,201.2 615.9,199.6 621.4,198.1 626.9,196.6 632.5,195.2 638.0,193.8 643.5,192.4 649.0,191.1 654.5,189.8 660.0,188.5 665.5,187.2 671.0,185.9 676.5,184.6 682.0,183.3 687.5,181.9 693.1,180.6 698.6,179.2 704.1,177.7 709.6,176.2 715.1,174.6 720.6,173.0 726.1,171.3 731.6,169.5 737.1,167.7 742.6,165.8 748.2,163.9 753.7,161.9 759.2,159.8 764.7,157.7 770.2,155.5 775.7,153.3 781.2,151.0 786.7,148.7 792.2,146.4 797.7,144.1 803.2,141.9 808.8,139.6 814.3,137.4 819.8,135.3 825.3,133.2 830.8,131.3 836.3,129.4 841.8,127.7 847.3,126.2 852.8,124.8 858.3,123.6 863.8,122.6 869.4,121.9 874.9,121.4 880.4,121.2 885.9,121.3 891.4,121.6 896.9,122.3 902.4,123.3 907.9,124.7 913.4,126.4 918.9,128.5 924.5,130.9 930.0,133.7 935.5,136.9 941.0,140.4 946.5,144.3 952.0,148.6" fill="none" stroke="#55a868" stroke-width="2.5"><title>10k_gpu1</title></polyline>
<polyline points="76.0,251.2 81.5,249.2 87.0,247.4 92.5,246.0 98.0,244.8 103.5,243.8 109.1,243.1 114.6,242.7 120.1,242.4 125.6,242.4 131.1,242.6 136.6,243.0 142.1,243.6 147.6,244.3 153.1,245.1 158.6,246.1 164.2,247.2 169.7,248.4 175.2,249.6 180.7,250.9 186.2,252.2 191.7,253.5 197.2,254.8 202.7,256.1 208.2,257.3 213.7,258.5 219.2,259.6 224.8,260.6 230.3,261.5 235.8,262.3 241.3,262.9 246.8,263.4 252.3,263.7 257.8,263.9 263.3,263.9 268.8,263.8 274.3,263.4 279.8,262.9 285.4,262.2 290.9,261.4 296.4,260.3 301.9,259.1 307.4,257.7 312.9,256.1 318.4,254.3 323.9,252.4 329.4,250.4 334.9,248.2 340.5,245.9 346.0,243.5 351.5,241.0 357.0,238.4 362.5,235.7 368.0,232.9 373.5,230.1 379.0,227.2 384.5,224.3 390.0,221.4 395.5,218.5 401.1,215.6 406.6,212.8 412.1,210.0 417.6,207.2 423.1,204.5 428.6,201.9 434.1,199.4 439.6,197.1 445.1,194.8 450.6,192.6 456.2,190.6 461.7,188.8 467.2,187.1 472.7,185.6 478.2,184.2 483.7,183.1 489.2,182.1 494.7,181.3 500.2,180.8 505.7,180.4 511.2,180.2 516.8,180.2 522.3,180.5 527.8,180.9 533.3,181.6 538.8,182.4 544.3,183.4 549.8,184.7 555.3,186.1 560.8,187.6 566.3,189.4 571.8,191.3 577.4,193.4 582.9,195.6 588.4,197.9 593.9,200.3 599.4,202.9 604.9,205.5 610.4,208.2 615.9,211.0 621.4,213.8 626.9,216.6 632.5,219.4 638.0,222.2 643.5,225.0 649.0,227.8 654.5,230.4 660.0,233.1 665.5,235.6 671.0,238.0 676.5,240.3 682.0,242.4 687.5,244.4 693.1,246.2 698.6,247.8 704.1,249.3 709.6,250.5 715.1,251.5 720.6,252.3 726.1,252.9 731.6,253.2 737.1,253.3 742.6,253.2 748.2,252.8 753.7,252.2 759.2,251.3 764.7,250.2 770.2,248.9 775.7,247.4 781.2,245.6 786.7,243.7 792.2,241.6 797.7,239.3 803.2,236.9 808.8,234.4 814.3,231.7 819.8,229.0 825.3,226.1 830.8,223.3 836.3,220.4 841.8,217.5 847.3,214.7 852.8,211.9 858.3,209.2 863.8,206.7 869.4,204.2 874.9,201.9 880.4,199.8 885.9,197.9 891.4,196.2 896.9,194.8 902.4,193.7 907.9,192.8 913.4,192.3 918.9,192.1 924.5,192.2 930.0,192.6 935.5,193.4 941.0,194.6 946.5,196.2 952.0,198.1" fill="none" stroke="#8172b3" stroke-width="2.5"><title>10k_hanzi_gpu1</title></polyline>
<polyline points="76.0,221.9 81.5,219.4 87.0,217.2 92.5,215.3 98.0,213.7 103.5,212.3 109.1,211.3 114.6,210.5 120.1,209.9 125.6,209.6 131.1,209.6 136.6,209.8 142.1,210.2 147.6,210.8 153.1,211.6 158.6,212.6 164.2,213.8 169.7,215.1 175.2,216.5 180.7,218.1 186.2,219.7 191.7,221.5 197.2,223.3 202.7,225.2 208.2,227.1 213.7,229.0 219.2,230.9 224.8,232.8 230.3,234.7 235.8,236.5 241.3,238.3 246.8,240.0 252.3,241.6 257.8,243.2 263.3,244.6 268.8,245.9 274.3,247.2 279.8,248.3 285.4,249.3 290.9,250.1 296.4,250.9 301.9,251.5 307.4,251.9 312.9,252.3 318.4,252.5 323.9,252.6 329.4,252.5 334.9,252.4 340.5,252.1 346.0,251.8 351.5,251.3 357.0,250.8 362.5,250.2 368.0,249.5 373.5,248.7 379.0,247.9 384.5,247.0 390.0,246.2 395.5,245.3 401.1,244.3 406.6,243.4 412.1,242.5 417.6,241.6 423.1,240.7 428.6,239.9 434.1,239.1 439.6,238.4 445.1,237.7 450.6,237.1 456.2,236.6 461.7,236.2 467.2,235.8 472.7,235.6 478.2,235.4 483.7,235.4 489.2,235.4 494.7,235.6 500.2,235.8 505.7,236.2 511.2,236.7 516.8,237.2 522.3,237.9 527.8,238.7 533.3,239.6 538.8,240.6 544.3,241.6 549.8,242.8 555.3,244.0 560.8,245.2 566.3,246.6 571.8,247.9 577.4,249.4 582.9,250.8 588.4,252.3 593.9,253.8 599.4,255.2 604.9,256.7 610.4,258.1 615.9,259.5 621.4,260.9 626.9,262.2 632.5,263.4 638.0,264.6 643.5,265.6 649.0,266.5 654.5,267.4 660.0,268.1 665.5,268.6 671.0,269.1 676.5,269.3 682.0,269.4 687.5,269.4 693.1,269.1 698.6,268.7 704.1,268.1 709.6,267.3 715.1,266.3 720.6,265.2 726.1,263.8 731.6,262.3 737.1,260.5 742.6,258.6 748.2,256.5 753.7,254.3 759.2,251.8 764.7,249.3 770.2,246.5 775.7,243.7 781.2,240.7 786.7,237.7 792.2,234.5 797.7,231.3 803.2,228.1 808.8,224.8 814.3,221.5 819.8,218.1 825.3,214.9 830.8,211.6 836.3,208.5 841.8,205.4 847.3,202.4 852.8,199.6 858.3,196.9 863.8,194.4 869.4,192.1 874.9,189.9 880.4,188.1 885.9,186.4 891.4,185.1 896.9,184.0 902.4,183.2 907.9,182.8 913.4,182.6 918.9,182.8 924.5,183.3 930.0,184.1 935.5,185.4 941.0,186.9 946.5,188.8 952.0,191.1" fill="none" stroke="#ccb974" stroke-width="2.5"><title>10k_initials_gpu1</title></polyline>
<polyline points="76.0,287.2 81.5,284.6 87.0,282.4 92.5,280.4 98.0,278.6 103.5,277.2 109.1,276.0 114.6,275.0 120.1,274.3 125.6,273.9 131.1,273.7 136.6,273.7 142.1,273.9 147.6,274.4 153.1,275.0 158.6,275.8 164.2,276.7 169.7,277.7 175.2,278.9 180.7,280.1 186.2,281.5 191.7,282.8 197.2,284.2 202.7,285.7 208.2,287.1 213.7,288.4 219.2,289.8 224.8,291.0 230.3,292.2 235.8,293.3 241.3,294.2 246.8,295.1 252.3,295.7 257.8,296.2 263.3,296.6 268.8,296.8 274.3,296.7 279.8,296.5 285.4,296.1 290.9,295.5 296.4,294.6 301.9,293.5 307.4,292.3 312.9,290.8 318.4,289.0 323.9,287.1 329.4,285.0 334.9,282.6 340.5,280.1 346.0,277.3 351.5,274.4 357.0,271.3 362.5,268.0 368.0,264.5 373.5,260.9 379.0,257.2 384.5,253.3 390.0,249.3 395.5,245.2 401.1,241.0 406.6,236.8 412.1,232.4 417.6,228.1 423.1,223.6 428.6,219.2 434.1,214.8 439.6,210.3 445.1,205.9 450.6,201.5 456.2,197.2 461.7,192.9 467.2,188.8 472.7,184.7 478.2,180.7 483.7,176.8 489.2,173.1 494.7,169.5 500.2,166.0 505.7,162.8 511.2,159.6 516.8,156.7 522.3,154.0 527.8,151.5 533.3,149.1 538.8,147.0 544.3,145.1 549.8,143.4 555.3,141.9 560.8,140.6 566.3,139.6 571.8,138.7 577.4,138.1 582.9,137.7 588.4,137.5 593.9,137.5 599.4,137.7 604.9,138.0 610.4,138.5 615.9,139.2 621.4,140.1 626.9,141.0 632.5,142.1 638.0,143.4 643.5,144.7 649.0,146.0 654.5,147.5 660.0,149.0 665.5,150.6 671.0,152.1 676.5,153.7 682.0,155.3 687.5,156.8 693.1,158.3 698.6,159.7 704.1,161.1 709.6,162.4 715.1,163.6 720.6,164.7 726.1,165.7 731.6,166.6 737.1,167.4 742.6,168.0 748.2,168.5 753.7,168.9 759.2,169.1 764.7,169.2 770.2,169.2 775.7,169.1 781.2,168.8 786.7,168.4 792.2,168.0 797.7,167.4 803.2,166.8 808.8,166.1 814.3,165.4 819.8,164.7 825.3,163.9 830.8,163.2 836.3,162.5 841.8,161.8 847.3,161.3 852.8,160.8 858.3,160.5 863.8,160.3 869.4,160.2 874.9,160.4 880.4,160.8 885.9,161.4 891.4,162.2 896.9,163.3 902.4,164.7 907.9,166.4 913.4,168.4 918.9,170.7 924.5,173.4 930.0,176.4 935.5,179.7 941.0,183.4 946.5,187.3 952.0,191.7" fill="none" stroke="#64b5cd" stroke-width="2.5"><title>10k_whitespace_false_gpu1</title></polyline>
<line x1="76.0" y1="488" x2="76.0" y2="493" class="axis"/>
<text x="76.0" y="510" text-anchor="middle" class="label">0.0</text>
<line x1="251.2" y1="488" x2="251.2" y2="493" class="axis"/>
<text x="251.2" y="510" text-anchor="middle" class="label">0.2</text>
<line x1="426.4" y1="488" x2="426.4" y2="493" class="axis"/>
<text x="426.4" y="510" text-anchor="middle" class="label">0.4</text>
<line x1="601.6" y1="488" x2="601.6" y2="493" class="axis"/>
<text x="601.6" y="510" text-anchor="middle" class="label">0.6</text>
<line x1="776.8" y1="488" x2="776.8" y2="493" class="axis"/>
<text x="776.8" y="510" text-anchor="middle" class="label">0.8</text>
<line x1="952.0" y1="488" x2="952.0" y2="493" class="axis"/>
<text x="952.0" y="510" text-anchor="middle" class="label">1.0</text>
<rect x="76" y="520" width="14" height="14" fill="#2f6f9f"/>
<text x="96" y="532" class="legend">10k_chinese_gpu1</text>
<rect x="286" y="520" width="14" height="14" fill="#c44e52"/>
<text x="306" y="532" class="legend">10k_chinese_whitespace_false_gpu1</text>
<rect x="496" y="520" width="14" height="14" fill="#55a868"/>
<text x="516" y="532" class="legend">10k_gpu1</text>
<rect x="706" y="520" width="14" height="14" fill="#8172b3"/>
<text x="726" y="532" class="legend">10k_hanzi_gpu1</text>
<rect x="916" y="520" width="14" height="14" fill="#ccb974"/>
<text x="936" y="532" class="legend">10k_initials_gpu1</text>
<rect x="1126" y="520" width="14" height="14" fill="#64b5cd"/>
<text x="1146" y="532" class="legend">10k_whitespace_false_gpu1</text>
</svg>
