<svg xmlns="http://www.w3.org/2000/svg" width="3200" height="620" viewBox="0 0 3200 620">
<style>text{font-family:Arial,sans-serif;fill:#1f2933}.axis{stroke:#9aa5b1;stroke-width:1}.grid{stroke:#e4e7eb;stroke-width:1}.label{font-size:12px}.title{font-size:22px;font-weight:700}.legend{font-size:13px}</style>
<rect width="3200" height="620" fill="#ffffff"/>
<text x="76" y="34" class="title">acc by zhoblimp subtask (1/4)</text>
<line x1="76" y1="450.0" x2="3172" y2="450.0" class="grid"/>
<text x="66" y="454.0" text-anchor="end" class="label">0.0</text>
<line x1="76" y1="374.4" x2="3172" y2="374.4" class="grid"/>
<text x="66" y="378.4" text-anchor="end" class="label">0.2</text>
<line x1="76" y1="298.8" x2="3172" y2="298.8" class="grid"/>
<text x="66" y="302.8" text-anchor="end" class="label">0.4</text>
<line x1="76" y1="223.2" x2="3172" y2="223.2" class="grid"/>
<text x="66" y="227.2" text-anchor="end" class="label">0.6</text>
<line x1="76" y1="147.6" x2="3172" y2="147.6" class="grid"/>
<text x="66" y="151.6" text-anchor="end" class="label">0.8</text>
<line x1="76" y1="72.0" x2="3172" y2="72.0" class="grid"/>
<text x="66" y="76.0" text-anchor="end" class="label">1.0</text>
<line x1="76" y1="72" x2="76" y2="450" class="axis"/>
<line x1="76" y1="450" x2="3172" y2="450" class="axis"/>
<rect x="87.1" y="72.0" width="14.6" height="378.0" fill="#2f6f9f"><title>10k_chinese_gpu1 | zhoblimp_fci_renhe_suoyou: 1.000</title></rect>
<rect x="103.6" y="72.0" width="14.6" height="378.0" fill="#c44e52"><title>10k_gpu1 | zhoblimp_fci_renhe_suoyou: 1.000</title></rect>
<rect x="120.2" y="72.0" width="14.6" height="378.0" fill="#55a868"><title>10k_hanzi_gpu1 | zhoblimp_fci_renhe_suoyou: 1.000</title></rect>
<rect x="136.8" y="72.0" width="14.6" height="378.0" fill="#8172b3"><title>10k_initials_gpu1 | zhoblimp_fci_renhe_suoyou: 1.000</title></rect>
<text x="120.2" y="466" transform="rotate(62 120.2 466)" class="label">zhoblimp_fci_renhe_suoyou</text>
<rect x="175.5" y="72.0" width="14.6" height="378.0" fill="#2f6f9f"><title>10k_chinese_gpu1 | zhoblimp_question_A_not_A_indirect: 1.000</title></rect>
<rect x="192.1" y="72.0" width="14.6" height="378.0" fill="#c44e52"><title>10k_gpu1 | zhoblimp_question_A_not_A_indirect: 1.000</title></rect>
<rect x="208.7" y="72.0" width="14.6" height="378.0" fill="#55a868"><title>10k_hanzi_gpu1 | zhoblimp_question_A_not_A_indirect: 1.000</title></rect>
<rect x="225.3" y="72.0" width="14.6" height="378.0" fill="#8172b3"><title>10k_initials_gpu1 | zhoblimp_question_A_not_A_indirect: 1.000</title></rect>
<text x="208.7" y="466" transform="rotate(62 208.7 466)" class="label">zhoblimp_question_A_not_A_indirect</text>
<rect x="264.0" y="72.0" width="14.6" height="378.0" fill="#2f6f9f"><title>10k_chinese_gpu1 | zhoblimp_relativization_movement_when_where: 1.000</title></rect>
<rect x="280.6" y="72.0" width="14.6" height="378.0" fill="#c44e52"><title>10k_gpu1 | zhoblimp_relativization_movement_when_where: 1.000</title></rect>
<rect x="297.1" y="72.0" width="14.6" height="378.0" fill="#55a868"><title>10k_hanzi_gpu1 | zhoblimp_relativization_movement_when_where: 1.000</title></rect>
<rect x="313.7" y="72.0" width="14.6" height="378.0" fill="#8172b3"><title>10k_initials_gpu1 | zhoblimp_relativization_movement_when_where: 1.000</title></rect>
<text x="297.1" y="466" transform="rotate(62 297.1 466)" class="label">zhoblimp_relativization_movement_...</text>
<rect x="352.4" y="72.0" width="14.6" height="378.0" fill="#2f6f9f"><title>10k_chinese_gpu1 | zhoblimp_BA_verb_le_a: 1.000</title></rect>
<rect x="369.0" y="72.0" width="14.6" height="378.0" fill="#c44e52"><title>10k_gpu1 | zhoblimp_BA_verb_le_a: 1.000</title></rect>
<rect x="385.6" y="72.0" width="14.6" height="378.0" fill="#55a868"><title>10k_hanzi_gpu1 | zhoblimp_BA_verb_le_a: 1.000</title></rect>
<rect x="402.2" y="72.0" width="14.6" height="378.0" fill="#8172b3"><title>10k_initials_gpu1 | zhoblimp_BA_verb_le_a: 1.000</title></rect>
<text x="385.6" y="466" transform="rotate(62 385.6 466)" class="label">zhoblimp_BA_verb_le_a</text>
<rect x="440.9" y="72.0" width="14.6" height="378.0" fill="#2f6f9f"><title>10k_chinese_gpu1 | zhoblimp_BA_duplicate_argument: 1.000</title></rect>
<rect x="457.5" y="72.0" width="14.6" height="378.0" fill="#c44e52"><title>10k_gpu1 | zhoblimp_BA_duplicate_argument: 1.000</title></rect>
<rect x="474.1" y="72.0" width="14.6" height="378.0" fill="#55a868"><title>10k_hanzi_gpu1 | zhoblimp_BA_duplicate_argument: 1.000</title></rect>
<rect x="490.6" y="72.0" width="14.6" height="378.0" fill="#8172b3"><title>10k_initials_gpu1 | zhoblimp_BA_duplicate_argument: 1.000</title></rect>
<text x="474.1" y="466" transform="rotate(62 474.1 466)" class="label">zhoblimp_BA_duplicate_argument</text>
<rect x="529.3" y="72.0" width="14.6" height="378.0" fill="#2f6f9f"><title>10k_chinese_gpu1 | zhoblimp_BA_suo_adverbial_b: 1.000</title></rect>
<rect x="545.9" y="72.0" width="14.6" height="378.0" fill="#c44e52"><title>10k_gpu1 | zhoblimp_BA_suo_adverbial_b: 1.000</title></rect>
<rect x="562.5" y="72.0" width="14.6" height="378.0" fill="#55a868"><title>10k_hanzi_gpu1 | zhoblimp_BA_suo_adverbial_b: 1.000</title></rect>
<rect x="579.1" y="72.0" width="14.6" height="378.0" fill="#8172b3"><title>10k_initials_gpu1 | zhoblimp_BA_suo_adverbial_b: 1.000</title></rect>
<text x="562.5" y="466" transform="rotate(62 562.5 466)" class="label">zhoblimp_BA_suo_adverbial_b</text>
<rect x="617.8" y="72.0" width="14.6" height="378.0" fill="#2f6f9f"><title>10k_chinese_gpu1 | zhoblimp_ellipsis_double_object: 1.000</title></rect>
<rect x="634.4" y="72.0" width="14.6" height="378.0" fill="#c44e52"><title>10k_gpu1 | zhoblimp_ellipsis_double_object: 1.000</title></rect>
<rect x="651.0" y="72.0" width="14.6" height="378.0" fill="#55a868"><title>10k_hanzi_gpu1 | zhoblimp_ellipsis_double_object: 1.000</title></rect>
<rect x="667.6" y="72.0" width="14.6" height="378.0" fill="#8172b3"><title>10k_initials_gpu1 | zhoblimp_ellipsis_double_object: 1.000</title></rect>
<text x="651.0" y="466" transform="rotate(62 651.0 466)" class="label">zhoblimp_ellipsis_double_object</text>
<rect x="706.3" y="72.0" width="14.6" height="378.0" fill="#2f6f9f"><title>10k_chinese_gpu1 | zhoblimp_principle_A_c_command: 1.000</title></rect>
<rect x="722.8" y="72.0" width="14.6" height="378.0" fill="#c44e52"><title>10k_gpu1 | zhoblimp_principle_A_c_command: 1.000</title></rect>
<rect x="739.4" y="72.0" width="14.6" height="378.0" fill="#55a868"><title>10k_hanzi_gpu1 | zhoblimp_principle_A_c_command: 1.000</title></rect>
<rect x="756.0" y="72.0" width="14.6" height="378.0" fill="#8172b3"><title>10k_initials_gpu1 | zhoblimp_principle_A_c_command: 1.000</title></rect>
<text x="739.4" y="466" transform="rotate(62 739.4 466)" class="label">zhoblimp_principle_A_c_command</text>
<rect x="794.7" y="72.0" width="14.6" height="378.0" fill="#2f6f9f"><title>10k_chinese_gpu1 | zhoblimp_principle_A_domain: 1.000</title></rect>
<rect x="811.3" y="72.0" width="14.6" height="378.0" fill="#c44e52"><title>10k_gpu1 | zhoblimp_principle_A_domain: 1.000</title></rect>
<rect x="827.9" y="72.0" width="14.6" height="378.0" fill="#55a868"><title>10k_hanzi_gpu1 | zhoblimp_principle_A_domain: 1.000</title></rect>
<rect x="844.5" y="72.0" width="14.6" height="378.0" fill="#8172b3"><title>10k_initials_gpu1 | zhoblimp_principle_A_domain: 1.000</title></rect>
<text x="827.9" y="466" transform="rotate(62 827.9 466)" class="label">zhoblimp_principle_A_domain</text>
<rect x="883.2" y="72.0" width="14.6" height="378.0" fill="#2f6f9f"><title>10k_chinese_gpu1 | zhoblimp_BA_meiba: 1.000</title></rect>
<rect x="899.8" y="72.0" width="14.6" height="378.0" fill="#c44e52"><title>10k_gpu1 | zhoblimp_BA_meiba: 1.000</title></rect>
<rect x="916.3" y="72.0" width="14.6" height="378.0" fill="#55a868"><title>10k_hanzi_gpu1 | zhoblimp_BA_meiba: 1.000</title></rect>
<rect x="932.9" y="72.0" width="14.6" height="378.0" fill="#8172b3"><title>10k_initials_gpu1 | zhoblimp_BA_meiba: 1.000</title></rect>
<text x="916.3" y="466" transform="rotate(62 916.3 466)" class="label">zhoblimp_BA_meiba</text>
<rect x="971.6" y="72.0" width="14.6" height="378.0" fill="#2f6f9f"><title>10k_chinese_gpu1 | zhoblimp_classifier_noun_subj: 1.000</title></rect>
<rect x="988.2" y="73.3" width="14.6" height="376.7" fill="#c44e52"><title>10k_gpu1 | zhoblimp_classifier_noun_subj: 0.997</title></rect>
<rect x="1004.8" y="72.0" width="14.6" height="378.0" fill="#55a868"><title>10k_hanzi_gpu1 | zhoblimp_classifier_noun_subj: 1.000</title></rect>
<rect x="1021.4" y="72.0" width="14.6" height="378.0" fill="#8172b3"><title>10k_initials_gpu1 | zhoblimp_classifier_noun_subj: 1.000</title></rect>
<text x="1004.8" y="466" transform="rotate(62 1004.8 466)" class="label">zhoblimp_classifier_noun_subj</text>
<rect x="1060.1" y="74.5" width="14.6" height="375.5" fill="#2f6f9f"><title>10k_chinese_gpu1 | zhoblimp_you_yige: 0.993</title></rect>
<rect x="1076.7" y="72.0" width="14.6" height="378.0" fill="#c44e52"><title>10k_gpu1 | zhoblimp_you_yige: 1.000</title></rect>
<rect x="1093.3" y="72.0" width="14.6" height="378.0" fill="#55a868"><title>10k_hanzi_gpu1 | zhoblimp_you_yige: 1.000</title></rect>
<rect x="1109.8" y="72.0" width="14.6" height="378.0" fill="#8172b3"><title>10k_initials_gpu1 | zhoblimp_you_yige: 1.000</title></rect>
<text x="1093.3" y="466" transform="rotate(62 1093.3 466)" class="label">zhoblimp_you_yige</text>
<rect x="1148.5" y="72.0" width="14.6" height="378.0" fill="#2f6f9f"><title>10k_chinese_gpu1 | zhoblimp_fci_renhe_ruguo: 1.000</title></rect>
<rect x="1165.1" y="74.5" width="14.6" height="375.5" fill="#c44e52"><title>10k_gpu1 | zhoblimp_fci_renhe_ruguo: 0.993</title></rect>
<rect x="1181.7" y="72.0" width="14.6" height="378.0" fill="#55a868"><title>10k_hanzi_gpu1 | zhoblimp_fci_renhe_ruguo: 1.000</title></rect>
<rect x="1198.3" y="72.0" width="14.6" height="378.0" fill="#8172b3"><title>10k_initials_gpu1 | zhoblimp_fci_renhe_ruguo: 1.000</title></rect>
<text x="1181.7" y="466" transform="rotate(62 1181.7 466)" class="label">zhoblimp_fci_renhe_ruguo</text>
<rect x="1237.0" y="72.0" width="14.6" height="378.0" fill="#2f6f9f"><title>10k_chinese_gpu1 | zhoblimp_question_A_not_A: 1.000</title></rect>
<rect x="1253.6" y="73.3" width="14.6" height="376.7" fill="#c44e52"><title>10k_gpu1 | zhoblimp_question_A_not_A: 0.997</title></rect>
<rect x="1270.2" y="73.3" width="14.6" height="376.7" fill="#55a868"><title>10k_hanzi_gpu1 | zhoblimp_question_A_not_A: 0.997</title></rect>
<rect x="1286.8" y="74.5" width="14.6" height="375.5" fill="#8172b3"><title>10k_initials_gpu1 | zhoblimp_question_A_not_A: 0.993</title></rect>
<text x="1270.2" y="466" transform="rotate(62 1270.2 466)" class="label">zhoblimp_question_A_not_A</text>
<rect x="1325.5" y="74.5" width="14.6" height="375.5" fill="#2f6f9f"><title>10k_chinese_gpu1 | zhoblimp_PN_numP_a: 0.993</title></rect>
<rect x="1342.0" y="77.0" width="14.6" height="373.0" fill="#c44e52"><title>10k_gpu1 | zhoblimp_PN_numP_a: 0.987</title></rect>
<rect x="1358.6" y="72.0" width="14.6" height="378.0" fill="#55a868"><title>10k_hanzi_gpu1 | zhoblimp_PN_numP_a: 1.000</title></rect>
<rect x="1375.2" y="72.0" width="14.6" height="378.0" fill="#8172b3"><title>10k_initials_gpu1 | zhoblimp_PN_numP_a: 1.000</title></rect>
<text x="1358.6" y="466" transform="rotate(62 1358.6 466)" class="label">zhoblimp_PN_numP_a</text>
<rect x="1413.9" y="74.5" width="14.6" height="375.5" fill="#2f6f9f"><title>10k_chinese_gpu1 | zhoblimp_relativization_movement_no_gap: 0.993</title></rect>
<rect x="1430.5" y="87.1" width="14.6" height="362.9" fill="#c44e52"><title>10k_gpu1 | zhoblimp_relativization_movement_no_gap: 0.960</title></rect>
<rect x="1447.1" y="72.0" width="14.6" height="378.0" fill="#55a868"><title>10k_hanzi_gpu1 | zhoblimp_relativization_movement_no_gap: 1.000</title></rect>
<rect x="1463.7" y="72.0" width="14.6" height="378.0" fill="#8172b3"><title>10k_initials_gpu1 | zhoblimp_relativization_movement_no_gap: 1.000</title></rect>
<text x="1447.1" y="466" transform="rotate(62 1447.1 466)" class="label">zhoblimp_relativization_movement_...</text>
<rect x="1502.4" y="97.2" width="14.6" height="352.8" fill="#2f6f9f"><title>10k_chinese_gpu1 | zhoblimp_principle_A_domain_number: 0.933</title></rect>
<rect x="1519.0" y="72.0" width="14.6" height="378.0" fill="#c44e52"><title>10k_gpu1 | zhoblimp_principle_A_domain_number: 1.000</title></rect>
<rect x="1535.5" y="72.0" width="14.6" height="378.0" fill="#55a868"><title>10k_hanzi_gpu1 | zhoblimp_principle_A_domain_number: 1.000</title></rect>
<rect x="1552.1" y="72.0" width="14.6" height="378.0" fill="#8172b3"><title>10k_initials_gpu1 | zhoblimp_principle_A_domain_number: 1.000</title></rect>
<text x="1535.5" y="466" transform="rotate(62 1535.5 466)" class="label">zhoblimp_principle_A_domain_number</text>
<rect x="1590.8" y="72.0" width="14.6" height="378.0" fill="#2f6f9f"><title>10k_chinese_gpu1 | zhoblimp_plural_cardinal_men_b: 1.000</title></rect>
<rect x="1607.4" y="79.6" width="14.6" height="370.4" fill="#c44e52"><title>10k_gpu1 | zhoblimp_plural_cardinal_men_b: 0.980</title></rect>
<rect x="1624.0" y="92.2" width="14.6" height="357.8" fill="#55a868"><title>10k_hanzi_gpu1 | zhoblimp_plural_cardinal_men_b: 0.947</title></rect>
<rect x="1640.6" y="92.2" width="14.6" height="357.8" fill="#8172b3"><title>10k_initials_gpu1 | zhoblimp_plural_cardinal_men_b: 0.947</title></rect>
<text x="1624.0" y="466" transform="rotate(62 1624.0 466)" class="label">zhoblimp_plural_cardinal_men_b</text>
<rect x="1679.3" y="79.6" width="14.6" height="370.4" fill="#2f6f9f"><title>10k_chinese_gpu1 | zhoblimp_nominal_definite_men: 0.980</title></rect>
<rect x="1695.9" y="73.3" width="14.6" height="376.7" fill="#c44e52"><title>10k_gpu1 | zhoblimp_nominal_definite_men: 0.997</title></rect>
<rect x="1712.5" y="92.2" width="14.6" height="357.8" fill="#55a868"><title>10k_hanzi_gpu1 | zhoblimp_nominal_definite_men: 0.947</title></rect>
<rect x="1729.0" y="92.2" width="14.6" height="357.8" fill="#8172b3"><title>10k_initials_gpu1 | zhoblimp_nominal_definite_men: 0.947</title></rect>
<text x="1712.5" y="466" transform="rotate(62 1712.5 466)" class="label">zhoblimp_nominal_definite_men</text>
<rect x="1767.7" y="94.7" width="14.6" height="355.3" fill="#2f6f9f"><title>10k_chinese_gpu1 | zhoblimp_control_modal_vs_raising_modal: 0.940</title></rect>
<rect x="1784.3" y="98.5" width="14.6" height="351.5" fill="#c44e52"><title>10k_gpu1 | zhoblimp_control_modal_vs_raising_modal: 0.930</title></rect>
<rect x="1800.9" y="72.0" width="14.6" height="378.0" fill="#55a868"><title>10k_hanzi_gpu1 | zhoblimp_control_modal_vs_raising_modal: 1.000</title></rect>
<rect x="1817.5" y="72.0" width="14.6" height="378.0" fill="#8172b3"><title>10k_initials_gpu1 | zhoblimp_control_modal_vs_raising_modal: 1.000</title></rect>
<text x="1800.9" y="466" transform="rotate(62 1800.9 466)" class="label">zhoblimp_control_modal_vs_raising...</text>
<rect x="1856.2" y="73.3" width="14.6" height="376.7" fill="#2f6f9f"><title>10k_chinese_gpu1 | zhoblimp_plural_cardinal_men_a: 0.997</title></rect>
<rect x="1872.8" y="83.3" width="14.6" height="366.7" fill="#c44e52"><title>10k_gpu1 | zhoblimp_plural_cardinal_men_a: 0.970</title></rect>
<rect x="1889.4" y="90.9" width="14.6" height="359.1" fill="#55a868"><title>10k_hanzi_gpu1 | zhoblimp_plural_cardinal_men_a: 0.950</title></rect>
<rect x="1906.0" y="90.9" width="14.6" height="359.1" fill="#8172b3"><title>10k_initials_gpu1 | zhoblimp_plural_cardinal_men_a: 0.950</title></rect>
<text x="1889.4" y="466" transform="rotate(62 1889.4 466)" class="label">zhoblimp_plural_cardinal_men_a</text>
<rect x="1944.7" y="85.9" width="14.6" height="364.1" fill="#2f6f9f"><title>10k_chinese_gpu1 | zhoblimp_BA_suo_adverbial_a: 0.963</title></rect>
<rect x="1961.2" y="72.0" width="14.6" height="378.0" fill="#c44e52"><title>10k_gpu1 | zhoblimp_BA_suo_adverbial_a: 1.000</title></rect>
<rect x="1977.8" y="90.9" width="14.6" height="359.1" fill="#55a868"><title>10k_hanzi_gpu1 | zhoblimp_BA_suo_adverbial_a: 0.950</title></rect>
<rect x="1994.4" y="90.9" width="14.6" height="359.1" fill="#8172b3"><title>10k_initials_gpu1 | zhoblimp_BA_suo_adverbial_a: 0.950</title></rect>
<text x="1977.8" y="466" transform="rotate(62 1977.8 466)" class="label">zhoblimp_BA_suo_adverbial_a</text>
<rect x="2033.1" y="92.2" width="14.6" height="357.8" fill="#2f6f9f"><title>10k_chinese_gpu1 | zhoblimp_BA_no_progressive: 0.947</title></rect>
<rect x="2049.7" y="80.8" width="14.6" height="369.2" fill="#c44e52"><title>10k_gpu1 | zhoblimp_BA_no_progressive: 0.977</title></rect>
<rect x="2066.3" y="93.4" width="14.6" height="356.6" fill="#55a868"><title>10k_hanzi_gpu1 | zhoblimp_BA_no_progressive: 0.943</title></rect>
<rect x="2082.9" y="73.3" width="14.6" height="376.7" fill="#8172b3"><title>10k_initials_gpu1 | zhoblimp_BA_no_progressive: 0.997</title></rect>
<text x="2066.3" y="466" transform="rotate(62 2066.3 466)" class="label">zhoblimp_BA_no_progressive</text>
<rect x="2121.6" y="73.3" width="14.6" height="376.7" fill="#2f6f9f"><title>10k_chinese_gpu1 | zhoblimp_singular_PN_but_plural_pron: 0.997</title></rect>
<rect x="2138.2" y="135.0" width="14.6" height="315.0" fill="#c44e52"><title>10k_gpu1 | zhoblimp_singular_PN_but_plural_pron: 0.833</title></rect>
<rect x="2154.7" y="72.0" width="14.6" height="378.0" fill="#55a868"><title>10k_hanzi_gpu1 | zhoblimp_singular_PN_but_plural_pron: 1.000</title></rect>
<rect x="2171.3" y="72.0" width="14.6" height="378.0" fill="#8172b3"><title>10k_initials_gpu1 | zhoblimp_singular_PN_but_plural_pron: 1.000</title></rect>
<text x="2154.7" y="466" transform="rotate(62 2154.7 466)" class="label">zhoblimp_singular_PN_but_plural_p...</text>
<rect x="2210.0" y="103.5" width="14.6" height="346.5" fill="#2f6f9f"><title>10k_chinese_gpu1 | zhoblimp_BA_no_stative_verb: 0.917</title></rect>
<rect x="2226.6" y="74.5" width="14.6" height="375.5" fill="#c44e52"><title>10k_gpu1 | zhoblimp_BA_no_stative_verb: 0.993</title></rect>
<rect x="2243.2" y="72.0" width="14.6" height="378.0" fill="#55a868"><title>10k_hanzi_gpu1 | zhoblimp_BA_no_stative_verb: 1.000</title></rect>
<rect x="2259.8" y="189.2" width="14.6" height="260.8" fill="#8172b3"><title>10k_initials_gpu1 | zhoblimp_BA_no_stative_verb: 0.690</title></rect>
<text x="2243.2" y="466" transform="rotate(62 2243.2 466)" class="label">zhoblimp_BA_no_stative_verb</text>
<rect x="2298.5" y="117.4" width="14.6" height="332.6" fill="#2f6f9f"><title>10k_chinese_gpu1 | zhoblimp_question_daodi_nandao_1: 0.880</title></rect>
<rect x="2315.1" y="102.2" width="14.6" height="347.8" fill="#c44e52"><title>10k_gpu1 | zhoblimp_question_daodi_nandao_1: 0.920</title></rect>
<rect x="2331.7" y="170.3" width="14.6" height="279.7" fill="#55a868"><title>10k_hanzi_gpu1 | zhoblimp_question_daodi_nandao_1: 0.740</title></rect>
<rect x="2348.2" y="72.0" width="14.6" height="378.0" fill="#8172b3"><title>10k_initials_gpu1 | zhoblimp_question_daodi_nandao_1: 1.000</title></rect>
<text x="2331.7" y="466" transform="rotate(62 2331.7 466)" class="label">zhoblimp_question_daodi_nandao_1</text>
<rect x="2386.9" y="116.1" width="14.6" height="333.9" fill="#2f6f9f"><title>10k_chinese_gpu1 | zhoblimp_classifier_noun_agreement: 0.883</title></rect>
<rect x="2403.5" y="114.8" width="14.6" height="335.2" fill="#c44e52"><title>10k_gpu1 | zhoblimp_classifier_noun_agreement: 0.887</title></rect>
<rect x="2420.1" y="187.9" width="14.6" height="262.1" fill="#55a868"><title>10k_hanzi_gpu1 | zhoblimp_classifier_noun_agreement: 0.693</title></rect>
<rect x="2436.7" y="152.6" width="14.6" height="297.4" fill="#8172b3"><title>10k_initials_gpu1 | zhoblimp_classifier_noun_agreement: 0.787</title></rect>
<text x="2420.1" y="466" transform="rotate(62 2420.1 466)" class="label">zhoblimp_classifier_noun_agreement</text>
<rect x="2475.4" y="78.3" width="14.6" height="371.7" fill="#2f6f9f"><title>10k_chinese_gpu1 | zhoblimp_PN_numP_b: 0.983</title></rect>
<rect x="2492.0" y="72.0" width="14.6" height="378.0" fill="#c44e52"><title>10k_gpu1 | zhoblimp_PN_numP_b: 1.000</title></rect>
<rect x="2508.6" y="219.4" width="14.6" height="230.6" fill="#55a868"><title>10k_hanzi_gpu1 | zhoblimp_PN_numP_b: 0.610</title></rect>
<rect x="2525.2" y="213.1" width="14.6" height="236.9" fill="#8172b3"><title>10k_initials_gpu1 | zhoblimp_PN_numP_b: 0.627</title></rect>
<text x="2508.6" y="466" transform="rotate(62 2508.6 466)" class="label">zhoblimp_PN_numP_b</text>
<rect x="2563.9" y="72.0" width="14.6" height="378.0" fill="#2f6f9f"><title>10k_chinese_gpu1 | zhoblimp_question_daodi_negation: 1.000</title></rect>
<rect x="2580.4" y="72.0" width="14.6" height="378.0" fill="#c44e52"><title>10k_gpu1 | zhoblimp_question_daodi_negation: 1.000</title></rect>
<rect x="2597.0" y="224.5" width="14.6" height="225.5" fill="#55a868"><title>10k_hanzi_gpu1 | zhoblimp_question_daodi_negation: 0.597</title></rect>
<rect x="2613.6" y="216.9" width="14.6" height="233.1" fill="#8172b3"><title>10k_initials_gpu1 | zhoblimp_question_daodi_negation: 0.617</title></rect>
<text x="2597.0" y="466" transform="rotate(62 2597.0 466)" class="label">zhoblimp_question_daodi_negation</text>
<rect x="2652.3" y="114.8" width="14.6" height="335.2" fill="#2f6f9f"><title>10k_chinese_gpu1 | zhoblimp_noun_phrase_conjunction_jian: 0.887</title></rect>
<rect x="2668.9" y="109.8" width="14.6" height="340.2" fill="#c44e52"><title>10k_gpu1 | zhoblimp_noun_phrase_conjunction_jian: 0.900</title></rect>
<rect x="2685.5" y="284.9" width="14.6" height="165.1" fill="#55a868"><title>10k_hanzi_gpu1 | zhoblimp_noun_phrase_conjunction_jian: 0.437</title></rect>
<rect x="2702.1" y="102.2" width="14.6" height="347.8" fill="#8172b3"><title>10k_initials_gpu1 | zhoblimp_noun_phrase_conjunction_jian: 0.920</title></rect>
<text x="2685.5" y="466" transform="rotate(62 2685.5 466)" class="label">zhoblimp_noun_phrase_conjunction_...</text>
<rect x="2740.8" y="220.7" width="14.6" height="229.3" fill="#2f6f9f"><title>10k_chinese_gpu1 | zhoblimp_question_particle_daodi_choice_intran: 0.607</title></rect>
<rect x="2757.4" y="269.8" width="14.6" height="180.2" fill="#c44e52"><title>10k_gpu1 | zhoblimp_question_particle_daodi_choice_intran: 0.477</title></rect>
<rect x="2773.9" y="72.0" width="14.6" height="378.0" fill="#55a868"><title>10k_hanzi_gpu1 | zhoblimp_question_particle_daodi_choice_intran: 1.000</title></rect>
<rect x="2790.5" y="72.0" width="14.6" height="378.0" fill="#8172b3"><title>10k_initials_gpu1 | zhoblimp_question_particle_daodi_choice_intran: 1.000</title></rect>
<text x="2773.9" y="466" transform="rotate(62 2773.9 466)" class="label">zhoblimp_question_particle_daodi_...</text>
<rect x="2829.2" y="73.3" width="14.6" height="376.7" fill="#2f6f9f"><title>10k_chinese_gpu1 | zhoblimp_question_nandao_negation: 0.997</title></rect>
<rect x="2845.8" y="73.3" width="14.6" height="376.7" fill="#c44e52"><title>10k_gpu1 | zhoblimp_question_nandao_negation: 0.997</title></rect>
<rect x="2862.4" y="244.6" width="14.6" height="205.4" fill="#55a868"><title>10k_hanzi_gpu1 | zhoblimp_question_nandao_negation: 0.543</title></rect>
<rect x="2879.0" y="262.3" width="14.6" height="187.7" fill="#8172b3"><title>10k_initials_gpu1 | zhoblimp_question_nandao_negation: 0.497</title></rect>
<text x="2862.4" y="466" transform="rotate(62 2862.4 466)" class="label">zhoblimp_question_nandao_negation</text>
<rect x="2917.7" y="175.3" width="14.6" height="274.7" fill="#2f6f9f"><title>10k_chinese_gpu1 | zhoblimp_question_particle_daodi_choice_tran: 0.727</title></rect>
<rect x="2934.3" y="358.0" width="14.6" height="92.0" fill="#c44e52"><title>10k_gpu1 | zhoblimp_question_particle_daodi_choice_tran: 0.243</title></rect>
<rect x="2950.9" y="72.0" width="14.6" height="378.0" fill="#55a868"><title>10k_hanzi_gpu1 | zhoblimp_question_particle_daodi_choice_tran: 1.000</title></rect>
<rect x="2967.4" y="72.0" width="14.6" height="378.0" fill="#8172b3"><title>10k_initials_gpu1 | zhoblimp_question_particle_daodi_choice_tran: 1.000</title></rect>
<text x="2950.9" y="466" transform="rotate(62 2950.9 466)" class="label">zhoblimp_question_particle_daodi_...</text>
<rect x="3006.1" y="72.0" width="14.6" height="378.0" fill="#2f6f9f"><title>10k_chinese_gpu1 | zhoblimp_question_nandao_raising_1_a: 1.000</title></rect>
<rect x="3022.7" y="72.0" width="14.6" height="378.0" fill="#c44e52"><title>10k_gpu1 | zhoblimp_question_nandao_raising_1_a: 1.000</title></rect>
<rect x="3039.3" y="450.0" width="14.6" height="0.0" fill="#55a868"><title>10k_hanzi_gpu1 | zhoblimp_question_nandao_raising_1_a: 0.000</title></rect>
<rect x="3055.9" y="90.9" width="14.6" height="359.1" fill="#8172b3"><title>10k_initials_gpu1 | zhoblimp_question_nandao_raising_1_a: 0.950</title></rect>
<text x="3039.3" y="466" transform="rotate(62 3039.3 466)" class="label">zhoblimp_question_nandao_raising_...</text>
<rect x="3094.6" y="72.0" width="14.6" height="378.0" fill="#2f6f9f"><title>10k_chinese_gpu1 | zhoblimp_question_nandao_raising_1_b: 1.000</title></rect>
<rect x="3111.2" y="72.0" width="14.6" height="378.0" fill="#c44e52"><title>10k_gpu1 | zhoblimp_question_nandao_raising_1_b: 1.000</title></rect>
<rect x="3127.8" y="450.0" width="14.6" height="0.0" fill="#55a868"><title>10k_hanzi_gpu1 | zhoblimp_question_nandao_raising_1_b: 0.000</title></rect>
<rect x="3144.4" y="138.8" width="14.6" height="311.2" fill="#8172b3"><title>10k_initials_gpu1 | zhoblimp_question_nandao_raising_1_b: 0.823</title></rect>
<text x="3127.8" y="466" transform="rotate(62 3127.8 466)" class="label">zhoblimp_question_nandao_raising_...</text>
<rect x="76" y="580" width="14" height="14" fill="#2f6f9f"/>
<text x="96" y="592" class="legend">10k_chinese_gpu1</text>
<rect x="286" y="580" width="14" height="14" fill="#c44e52"/>
<text x="306" y="592" class="legend">10k_gpu1</text>
<rect x="496" y="580" width="14" height="14" fill="#55a868"/>
<text x="516" y="592" class="legend">10k_hanzi_gpu1</text>
<rect x="706" y="580" width="14" height="14" fill="#8172b3"/>
<text x="726" y="592" class="legend">10k_initials_gpu1</text>
</svg>
