<svg xmlns="http://www.w3.org/2000/svg" width="3970" height="620" viewBox="0 0 3970 620">
<style>text{font-family:Arial,sans-serif;fill:#1f2933}.axis{stroke:#9aa5b1;stroke-width:1}.grid{stroke:#e4e7eb;stroke-width:1}.label{font-size:12px}.title{font-size:22px;font-weight:700}.legend{font-size:13px}</style>
<rect width="3970" height="620" fill="#ffffff"/>
<text x="76" y="34" class="title">acc by zhoblimp subtask (2/4)</text>
<line x1="76" y1="450.0" x2="3942" y2="450.0" class="grid"/>
<text x="66" y="454.0" text-anchor="end" class="label">0.0</text>
<line x1="76" y1="374.4" x2="3942" y2="374.4" class="grid"/>
<text x="66" y="378.4" text-anchor="end" class="label">0.2</text>
<line x1="76" y1="298.8" x2="3942" y2="298.8" class="grid"/>
<text x="66" y="302.8" text-anchor="end" class="label">0.4</text>
<line x1="76" y1="223.2" x2="3942" y2="223.2" class="grid"/>
<text x="66" y="227.2" text-anchor="end" class="label">0.6</text>
<line x1="76" y1="147.6" x2="3942" y2="147.6" class="grid"/>
<text x="66" y="151.6" text-anchor="end" class="label">0.8</text>
<line x1="76" y1="72.0" x2="3942" y2="72.0" class="grid"/>
<text x="66" y="76.0" text-anchor="end" class="label">1.0</text>
<line x1="76" y1="72" x2="76" y2="450" class="axis"/>
<line x1="76" y1="450" x2="3942" y2="450" class="axis"/>
<rect x="89.8" y="262.3" width="14.6" height="187.7" fill="#2f6f9f"><title>10k_chinese_gpu1 | zhoblimp_question_particle_nandao: 0.497</title></rect>
<rect x="106.4" y="305.1" width="14.6" height="144.9" fill="#c44e52"><title>10k_gpu1 | zhoblimp_question_particle_nandao: 0.383</title></rect>
<rect x="122.9" y="113.6" width="14.6" height="336.4" fill="#55a868"><title>10k_hanzi_gpu1 | zhoblimp_question_particle_nandao: 0.890</title></rect>
<rect x="139.5" y="72.0" width="14.6" height="378.0" fill="#8172b3"><title>10k_initials_gpu1 | zhoblimp_question_particle_nandao: 1.000</title></rect>
<rect x="156.1" y="141.3" width="14.6" height="308.7" fill="#ccb974"><title>10k_whitespace_false_gpu1 | zhoblimp_question_particle_nandao: 0.817</title></rect>
<text x="131.2" y="466" transform="rotate(62 131.2 466)" class="label">zhoblimp_question_particle_nandao</text>
<rect x="200.3" y="88.4" width="14.6" height="361.6" fill="#2f6f9f"><title>10k_chinese_gpu1 | zhoblimp_npi_renhe_wh_question_subj: 0.957</title></rect>
<rect x="216.8" y="256.0" width="14.6" height="194.0" fill="#c44e52"><title>10k_gpu1 | zhoblimp_npi_renhe_wh_question_subj: 0.513</title></rect>
<rect x="233.4" y="140.0" width="14.6" height="310.0" fill="#55a868"><title>10k_hanzi_gpu1 | zhoblimp_npi_renhe_wh_question_subj: 0.820</title></rect>
<rect x="250.0" y="256.0" width="14.6" height="194.0" fill="#8172b3"><title>10k_initials_gpu1 | zhoblimp_npi_renhe_wh_question_subj: 0.513</title></rect>
<rect x="266.5" y="218.2" width="14.6" height="231.8" fill="#ccb974"><title>10k_whitespace_false_gpu1 | zhoblimp_npi_renhe_wh_question_subj: 0.613</title></rect>
<text x="241.7" y="466" transform="rotate(62 241.7 466)" class="label">zhoblimp_npi_renhe_wh_question_su...</text>
<rect x="310.7" y="89.6" width="14.6" height="360.4" fill="#2f6f9f"><title>10k_chinese_gpu1 | zhoblimp_topicalization_SOV: 0.953</title></rect>
<rect x="327.3" y="141.3" width="14.6" height="308.7" fill="#c44e52"><title>10k_gpu1 | zhoblimp_topicalization_SOV: 0.817</title></rect>
<rect x="343.9" y="378.2" width="14.6" height="71.8" fill="#55a868"><title>10k_hanzi_gpu1 | zhoblimp_topicalization_SOV: 0.190</title></rect>
<rect x="360.4" y="209.3" width="14.6" height="240.7" fill="#8172b3"><title>10k_initials_gpu1 | zhoblimp_topicalization_SOV: 0.637</title></rect>
<rect x="377.0" y="142.6" width="14.6" height="307.4" fill="#ccb974"><title>10k_whitespace_false_gpu1 | zhoblimp_topicalization_SOV: 0.813</title></rect>
<text x="352.1" y="466" transform="rotate(62 352.1 466)" class="label">zhoblimp_topicalization_SOV</text>
<rect x="421.2" y="72.0" width="14.6" height="378.0" fill="#2f6f9f"><title>10k_chinese_gpu1 | zhoblimp_question_nandao_raising_1_b: 1.000</title></rect>
<rect x="437.7" y="72.0" width="14.6" height="378.0" fill="#c44e52"><title>10k_gpu1 | zhoblimp_question_nandao_raising_1_b: 1.000</title></rect>
<rect x="454.3" y="450.0" width="14.6" height="0.0" fill="#55a868"><title>10k_hanzi_gpu1 | zhoblimp_question_nandao_raising_1_b: 0.000</title></rect>
<rect x="470.9" y="138.8" width="14.6" height="311.2" fill="#8172b3"><title>10k_initials_gpu1 | zhoblimp_question_nandao_raising_1_b: 0.823</title></rect>
<rect x="487.5" y="245.9" width="14.6" height="204.1" fill="#ccb974"><title>10k_whitespace_false_gpu1 | zhoblimp_question_nandao_raising_1_b: 0.540</title></rect>
<text x="462.6" y="466" transform="rotate(62 462.6 466)" class="label">zhoblimp_question_nandao_raising_...</text>
<rect x="531.6" y="213.1" width="14.6" height="236.9" fill="#2f6f9f"><title>10k_chinese_gpu1 | zhoblimp_question_V_not_VP_2: 0.627</title></rect>
<rect x="548.2" y="189.2" width="14.6" height="260.8" fill="#c44e52"><title>10k_gpu1 | zhoblimp_question_V_not_VP_2: 0.690</title></rect>
<rect x="564.8" y="218.2" width="14.6" height="231.8" fill="#55a868"><title>10k_hanzi_gpu1 | zhoblimp_question_V_not_VP_2: 0.613</title></rect>
<rect x="581.3" y="283.7" width="14.6" height="166.3" fill="#8172b3"><title>10k_initials_gpu1 | zhoblimp_question_V_not_VP_2: 0.440</title></rect>
<rect x="597.9" y="88.4" width="14.6" height="361.6" fill="#ccb974"><title>10k_whitespace_false_gpu1 | zhoblimp_question_V_not_VP_2: 0.957</title></rect>
<text x="573.1" y="466" transform="rotate(62 573.1 466)" class="label">zhoblimp_question_V_not_VP_2</text>
<rect x="642.1" y="130.0" width="14.6" height="320.0" fill="#2f6f9f"><title>10k_chinese_gpu1 | zhoblimp_you_quantifier_adj: 0.847</title></rect>
<rect x="658.7" y="124.9" width="14.6" height="325.1" fill="#c44e52"><title>10k_gpu1 | zhoblimp_you_quantifier_adj: 0.860</title></rect>
<rect x="675.2" y="254.7" width="14.6" height="195.3" fill="#55a868"><title>10k_hanzi_gpu1 | zhoblimp_you_quantifier_adj: 0.517</title></rect>
<rect x="691.8" y="279.9" width="14.6" height="170.1" fill="#8172b3"><title>10k_initials_gpu1 | zhoblimp_you_quantifier_adj: 0.450</title></rect>
<rect x="708.4" y="223.2" width="14.6" height="226.8" fill="#ccb974"><title>10k_whitespace_false_gpu1 | zhoblimp_you_quantifier_adj: 0.600</title></rect>
<text x="683.5" y="466" transform="rotate(62 683.5 466)" class="label">zhoblimp_you_quantifier_adj</text>
<rect x="752.5" y="109.8" width="14.6" height="340.2" fill="#2f6f9f"><title>10k_chinese_gpu1 | zhoblimp_existential_there_subject_raising: 0.900</title></rect>
<rect x="769.1" y="186.7" width="14.6" height="263.3" fill="#c44e52"><title>10k_gpu1 | zhoblimp_existential_there_subject_raising: 0.697</title></rect>
<rect x="785.7" y="145.1" width="14.6" height="304.9" fill="#55a868"><title>10k_hanzi_gpu1 | zhoblimp_existential_there_subject_raising: 0.807</title></rect>
<rect x="802.3" y="398.3" width="14.6" height="51.7" fill="#8172b3"><title>10k_initials_gpu1 | zhoblimp_existential_there_subject_raising: 0.137</title></rect>
<rect x="818.8" y="185.4" width="14.6" height="264.6" fill="#ccb974"><title>10k_whitespace_false_gpu1 | zhoblimp_existential_there_subject_raising: 0.700</title></rect>
<text x="794.0" y="466" transform="rotate(62 794.0 466)" class="label">zhoblimp_existential_there_subjec...</text>
<rect x="863.0" y="175.3" width="14.6" height="274.7" fill="#2f6f9f"><title>10k_chinese_gpu1 | zhoblimp_question_particle_daodi_choice_tran: 0.727</title></rect>
<rect x="879.6" y="358.0" width="14.6" height="92.0" fill="#c44e52"><title>10k_gpu1 | zhoblimp_question_particle_daodi_choice_tran: 0.243</title></rect>
<rect x="896.1" y="72.0" width="14.6" height="378.0" fill="#55a868"><title>10k_hanzi_gpu1 | zhoblimp_question_particle_daodi_choice_tran: 1.000</title></rect>
<rect x="912.7" y="72.0" width="14.6" height="378.0" fill="#8172b3"><title>10k_initials_gpu1 | zhoblimp_question_particle_daodi_choice_tran: 1.000</title></rect>
<rect x="929.3" y="358.0" width="14.6" height="92.0" fill="#ccb974"><title>10k_whitespace_false_gpu1 | zhoblimp_question_particle_daodi_choice_tran: 0.243</title></rect>
<text x="904.4" y="466" transform="rotate(62 904.4 466)" class="label">zhoblimp_question_particle_daodi_...</text>
<rect x="973.5" y="147.6" width="14.6" height="302.4" fill="#2f6f9f"><title>10k_chinese_gpu1 | zhoblimp_topicalization_SOV_mei: 0.800</title></rect>
<rect x="990.0" y="153.9" width="14.6" height="296.1" fill="#c44e52"><title>10k_gpu1 | zhoblimp_topicalization_SOV_mei: 0.783</title></rect>
<rect x="1006.6" y="288.7" width="14.6" height="161.3" fill="#55a868"><title>10k_hanzi_gpu1 | zhoblimp_topicalization_SOV_mei: 0.427</title></rect>
<rect x="1023.2" y="313.9" width="14.6" height="136.1" fill="#8172b3"><title>10k_initials_gpu1 | zhoblimp_topicalization_SOV_mei: 0.360</title></rect>
<rect x="1039.7" y="145.1" width="14.6" height="304.9" fill="#ccb974"><title>10k_whitespace_false_gpu1 | zhoblimp_topicalization_SOV_mei: 0.807</title></rect>
<text x="1014.9" y="466" transform="rotate(62 1014.9 466)" class="label">zhoblimp_topicalization_SOV_mei</text>
<rect x="1083.9" y="171.5" width="14.6" height="278.5" fill="#2f6f9f"><title>10k_chinese_gpu1 | zhoblimp_passive_body_part: 0.737</title></rect>
<rect x="1100.5" y="182.9" width="14.6" height="267.1" fill="#c44e52"><title>10k_gpu1 | zhoblimp_passive_body_part: 0.707</title></rect>
<rect x="1117.1" y="199.3" width="14.6" height="250.7" fill="#55a868"><title>10k_hanzi_gpu1 | zhoblimp_passive_body_part: 0.663</title></rect>
<rect x="1133.6" y="223.2" width="14.6" height="226.8" fill="#8172b3"><title>10k_initials_gpu1 | zhoblimp_passive_body_part: 0.600</title></rect>
<rect x="1150.2" y="272.3" width="14.6" height="177.7" fill="#ccb974"><title>10k_whitespace_false_gpu1 | zhoblimp_passive_body_part: 0.470</title></rect>
<text x="1125.3" y="466" transform="rotate(62 1125.3 466)" class="label">zhoblimp_passive_body_part</text>
<rect x="1194.4" y="79.6" width="14.6" height="370.4" fill="#2f6f9f"><title>10k_chinese_gpu1 | zhoblimp_question_nandao_raising_3: 0.980</title></rect>
<rect x="1210.9" y="180.4" width="14.6" height="269.6" fill="#c44e52"><title>10k_gpu1 | zhoblimp_question_nandao_raising_3: 0.713</title></rect>
<rect x="1227.5" y="258.5" width="14.6" height="191.5" fill="#55a868"><title>10k_hanzi_gpu1 | zhoblimp_question_nandao_raising_3: 0.507</title></rect>
<rect x="1244.1" y="341.6" width="14.6" height="108.4" fill="#8172b3"><title>10k_initials_gpu1 | zhoblimp_question_nandao_raising_3: 0.287</title></rect>
<rect x="1260.7" y="233.3" width="14.6" height="216.7" fill="#ccb974"><title>10k_whitespace_false_gpu1 | zhoblimp_question_nandao_raising_3: 0.573</title></rect>
<text x="1235.8" y="466" transform="rotate(62 1235.8 466)" class="label">zhoblimp_question_nandao_raising_3</text>
<rect x="1304.8" y="206.8" width="14.6" height="243.2" fill="#2f6f9f"><title>10k_chinese_gpu1 | zhoblimp_agent_animacy_passive: 0.643</title></rect>
<rect x="1321.4" y="257.2" width="14.6" height="192.8" fill="#c44e52"><title>10k_gpu1 | zhoblimp_agent_animacy_passive: 0.510</title></rect>
<rect x="1338.0" y="179.1" width="14.6" height="270.9" fill="#55a868"><title>10k_hanzi_gpu1 | zhoblimp_agent_animacy_passive: 0.717</title></rect>
<rect x="1354.5" y="225.7" width="14.6" height="224.3" fill="#8172b3"><title>10k_initials_gpu1 | zhoblimp_agent_animacy_passive: 0.593</title></rect>
<rect x="1371.1" y="224.5" width="14.6" height="225.5" fill="#ccb974"><title>10k_whitespace_false_gpu1 | zhoblimp_agent_animacy_passive: 0.597</title></rect>
<text x="1346.3" y="466" transform="rotate(62 1346.3 466)" class="label">zhoblimp_agent_animacy_passive</text>
<rect x="1415.3" y="204.3" width="14.6" height="245.7" fill="#2f6f9f"><title>10k_chinese_gpu1 | zhoblimp_left_adverbial_b: 0.650</title></rect>
<rect x="1431.9" y="196.7" width="14.6" height="253.3" fill="#c44e52"><title>10k_gpu1 | zhoblimp_left_adverbial_b: 0.670</title></rect>
<rect x="1448.4" y="224.5" width="14.6" height="225.5" fill="#55a868"><title>10k_hanzi_gpu1 | zhoblimp_left_adverbial_b: 0.597</title></rect>
<rect x="1465.0" y="238.3" width="14.6" height="211.7" fill="#8172b3"><title>10k_initials_gpu1 | zhoblimp_left_adverbial_b: 0.560</title></rect>
<rect x="1481.6" y="238.3" width="14.6" height="211.7" fill="#ccb974"><title>10k_whitespace_false_gpu1 | zhoblimp_left_adverbial_b: 0.560</title></rect>
<text x="1456.7" y="466" transform="rotate(62 1456.7 466)" class="label">zhoblimp_left_adverbial_b</text>
<rect x="1525.8" y="172.8" width="14.6" height="277.2" fill="#2f6f9f"><title>10k_chinese_gpu1 | zhoblimp_left_adverbial_d: 0.733</title></rect>
<rect x="1542.3" y="184.1" width="14.6" height="265.9" fill="#c44e52"><title>10k_gpu1 | zhoblimp_left_adverbial_d: 0.703</title></rect>
<rect x="1558.9" y="257.2" width="14.6" height="192.8" fill="#55a868"><title>10k_hanzi_gpu1 | zhoblimp_left_adverbial_d: 0.510</title></rect>
<rect x="1575.5" y="274.9" width="14.6" height="175.1" fill="#8172b3"><title>10k_initials_gpu1 | zhoblimp_left_adverbial_d: 0.463</title></rect>
<rect x="1592.0" y="213.1" width="14.6" height="236.9" fill="#ccb974"><title>10k_whitespace_false_gpu1 | zhoblimp_left_adverbial_d: 0.627</title></rect>
<text x="1567.2" y="466" transform="rotate(62 1567.2 466)" class="label">zhoblimp_left_adverbial_d</text>
<rect x="1636.2" y="157.7" width="14.6" height="292.3" fill="#2f6f9f"><title>10k_chinese_gpu1 | zhoblimp_modal_raising_hui: 0.773</title></rect>
<rect x="1652.8" y="127.4" width="14.6" height="322.6" fill="#c44e52"><title>10k_gpu1 | zhoblimp_modal_raising_hui: 0.853</title></rect>
<rect x="1669.3" y="346.7" width="14.6" height="103.3" fill="#55a868"><title>10k_hanzi_gpu1 | zhoblimp_modal_raising_hui: 0.273</title></rect>
<rect x="1685.9" y="303.8" width="14.6" height="146.2" fill="#8172b3"><title>10k_initials_gpu1 | zhoblimp_modal_raising_hui: 0.387</title></rect>
<rect x="1702.5" y="174.1" width="14.6" height="275.9" fill="#ccb974"><title>10k_whitespace_false_gpu1 | zhoblimp_modal_raising_hui: 0.730</title></rect>
<text x="1677.6" y="466" transform="rotate(62 1677.6 466)" class="label">zhoblimp_modal_raising_hui</text>
<rect x="1746.7" y="201.8" width="14.6" height="248.2" fill="#2f6f9f"><title>10k_chinese_gpu1 | zhoblimp_ellipsis_adj: 0.657</title></rect>
<rect x="1763.2" y="219.4" width="14.6" height="230.6" fill="#c44e52"><title>10k_gpu1 | zhoblimp_ellipsis_adj: 0.610</title></rect>
<rect x="1779.8" y="227.0" width="14.6" height="223.0" fill="#55a868"><title>10k_hanzi_gpu1 | zhoblimp_ellipsis_adj: 0.590</title></rect>
<rect x="1796.4" y="201.8" width="14.6" height="248.2" fill="#8172b3"><title>10k_initials_gpu1 | zhoblimp_ellipsis_adj: 0.657</title></rect>
<rect x="1812.9" y="261.0" width="14.6" height="189.0" fill="#ccb974"><title>10k_whitespace_false_gpu1 | zhoblimp_ellipsis_adj: 0.500</title></rect>
<text x="1788.1" y="466" transform="rotate(62 1788.1 466)" class="label">zhoblimp_ellipsis_adj</text>
<rect x="1857.1" y="208.1" width="14.6" height="241.9" fill="#2f6f9f"><title>10k_chinese_gpu1 | zhoblimp_nominal_modal_insertion: 0.640</title></rect>
<rect x="1873.7" y="205.6" width="14.6" height="244.4" fill="#c44e52"><title>10k_gpu1 | zhoblimp_nominal_modal_insertion: 0.647</title></rect>
<rect x="1890.3" y="190.4" width="14.6" height="259.6" fill="#55a868"><title>10k_hanzi_gpu1 | zhoblimp_nominal_modal_insertion: 0.687</title></rect>
<rect x="1906.8" y="288.7" width="14.6" height="161.3" fill="#8172b3"><title>10k_initials_gpu1 | zhoblimp_nominal_modal_insertion: 0.427</title></rect>
<rect x="1923.4" y="224.5" width="14.6" height="225.5" fill="#ccb974"><title>10k_whitespace_false_gpu1 | zhoblimp_nominal_modal_insertion: 0.597</title></rect>
<text x="1898.5" y="466" transform="rotate(62 1898.5 466)" class="label">zhoblimp_nominal_modal_insertion</text>
<rect x="1967.6" y="195.5" width="14.6" height="254.5" fill="#2f6f9f"><title>10k_chinese_gpu1 | zhoblimp_agent_causative: 0.673</title></rect>
<rect x="1984.1" y="245.9" width="14.6" height="204.1" fill="#c44e52"><title>10k_gpu1 | zhoblimp_agent_causative: 0.540</title></rect>
<rect x="2000.7" y="220.7" width="14.6" height="229.3" fill="#55a868"><title>10k_hanzi_gpu1 | zhoblimp_agent_causative: 0.607</title></rect>
<rect x="2017.3" y="245.9" width="14.6" height="204.1" fill="#8172b3"><title>10k_initials_gpu1 | zhoblimp_agent_causative: 0.540</title></rect>
<rect x="2033.9" y="210.6" width="14.6" height="239.4" fill="#ccb974"><title>10k_whitespace_false_gpu1 | zhoblimp_agent_causative: 0.633</title></rect>
<text x="2009.0" y="466" transform="rotate(62 2009.0 466)" class="label">zhoblimp_agent_causative</text>
<rect x="2078.0" y="135.0" width="14.6" height="315.0" fill="#2f6f9f"><title>10k_chinese_gpu1 | zhoblimp_passive_no_adj: 0.833</title></rect>
<rect x="2094.6" y="140.0" width="14.6" height="310.0" fill="#c44e52"><title>10k_gpu1 | zhoblimp_passive_no_adj: 0.820</title></rect>
<rect x="2111.2" y="315.2" width="14.6" height="134.8" fill="#55a868"><title>10k_hanzi_gpu1 | zhoblimp_passive_no_adj: 0.357</title></rect>
<rect x="2127.7" y="331.6" width="14.6" height="118.4" fill="#8172b3"><title>10k_initials_gpu1 | zhoblimp_passive_no_adj: 0.313</title></rect>
<rect x="2144.3" y="200.5" width="14.6" height="249.5" fill="#ccb974"><title>10k_whitespace_false_gpu1 | zhoblimp_passive_no_adj: 0.660</title></rect>
<text x="2119.5" y="466" transform="rotate(62 2119.5 466)" class="label">zhoblimp_passive_no_adj</text>
<rect x="2188.5" y="89.6" width="14.6" height="360.4" fill="#2f6f9f"><title>10k_chinese_gpu1 | zhoblimp_ya_insertion: 0.953</title></rect>
<rect x="2205.1" y="123.7" width="14.6" height="326.3" fill="#c44e52"><title>10k_gpu1 | zhoblimp_ya_insertion: 0.863</title></rect>
<rect x="2221.6" y="295.0" width="14.6" height="155.0" fill="#55a868"><title>10k_hanzi_gpu1 | zhoblimp_ya_insertion: 0.410</title></rect>
<rect x="2238.2" y="389.5" width="14.6" height="60.5" fill="#8172b3"><title>10k_initials_gpu1 | zhoblimp_ya_insertion: 0.160</title></rect>
<rect x="2254.8" y="224.5" width="14.6" height="225.5" fill="#ccb974"><title>10k_whitespace_false_gpu1 | zhoblimp_ya_insertion: 0.597</title></rect>
<text x="2229.9" y="466" transform="rotate(62 2229.9 466)" class="label">zhoblimp_ya_insertion</text>
<rect x="2298.9" y="329.0" width="14.6" height="121.0" fill="#2f6f9f"><title>10k_chinese_gpu1 | zhoblimp_BEI_construction_b: 0.320</title></rect>
<rect x="2315.5" y="191.7" width="14.6" height="258.3" fill="#c44e52"><title>10k_gpu1 | zhoblimp_BEI_construction_b: 0.683</title></rect>
<rect x="2332.1" y="310.1" width="14.6" height="139.9" fill="#55a868"><title>10k_hanzi_gpu1 | zhoblimp_BEI_construction_b: 0.370</title></rect>
<rect x="2348.7" y="102.2" width="14.6" height="347.8" fill="#8172b3"><title>10k_initials_gpu1 | zhoblimp_BEI_construction_b: 0.920</title></rect>
<rect x="2365.2" y="194.2" width="14.6" height="255.8" fill="#ccb974"><title>10k_whitespace_false_gpu1 | zhoblimp_BEI_construction_b: 0.677</title></rect>
<text x="2340.4" y="466" transform="rotate(62 2340.4 466)" class="label">zhoblimp_BEI_construction_b</text>
<rect x="2409.4" y="194.2" width="14.6" height="255.8" fill="#2f6f9f"><title>10k_chinese_gpu1 | zhoblimp_BEI_construction_a: 0.677</title></rect>
<rect x="2426.0" y="225.7" width="14.6" height="224.3" fill="#c44e52"><title>10k_gpu1 | zhoblimp_BEI_construction_a: 0.593</title></rect>
<rect x="2442.5" y="300.1" width="14.6" height="149.9" fill="#55a868"><title>10k_hanzi_gpu1 | zhoblimp_BEI_construction_a: 0.397</title></rect>
<rect x="2459.1" y="156.4" width="14.6" height="293.6" fill="#8172b3"><title>10k_initials_gpu1 | zhoblimp_BEI_construction_a: 0.777</title></rect>
<rect x="2475.7" y="267.3" width="14.6" height="182.7" fill="#ccb974"><title>10k_whitespace_false_gpu1 | zhoblimp_BEI_construction_a: 0.483</title></rect>
<text x="2450.8" y="466" transform="rotate(62 2450.8 466)" class="label">zhoblimp_BEI_construction_a</text>
<rect x="2519.9" y="321.5" width="14.6" height="128.5" fill="#2f6f9f"><title>10k_chinese_gpu1 | zhoblimp_npi_renhe_wh_question_obj: 0.340</title></rect>
<rect x="2536.4" y="229.5" width="14.6" height="220.5" fill="#c44e52"><title>10k_gpu1 | zhoblimp_npi_renhe_wh_question_obj: 0.583</title></rect>
<rect x="2553.0" y="72.0" width="14.6" height="378.0" fill="#55a868"><title>10k_hanzi_gpu1 | zhoblimp_npi_renhe_wh_question_obj: 1.000</title></rect>
<rect x="2569.6" y="450.0" width="14.6" height="0.0" fill="#8172b3"><title>10k_initials_gpu1 | zhoblimp_npi_renhe_wh_question_obj: 0.000</title></rect>
<rect x="2586.1" y="77.0" width="14.6" height="373.0" fill="#ccb974"><title>10k_whitespace_false_gpu1 | zhoblimp_npi_renhe_wh_question_obj: 0.987</title></rect>
<text x="2561.3" y="466" transform="rotate(62 2561.3 466)" class="label">zhoblimp_npi_renhe_wh_question_obj</text>
<rect x="2630.3" y="266.0" width="14.6" height="184.0" fill="#2f6f9f"><title>10k_chinese_gpu1 | zhoblimp_intransitive_no_obj: 0.487</title></rect>
<rect x="2646.9" y="247.1" width="14.6" height="202.9" fill="#c44e52"><title>10k_gpu1 | zhoblimp_intransitive_no_obj: 0.537</title></rect>
<rect x="2663.5" y="230.8" width="14.6" height="219.2" fill="#55a868"><title>10k_hanzi_gpu1 | zhoblimp_intransitive_no_obj: 0.580</title></rect>
<rect x="2680.0" y="201.8" width="14.6" height="248.2" fill="#8172b3"><title>10k_initials_gpu1 | zhoblimp_intransitive_no_obj: 0.657</title></rect>
<rect x="2696.6" y="205.6" width="14.6" height="244.4" fill="#ccb974"><title>10k_whitespace_false_gpu1 | zhoblimp_intransitive_no_obj: 0.647</title></rect>
<text x="2671.7" y="466" transform="rotate(62 2671.7 466)" class="label">zhoblimp_intransitive_no_obj</text>
<rect x="2740.8" y="146.3" width="14.6" height="303.7" fill="#2f6f9f"><title>10k_chinese_gpu1 | zhoblimp_verb_phrase_left_adverbial: 0.803</title></rect>
<rect x="2757.3" y="146.3" width="14.6" height="303.7" fill="#c44e52"><title>10k_gpu1 | zhoblimp_verb_phrase_left_adverbial: 0.803</title></rect>
<rect x="2773.9" y="306.4" width="14.6" height="143.6" fill="#55a868"><title>10k_hanzi_gpu1 | zhoblimp_verb_phrase_left_adverbial: 0.380</title></rect>
<rect x="2790.5" y="315.2" width="14.6" height="134.8" fill="#8172b3"><title>10k_initials_gpu1 | zhoblimp_verb_phrase_left_adverbial: 0.357</title></rect>
<rect x="2807.1" y="264.8" width="14.6" height="185.2" fill="#ccb974"><title>10k_whitespace_false_gpu1 | zhoblimp_verb_phrase_left_adverbial: 0.490</title></rect>
<text x="2782.2" y="466" transform="rotate(62 2782.2 466)" class="label">zhoblimp_verb_phrase_left_adverbi...</text>
<rect x="2851.2" y="196.7" width="14.6" height="253.3" fill="#2f6f9f"><title>10k_chinese_gpu1 | zhoblimp_npi_renhe_neg_scope_subj: 0.670</title></rect>
<rect x="2867.8" y="303.8" width="14.6" height="146.2" fill="#c44e52"><title>10k_gpu1 | zhoblimp_npi_renhe_neg_scope_subj: 0.387</title></rect>
<rect x="2884.4" y="73.3" width="14.6" height="376.7" fill="#55a868"><title>10k_hanzi_gpu1 | zhoblimp_npi_renhe_neg_scope_subj: 0.997</title></rect>
<rect x="2900.9" y="450.0" width="14.6" height="0.0" fill="#8172b3"><title>10k_initials_gpu1 | zhoblimp_npi_renhe_neg_scope_subj: 0.000</title></rect>
<rect x="2917.5" y="158.9" width="14.6" height="291.1" fill="#ccb974"><title>10k_whitespace_false_gpu1 | zhoblimp_npi_renhe_neg_scope_subj: 0.770</title></rect>
<text x="2892.7" y="466" transform="rotate(62 2892.7 466)" class="label">zhoblimp_npi_renhe_neg_scope_subj</text>
<rect x="2961.7" y="145.1" width="14.6" height="304.9" fill="#2f6f9f"><title>10k_chinese_gpu1 | zhoblimp_modal_raising_topicalization: 0.807</title></rect>
<rect x="2978.3" y="182.9" width="14.6" height="267.1" fill="#c44e52"><title>10k_gpu1 | zhoblimp_modal_raising_topicalization: 0.707</title></rect>
<rect x="2994.8" y="300.1" width="14.6" height="149.9" fill="#55a868"><title>10k_hanzi_gpu1 | zhoblimp_modal_raising_topicalization: 0.397</title></rect>
<rect x="3011.4" y="398.3" width="14.6" height="51.7" fill="#8172b3"><title>10k_initials_gpu1 | zhoblimp_modal_raising_topicalization: 0.137</title></rect>
<rect x="3028.0" y="157.7" width="14.6" height="292.3" fill="#ccb974"><title>10k_whitespace_false_gpu1 | zhoblimp_modal_raising_topicalization: 0.773</title></rect>
<text x="3003.1" y="466" transform="rotate(62 3003.1 466)" class="label">zhoblimp_modal_raising_topicaliza...</text>
<rect x="3072.1" y="272.3" width="14.6" height="177.7" fill="#2f6f9f"><title>10k_chinese_gpu1 | zhoblimp_left_adverbial_e: 0.470</title></rect>
<rect x="3088.7" y="166.5" width="14.6" height="283.5" fill="#c44e52"><title>10k_gpu1 | zhoblimp_left_adverbial_e: 0.750</title></rect>
<rect x="3105.3" y="235.8" width="14.6" height="214.2" fill="#55a868"><title>10k_hanzi_gpu1 | zhoblimp_left_adverbial_e: 0.567</title></rect>
<rect x="3121.9" y="215.6" width="14.6" height="234.4" fill="#8172b3"><title>10k_initials_gpu1 | zhoblimp_left_adverbial_e: 0.620</title></rect>
<rect x="3138.4" y="303.8" width="14.6" height="146.2" fill="#ccb974"><title>10k_whitespace_false_gpu1 | zhoblimp_left_adverbial_e: 0.387</title></rect>
<text x="3113.6" y="466" transform="rotate(62 3113.6 466)" class="label">zhoblimp_left_adverbial_e</text>
<rect x="3182.6" y="72.0" width="14.6" height="378.0" fill="#2f6f9f"><title>10k_chinese_gpu1 | zhoblimp_fci_renhe_prepP: 1.000</title></rect>
<rect x="3199.2" y="72.0" width="14.6" height="378.0" fill="#c44e52"><title>10k_gpu1 | zhoblimp_fci_renhe_prepP: 1.000</title></rect>
<rect x="3215.7" y="450.0" width="14.6" height="0.0" fill="#55a868"><title>10k_hanzi_gpu1 | zhoblimp_fci_renhe_prepP: 0.000</title></rect>
<rect x="3232.3" y="450.0" width="14.6" height="0.0" fill="#8172b3"><title>10k_initials_gpu1 | zhoblimp_fci_renhe_prepP: 0.000</title></rect>
<rect x="3248.9" y="153.9" width="14.6" height="296.1" fill="#ccb974"><title>10k_whitespace_false_gpu1 | zhoblimp_fci_renhe_prepP: 0.783</title></rect>
<text x="3224.0" y="466" transform="rotate(62 3224.0 466)" class="label">zhoblimp_fci_renhe_prepP</text>
<rect x="3293.1" y="101.0" width="14.6" height="349.0" fill="#2f6f9f"><title>10k_chinese_gpu1 | zhoblimp_question_nandao_raising_2: 0.923</title></rect>
<rect x="3309.6" y="72.0" width="14.6" height="378.0" fill="#c44e52"><title>10k_gpu1 | zhoblimp_question_nandao_raising_2: 1.000</title></rect>
<rect x="3326.2" y="402.1" width="14.6" height="47.9" fill="#55a868"><title>10k_hanzi_gpu1 | zhoblimp_question_nandao_raising_2: 0.127</title></rect>
<rect x="3342.8" y="450.0" width="14.6" height="0.0" fill="#8172b3"><title>10k_initials_gpu1 | zhoblimp_question_nandao_raising_2: 0.000</title></rect>
<rect x="3359.3" y="174.1" width="14.6" height="275.9" fill="#ccb974"><title>10k_whitespace_false_gpu1 | zhoblimp_question_nandao_raising_2: 0.730</title></rect>
<text x="3334.5" y="466" transform="rotate(62 3334.5 466)" class="label">zhoblimp_question_nandao_raising_2</text>
<rect x="3403.5" y="179.1" width="14.6" height="270.9" fill="#2f6f9f"><title>10k_chinese_gpu1 | zhoblimp_BA_inversion: 0.717</title></rect>
<rect x="3420.1" y="247.1" width="14.6" height="202.9" fill="#c44e52"><title>10k_gpu1 | zhoblimp_BA_inversion: 0.537</title></rect>
<rect x="3436.7" y="281.2" width="14.6" height="168.8" fill="#55a868"><title>10k_hanzi_gpu1 | zhoblimp_BA_inversion: 0.447</title></rect>
<rect x="3453.2" y="282.4" width="14.6" height="167.6" fill="#8172b3"><title>10k_initials_gpu1 | zhoblimp_BA_inversion: 0.443</title></rect>
<rect x="3469.8" y="211.9" width="14.6" height="238.1" fill="#ccb974"><title>10k_whitespace_false_gpu1 | zhoblimp_BA_inversion: 0.630</title></rect>
<text x="3444.9" y="466" transform="rotate(62 3444.9 466)" class="label">zhoblimp_BA_inversion</text>
<rect x="3514.0" y="180.4" width="14.6" height="269.6" fill="#2f6f9f"><title>10k_chinese_gpu1 | zhoblimp_BA_negation: 0.713</title></rect>
<rect x="3530.5" y="186.7" width="14.6" height="263.3" fill="#c44e52"><title>10k_gpu1 | zhoblimp_BA_negation: 0.697</title></rect>
<rect x="3547.1" y="281.2" width="14.6" height="168.8" fill="#55a868"><title>10k_hanzi_gpu1 | zhoblimp_BA_negation: 0.447</title></rect>
<rect x="3563.7" y="300.1" width="14.6" height="149.9" fill="#8172b3"><title>10k_initials_gpu1 | zhoblimp_BA_negation: 0.397</title></rect>
<rect x="3580.3" y="274.9" width="14.6" height="175.1" fill="#ccb974"><title>10k_whitespace_false_gpu1 | zhoblimp_BA_negation: 0.463</title></rect>
<text x="3555.4" y="466" transform="rotate(62 3555.4 466)" class="label">zhoblimp_BA_negation</text>
<rect x="3624.4" y="235.8" width="14.6" height="214.2" fill="#2f6f9f"><title>10k_chinese_gpu1 | zhoblimp_ellipsis_n_bar_class: 0.567</title></rect>
<rect x="3641.0" y="244.6" width="14.6" height="205.4" fill="#c44e52"><title>10k_gpu1 | zhoblimp_ellipsis_n_bar_class: 0.543</title></rect>
<rect x="3657.6" y="254.7" width="14.6" height="195.3" fill="#55a868"><title>10k_hanzi_gpu1 | zhoblimp_ellipsis_n_bar_class: 0.517</title></rect>
<rect x="3674.1" y="254.7" width="14.6" height="195.3" fill="#8172b3"><title>10k_initials_gpu1 | zhoblimp_ellipsis_n_bar_class: 0.517</title></rect>
<rect x="3690.7" y="247.1" width="14.6" height="202.9" fill="#ccb974"><title>10k_whitespace_false_gpu1 | zhoblimp_ellipsis_n_bar_class: 0.537</title></rect>
<text x="3665.9" y="466" transform="rotate(62 3665.9 466)" class="label">zhoblimp_ellipsis_n_bar_class</text>
<rect x="3734.9" y="229.5" width="14.6" height="220.5" fill="#2f6f9f"><title>10k_chinese_gpu1 | zhoblimp_intransitive_double_obj: 0.583</title></rect>
<rect x="3751.5" y="301.3" width="14.6" height="148.7" fill="#c44e52"><title>10k_gpu1 | zhoblimp_intransitive_double_obj: 0.393</title></rect>
<rect x="3768.0" y="167.8" width="14.6" height="282.2" fill="#55a868"><title>10k_hanzi_gpu1 | zhoblimp_intransitive_double_obj: 0.747</title></rect>
<rect x="3784.6" y="320.2" width="14.6" height="129.8" fill="#8172b3"><title>10k_initials_gpu1 | zhoblimp_intransitive_double_obj: 0.343</title></rect>
<rect x="3801.2" y="227.0" width="14.6" height="223.0" fill="#ccb974"><title>10k_whitespace_false_gpu1 | zhoblimp_intransitive_double_obj: 0.590</title></rect>
<text x="3776.3" y="466" transform="rotate(62 3776.3 466)" class="label">zhoblimp_intransitive_double_obj</text>
<rect x="3845.3" y="206.8" width="14.6" height="243.2" fill="#2f6f9f"><title>10k_chinese_gpu1 | zhoblimp_agent_animacy_subj: 0.643</title></rect>
<rect x="3861.9" y="261.0" width="14.6" height="189.0" fill="#c44e52"><title>10k_gpu1 | zhoblimp_agent_animacy_subj: 0.500</title></rect>
<rect x="3878.5" y="256.0" width="14.6" height="194.0" fill="#55a868"><title>10k_hanzi_gpu1 | zhoblimp_agent_animacy_subj: 0.513</title></rect>
<rect x="3895.1" y="302.6" width="14.6" height="147.4" fill="#8172b3"><title>10k_initials_gpu1 | zhoblimp_agent_animacy_subj: 0.390</title></rect>
<rect x="3911.6" y="224.5" width="14.6" height="225.5" fill="#ccb974"><title>10k_whitespace_false_gpu1 | zhoblimp_agent_animacy_subj: 0.597</title></rect>
<text x="3886.8" y="466" transform="rotate(62 3886.8 466)" class="label">zhoblimp_agent_animacy_subj</text>
<rect x="76" y="580" width="14" height="14" fill="#2f6f9f"/>
<text x="96" y="592" class="legend">10k_chinese_gpu1</text>
<rect x="286" y="580" width="14" height="14" fill="#c44e52"/>
<text x="306" y="592" class="legend">10k_gpu1</text>
<rect x="496" y="580" width="14" height="14" fill="#55a868"/>
<text x="516" y="592" class="legend">10k_hanzi_gpu1</text>
<rect x="706" y="580" width="14" height="14" fill="#8172b3"/>
<text x="726" y="592" class="legend">10k_initials_gpu1</text>
<rect x="916" y="580" width="14" height="14" fill="#ccb974"/>
<text x="936" y="592" class="legend">10k_whitespace_false_gpu1</text>
</svg>
