<svg xmlns="http://www.w3.org/2000/svg" width="3970" height="620" viewBox="0 0 3970 620">
<style>text{font-family:Arial,sans-serif;fill:#1f2933}.axis{stroke:#9aa5b1;stroke-width:1}.grid{stroke:#e4e7eb;stroke-width:1}.label{font-size:12px}.title{font-size:22px;font-weight:700}.legend{font-size:13px}</style>
<rect width="3970" height="620" fill="#ffffff"/>
<text x="76" y="34" class="title">acc by zhoblimp subtask (1/4)</text>
<line x1="76" y1="450.0" x2="3942" y2="450.0" class="grid"/>
<text x="66" y="454.0" text-anchor="end" class="label">0.0</text>
<line x1="76" y1="374.4" x2="3942" y2="374.4" class="grid"/>
<text x="66" y="378.4" text-anchor="end" class="label">0.2</text>
<line x1="76" y1="298.8" x2="3942" y2="298.8" class="grid"/>
<text x="66" y="302.8" text-anchor="end" class="label">0.4</text>
<line x1="76" y1="223.2" x2="3942" y2="223.2" class="grid"/>
<text x="66" y="227.2" text-anchor="end" class="label">0.6</text>
<line x1="76" y1="147.6" x2="3942" y2="147.6" class="grid"/>
<text x="66" y="151.6" text-anchor="end" class="label">0.8</text>
<line x1="76" y1="72.0" x2="3942" y2="72.0" class="grid"/>
<text x="66" y="76.0" text-anchor="end" class="label">1.0</text>
<line x1="76" y1="72" x2="76" y2="450" class="axis"/>
<line x1="76" y1="450" x2="3942" y2="450" class="axis"/>
<rect x="89.8" y="72.0" width="14.6" height="378.0" fill="#2f6f9f"><title>10k_chinese_gpu1 | zhoblimp_principle_A_c_command: 1.000</title></rect>
<rect x="106.4" y="72.0" width="14.6" height="378.0" fill="#c44e52"><title>10k_gpu1 | zhoblimp_principle_A_c_command: 1.000</title></rect>
<rect x="122.9" y="72.0" width="14.6" height="378.0" fill="#55a868"><title>10k_hanzi_gpu1 | zhoblimp_principle_A_c_command: 1.000</title></rect>
<rect x="139.5" y="72.0" width="14.6" height="378.0" fill="#8172b3"><title>10k_initials_gpu1 | zhoblimp_principle_A_c_command: 1.000</title></rect>
<rect x="156.1" y="72.0" width="14.6" height="378.0" fill="#ccb974"><title>10k_whitespace_false_gpu1 | zhoblimp_principle_A_c_command: 1.000</title></rect>
<text x="131.2" y="466" transform="rotate(62 131.2 466)" class="label">zhoblimp_principle_A_c_command</text>
<rect x="200.3" y="72.0" width="14.6" height="378.0" fill="#2f6f9f"><title>10k_chinese_gpu1 | zhoblimp_relativization_movement_when_where: 1.000</title></rect>
<rect x="216.8" y="72.0" width="14.6" height="378.0" fill="#c44e52"><title>10k_gpu1 | zhoblimp_relativization_movement_when_where: 1.000</title></rect>
<rect x="233.4" y="72.0" width="14.6" height="378.0" fill="#55a868"><title>10k_hanzi_gpu1 | zhoblimp_relativization_movement_when_where: 1.000</title></rect>
<rect x="250.0" y="72.0" width="14.6" height="378.0" fill="#8172b3"><title>10k_initials_gpu1 | zhoblimp_relativization_movement_when_where: 1.000</title></rect>
<rect x="266.5" y="72.0" width="14.6" height="378.0" fill="#ccb974"><title>10k_whitespace_false_gpu1 | zhoblimp_relativization_movement_when_where: 1.000</title></rect>
<text x="241.7" y="466" transform="rotate(62 241.7 466)" class="label">zhoblimp_relativization_movement_...</text>
<rect x="310.7" y="72.0" width="14.6" height="378.0" fill="#2f6f9f"><title>10k_chinese_gpu1 | zhoblimp_ellipsis_double_object: 1.000</title></rect>
<rect x="327.3" y="72.0" width="14.6" height="378.0" fill="#c44e52"><title>10k_gpu1 | zhoblimp_ellipsis_double_object: 1.000</title></rect>
<rect x="343.9" y="72.0" width="14.6" height="378.0" fill="#55a868"><title>10k_hanzi_gpu1 | zhoblimp_ellipsis_double_object: 1.000</title></rect>
<rect x="360.4" y="72.0" width="14.6" height="378.0" fill="#8172b3"><title>10k_initials_gpu1 | zhoblimp_ellipsis_double_object: 1.000</title></rect>
<rect x="377.0" y="72.0" width="14.6" height="378.0" fill="#ccb974"><title>10k_whitespace_false_gpu1 | zhoblimp_ellipsis_double_object: 1.000</title></rect>
<text x="352.1" y="466" transform="rotate(62 352.1 466)" class="label">zhoblimp_ellipsis_double_object</text>
<rect x="421.2" y="72.0" width="14.6" height="378.0" fill="#2f6f9f"><title>10k_chinese_gpu1 | zhoblimp_question_A_not_A_indirect: 1.000</title></rect>
<rect x="437.7" y="72.0" width="14.6" height="378.0" fill="#c44e52"><title>10k_gpu1 | zhoblimp_question_A_not_A_indirect: 1.000</title></rect>
<rect x="454.3" y="72.0" width="14.6" height="378.0" fill="#55a868"><title>10k_hanzi_gpu1 | zhoblimp_question_A_not_A_indirect: 1.000</title></rect>
<rect x="470.9" y="72.0" width="14.6" height="378.0" fill="#8172b3"><title>10k_initials_gpu1 | zhoblimp_question_A_not_A_indirect: 1.000</title></rect>
<rect x="487.5" y="72.0" width="14.6" height="378.0" fill="#ccb974"><title>10k_whitespace_false_gpu1 | zhoblimp_question_A_not_A_indirect: 1.000</title></rect>
<text x="462.6" y="466" transform="rotate(62 462.6 466)" class="label">zhoblimp_question_A_not_A_indirect</text>
<rect x="531.6" y="72.0" width="14.6" height="378.0" fill="#2f6f9f"><title>10k_chinese_gpu1 | zhoblimp_BA_duplicate_argument: 1.000</title></rect>
<rect x="548.2" y="72.0" width="14.6" height="378.0" fill="#c44e52"><title>10k_gpu1 | zhoblimp_BA_duplicate_argument: 1.000</title></rect>
<rect x="564.8" y="72.0" width="14.6" height="378.0" fill="#55a868"><title>10k_hanzi_gpu1 | zhoblimp_BA_duplicate_argument: 1.000</title></rect>
<rect x="581.3" y="72.0" width="14.6" height="378.0" fill="#8172b3"><title>10k_initials_gpu1 | zhoblimp_BA_duplicate_argument: 1.000</title></rect>
<rect x="597.9" y="72.0" width="14.6" height="378.0" fill="#ccb974"><title>10k_whitespace_false_gpu1 | zhoblimp_BA_duplicate_argument: 1.000</title></rect>
<text x="573.1" y="466" transform="rotate(62 573.1 466)" class="label">zhoblimp_BA_duplicate_argument</text>
<rect x="642.1" y="72.0" width="14.6" height="378.0" fill="#2f6f9f"><title>10k_chinese_gpu1 | zhoblimp_BA_meiba: 1.000</title></rect>
<rect x="658.7" y="72.0" width="14.6" height="378.0" fill="#c44e52"><title>10k_gpu1 | zhoblimp_BA_meiba: 1.000</title></rect>
<rect x="675.2" y="72.0" width="14.6" height="378.0" fill="#55a868"><title>10k_hanzi_gpu1 | zhoblimp_BA_meiba: 1.000</title></rect>
<rect x="691.8" y="72.0" width="14.6" height="378.0" fill="#8172b3"><title>10k_initials_gpu1 | zhoblimp_BA_meiba: 1.000</title></rect>
<rect x="708.4" y="72.0" width="14.6" height="378.0" fill="#ccb974"><title>10k_whitespace_false_gpu1 | zhoblimp_BA_meiba: 1.000</title></rect>
<text x="683.5" y="466" transform="rotate(62 683.5 466)" class="label">zhoblimp_BA_meiba</text>
<rect x="752.5" y="72.0" width="14.6" height="378.0" fill="#2f6f9f"><title>10k_chinese_gpu1 | zhoblimp_BA_verb_le_a: 1.000</title></rect>
<rect x="769.1" y="72.0" width="14.6" height="378.0" fill="#c44e52"><title>10k_gpu1 | zhoblimp_BA_verb_le_a: 1.000</title></rect>
<rect x="785.7" y="72.0" width="14.6" height="378.0" fill="#55a868"><title>10k_hanzi_gpu1 | zhoblimp_BA_verb_le_a: 1.000</title></rect>
<rect x="802.3" y="72.0" width="14.6" height="378.0" fill="#8172b3"><title>10k_initials_gpu1 | zhoblimp_BA_verb_le_a: 1.000</title></rect>
<rect x="818.8" y="72.0" width="14.6" height="378.0" fill="#ccb974"><title>10k_whitespace_false_gpu1 | zhoblimp_BA_verb_le_a: 1.000</title></rect>
<text x="794.0" y="466" transform="rotate(62 794.0 466)" class="label">zhoblimp_BA_verb_le_a</text>
<rect x="863.0" y="72.0" width="14.6" height="378.0" fill="#2f6f9f"><title>10k_chinese_gpu1 | zhoblimp_BA_suo_adverbial_b: 1.000</title></rect>
<rect x="879.6" y="72.0" width="14.6" height="378.0" fill="#c44e52"><title>10k_gpu1 | zhoblimp_BA_suo_adverbial_b: 1.000</title></rect>
<rect x="896.1" y="72.0" width="14.6" height="378.0" fill="#55a868"><title>10k_hanzi_gpu1 | zhoblimp_BA_suo_adverbial_b: 1.000</title></rect>
<rect x="912.7" y="72.0" width="14.6" height="378.0" fill="#8172b3"><title>10k_initials_gpu1 | zhoblimp_BA_suo_adverbial_b: 1.000</title></rect>
<rect x="929.3" y="72.0" width="14.6" height="378.0" fill="#ccb974"><title>10k_whitespace_false_gpu1 | zhoblimp_BA_suo_adverbial_b: 1.000</title></rect>
<text x="904.4" y="466" transform="rotate(62 904.4 466)" class="label">zhoblimp_BA_suo_adverbial_b</text>
<rect x="973.5" y="72.0" width="14.6" height="378.0" fill="#2f6f9f"><title>10k_chinese_gpu1 | zhoblimp_principle_A_domain: 1.000</title></rect>
<rect x="990.0" y="72.0" width="14.6" height="378.0" fill="#c44e52"><title>10k_gpu1 | zhoblimp_principle_A_domain: 1.000</title></rect>
<rect x="1006.6" y="72.0" width="14.6" height="378.0" fill="#55a868"><title>10k_hanzi_gpu1 | zhoblimp_principle_A_domain: 1.000</title></rect>
<rect x="1023.2" y="72.0" width="14.6" height="378.0" fill="#8172b3"><title>10k_initials_gpu1 | zhoblimp_principle_A_domain: 1.000</title></rect>
<rect x="1039.7" y="72.0" width="14.6" height="378.0" fill="#ccb974"><title>10k_whitespace_false_gpu1 | zhoblimp_principle_A_domain: 1.000</title></rect>
<text x="1014.9" y="466" transform="rotate(62 1014.9 466)" class="label">zhoblimp_principle_A_domain</text>
<rect x="1083.9" y="72.0" width="14.6" height="378.0" fill="#2f6f9f"><title>10k_chinese_gpu1 | zhoblimp_classifier_noun_subj: 1.000</title></rect>
<rect x="1100.5" y="73.3" width="14.6" height="376.7" fill="#c44e52"><title>10k_gpu1 | zhoblimp_classifier_noun_subj: 0.997</title></rect>
<rect x="1117.1" y="72.0" width="14.6" height="378.0" fill="#55a868"><title>10k_hanzi_gpu1 | zhoblimp_classifier_noun_subj: 1.000</title></rect>
<rect x="1133.6" y="72.0" width="14.6" height="378.0" fill="#8172b3"><title>10k_initials_gpu1 | zhoblimp_classifier_noun_subj: 1.000</title></rect>
<rect x="1150.2" y="72.0" width="14.6" height="378.0" fill="#ccb974"><title>10k_whitespace_false_gpu1 | zhoblimp_classifier_noun_subj: 1.000</title></rect>
<text x="1125.3" y="466" transform="rotate(62 1125.3 466)" class="label">zhoblimp_classifier_noun_subj</text>
<rect x="1194.4" y="72.0" width="14.6" height="378.0" fill="#2f6f9f"><title>10k_chinese_gpu1 | zhoblimp_fci_renhe_ruguo: 1.000</title></rect>
<rect x="1210.9" y="74.5" width="14.6" height="375.5" fill="#c44e52"><title>10k_gpu1 | zhoblimp_fci_renhe_ruguo: 0.993</title></rect>
<rect x="1227.5" y="72.0" width="14.6" height="378.0" fill="#55a868"><title>10k_hanzi_gpu1 | zhoblimp_fci_renhe_ruguo: 1.000</title></rect>
<rect x="1244.1" y="72.0" width="14.6" height="378.0" fill="#8172b3"><title>10k_initials_gpu1 | zhoblimp_fci_renhe_ruguo: 1.000</title></rect>
<rect x="1260.7" y="72.0" width="14.6" height="378.0" fill="#ccb974"><title>10k_whitespace_false_gpu1 | zhoblimp_fci_renhe_ruguo: 1.000</title></rect>
<text x="1235.8" y="466" transform="rotate(62 1235.8 466)" class="label">zhoblimp_fci_renhe_ruguo</text>
<rect x="1304.8" y="72.0" width="14.6" height="378.0" fill="#2f6f9f"><title>10k_chinese_gpu1 | zhoblimp_question_A_not_A: 1.000</title></rect>
<rect x="1321.4" y="73.3" width="14.6" height="376.7" fill="#c44e52"><title>10k_gpu1 | zhoblimp_question_A_not_A: 0.997</title></rect>
<rect x="1338.0" y="73.3" width="14.6" height="376.7" fill="#55a868"><title>10k_hanzi_gpu1 | zhoblimp_question_A_not_A: 0.997</title></rect>
<rect x="1354.5" y="74.5" width="14.6" height="375.5" fill="#8172b3"><title>10k_initials_gpu1 | zhoblimp_question_A_not_A: 0.993</title></rect>
<rect x="1371.1" y="73.3" width="14.6" height="376.7" fill="#ccb974"><title>10k_whitespace_false_gpu1 | zhoblimp_question_A_not_A: 0.997</title></rect>
<text x="1346.3" y="466" transform="rotate(62 1346.3 466)" class="label">zhoblimp_question_A_not_A</text>
<rect x="1415.3" y="74.5" width="14.6" height="375.5" fill="#2f6f9f"><title>10k_chinese_gpu1 | zhoblimp_PN_numP_a: 0.993</title></rect>
<rect x="1431.9" y="77.0" width="14.6" height="373.0" fill="#c44e52"><title>10k_gpu1 | zhoblimp_PN_numP_a: 0.987</title></rect>
<rect x="1448.4" y="72.0" width="14.6" height="378.0" fill="#55a868"><title>10k_hanzi_gpu1 | zhoblimp_PN_numP_a: 1.000</title></rect>
<rect x="1465.0" y="72.0" width="14.6" height="378.0" fill="#8172b3"><title>10k_initials_gpu1 | zhoblimp_PN_numP_a: 1.000</title></rect>
<rect x="1481.6" y="72.0" width="14.6" height="378.0" fill="#ccb974"><title>10k_whitespace_false_gpu1 | zhoblimp_PN_numP_a: 1.000</title></rect>
<text x="1456.7" y="466" transform="rotate(62 1456.7 466)" class="label">zhoblimp_PN_numP_a</text>
<rect x="1525.8" y="72.0" width="14.6" height="378.0" fill="#2f6f9f"><title>10k_chinese_gpu1 | zhoblimp_fci_renhe_suoyou: 1.000</title></rect>
<rect x="1542.3" y="72.0" width="14.6" height="378.0" fill="#c44e52"><title>10k_gpu1 | zhoblimp_fci_renhe_suoyou: 1.000</title></rect>
<rect x="1558.9" y="72.0" width="14.6" height="378.0" fill="#55a868"><title>10k_hanzi_gpu1 | zhoblimp_fci_renhe_suoyou: 1.000</title></rect>
<rect x="1575.5" y="72.0" width="14.6" height="378.0" fill="#8172b3"><title>10k_initials_gpu1 | zhoblimp_fci_renhe_suoyou: 1.000</title></rect>
<rect x="1592.0" y="80.8" width="14.6" height="369.2" fill="#ccb974"><title>10k_whitespace_false_gpu1 | zhoblimp_fci_renhe_suoyou: 0.977</title></rect>
<text x="1567.2" y="466" transform="rotate(62 1567.2 466)" class="label">zhoblimp_fci_renhe_suoyou</text>
<rect x="1636.2" y="97.2" width="14.6" height="352.8" fill="#2f6f9f"><title>10k_chinese_gpu1 | zhoblimp_principle_A_domain_number: 0.933</title></rect>
<rect x="1652.8" y="72.0" width="14.6" height="378.0" fill="#c44e52"><title>10k_gpu1 | zhoblimp_principle_A_domain_number: 1.000</title></rect>
<rect x="1669.3" y="72.0" width="14.6" height="378.0" fill="#55a868"><title>10k_hanzi_gpu1 | zhoblimp_principle_A_domain_number: 1.000</title></rect>
<rect x="1685.9" y="72.0" width="14.6" height="378.0" fill="#8172b3"><title>10k_initials_gpu1 | zhoblimp_principle_A_domain_number: 1.000</title></rect>
<rect x="1702.5" y="78.3" width="14.6" height="371.7" fill="#ccb974"><title>10k_whitespace_false_gpu1 | zhoblimp_principle_A_domain_number: 0.983</title></rect>
<text x="1677.6" y="466" transform="rotate(62 1677.6 466)" class="label">zhoblimp_principle_A_domain_number</text>
<rect x="1746.7" y="74.5" width="14.6" height="375.5" fill="#2f6f9f"><title>10k_chinese_gpu1 | zhoblimp_you_yige: 0.993</title></rect>
<rect x="1763.2" y="72.0" width="14.6" height="378.0" fill="#c44e52"><title>10k_gpu1 | zhoblimp_you_yige: 1.000</title></rect>
<rect x="1779.8" y="72.0" width="14.6" height="378.0" fill="#55a868"><title>10k_hanzi_gpu1 | zhoblimp_you_yige: 1.000</title></rect>
<rect x="1796.4" y="72.0" width="14.6" height="378.0" fill="#8172b3"><title>10k_initials_gpu1 | zhoblimp_you_yige: 1.000</title></rect>
<rect x="1812.9" y="104.8" width="14.6" height="345.2" fill="#ccb974"><title>10k_whitespace_false_gpu1 | zhoblimp_you_yige: 0.913</title></rect>
<text x="1788.1" y="466" transform="rotate(62 1788.1 466)" class="label">zhoblimp_you_yige</text>
<rect x="1857.1" y="72.0" width="14.6" height="378.0" fill="#2f6f9f"><title>10k_chinese_gpu1 | zhoblimp_plural_cardinal_men_b: 1.000</title></rect>
<rect x="1873.7" y="79.6" width="14.6" height="370.4" fill="#c44e52"><title>10k_gpu1 | zhoblimp_plural_cardinal_men_b: 0.980</title></rect>
<rect x="1890.3" y="92.2" width="14.6" height="357.8" fill="#55a868"><title>10k_hanzi_gpu1 | zhoblimp_plural_cardinal_men_b: 0.947</title></rect>
<rect x="1906.8" y="92.2" width="14.6" height="357.8" fill="#8172b3"><title>10k_initials_gpu1 | zhoblimp_plural_cardinal_men_b: 0.947</title></rect>
<rect x="1923.4" y="72.0" width="14.6" height="378.0" fill="#ccb974"><title>10k_whitespace_false_gpu1 | zhoblimp_plural_cardinal_men_b: 1.000</title></rect>
<text x="1898.5" y="466" transform="rotate(62 1898.5 466)" class="label">zhoblimp_plural_cardinal_men_b</text>
<rect x="1967.6" y="79.6" width="14.6" height="370.4" fill="#2f6f9f"><title>10k_chinese_gpu1 | zhoblimp_nominal_definite_men: 0.980</title></rect>
<rect x="1984.1" y="73.3" width="14.6" height="376.7" fill="#c44e52"><title>10k_gpu1 | zhoblimp_nominal_definite_men: 0.997</title></rect>
<rect x="2000.7" y="92.2" width="14.6" height="357.8" fill="#55a868"><title>10k_hanzi_gpu1 | zhoblimp_nominal_definite_men: 0.947</title></rect>
<rect x="2017.3" y="92.2" width="14.6" height="357.8" fill="#8172b3"><title>10k_initials_gpu1 | zhoblimp_nominal_definite_men: 0.947</title></rect>
<rect x="2033.9" y="72.0" width="14.6" height="378.0" fill="#ccb974"><title>10k_whitespace_false_gpu1 | zhoblimp_nominal_definite_men: 1.000</title></rect>
<text x="2009.0" y="466" transform="rotate(62 2009.0 466)" class="label">zhoblimp_nominal_definite_men</text>
<rect x="2078.0" y="73.3" width="14.6" height="376.7" fill="#2f6f9f"><title>10k_chinese_gpu1 | zhoblimp_plural_cardinal_men_a: 0.997</title></rect>
<rect x="2094.6" y="83.3" width="14.6" height="366.7" fill="#c44e52"><title>10k_gpu1 | zhoblimp_plural_cardinal_men_a: 0.970</title></rect>
<rect x="2111.2" y="90.9" width="14.6" height="359.1" fill="#55a868"><title>10k_hanzi_gpu1 | zhoblimp_plural_cardinal_men_a: 0.950</title></rect>
<rect x="2127.7" y="90.9" width="14.6" height="359.1" fill="#8172b3"><title>10k_initials_gpu1 | zhoblimp_plural_cardinal_men_a: 0.950</title></rect>
<rect x="2144.3" y="72.0" width="14.6" height="378.0" fill="#ccb974"><title>10k_whitespace_false_gpu1 | zhoblimp_plural_cardinal_men_a: 1.000</title></rect>
<text x="2119.5" y="466" transform="rotate(62 2119.5 466)" class="label">zhoblimp_plural_cardinal_men_a</text>
<rect x="2188.5" y="85.9" width="14.6" height="364.1" fill="#2f6f9f"><title>10k_chinese_gpu1 | zhoblimp_BA_suo_adverbial_a: 0.963</title></rect>
<rect x="2205.1" y="72.0" width="14.6" height="378.0" fill="#c44e52"><title>10k_gpu1 | zhoblimp_BA_suo_adverbial_a: 1.000</title></rect>
<rect x="2221.6" y="90.9" width="14.6" height="359.1" fill="#55a868"><title>10k_hanzi_gpu1 | zhoblimp_BA_suo_adverbial_a: 0.950</title></rect>
<rect x="2238.2" y="90.9" width="14.6" height="359.1" fill="#8172b3"><title>10k_initials_gpu1 | zhoblimp_BA_suo_adverbial_a: 0.950</title></rect>
<rect x="2254.8" y="72.0" width="14.6" height="378.0" fill="#ccb974"><title>10k_whitespace_false_gpu1 | zhoblimp_BA_suo_adverbial_a: 1.000</title></rect>
<text x="2229.9" y="466" transform="rotate(62 2229.9 466)" class="label">zhoblimp_BA_suo_adverbial_a</text>
<rect x="2298.9" y="92.2" width="14.6" height="357.8" fill="#2f6f9f"><title>10k_chinese_gpu1 | zhoblimp_BA_no_progressive: 0.947</title></rect>
<rect x="2315.5" y="80.8" width="14.6" height="369.2" fill="#c44e52"><title>10k_gpu1 | zhoblimp_BA_no_progressive: 0.977</title></rect>
<rect x="2332.1" y="93.4" width="14.6" height="356.6" fill="#55a868"><title>10k_hanzi_gpu1 | zhoblimp_BA_no_progressive: 0.943</title></rect>
<rect x="2348.7" y="73.3" width="14.6" height="376.7" fill="#8172b3"><title>10k_initials_gpu1 | zhoblimp_BA_no_progressive: 0.997</title></rect>
<rect x="2365.2" y="104.8" width="14.6" height="345.2" fill="#ccb974"><title>10k_whitespace_false_gpu1 | zhoblimp_BA_no_progressive: 0.913</title></rect>
<text x="2340.4" y="466" transform="rotate(62 2340.4 466)" class="label">zhoblimp_BA_no_progressive</text>
<rect x="2409.4" y="94.7" width="14.6" height="355.3" fill="#2f6f9f"><title>10k_chinese_gpu1 | zhoblimp_control_modal_vs_raising_modal: 0.940</title></rect>
<rect x="2426.0" y="98.5" width="14.6" height="351.5" fill="#c44e52"><title>10k_gpu1 | zhoblimp_control_modal_vs_raising_modal: 0.930</title></rect>
<rect x="2442.5" y="72.0" width="14.6" height="378.0" fill="#55a868"><title>10k_hanzi_gpu1 | zhoblimp_control_modal_vs_raising_modal: 1.000</title></rect>
<rect x="2459.1" y="72.0" width="14.6" height="378.0" fill="#8172b3"><title>10k_initials_gpu1 | zhoblimp_control_modal_vs_raising_modal: 1.000</title></rect>
<rect x="2475.7" y="126.2" width="14.6" height="323.8" fill="#ccb974"><title>10k_whitespace_false_gpu1 | zhoblimp_control_modal_vs_raising_modal: 0.857</title></rect>
<text x="2450.8" y="466" transform="rotate(62 2450.8 466)" class="label">zhoblimp_control_modal_vs_raising...</text>
<rect x="2519.9" y="74.5" width="14.6" height="375.5" fill="#2f6f9f"><title>10k_chinese_gpu1 | zhoblimp_relativization_movement_no_gap: 0.993</title></rect>
<rect x="2536.4" y="87.1" width="14.6" height="362.9" fill="#c44e52"><title>10k_gpu1 | zhoblimp_relativization_movement_no_gap: 0.960</title></rect>
<rect x="2553.0" y="72.0" width="14.6" height="378.0" fill="#55a868"><title>10k_hanzi_gpu1 | zhoblimp_relativization_movement_no_gap: 1.000</title></rect>
<rect x="2569.6" y="72.0" width="14.6" height="378.0" fill="#8172b3"><title>10k_initials_gpu1 | zhoblimp_relativization_movement_no_gap: 1.000</title></rect>
<rect x="2586.1" y="170.3" width="14.6" height="279.7" fill="#ccb974"><title>10k_whitespace_false_gpu1 | zhoblimp_relativization_movement_no_gap: 0.740</title></rect>
<text x="2561.3" y="466" transform="rotate(62 2561.3 466)" class="label">zhoblimp_relativization_movement_...</text>
<rect x="2630.3" y="103.5" width="14.6" height="346.5" fill="#2f6f9f"><title>10k_chinese_gpu1 | zhoblimp_BA_no_stative_verb: 0.917</title></rect>
<rect x="2646.9" y="74.5" width="14.6" height="375.5" fill="#c44e52"><title>10k_gpu1 | zhoblimp_BA_no_stative_verb: 0.993</title></rect>
<rect x="2663.5" y="72.0" width="14.6" height="378.0" fill="#55a868"><title>10k_hanzi_gpu1 | zhoblimp_BA_no_stative_verb: 1.000</title></rect>
<rect x="2680.0" y="189.2" width="14.6" height="260.8" fill="#8172b3"><title>10k_initials_gpu1 | zhoblimp_BA_no_stative_verb: 0.690</title></rect>
<rect x="2696.6" y="102.2" width="14.6" height="347.8" fill="#ccb974"><title>10k_whitespace_false_gpu1 | zhoblimp_BA_no_stative_verb: 0.920</title></rect>
<text x="2671.7" y="466" transform="rotate(62 2671.7 466)" class="label">zhoblimp_BA_no_stative_verb</text>
<rect x="2740.8" y="72.0" width="14.6" height="378.0" fill="#2f6f9f"><title>10k_chinese_gpu1 | zhoblimp_question_daodi_negation: 1.000</title></rect>
<rect x="2757.3" y="72.0" width="14.6" height="378.0" fill="#c44e52"><title>10k_gpu1 | zhoblimp_question_daodi_negation: 1.000</title></rect>
<rect x="2773.9" y="224.5" width="14.6" height="225.5" fill="#55a868"><title>10k_hanzi_gpu1 | zhoblimp_question_daodi_negation: 0.597</title></rect>
<rect x="2790.5" y="216.9" width="14.6" height="233.1" fill="#8172b3"><title>10k_initials_gpu1 | zhoblimp_question_daodi_negation: 0.617</title></rect>
<rect x="2807.1" y="75.8" width="14.6" height="374.2" fill="#ccb974"><title>10k_whitespace_false_gpu1 | zhoblimp_question_daodi_negation: 0.990</title></rect>
<text x="2782.2" y="466" transform="rotate(62 2782.2 466)" class="label">zhoblimp_question_daodi_negation</text>
<rect x="2851.2" y="116.1" width="14.6" height="333.9" fill="#2f6f9f"><title>10k_chinese_gpu1 | zhoblimp_classifier_noun_agreement: 0.883</title></rect>
<rect x="2867.8" y="114.8" width="14.6" height="335.2" fill="#c44e52"><title>10k_gpu1 | zhoblimp_classifier_noun_agreement: 0.887</title></rect>
<rect x="2884.4" y="187.9" width="14.6" height="262.1" fill="#55a868"><title>10k_hanzi_gpu1 | zhoblimp_classifier_noun_agreement: 0.693</title></rect>
<rect x="2900.9" y="152.6" width="14.6" height="297.4" fill="#8172b3"><title>10k_initials_gpu1 | zhoblimp_classifier_noun_agreement: 0.787</title></rect>
<rect x="2917.5" y="111.1" width="14.6" height="338.9" fill="#ccb974"><title>10k_whitespace_false_gpu1 | zhoblimp_classifier_noun_agreement: 0.897</title></rect>
<text x="2892.7" y="466" transform="rotate(62 2892.7 466)" class="label">zhoblimp_classifier_noun_agreement</text>
<rect x="2961.7" y="114.8" width="14.6" height="335.2" fill="#2f6f9f"><title>10k_chinese_gpu1 | zhoblimp_noun_phrase_conjunction_jian: 0.887</title></rect>
<rect x="2978.3" y="109.8" width="14.6" height="340.2" fill="#c44e52"><title>10k_gpu1 | zhoblimp_noun_phrase_conjunction_jian: 0.900</title></rect>
<rect x="2994.8" y="284.9" width="14.6" height="165.1" fill="#55a868"><title>10k_hanzi_gpu1 | zhoblimp_noun_phrase_conjunction_jian: 0.437</title></rect>
<rect x="3011.4" y="102.2" width="14.6" height="347.8" fill="#8172b3"><title>10k_initials_gpu1 | zhoblimp_noun_phrase_conjunction_jian: 0.920</title></rect>
<rect x="3028.0" y="93.4" width="14.6" height="356.6" fill="#ccb974"><title>10k_whitespace_false_gpu1 | zhoblimp_noun_phrase_conjunction_jian: 0.943</title></rect>
<text x="3003.1" y="466" transform="rotate(62 3003.1 466)" class="label">zhoblimp_noun_phrase_conjunction_...</text>
<rect x="3072.1" y="117.4" width="14.6" height="332.6" fill="#2f6f9f"><title>10k_chinese_gpu1 | zhoblimp_question_daodi_nandao_1: 0.880</title></rect>
<rect x="3088.7" y="102.2" width="14.6" height="347.8" fill="#c44e52"><title>10k_gpu1 | zhoblimp_question_daodi_nandao_1: 0.920</title></rect>
<rect x="3105.3" y="170.3" width="14.6" height="279.7" fill="#55a868"><title>10k_hanzi_gpu1 | zhoblimp_question_daodi_nandao_1: 0.740</title></rect>
<rect x="3121.9" y="72.0" width="14.6" height="378.0" fill="#8172b3"><title>10k_initials_gpu1 | zhoblimp_question_daodi_nandao_1: 1.000</title></rect>
<rect x="3138.4" y="272.3" width="14.6" height="177.7" fill="#ccb974"><title>10k_whitespace_false_gpu1 | zhoblimp_question_daodi_nandao_1: 0.470</title></rect>
<text x="3113.6" y="466" transform="rotate(62 3113.6 466)" class="label">zhoblimp_question_daodi_nandao_1</text>
<rect x="3182.6" y="78.3" width="14.6" height="371.7" fill="#2f6f9f"><title>10k_chinese_gpu1 | zhoblimp_PN_numP_b: 0.983</title></rect>
<rect x="3199.2" y="72.0" width="14.6" height="378.0" fill="#c44e52"><title>10k_gpu1 | zhoblimp_PN_numP_b: 1.000</title></rect>
<rect x="3215.7" y="219.4" width="14.6" height="230.6" fill="#55a868"><title>10k_hanzi_gpu1 | zhoblimp_PN_numP_b: 0.610</title></rect>
<rect x="3232.3" y="213.1" width="14.6" height="236.9" fill="#8172b3"><title>10k_initials_gpu1 | zhoblimp_PN_numP_b: 0.627</title></rect>
<rect x="3248.9" y="165.2" width="14.6" height="284.8" fill="#ccb974"><title>10k_whitespace_false_gpu1 | zhoblimp_PN_numP_b: 0.753</title></rect>
<text x="3224.0" y="466" transform="rotate(62 3224.0 466)" class="label">zhoblimp_PN_numP_b</text>
<rect x="3293.1" y="73.3" width="14.6" height="376.7" fill="#2f6f9f"><title>10k_chinese_gpu1 | zhoblimp_question_nandao_negation: 0.997</title></rect>
<rect x="3309.6" y="73.3" width="14.6" height="376.7" fill="#c44e52"><title>10k_gpu1 | zhoblimp_question_nandao_negation: 0.997</title></rect>
<rect x="3326.2" y="244.6" width="14.6" height="205.4" fill="#55a868"><title>10k_hanzi_gpu1 | zhoblimp_question_nandao_negation: 0.543</title></rect>
<rect x="3342.8" y="262.3" width="14.6" height="187.7" fill="#8172b3"><title>10k_initials_gpu1 | zhoblimp_question_nandao_negation: 0.497</title></rect>
<rect x="3359.3" y="107.3" width="14.6" height="342.7" fill="#ccb974"><title>10k_whitespace_false_gpu1 | zhoblimp_question_nandao_negation: 0.907</title></rect>
<text x="3334.5" y="466" transform="rotate(62 3334.5 466)" class="label">zhoblimp_question_nandao_negation</text>
<rect x="3403.5" y="73.3" width="14.6" height="376.7" fill="#2f6f9f"><title>10k_chinese_gpu1 | zhoblimp_singular_PN_but_plural_pron: 0.997</title></rect>
<rect x="3420.1" y="135.0" width="14.6" height="315.0" fill="#c44e52"><title>10k_gpu1 | zhoblimp_singular_PN_but_plural_pron: 0.833</title></rect>
<rect x="3436.7" y="72.0" width="14.6" height="378.0" fill="#55a868"><title>10k_hanzi_gpu1 | zhoblimp_singular_PN_but_plural_pron: 1.000</title></rect>
<rect x="3453.2" y="72.0" width="14.6" height="378.0" fill="#8172b3"><title>10k_initials_gpu1 | zhoblimp_singular_PN_but_plural_pron: 1.000</title></rect>
<rect x="3469.8" y="417.2" width="14.6" height="32.8" fill="#ccb974"><title>10k_whitespace_false_gpu1 | zhoblimp_singular_PN_but_plural_pron: 0.087</title></rect>
<text x="3444.9" y="466" transform="rotate(62 3444.9 466)" class="label">zhoblimp_singular_PN_but_plural_p...</text>
<rect x="3514.0" y="123.7" width="14.6" height="326.3" fill="#2f6f9f"><title>10k_chinese_gpu1 | zhoblimp_relative_operator_who: 0.863</title></rect>
<rect x="3530.5" y="93.4" width="14.6" height="356.6" fill="#c44e52"><title>10k_gpu1 | zhoblimp_relative_operator_who: 0.943</title></rect>
<rect x="3547.1" y="72.0" width="14.6" height="378.0" fill="#55a868"><title>10k_hanzi_gpu1 | zhoblimp_relative_operator_who: 1.000</title></rect>
<rect x="3563.7" y="450.0" width="14.6" height="0.0" fill="#8172b3"><title>10k_initials_gpu1 | zhoblimp_relative_operator_who: 0.000</title></rect>
<rect x="3580.3" y="87.1" width="14.6" height="362.9" fill="#ccb974"><title>10k_whitespace_false_gpu1 | zhoblimp_relative_operator_who: 0.960</title></rect>
<text x="3555.4" y="466" transform="rotate(62 3555.4 466)" class="label">zhoblimp_relative_operator_who</text>
<rect x="3624.4" y="72.0" width="14.6" height="378.0" fill="#2f6f9f"><title>10k_chinese_gpu1 | zhoblimp_question_nandao_raising_1_a: 1.000</title></rect>
<rect x="3641.0" y="72.0" width="14.6" height="378.0" fill="#c44e52"><title>10k_gpu1 | zhoblimp_question_nandao_raising_1_a: 1.000</title></rect>
<rect x="3657.6" y="450.0" width="14.6" height="0.0" fill="#55a868"><title>10k_hanzi_gpu1 | zhoblimp_question_nandao_raising_1_a: 0.000</title></rect>
<rect x="3674.1" y="90.9" width="14.6" height="359.1" fill="#8172b3"><title>10k_initials_gpu1 | zhoblimp_question_nandao_raising_1_a: 0.950</title></rect>
<rect x="3690.7" y="153.9" width="14.6" height="296.1" fill="#ccb974"><title>10k_whitespace_false_gpu1 | zhoblimp_question_nandao_raising_1_a: 0.783</title></rect>
<text x="3665.9" y="466" transform="rotate(62 3665.9 466)" class="label">zhoblimp_question_nandao_raising_...</text>
<rect x="3734.9" y="220.7" width="14.6" height="229.3" fill="#2f6f9f"><title>10k_chinese_gpu1 | zhoblimp_question_particle_daodi_choice_intran: 0.607</title></rect>
<rect x="3751.5" y="269.8" width="14.6" height="180.2" fill="#c44e52"><title>10k_gpu1 | zhoblimp_question_particle_daodi_choice_intran: 0.477</title></rect>
<rect x="3768.0" y="72.0" width="14.6" height="378.0" fill="#55a868"><title>10k_hanzi_gpu1 | zhoblimp_question_particle_daodi_choice_intran: 1.000</title></rect>
<rect x="3784.6" y="72.0" width="14.6" height="378.0" fill="#8172b3"><title>10k_initials_gpu1 | zhoblimp_question_particle_daodi_choice_intran: 1.000</title></rect>
<rect x="3801.2" y="245.9" width="14.6" height="204.1" fill="#ccb974"><title>10k_whitespace_false_gpu1 | zhoblimp_question_particle_daodi_choice_intran: 0.540</title></rect>
<text x="3776.3" y="466" transform="rotate(62 3776.3 466)" class="label">zhoblimp_question_particle_daodi_...</text>
<rect x="3845.3" y="123.7" width="14.6" height="326.3" fill="#2f6f9f"><title>10k_chinese_gpu1 | zhoblimp_left_dou: 0.863</title></rect>
<rect x="3861.9" y="88.4" width="14.6" height="361.6" fill="#c44e52"><title>10k_gpu1 | zhoblimp_left_dou: 0.957</title></rect>
<rect x="3878.5" y="284.9" width="14.6" height="165.1" fill="#55a868"><title>10k_hanzi_gpu1 | zhoblimp_left_dou: 0.437</title></rect>
<rect x="3895.1" y="257.2" width="14.6" height="192.8" fill="#8172b3"><title>10k_initials_gpu1 | zhoblimp_left_dou: 0.510</title></rect>
<rect x="3911.6" y="136.3" width="14.6" height="313.7" fill="#ccb974"><title>10k_whitespace_false_gpu1 | zhoblimp_left_dou: 0.830</title></rect>
<text x="3886.8" y="466" transform="rotate(62 3886.8 466)" class="label">zhoblimp_left_dou</text>
<rect x="76" y="580" width="14" height="14" fill="#2f6f9f"/>
<text x="96" y="592" class="legend">10k_chinese_gpu1</text>
<rect x="286" y="580" width="14" height="14" fill="#c44e52"/>
<text x="306" y="592" class="legend">10k_gpu1</text>
<rect x="496" y="580" width="14" height="14" fill="#55a868"/>
<text x="516" y="592" class="legend">10k_hanzi_gpu1</text>
<rect x="706" y="580" width="14" height="14" fill="#8172b3"/>
<text x="726" y="592" class="legend">10k_initials_gpu1</text>
<rect x="916" y="580" width="14" height="14" fill="#ccb974"/>
<text x="936" y="592" class="legend">10k_whitespace_false_gpu1</text>
</svg>
